<?xml version="1.0" encoding="utf-8"?>
<!-- Generator: Adobe Illustrator 25.0.1, SVG Export Plug-In . SVG Version: 6.00 Build 0)  -->
<svg version="1.1" id="Layer_1" xmlns="http://www.w3.org/2000/svg" xmlns:xlink="http://www.w3.org/1999/xlink" x="0px" y="0px"
	 viewBox="0 0 305 101.1" style="enable-background:new 0 0 305 101.1;" xml:space="preserve">
<style type="text/css">
	.st0{fill:#002A42;}
	.st1{fill:#A2AD00;}
</style>
<g>
	<path class="st0" d="M22.4,35c3.4,0,6.1-2.7,6.1-6.1s-2.7-6.1-6.1-6.1c-3.4,0-6.1,2.7-6.1,6.1C16.3,32.2,19.1,35,22.4,35z
		 M22.4,26.4c1.3,0,2.3,1,2.3,2.3s-1,2.3-2.3,2.3s-2.3-1-2.3-2.3S21.1,26.4,22.4,26.4z"/>
	<path class="st0" d="M31,38.4H19.4c-1.8,0-2.8,0.9-2.8,2.6c0,1.2,0.5,2.5,2.8,2.5H31c4.4,0,6.5,1.3,6.5,4v3.4H14.5
		c-7.9,0-11.8,2.7-11.8,8.2v3.4c0,5.4,4,8.2,11.8,8.2h17c8,0,12-2.8,12-8.7V47.6C43.5,41.6,39.3,38.4,31,38.4z M37.4,61.7
		c0,2.6-2.1,3.8-6.3,3.8H14.9c-4.1,0-6.2-1.2-6.2-3.5v-3.1c0-2.3,2.1-3.5,6.2-3.5h22.5C37.4,55.4,37.4,61.7,37.4,61.7z"/>
	<path class="st0" d="M66.2,38.4H62c-9.4,0-14.2,3.2-14.2,9.7v19.9c0,1.7,1,2.7,3.1,2.7s3.1-0.9,3.1-2.7V48c0-2.8,2.6-4.3,7.9-4.3
		h4.4c1.9,0,3-0.9,3-2.6C69.3,39.5,68.1,38.4,66.2,38.4z"/>
	<path class="st0" d="M96.1,38.4H85.2c-9.4,0-14.2,3.2-14.2,9.7v11.8c0,6.3,4.8,9.7,14.2,9.7h19v4.5c0,2.7-2.5,4-7.4,4H86
		c-1.8,0-2.8,0.9-2.8,2.5s1,2.5,2.8,2.5h10.9c8.9,0,13.5-3.1,13.5-9.1V48.2C110.4,41.8,105.5,38.4,96.1,38.4z M104.2,64.7H84.7
		c-5,0-7.5-1.3-7.5-3.9V48.2c0-2.8,2.5-4.3,7.5-4.3h12c5,0,7.5,1.4,7.5,4.3V64.7z"/>
	<path class="st0" d="M139.5,38.4h-10.5c-9.4,0-14.2,3.2-14.2,9.7v12.7c0,6.3,4.8,9.7,14.2,9.7h10.5c9.4,0,14.2-3.2,14.2-9.7V48.2
		C153.8,41.8,149,38.4,139.5,38.4z M147.6,61c0,2.8-2.7,4.4-7.9,4.4h-10.9c-5.2,0-7.9-1.4-7.9-4.4V48.2c0-2.8,2.6-4.4,7.9-4.4h10.9
		c5.3,0,7.9,1.4,7.9,4.4V61z"/>
	<path class="st0" d="M182.8,38.4h-10.5c-9.4,0-14.2,3.2-14.2,9.7v19.9c0,1.8,1,2.7,3.1,2.7c2.1,0,3.1-0.9,3.1-2.7V48.2
		c0-3,2.6-4.4,7.9-4.4H183c5.3,0,7.9,1.4,7.9,4.4v19.9c0,1.8,1,2.7,3.1,2.7c2.1,0,3.1-0.9,3.1-2.7V48.2
		C197,41.8,192.2,38.4,182.8,38.4z"/>
</g>
<g>
	<path class="st1" d="M214.5,38.3c-1.6,0-2.5,0.6-2.5,1.9v28.6c0,0.9,0.4,1.9,2.5,1.9c2.1,0,2.5-1,2.5-1.9V40.3
		C216.9,39,216.2,38.3,214.5,38.3z"/>
	<path class="st1" d="M243.7,44.8h-9.3c-1.6,0-2.3,0.8-2.3,2.1c0,0.9,0.4,2.1,2.3,2.1h9.3c3.5,0,5.3,1,5.3,3.2v2.7h-18.5
		c-6.3,0-9.6,2.2-9.6,6.5v2.7c0,4.4,3.2,6.6,9.6,6.6h13.7c6.5,0,9.7-2.3,9.7-7V52.2C253.8,47.2,250.5,44.8,243.7,44.8z M248.9,63.6
		c0,2.1-1.7,3-5.2,3h-13.1c-3.4,0-5-0.9-5-2.8v-2.5c0-1.8,1.7-2.8,5-2.8h18.1v5.2H248.9z"/>
	<path class="st1" d="M297.6,44.5c-1.4,0-2.1,0.8-2.3,1.6L288,63.9l-7.6-17.7l0,0c-0.5-1.2-1.3-1.7-2.5-1.7c-1.2,0-1.9,0.5-2.5,1.7
		l-7.6,17.7l-7.1-17.9c-0.5-1-1.3-1.6-2.5-1.6c-1.6,0-2.5,0.8-2.5,2.1c0,0.4,0,0.8,0.3,1.3l9.3,21.2c0.5,1,1,1.7,2.5,1.7
		c1.2,0,1.8-0.5,2.5-1.7l7.6-17.6l7.8,17.6c0.5,1.2,1.3,1.7,2.5,1.7c1.3,0,1.9-0.6,2.5-1.7l9.3-21.2c0.3-0.5,0.3-0.8,0.3-1.3
		C300,45.3,299,44.5,297.6,44.5z"/>
</g>
</svg>
