<?xml version="1.0" encoding="utf-8"?>
<!-- Generator: Adobe Illustrator 25.4.1, SVG Export Plug-In . SVG Version: 6.00 Build 0)  -->
<svg version="1.1" id="Layer_4" xmlns="http://www.w3.org/2000/svg" xmlns:xlink="http://www.w3.org/1999/xlink" x="0px" y="0px"
	 viewBox="0 0 1498.74 566.93" style="enable-background:new 0 0 1498.74 566.93;" xml:space="preserve">
<style type="text/css">
	.st0{fill:#FFFFFF;}
</style>
<path class="st0" d="M383.58,141.21l-65.81,122.27l-7.64-17.83l63.68-128.64l-35.24-81.52L246.03,222.3l-124.4-24.2l-19.11-37.36
	L36.29,305.09l94.68,190.63l20.38-47.13l-24.62-49.25l25.05-53.92l41.61,81.94l19.53-46.7l-49.67-98.5l21.65,6.37l42.03,88.73
	l73.87,25.9l-53.92-115.48l31.84,8.49l39.48,91.71l62.41-128.64l10.19,19.11l-61.99,131.19l32.69,77.69l92.55-185.96L383.58,141.21z
	 M105.07,354.76l-19.11-38.21l24.2-54.34l19.53,37.79L105.07,354.76z"/>
<polygon class="st0" points="567.67,308.66 612.63,197.44 634.1,248.96 606.52,248.79 597.94,271.09 643.35,271.09 658.71,308.74 
	685.96,308.74 626.84,170.85 599.75,170.85 541.68,308.66 "/>
<rect x="979.77" y="171.01" class="st0" width="25.1" height="19.82"/>
<rect x="979.85" y="207.49" class="st0" width="25.27" height="101.12"/>
<path class="st0" d="M1108.85,266.96c0,0,1.71-9.17,0.72-20.62s-5.39-22.59-14.09-29.86c-8.12-6.79-20.09-8.92-30.88-8.81
	c-10.4,0.11-20.2,0.68-30.28,7.32c-10.07,6.64-14.42,19.56-14.42,19.56s-3.52,7.52-3.14,25.06c0.39,17.59,6.05,25.89,7.76,29.04
	c1.18,2.18,6.94,10.24,16.79,14.52c10.9,4.73,21.25,5.72,27.19,5.72s17.45-0.17,22.4-0.83s12.72-2.16,12.72-2.16V285.5
	c0,0-4.46,0.66-7.93,1.33s-11.23,1.33-17.34,1.66c-10.56,0.57-23.41-0.03-31.31-8.12c-2.53-2.6-4.23-5.9-4.58-9.54
	c-0.12-1.25-0.17-2.51-0.12-3.76L1108.85,266.96z M1042.35,249.29c0,0-1.1-21.25,21.63-21.8c23.29-0.56,21.08,21.74,21.08,21.74
	L1042.35,249.29z"/>
<polygon class="st0" points="445.06,335.42 536.21,335.42 536.21,351.27 489.15,351.27 489.15,486.82 469.66,486.82 469.66,351.27 
	437.46,351.27 "/>
<rect x="545.24" y="335.58" class="st0" width="19.6" height="18.24"/>
<rect x="545.24" y="375.77" class="st0" width="19.6" height="111.05"/>
<path class="st0" d="M600.51,389.68c0,0,8.37-8.96,22.62-12.65c4.27-1.1,9.28-1.33,14.64-1.27c22.76,0.29,29.94,15.19,29.94,15.19
	s15.74-16.18,38.26-15.19c21.36,0.94,34.57,10.68,36.11,39.01v72.04H722.6c0-1.39-0.06-67.55-0.12-71.18
	c-0.1-5.95-1.39-12.3-5.12-17.11c-2.7-3.48-6.62-5.56-10.98-6.07c-18.59-2.15-31.24,11.26-33.66,14.12l-0.02,80.24l-19.58,0.01
	v-70.52c0,0,1.05-21.95-16.46-23.93c-16.94-1.92-28.31,8.73-33.16,14.23l-0.01,80.22h-19.51V375.77l13.25,0.08
	C597.24,375.84,600.18,390.01,600.51,389.68z"/>
<path class="st0" d="M1002.21,388.49v-51.78h-18.92v150.07h18.78v-79.66c0,0,14.22-15.5,32.72-14.08s21.19,12.66,21.34,26.03
	c0.14,13.37,0,67.57,0,67.57h18.63v-68.56c0,0,3.56-42.81-40.11-41.68C1034.64,376.4,1019,374.97,1002.21,388.49z"/>
<path class="st0" d="M1348.38,376.54h-28.4l-4.18-18.05h-11.67v98.86c0,0-0.77,14.48,6.5,22.24c7.27,7.76,17.34,7.6,37.65,7.27
	v-15.52h-8.67c0,0-4.05,0-6.03-0.25c-1.98-0.25-4.38-0.99-5.53-1.98c-1.16-0.99-3.88-3.8-4.46-6.94s-0.66-3.06-0.74-5.78v-63.99
	h25.55L1348.38,376.54z"/>
<path class="st0" d="M1436.83,398.33v-16.51c0,0-84.88-24.11-81.25,29.89c0,0-2.64,30.39,37.32,29.06c0,0,1.82,0,5.45,0
	s23.78-2.64,24.11,13.87c0.33,16.51-20.97,16.51-27.58,16.35s-24.94-2.15-35.34-6.11v16.51c0,0,16.02,5.61,35.83,5.61
	c19.82,0,45.58-1.32,45.58-34.84s-39.47-29.23-42.77-29.39c-3.3-0.17-25.1,3.63-25.1-14.37c0-18,28.07-15.85,28.07-15.85
	S1415.04,392.22,1436.83,398.33z"/>
<path class="st0" d="M689.5,207.51h25.32v63.69c0,0-0.55,16.84,13.1,16.84c13.65,0,21.8-6.5,26.64-9.69v-70.84h25.21v101.13
	l-19.72,0.01l-3.18-12.69c0,0-14.31,12.77-36.55,12.88c-22.24,0.11-31.27-15.08-30.83-38.75V207.51z"/>
<path class="st0" d="M917.35,402.74c-13.16-0.06-36.99,2.42-36.99-23.78s28.35-28.02,41.94-27.52c13.71,0.5,31.98,2.92,44.21,8.59
	v-17.97c-1.11-0.28-2.9-0.79-3.99-1.05c-3.31-0.81-6.15-1.53-9.5-2.18c-4.78-0.92-10.08-1.68-14.91-2.27
	c-5.64-0.68-11.11-0.92-16.79-1.03c-5.92-0.11-11.85,0.12-17.72,0.92c-5.66,0.77-11.36,1.98-16.67,4.12
	c-5.01,2.02-10.01,4.81-13.97,8.52c-9.68,9.07-11.18,20.1-11.24,31.54c-0.01,1.95,0.06,3.89,0.22,5.84
	c0.31,3.81,1.37,7.68,2.83,11.21c1.85,4.48,4.49,8.41,8.13,11.62c4.84,4.28,10.86,6.99,17.08,8.6c9.32,2.41,19.19,2.07,28.68,1.79
	c0,0,14.2-1.05,23.44,3.42c6.27,3.03,11.01,9.38,10.82,20.36c-0.48,27.96-27,28.53-39.33,28.62c-17.48,0.14-40.51-5.28-46.68-8.37
	v17.89c0,0,23.98,6.39,48,6.33c21.69-0.06,57.91-3.52,56.81-46.02S930.35,402.79,917.35,402.74z"/>
<path class="st0" d="M876.38,275.88c-0.15-3.15-0.3-5.99-1.21-9.08c-2.01-6.81-6.46-12.4-12.8-15.49
	c-7.17-3.5-15.52-4.25-23.42-4.03c-5.96,0.16-12.32,1.41-18.12-0.68c-4.07-1.46-6.27-4.61-6.06-9.03
	c0.66-13.87,27.04-10.57,31-10.24c3.96,0.33,18.87,3.14,25.64,5.94v-20.81c0,0-13.21-5.94-38.81-5.94
	c-14.85,0-26.75,3.63-34.02,11.32c-5.26,5.57-7.79,13.56-7.1,24.02c1.65,24.94,19.43,26.7,33.03,26.92
	c12.88,0.21,25.93-2.48,26.59,9.25c0.64,11.38-12.44,12.11-21.96,11.39c-9.18-0.69-18.5-1.05-33.03-6.67v21.27
	c1.68,0.61,16.33,5.65,38.06,5.83C855.32,310.01,877.7,303.45,876.38,275.88z"/>
<path class="st0" d="M968.15,275.88c-0.15-3.15-0.3-5.99-1.21-9.08c-2.01-6.81-6.46-12.4-12.8-15.49
	c-7.17-3.5-15.52-4.25-23.42-4.03c-5.96,0.16-12.32,1.41-18.12-0.68c-4.07-1.46-6.27-4.61-6.06-9.03
	c0.66-13.87,27.04-10.57,31-10.24c3.96,0.33,18.87,3.14,25.64,5.94v-20.81c0,0-13.21-5.94-38.81-5.94
	c-14.85,0-26.75,3.63-34.02,11.32c-5.26,5.57-7.79,13.56-7.1,24.02c1.65,24.94,19.43,26.7,33.03,26.92
	c12.88,0.21,25.93-2.48,26.59,9.25c0.64,11.38-12.44,12.11-21.96,11.39c-9.18-0.69-18.5-1.05-33.03-6.67v21.27
	c1.68,0.61,16.33,5.65,38.06,5.83C947.09,310.01,969.47,303.45,968.15,275.88z"/>
<path class="st0" d="M846.01,466.91c-3.72,1.04-73.3,19.88-72.5-30.1h77.12c0.78-4.91,1.49-11.93,1.16-16.51
	c-1.17-16.23-3.09-21.59-9.59-30.35c-10.39-13.99-35.66-16.71-53.45-12.67c-7.87,1.79-14.45,4.85-20.41,10.36
	c-11.74,10.86-14.56,27.95-14.35,42.73c0,0-0.84,17.67,6.48,31.98c3.52,6.88,10.65,15.7,23.39,20.31c0,0,23.84,9.72,62.15,0.08
	V466.91z M784.41,396.96c4.37-3.22,10.62-5.38,19.32-5.56c10.98-0.23,18.11,3.25,22.16,7.83c7.36,8.32,7.07,21.34,7.07,21.34
	l-59.45-0.1C773.52,420.47,773.35,405.11,784.41,396.96z"/>
<path class="st0" d="M1178.19,466.91c-3.72,1.04-73.3,19.88-72.5-30.1h77.12c0.78-4.91,1.49-11.93,1.16-16.51
	c-1.17-16.23-3.09-21.59-9.59-30.35c-10.39-13.99-35.66-16.71-53.45-12.67c-7.87,1.79-14.45,4.85-20.41,10.36
	c-11.74,10.86-14.56,27.95-14.35,42.73c0,0-0.84,17.67,6.48,31.98c3.52,6.88,10.65,15.7,23.39,20.31c0,0,23.84,9.72,62.15,0.08
	V466.91z M1116.59,396.96c4.37-3.22,10.62-5.38,19.32-5.56c10.98-0.23,18.11,3.25,22.16,7.83c7.36,8.32,7.07,21.34,7.07,21.34
	l-59.45-0.1C1105.7,420.47,1105.53,405.11,1116.59,396.96z"/>
<path class="st0" d="M1286.94,466.91c-3.72,1.04-73.3,19.88-72.5-30.1h77.12c0.78-4.91,1.49-11.93,1.16-16.51
	c-1.17-16.23-3.09-21.59-9.59-30.35c-10.39-13.99-35.66-16.71-53.45-12.67c-7.87,1.79-14.45,4.85-20.41,10.36
	c-11.74,10.86-14.56,27.95-14.35,42.73c0,0-0.84,17.67,6.48,31.98c3.52,6.88,10.65,15.7,23.39,20.31c0,0,23.84,9.72,62.15,0.08
	V466.91z M1225.35,396.96c4.37-3.22,10.62-5.38,19.32-5.56c10.98-0.23,18.11,3.25,22.16,7.83c7.36,8.32,7.07,21.34,7.07,21.34
	l-59.45-0.1C1214.45,420.47,1214.28,405.11,1225.35,396.96z"/>
<polygon class="st0" points="347.5,505.58 373.71,505.58 361.04,526.21 "/>
<g>
	<path class="st0" d="M1460.67,406.69c-7.18,0-13.1-4.79-13.1-13.1c0-8.25,5.92-13.1,13.1-13.1c7.18,0,13.1,4.85,13.1,13.1
		C1473.77,401.91,1467.85,406.69,1460.67,406.69z M1460.73,404.11c5.67,0,10.39-3.72,10.39-10.52c0-6.93-4.72-10.52-10.39-10.52
		c-5.79,0-10.52,3.59-10.52,10.52C1450.21,400.39,1454.94,404.11,1460.73,404.11z M1457.21,399.83c-0.63,0-0.94-0.31-0.94-0.94
		v-10.83c0-0.57,0.31-0.94,0.94-0.94h4.16c2.65,0,4.66,1.26,4.66,4.03c0,2.33-1.2,3.53-2.96,3.9l2.71,3.65
		c0.44,0.69,0.19,1.13-0.5,1.13h-0.88c-0.5,0-0.88-0.19-1.13-0.57l-2.83-4.03h-1.7v3.65c0,0.63-0.38,0.94-0.95,0.94H1457.21z
		 M1458.72,393.03h2.58c1.45,0,2.27-0.57,2.27-1.89c0-1.26-0.95-1.76-2.27-1.76h-2.58V393.03z"/>
</g>
</svg>
