<?xml version="1.0" encoding="utf-8"?>
<!-- Generator: Adobe Illustrator 26.2.0, SVG Export Plug-In . SVG Version: 6.00 Build 0)  -->
<svg version="1.1" id="Layer_1" xmlns="http://www.w3.org/2000/svg" xmlns:xlink="http://www.w3.org/1999/xlink" x="0px" y="0px"
	 viewBox="0 0 587.5 215.43" style="enable-background:new 0 0 587.5 215.43;" xml:space="preserve">
<style type="text/css">
	.st0{fill:#FFFFFF;}
</style>
<g>
	<path class="st0" d="M181.45,123.05c0,7.95-2.65,16.91-7.45,25.23c-4.8,8.32-11.24,15.09-18.12,19.06l-42.05,24.27l-2.01-1.16
		l-40.04-23.11c-6.88-3.97-13.32-10.74-18.12-19.07c-4.8-8.32-7.45-17.28-7.45-25.23V23.96h135.24V123.05z M43.69,21.43v101.62
		c0,8.39,2.77,17.79,7.79,26.5c5.02,8.7,11.79,15.8,19.05,19.99l40.04,23.11l3.27,1.89l43.31-25c7.26-4.19,14.02-11.29,19.05-19.99
		c5.02-8.7,7.79-18.11,7.79-26.5V21.43H43.69z"/>
	<path class="st0" d="M113.78,100.07v-1.65l-7.22,3.05C109,101.13,111.41,100.66,113.78,100.07"/>
	<path class="st0" d="M110.79,78.19c1.14-1,2.13-2.11,3-3.3v-4.35l-3.28,7.9L110.79,78.19z"/>
	<path class="st0" d="M96.7,108.29c0.01-0.07,0.03-0.14,0.03-0.2c0.78-7.88,2.08-15.11,9.72-20.28l0.89-0.76
		c2.11-1.98,4.28-3.82,6.44-5.61v-3.18c-2.3,2.86-5.41,5.24-8.57,7.42l-1.2,0.92c-6.05,5.03-10.45,10.36-8.52,17.88
		c0.33,1.27,0.18,2.61-0.41,3.81H96.7z"/>
	<path class="st0" d="M113.78,92.24v-2.7l-7.72,6.14C108.71,94.67,111.29,93.52,113.78,92.24"/>
	<path class="st0" d="M50.23,28.48L50.23,28.48L50.23,28.48l0,79.81h0v15.27c0,14.97,10.6,33.34,23.57,40.82l39.99,23.08v0
		l0.02,0.01l0.04,0.02l40.04-23.11c12.96-7.48,23.56-25.85,23.56-40.82V28.48H50.23z M91.67,102.7l-4.1-14.82
		c-0.47-1.68,0.1-3.48,1.49-4.7c4.09-3.61,7.05-8.11,8.63-13.04c0.27-0.86,0.52-1.72,0.71-2.6l2.71-12.59l2.72-12.62
		c3.22,4.07,5.13,8.78,5.69,13.64c0.53,4.54-0.12,9.22-2.01,13.63l-4.27,9.96l-2.3,5.36h0c0,0,0,0,0,0h0
		c3.25-3.62,5.9-7.63,7.89-11.88c0.36-0.77,0.69-1.54,1-2.32c1.48-3.68,2.48-7.52,2.96-11.45l0.03-0.26
		c0.24,0.36,0.44,0.74,0.64,1.12c0.07,0.14,0.13,0.27,0.2,0.41c1.41,3.08,1.49,6.71,0.18,9.87l-3.33,8.03l0.28-0.25
		c3.39-2.97,5.61-6.88,6.31-11.09c0.5,3.95-0.1,5.88-1.46,8.39c-2.25,4.17-6.3,7.34-10.43,10.18l-1.2,0.92
		c-6.05,5.03-10.45,10.36-8.52,17.88c0.34,1.34,0.17,2.76-0.5,4.01l-1.13,2.12l-0.64-2.32h0L91.67,102.7z M92.5,140.45l-2.37,1.09
		l1.73,1.18c1.35,0.91,0.48,3-1.19,2.87l-0.63-0.05c1.12-0.2,1.42-1.63,0.45-2.15l-2.17-1.17l-2.76,0.69
		c-0.78,0.2-0.95,1.19-0.27,1.56l-0.68-0.04c-1.34-0.08-1.6-1.84-0.35-2.38l2.14-0.93l-2.49-1.03c-0.95-0.4-1.84,0.65-1.34,1.51
		l-0.48-0.83c-0.72-1.23,0.72-2.68,2.04-2.05l2.85,1.35l0.02,0.03l-1.02-2.15c-0.38-0.8-1.6-0.75-1.97,0.09l0.1-1.19
		c0.11-1.31,1.92-1.76,2.58-0.63l2.11,3.64c0,0,4.09-2.1,4.87-1.42C94.45,139.13,93.59,139.81,92.5,140.45z M106.85,150.94
		l-0.51,0.46c0.66-1.04-0.35-2.33-1.51-1.94l-2.61,0.86l-1.23,2.88c-0.41,0.76,0.32,1.63,1.14,1.37l-0.54,0.51
		c-1.07,1-2.76-0.08-2.3-1.47l0.57-2.57l-2.73,1.21c-1.05,0.47-0.81,1.94,0.3,2.17l-1.07-0.23c-1.59-0.34-1.76-2.54-0.24-3.12
		l3.27-1.26h0.04l-2.6-0.78c-0.97-0.29-1.82,0.71-1.38,1.62l-0.95-0.95c-1.04-1.05-0.08-2.82,1.37-2.5l4.69,1.01l1.15-3.41
		c0.01-0.01,0.65-1.49,1.51-1.25c0.85,0.23,0.6,2.08,0.59,2.16l-0.82,2.68l2.29-0.51C107.05,147.5,108.2,149.72,106.85,150.94z
		 M112.54,136.11l-4.14-5.09c-0.92,4.33-2.47,12.89-2.47,12.89c0.09,0.19-1.43-2.28-2.76-2.57s-3.33,1.33-3.33,1.33
		s3.26-8.88,2.32-13.45l-0.32-1.57l-1.53,5.26l0,0c-0.13,0.48-0.36,1.24-0.66,1.99c-0.81,2-2.65,3.79-3.62,4.17
		c-0.26-0.16-0.17-1.64-1-2.28c-1.31-1.14-3.38,0.42-3.71,0.26c-0.3-0.14,8.46-7.19,3.78-10.29c-4.68-3.1-12.21-5.44-15.69-0.61
		c-0.44-0.58-0.37-1.36,0.17-1.88l0.28-0.27l-0.62,0.18c-1.54,0.45-1.88,2.31-0.58,3.15c-2.3,0.41-4.1-1.7-3.11-3.64l0.83-1.62
		c-1.32-3.45,3.13-7.31,6.15-7.6c3.56-0.35,10.48,1.47,12.87-2.39c0.76-1.23,1.21-2.6,1.35-4c0.79-7.88,2.08-15.11,9.72-20.29
		l0.89-0.76c10.34-9.67,22.08-16.19,26.6-28.57l2.19-10.34c4.42,9.65,1.99,22.13-9.71,31.36l-20.35,16.19
		c14.46-5.52,26.65-15.1,34.78-27.33l1.68-2.53c1.61,3.35,1.95,8.02-0.45,12.58c-3.83,7.26-11.82,13.06-19.85,16.45l-15.66,6.61
		c14.02-1.94,27.02-8.03,36.99-17.32l0.5-0.47c1.68,5.22-0.38,9.96-4.42,13.53c-2.76,2.44-6.24,4.09-9.97,4.85l-23.89,4.86
		c11.54,1.28,23.28-0.72,33.63-5.73l0.95-0.46c-0.16,3.18-1.5,5.66-3.61,7.56h0c-0.72,0.65-1.52,1.22-2.4,1.74
		c-0.02,0.01-0.05,0.03-0.07,0.04c-0.41,0.24-0.84,0.46-1.28,0.68c-0.08,0.04-0.15,0.07-0.23,0.11c-0.43,0.2-0.87,0.39-1.32,0.57
		c-0.01,0-0.02,0.01-0.03,0.01c-0.7,0.27-1.42,0.5-2.14,0.7c-2.15,0.6-4.38,0.89-6.62,0.9c-0.59,0-1.19-0.01-1.78-0.05l-15.61-1.02
		c2.72,1.24,5.58,2.16,8.52,2.77v0.01c0.59,0.12,1.18,0.23,1.78,0.33c0.25,0.04,0.51,0.08,0.76,0.11c0.63,0.09,1.26,0.17,1.9,0.23
		c0.19,0.02,0.39,0.04,0.58,0.06c0.74,0.06,1.49,0.1,2.23,0.12c0.2,0.01,0.41,0.01,0.61,0.02c0.79,0.01,1.58,0,2.37-0.03
		c0.16-0.01,0.32-0.02,0.48-0.02c0.84-0.04,1.68-0.1,2.52-0.2l3.27-0.36c-1.35,2.84-3.83,4.92-6.74,5.99
		c-3.01,1.11-6.47,1.15-9.63-0.17l-10.91-4.56l5.21,3.26c1.76,1.11,3.63,2.05,5.56,2.82v0c0.01,0.01,0.03,0.01,0.04,0.02
		c0.88,0.35,1.78,0.66,2.69,0.94c0.1,0.03,0.19,0.06,0.29,0.09c0.38,0.11,0.77,0.22,1.16,0.32c0.18,0.05,0.36,0.09,0.54,0.14
		c0.37,0.09,0.74,0.18,1.12,0.26c0.2,0.04,0.39,0.08,0.59,0.12c0.37,0.07,0.75,0.14,1.12,0.21c0.16,0.03,0.32,0.04,0.48,0.07
		c0.69,0.1,1.39,0.18,2.09,0.25c0.25,0.02,0.49,0.05,0.74,0.06c0.32,0.02,0.64,0.04,0.97,0.05c0.28,0.01,0.57,0.02,0.85,0.03
		c0.31,0.01,0.61,0.01,0.92,0.01c0.32,0,0.63-0.01,0.95-0.02c0.28-0.01,0.56-0.02,0.84-0.03c0.45-0.02,0.91-0.06,1.36-0.1
		c0.26-0.02,0.52-0.05,0.78-0.08c0.46-0.05,0.92-0.11,1.38-0.18c0.23-0.03,0.46-0.08,0.69-0.12c0.38-0.07,0.77-0.14,1.15-0.21
		c0.23-0.05,0.46-0.1,0.7-0.15c0.4-0.09,0.8-0.19,1.19-0.29c0.2-0.05,0.4-0.1,0.6-0.16c0.58-0.16,1.15-0.33,1.72-0.52
		c0.01,0,0.03-0.01,0.04-0.01l6.82-2.27l6.81-2.26c-0.22,1.83-0.85,3.54-1.8,5.05c-0.03,0.05-0.07,0.1-0.11,0.15
		c-0.45,0.7-0.96,1.35-1.53,1.96c-0.01,0.02-0.03,0.03-0.05,0.04c-0.61,0.63-1.27,1.21-2,1.73c-0.37,0.26-0.75,0.51-1.15,0.74
		c-0.61,0.36-1.27,0.66-1.94,0.93c-2.35,0.95-5,1.35-7.72,1.01l-7.6-0.95l-13.24-1.65c0,0,0,0,0,0l0,0
		c9.32,4.51,20.18,5.71,30.54,3.38l1.08-0.24l0.63-0.14c-5.16,6.82-15.08,9.1-23.01,5.28l-11.86-5.71c0.36,0.44,0.76,0.85,1.15,1.26
		v0.02c0.04,0.05,0.09,0.09,0.14,0.13c0.28,0.29,0.57,0.56,0.87,0.84c0.23,0.22,0.45,0.43,0.69,0.64c0.3,0.26,0.6,0.51,0.91,0.76
		c0.26,0.21,0.51,0.41,0.78,0.61c0.3,0.23,0.61,0.45,0.93,0.67c0.29,0.2,0.58,0.39,0.88,0.58c0.31,0.2,0.62,0.39,0.94,0.58
		c0.32,0.19,0.65,0.37,0.99,0.54c0.31,0.16,0.61,0.33,0.93,0.48c0.37,0.18,0.75,0.35,1.13,0.51c0.29,0.13,0.58,0.26,0.88,0.38
		c0.45,0.18,0.9,0.34,1.36,0.49c0.25,0.08,0.49,0.18,0.74,0.26c0.71,0.23,1.44,0.43,2.17,0.6l1.26,0.3
		c-0.35,0.16-0.71,0.3-1.07,0.43c-0.11,0.04-0.23,0.07-0.34,0.11c-0.25,0.08-0.49,0.16-0.74,0.23c-0.15,0.04-0.3,0.07-0.44,0.11
		c-0.22,0.05-0.43,0.1-0.65,0.14c-0.17,0.03-0.33,0.06-0.5,0.08c-0.2,0.03-0.39,0.06-0.59,0.08c-0.18,0.02-0.36,0.04-0.55,0.05
		c-0.18,0.01-0.36,0.02-0.54,0.03c-0.2,0.01-0.39,0.01-0.59,0.01c-0.16,0-0.32,0-0.47-0.01c-0.22-0.01-0.43-0.01-0.64-0.03
		c-0.13-0.01-0.25-0.02-0.38-0.04c-0.24-0.02-0.48-0.05-0.72-0.08c-0.07-0.01-0.14-0.02-0.2-0.04c-2.32-0.38-4.52-1.31-6.35-2.74
		c0,0-0.01-0.01-0.01-0.01c-0.27-0.21-0.52-0.43-0.77-0.65C113.34,137.01,112.92,136.58,112.54,136.11z"/>
	<path class="st0" d="M113.78,107.28v-1.99l-8.01,1.63C108.44,107.22,111.11,107.33,113.78,107.28"/>
	<g>
		<path class="st0" d="M241.4,73.75c-0.16,0.88-0.45,1.66-0.86,2.35c-0.41,0.69-0.93,1.27-1.55,1.74c-0.62,0.48-1.33,0.84-2.13,1.08
			c-0.8,0.25-1.66,0.37-2.59,0.37c-1.66,0-3.12-0.41-4.39-1.22c-1.26-0.81-2.25-2.02-2.95-3.61c-0.7-1.6-1.05-3.57-1.05-5.91
			c0-2.28,0.35-4.22,1.04-5.82c0.7-1.6,1.68-2.82,2.94-3.66c1.26-0.84,2.75-1.26,4.45-1.26c0.94,0,1.82,0.13,2.63,0.4
			c0.81,0.27,1.52,0.65,2.14,1.16c0.62,0.5,1.13,1.11,1.53,1.82c0.4,0.71,0.66,1.52,0.79,2.43h7.04c-0.23-1.91-0.74-3.6-1.53-5.08
			c-0.8-1.48-1.83-2.73-3.09-3.75c-1.26-1.02-2.71-1.8-4.35-2.34c-1.63-0.54-3.4-0.8-5.31-0.8c-2.89,0-5.49,0.66-7.81,1.98
			c-2.31,1.32-4.15,3.24-5.49,5.76c-1.35,2.52-2.02,5.57-2.02,9.16c0,3.58,0.67,6.62,2,9.14c1.33,2.52,3.15,4.44,5.46,5.77
			c2.31,1.33,4.93,1.99,7.86,1.99c2.11,0,4-0.32,5.68-0.96c1.68-0.64,3.12-1.5,4.34-2.6c1.22-1.1,2.18-2.35,2.91-3.74
			c0.72-1.4,1.18-2.85,1.36-4.36L241.4,73.75z"/>
		<path class="st0" d="M270.68,61.97c-0.98-0.67-2.1-1.17-3.36-1.49c-1.26-0.32-2.57-0.48-3.94-0.48c-1.97,0-3.7,0.3-5.2,0.89
			c-1.49,0.59-2.71,1.44-3.66,2.54c-0.94,1.1-1.57,2.4-1.9,3.9l6.33,0.51c0.24-0.81,0.72-1.49,1.45-2.03
			c0.73-0.54,1.71-0.81,2.94-0.81c1.17,0,2.07,0.28,2.71,0.84c0.64,0.56,0.96,1.34,0.96,2.36v0.1c0,0.52-0.2,0.92-0.59,1.19
			c-0.4,0.27-1.03,0.47-1.91,0.6c-0.88,0.13-2.03,0.28-3.47,0.43c-1.22,0.12-2.39,0.32-3.49,0.61c-1.11,0.29-2.1,0.72-2.96,1.29
			c-0.87,0.57-1.55,1.32-2.06,2.25c-0.5,0.93-0.76,2.08-0.76,3.45c0,1.63,0.36,2.99,1.07,4.07c0.71,1.09,1.68,1.91,2.92,2.46
			c1.23,0.55,2.63,0.83,4.21,0.83c1.22,0,2.3-0.16,3.23-0.49c0.93-0.33,1.73-0.78,2.39-1.37c0.66-0.58,1.19-1.26,1.59-2.03h0.19
			v3.42h6.49V68.35c0-1.47-0.28-2.73-0.85-3.78C272.43,63.51,271.66,62.65,270.68,61.97z M267.06,76.17c0,0.87-0.22,1.64-0.66,2.33
			c-0.44,0.68-1.04,1.23-1.82,1.63c-0.77,0.4-1.66,0.6-2.67,0.6c-1.05,0-1.91-0.24-2.59-0.73c-0.68-0.49-1.02-1.2-1.02-2.13
			c0-0.64,0.17-1.18,0.5-1.61c0.33-0.43,0.8-0.78,1.4-1.04c0.6-0.26,1.3-0.44,2.1-0.56c0.38-0.05,0.79-0.12,1.25-0.18
			c0.46-0.07,0.92-0.15,1.38-0.24c0.46-0.09,0.88-0.19,1.24-0.3c0.37-0.11,0.66-0.24,0.88-0.38V76.17z"/>
		<rect x="278.86" y="52.09" class="st0" width="6.84" height="32.9"/>
		<path class="st0" d="M295.6,83.88c1.82,1.07,3.97,1.6,6.47,1.6s4.65-0.53,6.47-1.6c1.82-1.07,3.22-2.55,4.2-4.47
			c0.98-1.91,1.48-4.13,1.48-6.66c0-2.55-0.49-4.78-1.48-6.69c-0.99-1.91-2.39-3.4-4.2-4.47c-1.82-1.07-3.97-1.6-6.47-1.6
			s-4.65,0.53-6.47,1.6c-1.82,1.07-3.22,2.55-4.2,4.47c-0.98,1.91-1.48,4.14-1.48,6.69c0,2.53,0.49,4.75,1.48,6.66
			C292.39,81.32,293.79,82.81,295.6,83.88z M297.47,68.86c0.39-1.12,0.97-2.01,1.75-2.67c0.78-0.65,1.74-0.98,2.88-0.98
			c1.13,0,2.08,0.33,2.84,0.98c0.76,0.65,1.34,1.54,1.73,2.67c0.39,1.12,0.59,2.4,0.59,3.84s-0.2,2.72-0.59,3.84
			c-0.39,1.12-0.97,2.01-1.73,2.66c-0.76,0.65-1.71,0.97-2.84,0.97c-1.15,0-2.11-0.32-2.88-0.97c-0.78-0.65-1.36-1.53-1.75-2.66
			c-0.39-1.12-0.59-2.4-0.59-3.84S297.08,69.99,297.47,68.86z"/>
		<path class="st0" d="M334.08,80.51h0.26v4.48h6.57V60.32h-6.84v14.17c0.01,1.1-0.21,2.03-0.65,2.78c-0.45,0.75-1.03,1.32-1.74,1.7
			c-0.72,0.38-1.49,0.57-2.31,0.57c-1.3,0-2.33-0.42-3.1-1.27c-0.77-0.85-1.16-2-1.17-3.45V60.32h-6.84v15.71
			c0.01,1.93,0.37,3.58,1.07,4.96c0.7,1.38,1.68,2.45,2.93,3.2c1.25,0.75,2.7,1.12,4.35,1.12c1.85,0,3.42-0.44,4.72-1.32
			C332.6,83.12,333.53,81.96,334.08,80.51z"/>
		<path class="st0" d="M364.81,61.12c-1.27-0.75-2.77-1.12-4.48-1.12c-1.83,0-3.39,0.42-4.68,1.26s-2.2,1.98-2.75,3.41h-0.29v-4.35
			h-6.52v24.68h6.84V70.73c0.01-1.06,0.21-1.97,0.6-2.72c0.39-0.76,0.94-1.33,1.64-1.73c0.7-0.4,1.51-0.59,2.43-0.59
			c1.37,0,2.45,0.43,3.23,1.28c0.78,0.85,1.17,2.03,1.16,3.54v14.49h6.84V69.28c0-1.92-0.35-3.57-1.06-4.96
			C367.08,62.94,366.09,61.87,364.81,61.12z"/>
		<path class="st0" d="M386.33,84.74c0.93-0.44,1.68-0.99,2.26-1.66c0.58-0.67,1.04-1.35,1.36-2.03h0.29v3.95h6.75v-32.9h-6.83
			v12.37h-0.21c-0.3-0.66-0.74-1.34-1.31-2.03c-0.57-0.69-1.32-1.27-2.25-1.73c-0.93-0.47-2.08-0.7-3.46-0.7
			c-1.81,0-3.47,0.47-4.99,1.41c-1.52,0.94-2.73,2.35-3.64,4.23c-0.91,1.88-1.37,4.23-1.37,7.06c0,2.75,0.44,5.07,1.33,6.96
			c0.88,1.89,2.08,3.32,3.6,4.29c1.52,0.97,3.21,1.45,5.08,1.45C384.27,85.39,385.4,85.17,386.33,84.74z M380.53,76.45
			c-0.4-1.1-0.6-2.36-0.6-3.8c0-1.42,0.2-2.68,0.59-3.76c0.4-1.08,0.98-1.93,1.75-2.54c0.77-0.61,1.72-0.92,2.84-0.92
			c1.1,0,2.04,0.29,2.81,0.88c0.77,0.59,1.36,1.42,1.77,2.51c0.41,1.08,0.61,2.36,0.61,3.82c0,1.47-0.21,2.75-0.62,3.84
			c-0.41,1.09-1,1.94-1.77,2.55c-0.77,0.61-1.7,0.91-2.8,0.91c-1.13,0-2.07-0.31-2.84-0.92C381.51,78.41,380.93,77.55,380.53,76.45z
			"/>
		<path class="st0" d="M411.43,66.56c0.79-0.43,1.68-0.65,2.69-0.65c0.47,0,0.99,0.04,1.56,0.11c0.57,0.08,1.01,0.16,1.33,0.26V60.2
			c-0.3-0.08-0.65-0.13-1.04-0.18c-0.4-0.04-0.77-0.06-1.11-0.06c-1.38,0-2.6,0.39-3.66,1.18c-1.06,0.79-1.82,1.95-2.27,3.48h-0.26
			v-4.31h-6.64v24.68h6.84V71.03c0-1.01,0.23-1.9,0.68-2.67C410.02,67.59,410.64,66.99,411.43,66.56z"/>
		<path class="st0" d="M441.14,84.99V68.35c0-1.47-0.28-2.73-0.85-3.78c-0.57-1.05-1.34-1.92-2.32-2.59
			c-0.98-0.67-2.1-1.17-3.36-1.49c-1.26-0.32-2.57-0.48-3.94-0.48c-1.97,0-3.7,0.3-5.2,0.89c-1.49,0.59-2.71,1.44-3.66,2.54
			c-0.94,1.1-1.57,2.4-1.9,3.9l6.33,0.51c0.24-0.81,0.72-1.49,1.45-2.03c0.73-0.54,1.71-0.81,2.94-0.81c1.17,0,2.07,0.28,2.71,0.84
			c0.64,0.56,0.96,1.34,0.96,2.36v0.1c0,0.52-0.2,0.92-0.59,1.19c-0.4,0.27-1.03,0.47-1.91,0.6c-0.88,0.13-2.03,0.28-3.47,0.43
			c-1.22,0.12-2.39,0.32-3.49,0.61c-1.11,0.29-2.1,0.72-2.96,1.29c-0.87,0.57-1.55,1.32-2.06,2.25c-0.5,0.93-0.76,2.08-0.76,3.45
			c0,1.63,0.36,2.99,1.07,4.07c0.71,1.09,1.68,1.91,2.92,2.46c1.23,0.55,2.63,0.83,4.21,0.83c1.22,0,2.3-0.16,3.23-0.49
			c0.93-0.33,1.73-0.78,2.39-1.37s1.2-1.26,1.59-2.03h0.19v3.42H441.14z M434.34,76.17c0,0.87-0.22,1.64-0.66,2.33
			c-0.44,0.68-1.04,1.23-1.82,1.63c-0.77,0.4-1.66,0.6-2.67,0.6c-1.05,0-1.91-0.24-2.59-0.73c-0.68-0.49-1.02-1.2-1.02-2.13
			c0-0.64,0.17-1.18,0.5-1.61c0.33-0.43,0.8-0.78,1.4-1.04c0.6-0.26,1.3-0.44,2.1-0.56c0.38-0.05,0.79-0.12,1.25-0.18
			c0.46-0.07,0.92-0.15,1.38-0.24c0.46-0.09,0.88-0.19,1.24-0.3c0.37-0.11,0.66-0.24,0.88-0.38V76.17z"/>
		<path class="st0" d="M477.5,84.49c1.68-0.64,3.12-1.5,4.34-2.6c1.22-1.1,2.18-2.35,2.91-3.74c0.72-1.4,1.18-2.85,1.36-4.36
			l-7.04-0.03c-0.16,0.88-0.45,1.66-0.86,2.35c-0.41,0.69-0.93,1.27-1.55,1.74c-0.62,0.48-1.33,0.84-2.13,1.08
			c-0.8,0.25-1.66,0.37-2.59,0.37c-1.66,0-3.12-0.41-4.39-1.22c-1.26-0.81-2.25-2.02-2.95-3.61c-0.7-1.6-1.05-3.57-1.05-5.91
			c0-2.28,0.35-4.22,1.04-5.82c0.7-1.6,1.68-2.82,2.94-3.66c1.26-0.84,2.75-1.26,4.45-1.26c0.94,0,1.82,0.13,2.63,0.4
			s1.52,0.65,2.14,1.16c0.62,0.5,1.13,1.11,1.53,1.82c0.4,0.71,0.66,1.52,0.79,2.43h7.04c-0.23-1.91-0.74-3.6-1.53-5.08
			c-0.8-1.48-1.83-2.73-3.09-3.75c-1.26-1.02-2.71-1.8-4.35-2.34s-3.4-0.8-5.31-0.8c-2.89,0-5.49,0.66-7.81,1.98
			c-2.31,1.32-4.15,3.24-5.49,5.76c-1.35,2.52-2.02,5.57-2.02,9.16c0,3.58,0.67,6.62,2,9.14c1.33,2.52,3.15,4.44,5.46,5.77
			c2.31,1.33,4.93,1.99,7.86,1.99C473.93,85.44,475.83,85.12,477.5,84.49z"/>
		<path class="st0" d="M493.97,57.14c1.02,0,1.89-0.34,2.61-1.02c0.72-0.68,1.08-1.5,1.08-2.45s-0.36-1.77-1.08-2.44
			c-0.72-0.67-1.6-1.01-2.63-1.01c-1.01,0-1.87,0.34-2.6,1.02s-1.09,1.5-1.09,2.45c0,0.95,0.36,1.77,1.09,2.44
			S492.95,57.14,493.97,57.14z"/>
		<rect x="490.52" y="60.32" class="st0" width="6.84" height="24.68"/>
		<path class="st0" d="M504,78.31c-0.01,1.62,0.33,2.96,1.01,4.02c0.69,1.06,1.65,1.84,2.88,2.35c1.24,0.5,2.68,0.72,4.33,0.66
			c0.89-0.03,1.64-0.12,2.27-0.27c0.62-0.14,1.1-0.27,1.45-0.38l-1.08-5.09c-0.17,0.03-0.42,0.08-0.74,0.14
			c-0.32,0.06-0.64,0.09-0.96,0.09c-0.46,0-0.86-0.07-1.21-0.21c-0.35-0.14-0.62-0.38-0.81-0.73c-0.19-0.35-0.29-0.84-0.29-1.47
			V65.46h4.64v-5.14h-4.64V54.4H504v5.91h-3.37v5.14H504V78.31z"/>
		<path class="st0" d="M535.77,60.32l-5.16,18.12h-0.26l-5.11-18.12h-7.2l8.85,25.38l-0.4,1.04c-0.48,1.11-1.14,1.76-1.97,1.94
			c-0.83,0.18-1.85,0.08-3.06-0.3l-1.54,5.13c0.49,0.19,1.12,0.36,1.87,0.49c0.76,0.13,1.57,0.2,2.43,0.2
			c1.69,0,3.14-0.27,4.34-0.81c1.2-0.54,2.19-1.3,2.98-2.28c0.79-0.98,1.41-2.13,1.87-3.45l9.59-27.31L535.77,60.32z"/>
		<path class="st0" d="M238.76,102.86c-1.76-0.95-3.88-1.42-6.38-1.42H219.4v32.9h6.96v-10.67h5.85c2.53,0,4.68-0.47,6.47-1.4
			c1.78-0.93,3.15-2.23,4.09-3.9c0.94-1.67,1.41-3.6,1.41-5.78s-0.46-4.12-1.39-5.79C241.86,105.13,240.52,103.81,238.76,102.86z
			 M236.36,115.46c-0.43,0.83-1.09,1.48-1.96,1.94c-0.87,0.47-1.98,0.7-3.32,0.7h-4.72v-10.97h4.69c1.35,0,2.46,0.23,3.34,0.68
			c0.88,0.46,1.53,1.09,1.97,1.91c0.43,0.82,0.65,1.78,0.65,2.87C237.01,113.67,236.79,114.63,236.36,115.46z"/>
		<path class="st0" d="M260.58,109.32c-1.38,0-2.6,0.39-3.66,1.18c-1.06,0.79-1.82,1.95-2.27,3.48h-0.26v-4.31h-6.64v24.68h6.84
			v-13.96c0-1.01,0.23-1.9,0.68-2.67c0.46-0.77,1.08-1.37,1.86-1.81c0.79-0.43,1.68-0.65,2.69-0.65c0.47,0,0.99,0.04,1.56,0.11
			c0.57,0.08,1.01,0.16,1.33,0.26v-6.07c-0.3-0.08-0.65-0.13-1.04-0.18C261.29,109.34,260.92,109.32,260.58,109.32z"/>
		<path class="st0" d="M269.43,99.56c-1.01,0-1.87,0.34-2.6,1.02c-0.73,0.68-1.09,1.5-1.09,2.45c0,0.95,0.36,1.77,1.09,2.44
			s1.6,1.01,2.62,1.01c1.02,0,1.89-0.34,2.61-1.02c0.72-0.68,1.08-1.5,1.08-2.45s-0.36-1.77-1.08-2.44
			C271.33,99.9,270.46,99.56,269.43,99.56z"/>
		<rect x="265.99" y="109.67" class="st0" width="6.84" height="24.68"/>
		<polygon class="st0" points="288.41,127.32 288.15,127.32 283.03,109.67 275.8,109.67 284.43,134.35 292.14,134.35 300.76,109.67 
			293.52,109.67 		"/>
		<path class="st0" d="M320.84,111.32c-0.98-0.67-2.1-1.17-3.36-1.49c-1.26-0.32-2.57-0.48-3.94-0.48c-1.97,0-3.7,0.3-5.2,0.89
			c-1.49,0.59-2.71,1.44-3.66,2.54c-0.94,1.1-1.57,2.4-1.9,3.9l6.33,0.51c0.24-0.81,0.72-1.49,1.45-2.03
			c0.73-0.54,1.71-0.81,2.94-0.81c1.17,0,2.07,0.28,2.71,0.84c0.64,0.56,0.96,1.34,0.96,2.36v0.1c0,0.52-0.2,0.92-0.59,1.19
			c-0.4,0.27-1.03,0.47-1.91,0.6c-0.88,0.13-2.03,0.28-3.47,0.43c-1.22,0.12-2.39,0.32-3.49,0.61c-1.11,0.29-2.1,0.72-2.96,1.29
			c-0.87,0.57-1.55,1.32-2.06,2.25c-0.5,0.93-0.76,2.08-0.76,3.45c0,1.63,0.36,2.99,1.07,4.07c0.71,1.09,1.68,1.91,2.92,2.46
			c1.23,0.55,2.63,0.83,4.21,0.83c1.22,0,2.3-0.16,3.23-0.49c0.93-0.33,1.73-0.78,2.39-1.37c0.66-0.58,1.19-1.26,1.59-2.03h0.19
			v3.42h6.49V117.7c0-1.47-0.28-2.73-0.85-3.78C322.6,112.86,321.82,112,320.84,111.32z M317.22,125.53c0,0.87-0.22,1.64-0.66,2.33
			c-0.44,0.68-1.04,1.23-1.82,1.63c-0.77,0.4-1.66,0.6-2.67,0.6c-1.05,0-1.91-0.24-2.59-0.73c-0.68-0.49-1.02-1.2-1.02-2.13
			c0-0.64,0.17-1.18,0.5-1.61c0.33-0.43,0.8-0.78,1.4-1.04c0.6-0.26,1.3-0.45,2.1-0.56c0.38-0.05,0.79-0.12,1.25-0.18
			c0.46-0.07,0.92-0.15,1.38-0.24c0.46-0.09,0.88-0.19,1.24-0.3c0.37-0.11,0.66-0.24,0.88-0.38V125.53z"/>
		<path class="st0" d="M340.16,129.08c-0.32,0.06-0.64,0.09-0.96,0.09c-0.46,0-0.86-0.07-1.21-0.21c-0.35-0.14-0.62-0.38-0.81-0.73
			c-0.19-0.35-0.29-0.84-0.29-1.47v-11.95h4.64v-5.14h-4.64v-5.91h-6.84v5.91h-3.37v5.14h3.37v12.85c-0.01,1.62,0.33,2.96,1.01,4.02
			c0.69,1.06,1.65,1.84,2.88,2.35s2.68,0.72,4.33,0.66c0.89-0.03,1.64-0.12,2.27-0.27c0.62-0.14,1.1-0.27,1.45-0.38l-1.08-5.09
			C340.73,128.98,340.48,129.03,340.16,129.08z"/>
		<path class="st0" d="M363.62,112.46c-1.05-1.04-2.29-1.82-3.69-2.34s-2.93-0.78-4.55-0.78c-2.42,0-4.53,0.54-6.32,1.61
			c-1.79,1.07-3.18,2.57-4.17,4.48c-0.99,1.92-1.48,4.15-1.48,6.68c0,2.6,0.49,4.85,1.48,6.76c0.98,1.9,2.39,3.37,4.22,4.4
			c1.83,1.03,4.01,1.55,6.55,1.55c2.03,0,3.83-0.31,5.39-0.94c1.56-0.63,2.83-1.5,3.82-2.63c0.99-1.13,1.65-2.46,1.97-3.98
			l-6.33-0.42c-0.24,0.62-0.58,1.15-1.03,1.57c-0.45,0.43-0.99,0.75-1.62,0.96c-0.63,0.21-1.33,0.32-2.09,0.32
			c-1.15,0-2.14-0.24-2.97-0.72c-0.83-0.48-1.48-1.17-1.94-2.06s-0.68-1.94-0.68-3.16v-0.02h16.8v-1.88c0-2.1-0.29-3.93-0.88-5.5
			C365.5,114.81,364.67,113.5,363.62,112.46z M350.18,119.52c0.04-0.89,0.26-1.7,0.68-2.43c0.45-0.8,1.07-1.43,1.87-1.91
			c0.8-0.48,1.72-0.71,2.75-0.71c1,0,1.87,0.22,2.63,0.65c0.76,0.43,1.35,1.03,1.78,1.79c0.43,0.76,0.64,1.63,0.64,2.62H350.18z"/>
		<path class="st0" d="M404.22,118.54c-0.88-0.78-1.92-1.44-3.12-1.98c-1.2-0.54-2.52-0.96-3.95-1.28l-2.96-0.71
			c-0.72-0.16-1.39-0.36-2.02-0.59c-0.63-0.23-1.19-0.5-1.67-0.82c-0.48-0.32-0.86-0.69-1.13-1.13c-0.27-0.44-0.4-0.95-0.38-1.54
			c0-0.71,0.21-1.34,0.62-1.9c0.41-0.56,1.01-0.99,1.79-1.31s1.74-0.47,2.88-0.47c1.67,0,2.99,0.36,3.97,1.08
			c0.98,0.72,1.53,1.72,1.66,3.02h6.67c-0.03-1.96-0.56-3.68-1.57-5.17c-1.02-1.49-2.44-2.65-4.27-3.49
			c-1.83-0.84-3.96-1.25-6.4-1.25c-2.4,0-4.54,0.42-6.43,1.25c-1.89,0.84-3.37,2-4.44,3.49c-1.08,1.49-1.61,3.23-1.6,5.22
			c-0.01,2.43,0.79,4.36,2.39,5.8c1.61,1.44,3.8,2.49,6.57,3.16l3.58,0.9c1.2,0.29,2.21,0.61,3.04,0.96
			c0.83,0.35,1.46,0.78,1.9,1.28c0.43,0.5,0.65,1.12,0.65,1.86c0,0.79-0.24,1.49-0.72,2.1s-1.16,1.09-2.03,1.43
			c-0.87,0.34-1.9,0.51-3.08,0.51c-1.2,0-2.27-0.18-3.22-0.55c-0.95-0.37-1.7-0.92-2.27-1.65c-0.56-0.73-0.88-1.65-0.96-2.76h-6.73
			c0.05,2.37,0.63,4.35,1.73,5.95c1.1,1.6,2.63,2.81,4.59,3.62c1.97,0.81,4.28,1.22,6.93,1.22c2.68,0,4.97-0.4,6.87-1.21
			c1.9-0.81,3.36-1.95,4.37-3.42c1.01-1.47,1.52-3.22,1.53-5.23c-0.01-1.37-0.26-2.59-0.75-3.65
			C405.79,120.24,405.1,119.32,404.22,118.54z"/>
		<path class="st0" d="M419.66,115.54c0.79-0.57,1.71-0.86,2.77-0.86c1.25,0,2.27,0.38,3.04,1.13c0.78,0.76,1.26,1.75,1.44,2.98
			h6.46c-0.1-1.91-0.62-3.57-1.56-4.98c-0.94-1.41-2.22-2.51-3.84-3.29c-1.62-0.78-3.5-1.17-5.65-1.17c-2.5,0-4.65,0.54-6.46,1.61
			c-1.81,1.08-3.21,2.57-4.18,4.48c-0.98,1.91-1.47,4.13-1.47,6.66c0,2.49,0.48,4.7,1.45,6.62c0.97,1.92,2.36,3.41,4.18,4.49
			c1.82,1.08,3.99,1.61,6.51,1.61c2.2,0,4.1-0.4,5.7-1.2c1.61-0.8,2.87-1.92,3.78-3.35c0.92-1.43,1.43-3.09,1.53-4.97h-6.46
			c-0.13,0.87-0.4,1.61-0.81,2.23c-0.41,0.62-0.93,1.08-1.56,1.41s-1.33,0.48-2.11,0.48c-1.06,0-1.99-0.29-2.78-0.87
			c-0.79-0.58-1.41-1.42-1.84-2.52c-0.43-1.1-0.65-2.44-0.65-4.02c0-1.55,0.22-2.88,0.66-3.97
			C418.26,116.95,418.88,116.11,419.66,115.54z"/>
		<path class="st0" d="M456.27,110.46c-1.28-0.74-2.78-1.12-4.49-1.12c-1.87,0-3.43,0.42-4.67,1.25c-1.24,0.83-2.14,1.97-2.7,3.43
			h-0.29v-12.58h-6.65v32.9h6.84v-14.27c0.01-1.06,0.22-1.97,0.62-2.72s0.96-1.33,1.67-1.73c0.71-0.4,1.53-0.59,2.47-0.59
			c1.39,0,2.48,0.42,3.25,1.27c0.78,0.85,1.16,2.03,1.15,3.55v14.49h6.84v-15.71c0.01-1.93-0.34-3.59-1.05-4.97
			C458.54,112.27,457.55,111.21,456.27,110.46z"/>
		<path class="st0" d="M482.95,110.95c-1.82-1.07-3.97-1.6-6.47-1.6c-2.5,0-4.65,0.53-6.47,1.6c-1.82,1.07-3.22,2.55-4.2,4.47
			c-0.99,1.91-1.48,4.14-1.48,6.69c0,2.53,0.49,4.75,1.48,6.66c0.99,1.91,2.39,3.4,4.2,4.47c1.82,1.07,3.97,1.6,6.47,1.6
			c2.49,0,4.65-0.53,6.47-1.6c1.82-1.07,3.22-2.55,4.2-4.47c0.98-1.91,1.48-4.13,1.48-6.66c0-2.55-0.49-4.78-1.48-6.69
			C486.17,113.5,484.77,112.01,482.95,110.95z M481.09,125.89c-0.39,1.12-0.97,2.01-1.73,2.66c-0.76,0.65-1.71,0.97-2.84,0.97
			c-1.15,0-2.11-0.32-2.88-0.97c-0.78-0.65-1.36-1.53-1.75-2.66c-0.39-1.13-0.59-2.4-0.59-3.84s0.2-2.72,0.59-3.84
			c0.39-1.12,0.97-2.01,1.75-2.67c0.78-0.65,1.74-0.98,2.88-0.98c1.14,0,2.08,0.33,2.84,0.98c0.76,0.65,1.34,1.54,1.73,2.67
			c0.39,1.12,0.59,2.4,0.59,3.84S481.48,124.77,481.09,125.89z"/>
		<path class="st0" d="M510.38,110.95c-1.82-1.07-3.97-1.6-6.47-1.6c-2.49,0-4.65,0.53-6.47,1.6c-1.82,1.07-3.22,2.55-4.2,4.47
			c-0.98,1.91-1.48,4.14-1.48,6.69c0,2.53,0.49,4.75,1.48,6.66c0.99,1.91,2.39,3.4,4.2,4.47c1.82,1.07,3.97,1.6,6.47,1.6
			c2.5,0,4.65-0.53,6.47-1.6c1.82-1.07,3.22-2.55,4.2-4.47c0.98-1.91,1.48-4.13,1.48-6.66c0-2.55-0.49-4.78-1.48-6.69
			C513.6,113.5,512.2,112.01,510.38,110.95z M508.52,125.89c-0.39,1.12-0.97,2.01-1.73,2.66c-0.76,0.65-1.71,0.97-2.84,0.97
			c-1.15,0-2.11-0.32-2.88-0.97c-0.78-0.65-1.36-1.53-1.75-2.66c-0.39-1.13-0.59-2.4-0.59-3.84s0.2-2.72,0.59-3.84
			c0.39-1.12,0.97-2.01,1.75-2.67c0.78-0.65,1.74-0.98,2.88-0.98c1.14,0,2.08,0.33,2.84,0.98s1.34,1.54,1.73,2.67
			c0.39,1.12,0.59,2.4,0.59,3.84S508.91,124.77,508.52,125.89z"/>
		<rect x="520.29" y="101.44" class="st0" width="6.84" height="32.9"/>
	</g>
</g>
</svg>
