<?xml version="1.0" encoding="utf-8"?>
<!-- Generator: Adobe Illustrator 25.4.1, SVG Export Plug-In . SVG Version: 6.00 Build 0)  -->
<svg version="1.1" id="Layer_1" xmlns="http://www.w3.org/2000/svg" xmlns:xlink="http://www.w3.org/1999/xlink" x="0px" y="0px"
	 viewBox="0 0 1828 618" style="enable-background:new 0 0 1828 618;" xml:space="preserve">
<style type="text/css">
	.st0{fill:#1B4E5C;}
</style>
<g>
	<path class="st0" d="M308.01,292.18c1.11,0,2.11,0.45,3.02,1.35l7.9,8.63c-6.1,7.07-13.5,12.58-22.2,16.54
		c-8.7,3.95-19.19,5.93-31.46,5.93c-10.75,0-20.49-1.85-29.22-5.56c-8.74-3.71-16.19-8.91-22.36-15.6
		c-6.17-6.69-10.96-14.72-14.35-24.08c-3.4-9.36-5.1-19.66-5.1-30.89s1.82-21.53,5.46-30.89c3.64-9.36,8.75-17.4,15.34-24.13
		c6.59-6.72,14.47-11.94,23.66-15.65c9.19-3.71,19.33-5.56,30.42-5.56c10.95,0,20.4,1.7,28.34,5.1c7.94,3.4,14.99,8.01,21.16,13.83
		l-6.55,9.26c-0.49,0.69-1.04,1.27-1.66,1.72c-0.62,0.45-1.53,0.68-2.7,0.68c-0.9,0-1.86-0.33-2.86-0.99
		c-1.01-0.66-2.2-1.47-3.59-2.44c-1.39-0.97-3.02-2.01-4.89-3.12c-1.87-1.11-4.09-2.15-6.66-3.12c-2.57-0.97-5.55-1.78-8.94-2.44
		c-3.4-0.66-7.32-0.99-11.75-0.99c-7.97,0-15.27,1.37-21.89,4.11c-6.62,2.74-12.32,6.64-17.11,11.7
		c-4.78,5.06-8.51,11.23-11.18,18.51c-2.67,7.28-4,15.43-4,24.44c0,9.29,1.33,17.58,4,24.86c2.67,7.28,6.31,13.43,10.92,18.46
		c4.61,5.03,10.07,8.86,16.38,11.49c6.31,2.64,13.1,3.95,20.38,3.95c4.44,0,8.42-0.26,11.96-0.78s6.81-1.33,9.83-2.44
		c3.02-1.11,5.82-2.51,8.42-4.21c2.6-1.7,5.22-3.73,7.85-6.08C305.75,292.7,306.9,292.18,308.01,292.18z"/>
	<path class="st0" d="M483.27,248.5c0,11.16-1.77,21.41-5.3,30.73c-3.54,9.33-8.53,17.35-14.98,24.08
		c-6.45,6.73-14.2,11.94-23.24,15.65c-9.05,3.71-19.05,5.56-30,5.56c-10.96,0-20.94-1.85-29.95-5.56
		c-9.01-3.71-16.74-8.93-23.19-15.65c-6.45-6.72-11.44-14.75-14.98-24.08c-3.54-9.32-5.3-19.57-5.3-30.73
		c0-11.16,1.77-21.41,5.3-30.73c3.54-9.32,8.53-17.37,14.98-24.13c6.45-6.76,14.18-12.01,23.19-15.76c9.01-3.74,19-5.62,29.95-5.62
		c10.95,0,20.96,1.87,30,5.62s16.8,9,23.24,15.76c6.45,6.76,11.44,14.8,14.98,24.13C481.5,227.09,483.27,237.34,483.27,248.5z
		 M462.57,248.5c0-9.15-1.25-17.37-3.74-24.65c-2.5-7.28-6.03-13.43-10.61-18.46c-4.58-5.03-10.12-8.89-16.64-11.6
		c-6.52-2.7-13.8-4.06-21.84-4.06c-7.97,0-15.22,1.35-21.74,4.06c-6.52,2.7-12.08,6.57-16.69,11.6
		c-4.61,5.03-8.16,11.18-10.66,18.46c-2.5,7.28-3.74,15.5-3.74,24.65c0,9.15,1.25,17.35,3.74,24.6c2.5,7.25,6.05,13.38,10.66,18.41
		c4.61,5.03,10.17,8.88,16.69,11.54c6.52,2.67,13.76,4,21.74,4c8.04,0,15.32-1.33,21.84-4c6.52-2.67,12.06-6.52,16.64-11.54
		c4.58-5.03,8.11-11.16,10.61-18.41C461.32,265.85,462.57,257.65,462.57,248.5z"/>
	<path class="st0" d="M570.63,306.95c6.17,0,11.68-1.04,16.54-3.12c4.85-2.08,8.96-4.99,12.32-8.74c3.36-3.74,5.93-8.22,7.7-13.42
		c1.77-5.2,2.65-10.92,2.65-17.16v-90.58h20.07v90.58c0,8.6-1.37,16.57-4.11,23.92c-2.74,7.35-6.66,13.71-11.75,19.08
		c-5.1,5.37-11.32,9.59-18.67,12.64c-7.35,3.05-15.6,4.58-24.75,4.58s-17.4-1.53-24.75-4.58c-7.35-3.05-13.59-7.26-18.72-12.64
		c-5.13-5.37-9.07-11.73-11.8-19.08c-2.74-7.35-4.11-15.32-4.11-23.92v-90.58h20.07v90.48c0,6.24,0.88,11.96,2.65,17.16
		c1.77,5.2,4.33,9.67,7.7,13.42c3.36,3.74,7.49,6.67,12.38,8.79C558.93,305.89,564.45,306.95,570.63,306.95z"/>
	<path class="st0" d="M676.86,174.61c0.87,0.45,1.85,1.37,2.96,2.76l86.32,112.32c-0.21-1.8-0.35-3.55-0.42-5.25
		c-0.07-1.7-0.1-3.34-0.1-4.94V173.93h17.68v149.03h-10.19c-1.6,0-2.93-0.28-4-0.83c-1.08-0.55-2.13-1.49-3.17-2.81l-86.22-112.22
		c0.14,1.73,0.24,3.43,0.31,5.1c0.07,1.66,0.1,3.19,0.1,4.58v106.18h-17.68V173.93h10.4C674.66,173.93,675.99,174.16,676.86,174.61z
		"/>
	<path class="st0" d="M922.25,173.93v16.95H874.1v132.08h-20.18V190.88h-48.36v-16.95H922.25z"/>
	<path class="st0" d="M965.62,260.77v62.19h-20.07V173.93h42.12c9.43,0,17.58,0.95,24.44,2.86c6.86,1.91,12.53,4.66,17,8.27
		c4.47,3.61,7.78,7.96,9.93,13.05c2.15,5.1,3.22,10.8,3.22,17.11c0,5.27-0.83,10.19-2.5,14.77c-1.66,4.58-4.07,8.68-7.23,12.32
		c-3.16,3.64-7,6.74-11.54,9.31c-4.54,2.57-9.69,4.51-15.44,5.82c2.5,1.46,4.71,3.57,6.66,6.34l43.47,59.18h-17.89
		c-3.68,0-6.38-1.42-8.11-4.26l-38.69-53.25c-1.18-1.66-2.46-2.86-3.85-3.59c-1.39-0.73-3.47-1.09-6.24-1.09H965.62z M965.62,246.11
		h21.11c5.89,0,11.08-0.71,15.55-2.13c4.47-1.42,8.22-3.43,11.23-6.03c3.02-2.6,5.29-5.7,6.81-9.31c1.52-3.6,2.29-7.59,2.29-11.96
		c0-8.87-2.93-15.56-8.79-20.07c-5.86-4.51-14.58-6.76-26.16-6.76h-22.05V246.11z"/>
	<path class="st0" d="M1133.78,263.68v59.28h-20.07v-59.28l-54.6-89.75h17.68c1.8,0,3.22,0.45,4.26,1.35
		c1.04,0.9,1.94,2.01,2.7,3.33l34.11,57.93c1.39,2.43,2.55,4.72,3.48,6.86c0.94,2.15,1.78,4.26,2.55,6.34
		c0.76-2.15,1.59-4.3,2.5-6.45c0.9-2.15,2.04-4.4,3.43-6.76l34.01-57.93c0.62-1.11,1.47-2.17,2.55-3.17c1.07-1,2.48-1.51,4.21-1.51
		h17.89L1133.78,263.68z"/>
	<path class="st0" d="M1285.27,197.23c-0.62,1.04-1.28,1.82-1.98,2.34c-0.69,0.52-1.6,0.78-2.7,0.78c-1.18,0-2.55-0.59-4.11-1.77
		c-1.56-1.18-3.54-2.48-5.93-3.9c-2.39-1.42-5.27-2.72-8.63-3.9c-3.36-1.18-7.44-1.77-12.22-1.77c-4.51,0-8.49,0.61-11.96,1.82
		c-3.47,1.21-6.36,2.86-8.68,4.94c-2.32,2.08-4.07,4.52-5.25,7.33c-1.18,2.81-1.77,5.84-1.77,9.1c0,4.16,1.02,7.61,3.07,10.35
		c2.04,2.74,4.75,5.08,8.11,7.02c3.36,1.94,7.18,3.62,11.44,5.04c4.26,1.42,8.63,2.9,13.1,4.42c4.47,1.53,8.84,3.24,13.1,5.15
		c4.26,1.91,8.08,4.32,11.44,7.23c3.36,2.91,6.07,6.48,8.11,10.71c2.04,4.23,3.07,9.43,3.07,15.6c0,6.52-1.11,12.64-3.33,18.36
		c-2.22,5.72-5.46,10.7-9.72,14.92c-4.26,4.23-9.5,7.56-15.7,9.98c-6.21,2.43-13.26,3.64-21.16,3.64c-9.64,0-18.43-1.75-26.36-5.25
		c-7.94-3.5-14.72-8.23-20.33-14.2l5.82-9.57c0.55-0.76,1.23-1.4,2.03-1.92c0.8-0.52,1.68-0.78,2.65-0.78
		c1.46,0,3.12,0.78,4.99,2.34s4.21,3.28,7.02,5.15c2.81,1.87,6.2,3.59,10.19,5.15c3.99,1.56,8.86,2.34,14.61,2.34
		c4.78,0,9.05-0.66,12.79-1.98c3.74-1.32,6.92-3.17,9.52-5.56c2.6-2.39,4.59-5.25,5.98-8.58c1.39-3.33,2.08-7.04,2.08-11.13
		c0-4.51-1.02-8.2-3.07-11.08c-2.05-2.88-4.73-5.29-8.06-7.23c-3.33-1.94-7.12-3.59-11.39-4.94c-4.26-1.35-8.63-2.74-13.1-4.16
		c-4.47-1.42-8.84-3.07-13.1-4.94s-8.06-4.3-11.39-7.28c-3.33-2.98-6.02-6.71-8.06-11.18c-2.05-4.47-3.07-10-3.07-16.59
		c0-5.27,1.02-10.36,3.07-15.29c2.04-4.92,5.01-9.29,8.89-13.1c3.88-3.81,8.68-6.86,14.4-9.15c5.72-2.29,12.29-3.43,19.71-3.43
		c8.32,0,15.91,1.32,22.78,3.95c6.86,2.64,12.86,6.45,17.99,11.44L1285.27,197.23z"/>
	<path class="st0" d="M1343.92,322.96h-20.18V173.93h20.18V322.96z"/>
	<path class="st0" d="M1512.61,248.5c0,11.16-1.77,21.32-5.3,30.47c-3.54,9.15-8.53,16.99-14.98,23.5
		c-6.45,6.52-14.18,11.56-23.19,15.13c-9.01,3.57-19,5.36-29.95,5.36h-55.74V173.93h55.74c10.95,0,20.94,1.79,29.95,5.36
		c9.01,3.57,16.74,8.63,23.19,15.18c6.45,6.55,11.44,14.4,14.98,23.56S1512.61,237.34,1512.61,248.5z M1491.91,248.5
		c0-9.15-1.25-17.33-3.74-24.54c-2.5-7.21-6.03-13.31-10.61-18.3s-10.12-8.8-16.64-11.44c-6.52-2.63-13.76-3.95-21.74-3.95h-35.46
		v116.38h35.46c7.97,0,15.22-1.32,21.74-3.95c6.52-2.63,12.06-6.43,16.64-11.39c4.58-4.96,8.11-11.04,10.61-18.25
		C1490.67,265.83,1491.91,257.65,1491.91,248.5z"/>
	<path class="st0" d="M1633.77,173.93v16.43h-71.55v49.5h57.93v15.81h-57.93v50.86h71.55v16.43h-91.83V173.93H1633.77z"/>
</g>
<g>
	<path class="st0" d="M468.43,406.51v37.99h-12.26v-91.04h25.73c5.76,0,10.74,0.58,14.93,1.75c4.19,1.17,7.66,2.85,10.39,5.05
		s4.75,4.86,6.07,7.97c1.31,3.11,1.97,6.6,1.97,10.45c0,3.22-0.51,6.23-1.52,9.02c-1.02,2.79-2.49,5.3-4.42,7.53
		c-1.93,2.22-4.28,4.12-7.05,5.69c-2.77,1.57-5.92,2.75-9.43,3.56c1.52,0.89,2.88,2.18,4.07,3.88l26.56,36.15h-10.93
		c-2.25,0-3.9-0.87-4.96-2.6l-23.63-32.53c-0.72-1.02-1.5-1.75-2.35-2.19c-0.85-0.45-2.12-0.67-3.81-0.67H468.43z M468.43,397.55
		h12.9c3.6,0,6.77-0.43,9.5-1.3s5.02-2.1,6.86-3.68c1.84-1.59,3.23-3.48,4.16-5.69c0.93-2.2,1.4-4.64,1.4-7.31
		c0-5.42-1.79-9.51-5.37-12.26c-3.58-2.75-8.91-4.13-15.98-4.13h-13.47V397.55z"/>
	<path class="st0" d="M592.82,353.46v10.04h-43.71v30.24h35.39v9.66h-35.39v31.07h43.71v10.04h-56.1v-91.04H592.82z"/>
	<path class="st0" d="M685.45,444.5h-9.53c-1.1,0-1.99-0.28-2.67-0.83c-0.68-0.55-1.19-1.25-1.52-2.1l-8.51-21.98h-40.85
		l-8.51,21.98c-0.3,0.76-0.8,1.44-1.52,2.03c-0.72,0.59-1.61,0.89-2.67,0.89h-9.53l36.4-91.04h12.52L685.45,444.5z M625.79,410.71
		h33.99l-14.29-37.04c-0.93-2.29-1.84-5.15-2.73-8.58c-0.47,1.74-0.92,3.33-1.37,4.8c-0.44,1.46-0.88,2.74-1.3,3.84L625.79,410.71z"
		/>
	<path class="st0" d="M709.27,434.15h39.39v10.36h-51.71v-91.04h12.32V434.15z"/>
	<path class="st0" d="M813.34,353.46v10.36h-29.42v80.68H771.6v-80.68h-29.54v-10.36H813.34z"/>
	<path class="st0" d="M861.36,408.29v36.21H849.1v-36.21l-33.35-54.83h10.8c1.1,0,1.97,0.28,2.6,0.83c0.64,0.55,1.19,1.23,1.65,2.03
		l20.84,35.39c0.85,1.48,1.56,2.88,2.13,4.19c0.57,1.31,1.09,2.6,1.56,3.88c0.47-1.31,0.97-2.63,1.52-3.94
		c0.55-1.31,1.25-2.69,2.1-4.13l20.77-35.39c0.38-0.68,0.9-1.32,1.56-1.94c0.66-0.61,1.51-0.92,2.57-0.92h10.93L861.36,408.29z"/>
	<path class="st0" d="M939.54,353.88c0.53,0.28,1.13,0.84,1.81,1.68l52.73,68.61c-0.13-1.1-0.21-2.17-0.25-3.21
		s-0.06-2.04-0.06-3.02v-64.48h10.8v91.04h-6.23c-0.97,0-1.79-0.17-2.45-0.51c-0.66-0.34-1.3-0.91-1.94-1.72l-52.67-68.55
		c0.08,1.06,0.15,2.1,0.19,3.11s0.06,1.95,0.06,2.8v64.87h-10.8v-91.04h6.35C938.19,353.46,939.01,353.6,939.54,353.88z"/>
	<path class="st0" d="M1111.36,399.02c0,6.82-1.08,13.08-3.24,18.77c-2.16,5.7-5.21,10.6-9.15,14.71c-3.94,4.11-8.67,7.3-14.2,9.56
		c-5.53,2.27-11.64,3.4-18.33,3.4c-6.69,0-12.79-1.13-18.3-3.4c-5.51-2.26-10.23-5.45-14.17-9.56c-3.94-4.11-6.99-9.01-9.15-14.71
		c-2.16-5.7-3.24-11.95-3.24-18.77c0-6.82,1.08-13.08,3.24-18.77s5.21-10.61,9.15-14.74c3.94-4.13,8.66-7.34,14.17-9.62
		c5.5-2.29,11.6-3.43,18.3-3.43c6.69,0,12.8,1.14,18.33,3.43c5.53,2.29,10.26,5.5,14.2,9.62c3.94,4.13,6.99,9.04,9.15,14.74
		C1110.28,385.94,1111.36,392.2,1111.36,399.02z M1098.72,399.02c0-5.59-0.76-10.61-2.29-15.06c-1.52-4.45-3.68-8.21-6.48-11.28
		c-2.79-3.07-6.18-5.43-10.16-7.08c-3.98-1.65-8.43-2.48-13.34-2.48c-4.87,0-9.3,0.83-13.28,2.48c-3.98,1.65-7.38,4.01-10.2,7.08
		c-2.82,3.07-4.99,6.83-6.51,11.28c-1.52,4.45-2.29,9.47-2.29,15.06s0.76,10.6,2.29,15.03c1.53,4.43,3.7,8.17,6.51,11.25
		c2.82,3.07,6.21,5.42,10.2,7.05c3.98,1.63,8.41,2.45,13.28,2.45c4.91,0,9.36-0.81,13.34-2.45c3.98-1.63,7.37-3.98,10.16-7.05
		c2.8-3.07,4.96-6.82,6.48-11.25C1097.95,409.62,1098.72,404.61,1098.72,399.02z"/>
	<path class="st0" d="M1212.75,399.02c0,6.82-1.08,13.08-3.24,18.77c-2.16,5.7-5.21,10.6-9.15,14.71c-3.94,4.11-8.67,7.3-14.2,9.56
		c-5.53,2.27-11.64,3.4-18.33,3.4c-6.69,0-12.79-1.13-18.3-3.4c-5.51-2.26-10.23-5.45-14.17-9.56c-3.94-4.11-6.99-9.01-9.15-14.71
		c-2.16-5.7-3.24-11.95-3.24-18.77c0-6.82,1.08-13.08,3.24-18.77s5.21-10.61,9.15-14.74c3.94-4.13,8.66-7.34,14.17-9.62
		c5.5-2.29,11.6-3.43,18.3-3.43c6.69,0,12.8,1.14,18.33,3.43c5.53,2.29,10.26,5.5,14.2,9.62c3.94,4.13,6.99,9.04,9.15,14.74
		C1211.67,385.94,1212.75,392.2,1212.75,399.02z M1200.11,399.02c0-5.59-0.76-10.61-2.29-15.06c-1.52-4.45-3.68-8.21-6.48-11.28
		c-2.79-3.07-6.18-5.43-10.16-7.08c-3.98-1.65-8.43-2.48-13.34-2.48c-4.87,0-9.3,0.83-13.28,2.48c-3.98,1.65-7.38,4.01-10.2,7.08
		c-2.82,3.07-4.99,6.83-6.51,11.28c-1.52,4.45-2.29,9.47-2.29,15.06s0.76,10.6,2.29,15.03c1.53,4.43,3.7,8.17,6.51,11.25
		c2.82,3.07,6.21,5.42,10.2,7.05c3.98,1.63,8.41,2.45,13.28,2.45c4.91,0,9.36-0.81,13.34-2.45c3.98-1.63,7.37-3.98,10.16-7.05
		c2.8-3.07,4.96-6.82,6.48-11.25C1199.35,409.62,1200.11,404.61,1200.11,399.02z"/>
	<path class="st0" d="M1276.22,367.69c-0.38,0.64-0.78,1.11-1.21,1.43c-0.42,0.32-0.97,0.48-1.65,0.48c-0.72,0-1.56-0.36-2.51-1.08
		c-0.95-0.72-2.16-1.51-3.62-2.38c-1.46-0.87-3.22-1.66-5.27-2.38c-2.05-0.72-4.54-1.08-7.46-1.08c-2.75,0-5.19,0.37-7.31,1.11
		c-2.12,0.74-3.89,1.75-5.3,3.02c-1.42,1.27-2.49,2.76-3.21,4.48c-0.72,1.71-1.08,3.57-1.08,5.56c0,2.54,0.62,4.65,1.87,6.32
		c1.25,1.67,2.9,3.1,4.96,4.29c2.05,1.19,4.38,2.21,6.99,3.08c2.6,0.87,5.27,1.77,8,2.7c2.73,0.93,5.4,1.98,8,3.14
		c2.6,1.17,4.93,2.64,6.99,4.42c2.05,1.78,3.71,3.96,4.96,6.54c1.25,2.58,1.87,5.76,1.87,9.53c0,3.98-0.68,7.72-2.03,11.21
		c-1.36,3.49-3.34,6.53-5.94,9.12c-2.6,2.58-5.8,4.62-9.59,6.1c-3.79,1.48-8.1,2.22-12.93,2.22c-5.89,0-11.26-1.07-16.1-3.21
		c-4.85-2.14-8.99-5.03-12.42-8.67l3.56-5.84c0.34-0.46,0.75-0.86,1.24-1.17c0.49-0.32,1.03-0.48,1.62-0.48
		c0.89,0,1.91,0.48,3.05,1.43c1.14,0.95,2.57,2,4.29,3.14c1.71,1.14,3.79,2.19,6.23,3.14s5.41,1.43,8.93,1.43
		c2.92,0,5.53-0.4,7.81-1.21s4.22-1.94,5.81-3.4c1.59-1.46,2.81-3.21,3.65-5.24c0.85-2.03,1.27-4.3,1.27-6.8
		c0-2.75-0.62-5.01-1.87-6.77c-1.25-1.76-2.89-3.23-4.92-4.42c-2.03-1.18-4.35-2.19-6.96-3.02c-2.6-0.83-5.27-1.67-8-2.54
		c-2.73-0.87-5.4-1.87-8-3.02c-2.6-1.14-4.92-2.63-6.96-4.45c-2.03-1.82-3.67-4.1-4.92-6.83c-1.25-2.73-1.87-6.11-1.87-10.13
		c0-3.22,0.62-6.33,1.87-9.34c1.25-3.01,3.06-5.68,5.43-8s5.3-4.19,8.8-5.59c3.5-1.4,7.51-2.1,12.04-2.1c5.08,0,9.72,0.8,13.91,2.41
		c4.19,1.61,7.86,3.94,10.99,6.99L1276.22,367.69z"/>
	<path class="st0" d="M1371.83,444.5h-9.53c-1.1,0-1.99-0.28-2.67-0.83c-0.68-0.55-1.19-1.25-1.52-2.1l-8.51-21.98h-40.85
		l-8.51,21.98c-0.3,0.76-0.81,1.44-1.53,2.03c-0.72,0.59-1.61,0.89-2.67,0.89h-9.53l36.4-91.04h12.52L1371.83,444.5z
		 M1312.18,410.71h33.99l-14.29-37.04c-0.93-2.29-1.84-5.15-2.73-8.58c-0.47,1.74-0.92,3.33-1.37,4.8c-0.44,1.46-0.88,2.74-1.3,3.84
		L1312.18,410.71z"/>
</g>
</svg>
