<?xml version="1.0" encoding="utf-8"?>
<!-- Generator: Adobe Illustrator 25.4.1, SVG Export Plug-In . SVG Version: 6.00 Build 0)  -->
<svg version="1.1" id="Layer_1" xmlns="http://www.w3.org/2000/svg" xmlns:xlink="http://www.w3.org/1999/xlink" x="0px" y="0px"
	 viewBox="0 0 231 52.28" style="enable-background:new 0 0 231 52.28;" xml:space="preserve">
<g id="Layer_1_00000160189694847598040230000009515500667825949098_">
</g>
<polygon points="14.4,26.7 31.1,26.7 31.1,41.2 34.7,41.2 34.7,8.7 31.1,8.7 31.1,23.1 14.4,23.1 14.4,8.7 10.8,8.7 10.8,41.2 
	14.4,41.2 "/>
<rect x="45.2" y="37.7" width="20.7" height="3.5"/>
<path d="M55.7,32.3c6.5,0,11.8-5.3,11.8-11.8S62.2,8.7,55.7,8.7S43.9,14,43.9,20.5S49.2,32.3,55.7,32.3 M55.7,12.2
	c4.6,0,8.3,3.7,8.3,8.3s-3.7,8.3-8.3,8.3s-8.3-3.7-8.3-8.3S51.2,12.2,55.7,12.2"/>
<path d="M81.5,26.7h5.1l9.1,14.5h4.2l-9.2-14.7l1.4-0.4c3.1-0.9,6.8-3,6.8-8.5c0-8.9-10.1-9-10.5-9H77.9V13l6.4,10.2h-6.4v18h3.6
	V26.7z M81.7,12.2h6.7c2.4,0,6.9,1.1,6.9,5.5c0,3-2.3,5.1-6.1,5.4l-0.7,0.1L81.7,12.2z"/>
<rect x="109.7" y="8.7" width="3.6" height="32.6"/>
<polygon points="123.8,8.5 123.8,12.1 142.6,12.1 124.7,41.1 149.8,41.1 149.8,37.6 131.1,37.6 148.9,8.5 "/>
<path d="M171.9,32.3c6.5,0,11.8-5.3,11.8-11.8s-5.3-11.8-11.8-11.8s-11.8,5.3-11.8,11.8C160.1,27,165.4,32.3,171.9,32.3 M171.9,12.2
	c4.6,0,8.3,3.7,8.3,8.3s-3.7,8.3-8.3,8.3s-8.3-3.7-8.3-8.3C163.6,15.9,167.3,12.2,171.9,12.2"/>
<rect x="161.4" y="37.7" width="20.7" height="3.5"/>
<polygon points="197.6,14 216.7,41.2 220.8,41.2 220.8,8.7 217.3,8.7 217.3,35.9 198.2,8.7 194.1,8.7 194.1,41.2 197.6,41.2 "/>
<polygon points="14.4,26.7 31.1,26.7 31.1,41.2 34.7,41.2 34.7,8.7 31.1,8.7 31.1,23.1 14.4,23.1 14.4,8.7 10.8,8.7 10.8,41.2 
	14.4,41.2 "/>
<rect x="45.2" y="37.7" width="20.7" height="3.5"/>
<path d="M55.7,32.3c6.5,0,11.8-5.3,11.8-11.8S62.2,8.7,55.7,8.7S43.9,14,43.9,20.5S49.2,32.3,55.7,32.3 M55.7,12.2
	c4.6,0,8.3,3.7,8.3,8.3s-3.7,8.3-8.3,8.3s-8.3-3.7-8.3-8.3S51.2,12.2,55.7,12.2"/>
<path d="M81.5,26.7h5.1l9.1,14.5h4.2l-9.2-14.7l1.4-0.4c3.1-0.9,6.8-3,6.8-8.5c0-8.9-10.1-9-10.5-9H77.9V13l6.4,10.2h-6.4v18h3.6
	V26.7z M81.7,12.2h6.7c2.4,0,6.9,1.1,6.9,5.5c0,3-2.3,5.1-6.1,5.4l-0.7,0.1L81.7,12.2z"/>
<rect x="109.7" y="8.7" width="3.6" height="32.6"/>
<polygon points="123.8,8.5 123.8,12.1 142.6,12.1 124.7,41.1 149.8,41.1 149.8,37.6 131.1,37.6 148.9,8.5 "/>
<path d="M171.9,32.3c6.5,0,11.8-5.3,11.8-11.8s-5.3-11.8-11.8-11.8s-11.8,5.3-11.8,11.8C160.1,27,165.4,32.3,171.9,32.3 M171.9,12.2
	c4.6,0,8.3,3.7,8.3,8.3s-3.7,8.3-8.3,8.3s-8.3-3.7-8.3-8.3C163.6,15.9,167.3,12.2,171.9,12.2"/>
<rect x="161.4" y="37.7" width="20.7" height="3.5"/>
<polygon points="197.6,14 216.7,41.2 220.8,41.2 220.8,8.7 217.3,8.7 217.3,35.9 198.2,8.7 194.1,8.7 194.1,41.2 197.6,41.2 "/>
</svg>
