<?xml version="1.0" encoding="utf-8"?>
<!-- Generator: Adobe Illustrator 25.4.1, SVG Export Plug-In . SVG Version: 6.00 Build 0)  -->
<svg version="1.1" id="Layer_1" xmlns="http://www.w3.org/2000/svg" xmlns:xlink="http://www.w3.org/1999/xlink" x="0px" y="0px"
	 viewBox="0 0 1080 320" style="enable-background:new 0 0 1080 320;" xml:space="preserve">
<style type="text/css">
	.st0{fill:#FFFFFF;}
</style>
<g>
	<g>
		<path class="st0" d="M263.83,229.46c0,9.16-6.09,15.48-14.9,15.48c-8.94,0-14.94-6.32-14.94-15.75c0-4.92,1.67-9.16,4.65-11.87
			c2.75-2.53,6.27-3.84,10.25-3.84C257.96,213.48,263.83,219.75,263.83,229.46 M241.08,229.18c0,6.27,2.94,10.02,7.86,10.02
			c4.83,0,7.81-3.75,7.81-9.89c0-6.37-2.89-10.11-7.85-10.11C244.02,219.21,241.08,222.95,241.08,229.18"/>
		<path class="st0" d="M293.28,214.15v20.36c0,3.79-0.99,6.19-3.25,7.86c-2.3,1.67-5.37,2.57-8.8,2.57c-3.48,0-6.55-0.9-8.85-2.57
			c-2.26-1.67-3.25-4.06-3.25-7.86v-20.36h6.77v19.91c0,2.03,0.31,2.94,1.22,3.79c0.99,0.86,2.44,1.35,4.11,1.35
			c1.62,0,3.07-0.5,4.06-1.35c0.9-0.86,1.22-1.76,1.22-3.79v-19.91H293.28z"/>
		<polygon class="st0" points="313,244.26 306.23,244.26 306.23,219.93 297.11,219.93 297.11,214.15 322.11,214.15 322.11,219.93 
			313,219.93 		"/>
		<path class="st0" d="M325.9,214.15h12.24c3.79,0,5.96,0.4,7.9,1.54c2.12,1.26,3.43,3.6,3.43,6.13c0,2.89-1.35,4.92-4.24,6.32
			c3.47,1.67,4.96,3.88,4.96,7.36c0,2.84-1.13,5.28-3.11,6.77c-1.94,1.49-4.06,1.99-8.35,1.99H325.9V214.15z M338.99,225.85
			c2.44,0,3.7-1,3.7-2.98c0-1.94-1.26-2.94-3.7-2.94h-6.45v5.92H338.99z M338.9,238.48c2.84,0,4.38-1.27,4.38-3.66
			c0-2.39-1.54-3.66-4.38-3.66h-6.36v7.32H338.9z"/>
		<path class="st0" d="M361.4,238.21l-1.9,6.05h-7.36l10.52-30.11h8.44l9.57,30.11H373l-1.62-6.05H361.4z M366.73,220.88
			l-3.66,11.78h6.82L366.73,220.88z"/>
		<path class="st0" d="M402.83,223.77c-0.68-2.89-2.89-4.56-6.09-4.56c-4.97,0-7.81,3.66-7.81,9.98c0,6.27,2.84,10.02,7.63,10.02
			c3.48,0,5.55-1.72,6.37-5.33h7.18c-0.81,6.82-5.91,11.06-13.36,11.06c-8.89,0-14.58-6.14-14.58-15.75
			c0-9.66,5.6-15.71,14.53-15.71c7.27,0,12.24,3.88,13.05,10.29H402.83z"/>
		<polygon class="st0" points="441.68,244.26 433.56,244.26 424.44,230.63 421.64,233.47 421.64,244.26 415.01,244.26 
			415.01,214.15 421.64,214.15 421.64,225.26 431.8,214.15 440.69,214.15 428.95,226.02 		"/>
		<polygon class="st0" points="471.07,244.26 464.3,244.26 464.3,219.93 455.18,219.93 455.18,214.15 480.19,214.15 480.19,219.93 
			471.07,219.93 		"/>
		<path class="st0" d="M512.13,229.46c0,9.16-6.09,15.48-14.9,15.48c-8.94,0-14.94-6.32-14.94-15.75c0-4.92,1.67-9.16,4.65-11.87
			c2.75-2.53,6.27-3.84,10.25-3.84C506.26,213.48,512.13,219.75,512.13,229.46 M489.38,229.18c0,6.27,2.94,10.02,7.86,10.02
			c4.83,0,7.81-3.75,7.81-9.89c0-6.37-2.89-10.11-7.85-10.11C492.32,219.21,489.38,222.95,489.38,229.18"/>
		<path class="st0" d="M521.92,244.26l-8.13-30.11h6.73l3.25,13.5c0.59,2.53,0.9,3.93,1.67,7.49c0.5-3.43,0.81-5.24,1.26-7.49
			l2.84-13.5h6.5l2.8,13.72c0.58,2.98,0.9,4.61,1.31,7.27c0.27-1.31,0.77-3.74,1.54-7.27l3.34-13.72h6.72l-8.39,30.11h-6.32
			l-2.76-12.55c-0.68-3.11-1.31-6.37-1.49-7.81c-0.59,3.25-0.95,5.19-1.54,7.81l-2.84,12.55H521.92z"/>
		<path class="st0" d="M573.16,244.26l-8.53-15.39l-3.12-5.87c0.09,1.58,0.09,2.71,0.09,3.61c0.05,1.62,0.05,3.39,0.05,5.28v12.37
			h-6.19v-30.11h7.05l8.3,14.99c1.18,2.26,1.95,3.84,3.07,6.09c-0.09-1.22-0.09-2.03-0.09-2.93l-0.04-2.26v-2.16v-13.72h6.18v30.11
			H573.16z"/>
		<path class="st0" d="M592.77,237.94v5.42c0,4.38-2.26,7.17-6.55,8.13v-2.53c2.03-0.77,3.26-2.53,3.34-4.69h-3.11v-6.32H592.77z"/>
		<polygon class="st0" points="634.67,219.93 619,219.93 619,225.8 632.68,225.8 632.68,231.12 619,231.12 619,238.48 
			634.94,238.48 634.94,244.26 612.23,244.26 612.23,214.15 634.67,214.15 		"/>
		<path class="st0" d="M658.2,244.26l-8.53-15.39l-3.12-5.87c0.09,1.58,0.09,2.71,0.09,3.61c0.04,1.62,0.04,3.39,0.04,5.28v12.37
			h-6.18v-30.11h7.04l8.3,14.99c1.18,2.26,1.94,3.84,3.07,6.09c-0.09-1.22-0.09-2.03-0.09-2.93l-0.05-2.26v-2.16v-13.72h6.19v30.11
			H658.2z"/>
		<path class="st0" d="M671.75,214.15h10.2c6.09,0,9.3,1.08,12.01,4.15c2.39,2.71,3.7,6.5,3.7,10.74c0,4.42-1.44,8.53-3.93,11.24
			c-2.62,2.8-5.96,3.97-11.56,3.97h-10.43V214.15z M683.09,238.48c3.07,0,4.92-0.86,6.18-2.94c0.99-1.67,1.49-3.74,1.49-6.36
			c0-2.53-0.45-4.52-1.44-6.23c-1.17-2.07-3.03-3.03-5.78-3.03h-5.01v18.56H683.09z"/>
		<polygon class="st0" points="709.8,238.48 724.51,238.48 724.51,244.26 703.02,244.26 703.02,214.15 709.8,214.15 		"/>
		<polygon class="st0" points="750.89,219.93 735.22,219.93 735.22,225.8 748.9,225.8 748.9,231.12 735.22,231.12 735.22,238.48 
			751.16,238.48 751.16,244.26 728.45,244.26 728.45,214.15 750.89,214.15 		"/>
		<path class="st0" d="M772.97,223.59v-0.5c0-2.53-1.98-3.97-5.42-3.97c-3.2,0-5.14,1.17-5.14,3.07c0,1.26,0.9,2.12,2.75,2.57
			l6.09,1.4c3.34,0.81,5.19,1.62,6.63,2.98c1.54,1.4,2.31,3.34,2.31,5.73c0,6.23-4.79,10.07-12.59,10.07
			c-8.13,0-12.82-3.88-12.86-10.61h6.77c0.14,3.43,2.08,4.97,6.19,4.97c3.48,0,5.6-1.26,5.6-3.39c0-1.49-1.08-2.53-3.25-3.07
			l-5.46-1.35c-3.2-0.77-5.19-1.62-6.55-2.8c-1.53-1.26-2.39-3.48-2.39-5.91c0-5.82,4.46-9.3,12.1-9.3c4.87,0,8.31,1.44,10.25,4.29
			c0.99,1.49,1.49,3.11,1.76,5.82H772.97z"/>
		<path class="st0" d="M802.19,223.59v-0.5c0-2.53-1.98-3.97-5.42-3.97c-3.2,0-5.15,1.17-5.15,3.07c0,1.26,0.91,2.12,2.75,2.57
			l6.09,1.4c3.34,0.81,5.19,1.62,6.63,2.98c1.54,1.4,2.3,3.34,2.3,5.73c0,6.23-4.79,10.07-12.59,10.07
			c-8.13,0-12.82-3.88-12.87-10.61h6.77c0.14,3.43,2.08,4.97,6.19,4.97c3.47,0,5.6-1.26,5.6-3.39c0-1.49-1.08-2.53-3.25-3.07
			l-5.46-1.35c-3.2-0.77-5.19-1.62-6.54-2.8c-1.53-1.26-2.39-3.48-2.39-5.91c0-5.82,4.47-9.3,12.1-9.3c4.88,0,8.31,1.44,10.25,4.29
			c1,1.49,1.49,3.11,1.77,5.82H802.19z"/>
		<polygon class="st0" points="834.61,231.26 834.61,244.26 827.84,244.26 827.84,214.15 834.61,214.15 834.61,225.48 
			845.67,225.48 845.67,214.15 852.45,214.15 852.45,244.26 845.67,244.26 845.67,231.26 		"/>
		<path class="st0" d="M887.72,229.46c0,9.16-6.09,15.48-14.9,15.48c-8.93,0-14.94-6.32-14.94-15.75c0-4.92,1.67-9.16,4.65-11.87
			c2.75-2.53,6.27-3.84,10.25-3.84C881.85,213.48,887.72,219.75,887.72,229.46 M864.97,229.18c0,6.27,2.93,10.02,7.85,10.02
			c4.83,0,7.81-3.75,7.81-9.89c0-6.37-2.89-10.11-7.85-10.11C867.9,219.21,864.97,222.95,864.97,229.18"/>
		<path class="st0" d="M899.82,244.26h-6.64v-30.11h13.14c3.88,0,6.05,0.5,7.86,1.8c1.85,1.35,2.89,3.61,2.89,6.32
			c0,3.66-1.62,6-5.01,7.27c2.98,0.95,4.02,2.53,4.25,6.5l0.23,4.29c0.13,1.99,0.36,2.66,1.22,3.93h-6.63
			c-0.81-0.63-1.04-1.08-1.13-2.62l-0.27-4.11c-0.27-3.7-1.89-5.33-5.37-5.33h-4.51V244.26z M906.45,226.88
			c2.48,0,3.84-1.26,3.84-3.48s-1.36-3.48-3.84-3.48h-6.63v6.95H906.45z"/>
		<rect x="923.08" y="214.15" class="st0" width="6.77" height="30.11"/>
		<polygon class="st0" points="959.99,244.26 934.57,244.26 934.57,239.02 950.78,219.93 935.34,219.93 935.34,214.15 
			959.62,214.15 959.62,219.34 943.51,238.48 959.99,238.48 		"/>
		<path class="st0" d="M992.48,229.46c0,9.16-6.09,15.48-14.89,15.48c-8.94,0-14.94-6.32-14.94-15.75c0-4.92,1.67-9.16,4.65-11.87
			c2.75-2.53,6.28-3.84,10.25-3.84C986.62,213.48,992.48,219.75,992.48,229.46 M969.73,229.18c0,6.27,2.93,10.02,7.86,10.02
			c4.83,0,7.81-3.75,7.81-9.89c0-6.37-2.89-10.11-7.85-10.11C972.67,219.21,969.73,222.95,969.73,229.18"/>
		<path class="st0" d="M1015.64,244.26l-8.53-15.39l-3.12-5.87c0.09,1.58,0.09,2.71,0.09,3.61c0.05,1.62,0.05,3.39,0.05,5.28v12.37
			h-6.18v-30.11h7.04l8.31,14.99c1.17,2.26,1.94,3.84,3.07,6.09c-0.09-1.22-0.09-2.03-0.09-2.93l-0.04-2.26v-2.16v-13.72h6.18v30.11
			H1015.64z"/>
		<path class="st0" d="M1045.83,223.59v-0.5c0-2.53-1.99-3.97-5.42-3.97c-3.2,0-5.15,1.17-5.15,3.07c0,1.26,0.91,2.12,2.75,2.57
			l6.09,1.4c3.34,0.81,5.19,1.62,6.63,2.98c1.54,1.4,2.3,3.34,2.3,5.73c0,6.23-4.79,10.07-12.59,10.07
			c-8.12,0-12.82-3.88-12.86-10.61h6.77c0.14,3.43,2.08,4.97,6.19,4.97c3.47,0,5.6-1.26,5.6-3.39c0-1.49-1.08-2.53-3.25-3.07
			l-5.46-1.35c-3.2-0.77-5.19-1.62-6.54-2.8c-1.53-1.26-2.39-3.48-2.39-5.91c0-5.82,4.46-9.3,12.1-9.3c4.87,0,8.31,1.44,10.24,4.29
			c1,1.49,1.49,3.11,1.77,5.82H1045.83z"/>
		<path class="st0" d="M257.93,127.16v37.4c0,1.11-0.9,2-2,2h-17.56c-1.11,0-2-0.89-2-2V72.67c0-1.11,0.9-2,2-2h17.56
			c1.1,0,2,0.9,2,2v32.08c0,1.11,0.9,2,2,2h31.22c1.1,0,2-0.89,2-2V72.67c0-1.11,0.9-2,2-2h17.56c1.11,0,2,0.9,2,2v91.88
			c0,1.11-0.9,2-2,2h-17.56c-1.1,0-2-0.89-2-2v-37.4c0-1.1-0.9-2-2-2h-31.22C258.83,125.15,257.93,126.05,257.93,127.16"/>
		<path class="st0" d="M405.48,70.66c1.1,0,2,0.9,2,2v62.84c0,12.07-3.16,19.69-10.35,25.01c-7.33,5.32-17.11,8.19-28.03,8.19
			c-11.07,0-20.85-2.87-28.18-8.19c-7.19-5.32-10.35-12.94-10.35-25.01V72.67c0-1.11,0.9-2,2-2h17.56c1.1,0,2,0.9,2,2v61.4
			c0,6.47,1,9.34,3.88,12.07c3.16,2.73,7.76,4.31,13.08,4.31c5.18,0,9.78-1.58,12.94-4.31c2.88-2.73,3.88-5.61,3.88-12.07v-61.4
			c0-1.11,0.89-2,2-2H405.48z"/>
		<path class="st0" d="M507.4,115.51v49.05c0,1.1-0.9,2-2,2h-9.37c-0.92,0-1.72-0.63-1.94-1.52l-1.61-6.5
			c-0.4-1.61-2.46-2.04-3.49-0.74c-6.21,7.8-14.03,10.92-26.3,10.92c-27.17,0-43.85-18.83-43.85-49.46
			c0-30.76,18.4-50.74,46.58-50.74c20.12,0,35.47,10.95,40.64,28.81c0.35,1.22-0.56,2.46-1.83,2.53l-16.84,1.05
			c-0.92,0.06-1.71-0.54-2.01-1.41c-2.72-8-9.93-12.72-19.81-12.72c-15.53,0-25.16,11.79-25.16,31.05c0,20.7,9.34,33.07,25.01,33.07
			c11.37,0,20.13-6.6,23.03-17.25c0.34-1.24-0.67-2.44-1.96-2.44h-18.93c-1.1,0-2-0.9-2-2v-13.68c0-1.11,0.89-2,2-2h37.83
			C506.5,113.51,507.4,114.4,507.4,115.51"/>
		<path class="st0" d="M543.5,127.16v37.4c0,1.11-0.9,2-2,2h-17.56c-1.1,0-2-0.89-2-2V72.67c0-1.11,0.9-2,2-2h17.56c1.1,0,2,0.9,2,2
			v32.08c0,1.11,0.9,2,2,2h31.22c1.11,0,2-0.89,2-2V72.67c0-1.11,0.9-2,2-2h17.56c1.1,0,2,0.9,2,2v91.88c0,1.11-0.9,2-2,2h-17.56
			c-1.11,0-2-0.89-2-2v-37.4c0-1.1-0.89-2-2-2H545.5C544.39,125.15,543.5,126.05,543.5,127.16"/>
		<path class="st0" d="M685.7,89.07h-45.88c-1.1,0-2,0.9-2,2v14.69c0,1.1,0.89,2,2,2h39.56c1.11,0,2,0.9,2,2v12.96c0,1.1-0.89,2-2,2
			h-39.56c-1.1,0-2,0.9-2,2v19.43c0,1.1,0.89,2,2,2h46.75c1.1,0,2,0.9,2,2v14.4c0,1.11-0.9,2-2,2h-68.31c-1.11,0-2-0.9-2-2V72.67
			c0-1.11,0.89-2,2-2h67.44c1.1,0,2.01,0.9,2.01,2v14.4C687.71,88.17,686.81,89.07,685.7,89.07"/>
		<path class="st0" d="M758.19,166.55c-0.73,0-1.4-0.4-1.75-1.03l-26.6-47.99l-9.92-18.69c0.29,5.03,0.29,8.63,0.29,11.5
			c0.14,5.17,0.14,10.78,0.14,16.82v37.39c0,1.1-0.89,2-2,2h-15.69c-1.1,0-2-0.9-2-2V72.67c0-1.11,0.9-2.01,2-2.01h19.25
			c0.73,0,1.4,0.4,1.75,1.03l25.88,46.7c3.74,7.19,6.18,12.22,9.77,19.41c-0.29-3.88-0.29-6.47-0.29-9.34l-0.14-7.19v-6.9v-41.7
			c0-1.11,0.89-2.01,2-2.01h15.69c1.11,0,2,0.9,2,2.01v91.88c0,1.1-0.89,2-2,2H758.19z"/>
		<path class="st0" d="M794.49,72.67c0-1.11,0.9-2,2-2h30.49c19.41,0,29.61,3.45,38.24,13.23c7.62,8.62,11.79,20.7,11.79,34.22
			c0,14.09-4.6,27.17-12.51,35.79c-8.34,8.91-18.98,12.65-36.8,12.65h-31.2c-1.1,0-2-0.89-2-2V72.67z M830.57,148.15
			c9.78,0,15.67-2.73,19.7-9.35c3.16-5.31,4.74-11.93,4.74-20.27c0-8.05-1.44-14.37-4.6-19.83c-3.73-6.62-9.63-9.64-18.4-9.64
			h-13.96c-1.11,0-2,0.9-2,2v55.08c0,1.1,0.89,2,2,2H830.57z"/>
		<path class="st0" d="M957.81,89.07h-45.88c-1.11,0-2,0.9-2,2v14.69c0,1.1,0.89,2,2,2h39.56c1.1,0,2,0.9,2,2v12.96c0,1.1-0.9,2-2,2
			h-39.56c-1.11,0-2,0.9-2,2v19.43c0,1.1,0.89,2,2,2h46.74c1.1,0,2,0.9,2,2v14.4c0,1.11-0.9,2-2,2h-68.31c-1.11,0-2-0.9-2-2V72.67
			c0-1.11,0.89-2,2-2h67.45c1.1,0,2,0.9,2,2v14.4C959.81,88.17,958.92,89.07,957.81,89.07"/>
		<path class="st0" d="M1030.3,166.55c-0.73,0-1.4-0.4-1.75-1.03l-26.6-47.99l-9.92-18.69c0.29,5.03,0.29,8.63,0.29,11.5
			c0.14,5.17,0.14,10.78,0.14,16.82v37.39c0,1.1-0.9,2-2,2h-15.69c-1.11,0-2-0.9-2-2V72.67c0-1.11,0.9-2.01,2-2.01h19.24
			c0.73,0,1.4,0.4,1.75,1.03l25.88,46.7c3.74,7.19,6.18,12.22,9.78,19.41c-0.29-3.88-0.29-6.47-0.29-9.34l-0.14-7.19v-6.9v-41.7
			c0-1.11,0.9-2.01,2-2.01h15.69c1.11,0,2,0.9,2,2.01v91.88c0,1.1-0.89,2-2,2H1030.3z"/>
	</g>
	<g>
		<path class="st0" d="M30.07,146.22l102.25,10.97c3.37,0.36,3.37,5.25,0,5.61L30.07,173.78c-1.67,0.18-3.13-1.13-3.13-2.81v-21.95
			C26.94,147.35,28.4,146.04,30.07,146.22"/>
		<path class="st0" d="M172.25,31.6l-10.97,102.24c-0.36,3.36-5.26,3.36-5.62,0L144.69,31.6c-0.18-1.67,1.13-3.12,2.81-3.12h21.95
			C171.12,28.48,172.43,29.93,172.25,31.6"/>
		<path class="st0" d="M161.28,186.15l10.98,102.24c0.18,1.67-1.13,3.12-2.81,3.12H147.5c-1.68,0-2.99-1.46-2.81-3.12l10.97-102.24
			C156.03,182.79,160.92,182.79,161.28,186.15"/>
		<path class="st0" d="M57.93,241.05l80.06-64.53c2.63-2.12,6.09,1.34,3.97,3.97l-64.54,80.06c-1.05,1.31-3.01,1.41-4.19,0.22
			l-15.52-15.52C56.52,244.05,56.63,242.1,57.93,241.05"/>
		<path class="st0" d="M77.43,59.43l64.52,80.08c2.12,2.63-1.34,6.09-3.97,3.97L57.93,78.92c-1.31-1.05-1.41-3.01-0.22-4.19
			l15.52-15.52C74.43,58.02,76.38,58.13,77.43,59.43"/>
	</g>
</g>
</svg>
