<?xml version="1.0" encoding="utf-8"?>
<!-- Generator: Adobe Illustrator 25.4.1, SVG Export Plug-In . SVG Version: 6.00 Build 0)  -->
<svg version="1.1" id="Layer_1" xmlns="http://www.w3.org/2000/svg" xmlns:xlink="http://www.w3.org/1999/xlink" x="0px" y="0px"
	 viewBox="0 0 550 205" style="enable-background:new 0 0 550 205;" xml:space="preserve">
<style type="text/css">
	.st0{fill:#FFFFFF;}
</style>
<g>
	<path class="st0" d="M287.5,4c17.6,0,35.2-0.1,52.8,0c8.7,0.1,17.4,0.3,25.9,2.3c8.1,1.9,15.5,4.9,20.1,12.5
		c2.9,4.9,3.7,10.3,4.1,15.8c0.1,1.3-0.5,1.7-1.7,1.6c-8,0-16.1,0-24.1-0.1c-0.5,0-1.4-0.7-1.5-1.2c-0.9-4.9-3.9-7-8-7.5
		c-6.4-0.7-12.9-1.1-19.3-1.1c-37.3,0-74.7,0-112,0.2c-2.7,0-5.5,0.9-8.1,1.7c-4.3,1.2-3.8,7-0.8,8.9c3.1,1.9,6.6,2,9.9,2.5
		c1.2,0.2,2.4,0.1,3.5,0.1c37.1,0,74.1-0.1,111.2,0.1c8.7,0,17.4,0.7,25.9,1.8c6.8,0.9,13.5,3,18.8,7.8c4.5,4.1,6.8,9.3,7.1,15.3
		c0.3,4.8,0.2,9.6-1.5,14.3c-2.6,6.8-7.6,11-14,13.6c-6.8,2.8-14,4.2-21.4,4.4c-9.9,0.4-19.8,0.8-29.8,0.8
		c-32,0.1-64.1,0.2-96.1-0.1c-9.8-0.1-19.6-1.1-28.8-5.1c-7.3-3.2-12.4-8.2-14.3-16c-0.7-2.8-1.1-5.7-1.6-8.6
		c-0.3-1.6,0.2-2.4,2.1-2.4c7.7,0.1,15.5,0,23.2,0.1c0.7,0,1.8,0.7,1.9,1.1c0.6,4.4,3.5,6.6,7.4,7.2c4.6,0.8,9.3,1.4,14,1.5
		c37.9,0.1,75.9,0,113.8-0.1c3.9,0,7.7-0.6,11.6-1.3c4.7-0.8,6.6-3.2,6.3-6.7c-0.3-3.3-2.7-6-6.9-6.5c-5.5-0.7-11-1.2-16.5-1.2
		c-32.6-0.2-65.1-0.1-97.7-0.3c-10.2-0.1-20.5-0.4-30.6-1.4c-7.3-0.7-14.6-2.6-20.4-7.7c-6.1-5.4-7.3-12.4-6.9-20
		c0.6-13.3,8.7-19.5,18.1-22.5c10-3.3,20.4-3.7,30.7-3.8C251.7,3.9,269.6,4,287.5,4C287.5,4,287.5,4,287.5,4z"/>
	<path class="st0" d="M147.4,141.1c0.8,0,1.8,0,2.7,0c49.3,0,84.3,0,133.6,0c3,0,3,0,3,3.3c0,6,0,12,0,18c0,1.6-0.4,2.3-2,2.2
		c-0.6-0.1-1.3,0-1.9,0c-49,0-83.6,0-132.6,0c-3.4,0-3.4,0-3.4,3.6c0,2.1,0,4.2,0,6.3c0,1.5,0.6,2.2,2,2.1c0.6,0,1.3,0,1.9,0
		c50.6,0,82.2,0,132.8,0c0.9,0,1.8,0,2.9,0c0,7.9,0,15.6,0,23.4c-61.6,0-104,0-165.7,0c-0.1-0.9-0.2-1.7-0.2-2.5
		c0-29.6,0-59.2,0-88.8c0-3.1,0-3.2,2.8-3.2c59.9,0,100.7,0,160.5-0.1c2.2,0,2.8,0.7,2.7,3c-0.1,6-0.1,12,0,18
		c0.1,2.3-0.7,2.8-2.7,2.8c-50.9-0.1-82.8,0-133.7,0c-3.5,0-3.5,0-3.5,3.7c0,2.4,0,4.8,0.1,7.3C147.1,140.5,147.2,140.7,147.4,141.1
		z"/>
	<path class="st0" d="M467.4,98.1c-39.5,0-44-6.4-52-12c-7-4.9-11.3-11.6-13.8-19.7c-2.6-8.5-2.8-17.2-1.6-25.9
		c2.1-14.9,10.4-25.2,24.3-30.8c9.9-4,20.2-6,30.8-6.2c9.7-0.2,19.4-0.6,29.1,0.1c13.7,0.9,27.1,3.7,38.4,12.3
		c6.6,5,10.5,11.7,12.6,19.7c2.3,9.1,2.4,18.2,0.7,27.3c-2.5,13.9-10.6,23.5-23.8,28.6C503.4,94.9,506.9,98.1,467.4,98.1z
		 M486.6,72.7c6.5-1.7,11.3-5.8,13.1-12.7c1.4-5.2,1.5-10.4,0.8-15.8c-1.3-9.8-6.5-14.1-14.2-16.7c-5.6-1.9-11.5-2-17.3-2
		c-6.3,0-12.7,0-18.9,2c-5.3,1.7-9.8,4.4-12.3,9.7c-3.1,6.9-3,14-1.6,21.2c1.5,7.7,6.3,12.4,13.6,14.3
		C470.8,77.2,480.7,74.2,486.6,72.7z"/>
	<path class="st0" d="M391.1,138c-3.8,0-7.5,0-11.3,0c-1.5,0-2.3-0.2-2.4-2c-0.1-3.3-3-6.2-7.1-6.8c-4.3-0.7-8.6-1.1-13-1.2
		c-7.2-0.1-14.5,0.1-21.7,0.3c-2,0.1-4.1,0.5-6.1,1.1c-2.7,0.8-3.8,2.5-3.7,5c0.1,2.7,1.7,4.9,4.7,5.3c5.2,0.8,10.5,1.4,15.8,1.8
		c10.6,0.7,21.3,0.9,31.8,2c5.9,0.6,11.8,2.1,17.2,5.2c6,3.4,9.5,8.7,10.4,15.3c0.8,5.7,0.7,11.4-1.4,17
		c-2.5,6.8-7.5,10.9-13.8,13.7c-7,3-14.4,4.2-21.9,4.5c-6.7,0.3-13.4,0.9-20.1,0.8c-7.3-0.2-14.5-1-21.8-1.7
		c-6.7-0.6-12.9-2.6-18.6-6.2c-6.3-3.9-9.3-9.8-10.4-16.8c-0.3-1.9-0.6-3.8-0.8-5.7c-0.2-1.4,0.4-2,1.9-2c8,0,16,0,24,0.1
		c0.5,0,1.4,0.6,1.5,1.1c0.6,4.5,3.5,6.7,7.6,7.5c3.5,0.7,7,1.2,10.5,1.2c8.6,0.1,17.3-0.1,25.9-0.4c1.9-0.1,3.8-0.5,5.6-1
		c3-0.9,4.4-2.7,4.6-5.2c0.3-4.3-1.5-5.9-4.2-6.9c-3-1-6.3-1.7-9.5-1.9c-9.6-0.6-19.2-0.7-28.8-1.4c-5.6-0.4-11.3-1.2-16.8-2.3
		c-5.5-1-10.5-3.2-14.7-7c-3.7-3.4-5.6-7.8-5.8-12.7c-0.2-4.2,0-8.5,0.7-12.7c1.2-7,6.1-11.3,12.1-14.5c5.3-2.7,11.1-3.7,16.9-4.5
		c10.4-1.4,20.9-1.8,31.4-1.2c7.3,0.4,14.6,0.9,21.7,2.4c7.9,1.6,15.2,4.9,19.5,12.3c2.8,4.8,3.6,10,4,15.4c0.1,1.6-0.5,2.2-2.1,2.2
		C399,138,395,138,391.1,138z"/>
	<path class="st0" d="M125.4,98c-0.8,0.1-1.4,0.1-1.9,0.1c-9.4,0-18.8,0-28.2,0c-1.4,0-2.2-0.4-2.9-1.7c-3.3-6.5-6.8-13-10.2-19.5
		c-0.8-1.4-1.6-2.3-3.5-2.2c-10,0.1-19.9,0.1-29.9,0c-2.1,0-2.6,0.7-2.6,2.7c0.1,6.1,0,12.3,0.1,18.4c0,1.9-0.6,2.4-2.4,2.4
		c-8.1-0.1-16.2-0.1-24.3,0c-1.6,0-2.2-0.5-2.2-2.1c0-29.9,0-59.8,0-89.8c0-1.8,0.6-2.4,2.5-2.4C43,3.9,66.1,3.7,89.2,4
		c15.5,0.2,28.8,9.1,33.9,25c4.3,13.6,0.5,27.5-11.1,37.3c-1.5,1.3-2.1,2.1-1,4.2c4.7,8.5,9.1,17.2,13.6,25.8
		C125,96.7,125.1,97.2,125.4,98z M66.6,27.6c-5.9,0-11.8,0.1-17.7,0c-2.1,0-2.7,0.7-2.7,2.7c0.1,6,0.1,12,0,17.9
		c-0.1,2.3,0.7,2.9,2.9,2.9c11.1-0.1,22.2,0,33.3-0.1c1.5,0,3-0.2,4.4-0.5c6.9-1.4,11.1-9.1,7.9-16.1c-2.2-4.8-6.3-6.8-11.4-6.9
		C77.8,27.6,72.2,27.6,66.6,27.6z"/>
	<path class="st0" d="M17.5,199.8c0-1,0-1.9,0-2.7c0-29.3,0-58.6,0-87.9c0-3.2,0-3.2,3.3-3.2c29.2,0,58.4,0,87.6,0
		c3.3,0,3.3,0,3.3,3.4c0,5.8,0,11.5,0,17.3c0,3,0,3-3,3c-19.8,0-39.5,0-59.3,0c-3.3,0-3.3,0-3.3,3.2c0,2.1,0.1,4.2,0,6.3
		c-0.1,1.6,0.5,2.1,2.2,2.1c7.4-0.1,14.8,0,22.2,0c11.2,0,22.4,0.1,33.6,0c2.2,0,2.6,0.8,2.6,2.7c-0.1,6.1-0.1,12.1,0,18.2
		c0,2.1-0.6,2.6-2.6,2.6c-18.1-0.1-36.1,0-54.2,0c-3.7,0-3.7,0-3.7,3.8c0,9.6,0,19.3,0,28.9c0,1.9-0.4,2.7-2.5,2.7
		c-8.2-0.1-16.3-0.1-24.5-0.1C18.6,200,18.3,199.9,17.5,199.8z"/>
	<path class="st0" d="M491.4,200c-8.5,0-16.6,0-24.7,0c-2.6,0-5.1-0.1-7.7,0c-1.8,0.1-2.3-0.6-2.2-2.3c0.1-8.9,0-17.9,0-26.8
		c0-12.9,0-25.8,0-38.7c0-2.1-0.5-2.8-2.7-2.8c-13.2,0.1-26.5,0-39.7,0.1c-2.2,0-3-0.6-3-2.9c0.1-6.1,0.1-12.1,0-18.2
		c0-1.9,0.5-2.7,2.6-2.7c40.1,0.1,80.3,0.1,120.4,0c1.9,0,2.6,0.5,2.5,2.5c-0.1,6.1-0.1,12.3,0,18.4c0.1,2.2-0.5,2.9-2.8,2.9
		c-13.2-0.1-26.5-0.1-39.7,0c-3.1,0-3.2,0-3.2,3.1c0,21.4,0,42.7,0,64.1C491.4,197.7,491.4,198.7,491.4,200z"/>
	<path class="st0" d="M133.4,98c-0.1-0.9-0.2-1.7-0.2-2.6c0-29.4,0-58.8,0-88.2c0-3.2,0-3.2,4.5-3.2c10.4,0,20.9,0.1,31.3,0
		c2.9,0,3.7,0.7,3.7,2.7c-0.1,29.7-0.1,59.4,0,89.1c0,1.8-0.7,2.4-3.3,2.4c-11.1-0.1-22.2,0-33.3,0C135.3,98.1,134.5,98,133.4,98z"
		/>
</g>
</svg>
