<?xml version="1.0" encoding="utf-8"?>
<!-- Generator: Adobe Illustrator 19.2.1, SVG Export Plug-In . SVG Version: 6.00 Build 0)  -->
<svg version="1.1" id="Layer_1" xmlns="http://www.w3.org/2000/svg" xmlns:xlink="http://www.w3.org/1999/xlink" x="0px" y="0px"
	 viewBox="0 0 1200 278" style="enable-background:new 0 0 1200 278;" xml:space="preserve">
<style type="text/css">
	.st0{fill-rule:evenodd;clip-rule:evenodd;fill:#FFFFFF;}
</style>
<path class="st0" d="M117.7,33.3c9.6,0,18.4,1.5,26.2,4.6c7.8,3.1,14.4,7.2,20,12.5c5.5,5.3,9.8,11.4,12.7,18.4
	c2.9,7,4.4,14.5,4.4,22.5c0,12.4-2.7,23.1-7.9,32.1c-5.2,9-13.9,15.9-25.8,20.6v0.6c5.7,1.6,10.4,4,14.2,7.3
	c3.8,3.3,6.8,7.2,9.2,11.6c2.4,4.5,4.1,9.4,5.2,14.8c1.1,5.4,1.8,10.7,2.3,16c0.2,3.4,0.4,7.4,0.6,11.9c0.2,4.6,0.5,9.2,1,14
	c0.5,4.8,1.2,9.3,2.3,13.6c1.1,4.3,2.8,7.9,4.9,10.9h-46.1c-2.4-6.7-3.8-14.6-4.4-23.9c-0.5-9.2-1.3-18.1-2.4-26.6
	c-1.7-11-5.2-19-10.6-24.2c-5.4-5.1-14.2-7.6-26.5-7.6H48.1v82.2H1.2V33.3H117.7z M100.9,127.2c11,0,19.3-2.3,24.9-7
	c5.5-4.7,8.3-12.3,8.3-22.8c0-10.2-2.8-17.5-8.3-22.1c-5.6-4.5-13.9-6.9-24.9-6.9H48.1v58.7H100.9z"/>
<polygon class="st0" points="361.7,33.3 361.7,72.4 249.7,72.4 249.7,119.4 352.5,119.4 352.5,154.7 249.7,154.7 249.7,205.6 
	364.1,205.6 364.1,244.7 202.8,244.7 202.8,33.3 "/>
<polygon class="st0" points="539.9,33.3 539.9,72.4 427.9,72.4 427.9,119.4 530.7,119.4 530.7,154.7 427.9,154.7 427.9,205.6 
	542.3,205.6 542.3,244.7 381,244.7 381,33.3 "/>
<polygon class="st0" points="606,33.3 606,120.9 688.9,33.3 747.2,33.3 664.3,116.8 755.2,244.7 696.7,244.7 632.8,149.2 606,176.3 
	606,244.7 559.1,244.7 559.1,33.3 "/>
<polygon class="st0" points="1067.9,33.3 1067.9,115.5 1153.9,115.5 1153.9,33.3 1200.8,33.3 1200.8,244.7 1153.9,244.7 
	1153.9,154.7 1067.9,154.7 1067.9,244.7 1021,244.7 1021,33.3 "/>
<path class="st0" d="M731.9,139c0,76.8,62.1,139,138.8,139c76.6,0,138.8-62.2,138.8-139S947.3,0,870.7,0
	C794.1,0,731.9,62.2,731.9,139z M767.1,139.6c0-57.7,46.7-104.4,104.2-104.4S975.6,82,975.6,139.6c0,57.7-46.7,104.4-104.2,104.4
	S767.1,197.3,767.1,139.6z M868.9,101.8c0-21.3,17.2-38.5,38.4-38.5s38.4,17.2,38.4,38.5s-17.2,38.5-38.4,38.5
	S868.9,123,868.9,101.8z M795.5,176.1c0-21.3,17.2-38.5,38.4-38.5c21.2,0,38.4,17.2,38.4,38.5c0,21.3-17.2,38.5-38.4,38.5
	C812.7,214.6,795.5,197.4,795.5,176.1z"/>
</svg>
