<?xml version="1.0" encoding="utf-8"?>
<!-- Generator: Adobe Illustrator 25.4.1, SVG Export Plug-In . SVG Version: 6.00 Build 0)  -->
<svg version="1.1" id="Layer_1" xmlns="http://www.w3.org/2000/svg" xmlns:xlink="http://www.w3.org/1999/xlink" x="0px" y="0px"
	 viewBox="0 0 550 205" style="enable-background:new 0 0 550 205;" xml:space="preserve">
<style type="text/css">
	.st0{fill:#FFFFFF;}
</style>
<g>
	<polygon class="st0" points="484.9,71.7 484.9,5.3 499.3,5.3 499.3,71.7 513.9,71.7 513.9,84.8 470.3,84.8 470.3,71.7 	"/>
	<path class="st0" d="M429.3,5.1h19c7.2,0,12.2,4.9,12.2,12v56c0,7.1-5,12-12.2,12h-19c-7.4,0-12.4-4.9-12.4-12v-56
		C417,10,421.9,5.1,429.3,5.1 M431.9,71.7h13.6c0.4,0,0.4-0.2,0.4-0.4V18.8c0-0.2-0.2-0.4-0.4-0.4h-13.6c-0.2,0-0.4,0.2-0.4,0.4
		v52.5C431.5,71.5,431.7,71.7,431.9,71.7"/>
	<path class="st0" d="M347.4,5.3h31.2v79.5h-31.2c-7.4,0-12.4-4.9-12.4-12V17.4C335.2,10.2,340.2,5.3,347.4,5.3 M349.6,18.8v52.5
		c0,0.4,0.2,0.4,0.4,0.4h14V18.4h-14C349.8,18.4,349.6,18.6,349.6,18.8"/>
	<polygon class="st0" points="322.4,5.3 322.4,84.8 284.6,84.8 284.6,71.7 307.8,71.7 307.8,52.9 290.4,52.9 290.4,40.4 307.8,40.4 
		307.8,18.4 284.6,18.4 284.6,5.3 	"/>
	<path class="st0" d="M245.4,30l23.4,22.7c3.4,3.1,5.2,7.1,5.2,12v8.4c0,7.1-4.8,12-12.2,12h-19c-7.4,0-12.4-4.9-12.4-12V60.7H245
		v10.6c0,0.4,0.2,0.4,0.4,0.4H259c0.4,0,0.4-0.2,0.4-0.4v-7.8c0-0.4-0.2-0.6-0.4-1l-23.4-22.7c-3.2-3.1-5.2-7.1-5.2-12V17.2
		c0-7.2,5-12,12.4-12h19c7.4,0,12.2,4.9,12.2,12v12.3h-14.6V18.8c0-0.2-0.2-0.4-0.4-0.4h-13.6c-0.2,0-0.4,0.2-0.4,0.4V29
		C245,29.4,245.2,29.8,245.4,30"/>
	<path class="st0" d="M186.4,36.3h16.8v-31h14.6v79.5h-31.2c-7.4,0-12.4-4.9-12.4-12V48.2C174.2,41.1,179,36.3,186.4,36.3
		 M189.2,71.7h14V49.4h-14c-0.2,0-0.4,0.2-0.4,0.4v21.4C188.6,71.5,188.8,71.7,189.2,71.7"/>
	<path class="st0" d="M135.8,16.1h17.6l2.2-10.8h15.2l-17.4,79.5h-17.6L118.5,5.3h15.2L135.8,16.1z M138.2,28.6l6,30.4l0.4,2.7
		L145,59l6-30.4H138.2z"/>
	<rect x="95.1" y="5.3" class="st0" width="14.6" height="79.5"/>
	<path class="st0" d="M52.9,5.3l8.2,31h6.8v-31h14.6v79.5H51.3c-7.4,0-12.4-4.9-12.4-12V48.2c0-5.9,3.2-10.2,8.6-11.6L37.7,5.3H52.9
		z M67.9,49.4h-14c-0.2,0-0.4,0.2-0.4,0.4v21.4c0,0.4,0.2,0.4,0.4,0.4h14V49.4z"/>
	<polygon class="st0" points="467.1,94 488.7,156.9 489.3,159.1 489.3,94 508.7,94 508.7,202.6 487.7,202.6 469.3,147.1 
		468.7,144.8 468.7,202.6 449.3,202.6 449.3,94 	"/>
	<path class="st0" d="M389.4,93.8h26c9.8,0,16.6,6.7,16.6,16.5v76.4c0,9.6-6.8,16.3-16.6,16.3h-26c-10,0-16.8-6.7-16.8-16.3v-76.4
		C372.6,100.5,379.4,93.8,389.4,93.8 M393,184.8h18.6c0.4,0,0.6-0.2,0.6-0.6v-71.5c0-0.4-0.2-0.6-0.6-0.6H393
		c-0.4,0-0.6,0.4-0.6,0.6v71.5C392.4,184.6,392.6,184.8,393,184.8"/>
	<polygon class="st0" points="319.4,184.8 319.4,94 339.4,94 339.4,184.8 359.2,184.8 359.2,202.6 299.6,202.6 299.6,184.8 	"/>
	<polygon class="st0" points="246.6,94 246.6,141.5 266.4,141.5 266.4,94 286.2,94 286.2,202.6 266.4,202.6 266.4,159.3 
		246.6,159.3 246.6,202.6 226.8,202.6 226.8,94 	"/>
	<rect x="189.6" y="94" class="st0" width="19.8" height="108.5"/>
	<polygon class="st0" points="130.8,94 152.2,156.9 152.8,159.1 152.8,94 172.2,94 172.2,202.6 151.2,202.6 132.8,147.1 
		132.2,144.8 132.2,202.6 112.9,202.6 112.9,94 	"/>
	<path class="st0" d="M52.9,93.8h26c9.8,0,16.6,6.7,16.6,16.5v76.4c0,9.6-6.8,16.3-16.6,16.3h-26c-10,0-16.8-6.7-16.8-16.3v-17h19.8
		v14.5c0,0.4,0.4,0.6,0.6,0.6h18.6c0.4,0,0.6-0.2,0.6-0.6v-71.5c0-0.4-0.2-0.6-0.6-0.6H56.5c-0.4,0-0.6,0.4-0.6,0.6V136h11v17.8
		H36.1v-43.5C36.1,100.5,42.9,93.8,52.9,93.8"/>
</g>
</svg>
