<?xml version="1.0" encoding="utf-8"?>
<!-- Generator: Adobe Illustrator 25.4.1, SVG Export Plug-In . SVG Version: 6.00 Build 0)  -->
<svg version="1.1" id="Layer_1" xmlns="http://www.w3.org/2000/svg" xmlns:xlink="http://www.w3.org/1999/xlink" x="0px" y="0px"
	 viewBox="0 0 210 34" style="enable-background:new 0 0 210 34;" xml:space="preserve">
<style type="text/css">
	.st0{fill-rule:evenodd;clip-rule:evenodd;fill:#FFFFFF;}
	.st1{fill:#FFFFFF;}
	.st2{opacity:0.7;fill-rule:evenodd;clip-rule:evenodd;fill:#FFFFFF;}
	.st3{opacity:0.7;fill:#FFFFFF;}
</style>
<path class="st0" d="M15.7,23.4c2.6,0,4.7-0.8,6.2-2.3c1.6-1.6,2.4-3.6,2.4-6.1s-0.8-4.6-2.4-6.1c-1.6-1.5-3.7-2.3-6.2-2.3
	c-2.6,0-4.7,0.8-6.3,2.3C7.8,10.4,7,12.5,7,15s0.8,4.5,2.4,6.1C11,22.6,13.1,23.4,15.7,23.4z M15.7,0.9c4.7,0,8.4,1.4,11.3,4.2
	c2.9,2.8,4.3,6.1,4.3,9.9c0,3.8-1.5,7.1-4.4,9.9c-2.9,2.8-6.7,4.2-11.3,4.2c-4.6,0-8.4-1.4-11.3-4.2C1.4,22.2,0,18.9,0,15
	c0-3.8,1.4-7.1,4.3-9.9C7.2,2.3,11,0.9,15.7,0.9z"/>
<path class="st0" d="M35.2,1.3H54v5H42v6.1h12v5H42v11.3h-6.8V1.3z"/>
<path class="st0" d="M59.3,1.3h18.8v5h-12v6.1h12v5h-12v11.3h-6.8V1.3z"/>
<path class="st1" d="M89.6,1.3h-6.8v27.5h6.8V1.3z"/>
<path class="st0" d="M120.6,20.4v6c-3.3,1.8-7,2.7-10.7,2.7c-4.9,0-8.7-1.4-11.6-4.1c-1.4-1.3-2.5-2.8-3.2-4.5
	c-0.7-1.7-1.1-3.6-1.1-5.5c0-4,1.5-7.3,4.5-10.1c3-2.8,7-4.1,11.9-4.1c3.9,0,7.2,0.8,9.9,2.4v6.1c-3.3-1.9-6.5-2.8-9.4-2.8
	c-2.9,0-5.3,0.8-7.1,2.4c-0.9,0.7-1.6,1.6-2.1,2.7c-0.5,1-0.7,2.2-0.7,3.3c0,1.2,0.2,2.3,0.7,3.3c0.5,1,1.2,2,2.1,2.7
	c1.8,1.6,4.2,2.4,7,2.4c1.4,0,2.7-0.2,4.1-0.6C116.8,22.2,118.7,21.4,120.6,20.4L120.6,20.4z"/>
<path class="st0" d="M131.7,23.7h13.4v5h-20.2V1.3h19.9v5h-13.1v5.8h12.5v5h-12.5V23.7z"/>
<path class="st2" d="M169.9,1.3h6.8v27.5h-6.8V17.6h-13.6v11.2h-6.8V1.3h6.8v11h13.6V1.3z"/>
<path class="st3" d="M194.3,0c-1.9,0-3.9,0.4-5.7,1.1c-1.8,0.7-3.4,1.8-4.8,3.2c-1.4,1.4-2.5,3-3.2,4.8c-0.7,1.8-1.1,3.7-1.1,5.7
	c0,1.9,0.3,3.8,1.1,5.6c0.7,1.8,1.8,3.4,3.2,4.8c2.8,2.9,6.3,4.4,10.6,4.4c1.7,0,3.4-0.3,5.1-0.9l8.9,4.6c0,0,2.2,1.2,1.5-1.1
	l-3.6-8.6c1.8-2.5,2.8-5.6,2.8-8.7c0-2-0.3-3.9-1.1-5.7c-0.7-1.8-1.9-3.4-3.3-4.8c-1.3-1.4-2.9-2.5-4.7-3.2
	C198.2,0.4,196.3,0,194.3,0L194.3,0z M194.3,6.1c1.6,0,3.2,0.5,4.6,1.4c1.4,0.9,2.4,2.2,3,3.7c0.6,1.5,0.8,3.2,0.4,4.8
	c-0.3,1.6-1.1,3.1-2.3,4.2c-1.2,1.2-2.6,1.9-4.3,2.2c-1.6,0.3-3.3,0.1-4.8-0.5c-1.5-0.6-2.8-1.7-3.7-3.1c-0.9-1.4-1.4-3-1.4-4.6
	c0-2.2,0.9-4.3,2.5-5.9C190,7,192.1,6.1,194.3,6.1L194.3,6.1z"/>
</svg>
