<?xml version="1.0" encoding="utf-8"?>
<!-- Generator: Adobe Illustrator 25.4.1, SVG Export Plug-In . SVG Version: 6.00 Build 0)  -->
<svg version="1.1" id="Layer_1" xmlns="http://www.w3.org/2000/svg" xmlns:xlink="http://www.w3.org/1999/xlink" x="0px" y="0px"
	 viewBox="0 0 841.9 357.3" style="enable-background:new 0 0 841.9 357.3;" xml:space="preserve">
<style type="text/css">
	.st0{fill:#FFFFFF;}
</style>
<path class="st0" d="M206.7,118.7c0.2,0,0.4,0.1,0.7,0.1c1.6,0,3-1,3.3-2.6l11.4-52c0.4-1.8-0.7-3.6-2.5-4c-1.8-0.4-3.6,0.7-4,2.5
	l-11.4,52C203.7,116.6,204.9,118.3,206.7,118.7 M231.7,129.6c0.6,0.4,1.2,0.6,1.8,0.6c1.1,0,2.1-0.5,2.8-1.4l30.4-43.7
	c1.1-1.5,0.7-3.6-0.8-4.6c-1.5-1.1-3.6-0.7-4.6,0.8L230.8,125C229.8,126.5,230.2,128.6,231.7,129.6 M301,116.9c-1-1.5-3-2-4.6-1
	l-44.8,28.7c-1.5,1-2,3.1-1,4.6c0.6,1,1.7,1.5,2.7,1.5c0.6,0,1.3-0.2,1.9-0.5l44.8-28.7C301.6,120.6,302,118.5,301,116.9
	 M128.3,223.7l-44.8,28.7c-1.5,1-2,3.1-1,4.6c0.6,1,1.7,1.5,2.7,1.5c0.6,0,1.3-0.2,1.9-0.5l44.8-28.7c1.5-1,2-3,1-4.6
	C131.9,223.2,129.9,222.7,128.3,223.7 M66.6,206.1c-1.8,0.3-3,2.1-2.7,3.9c0.3,1.6,1.7,2.7,3.2,2.7c0.2,0,0.4,0,0.7-0.1l52.4-9.4
	c1.8-0.3,3-2.1,2.7-3.9c-0.3-1.8-2-3-3.9-2.7L66.6,206.1z M120.9,168.1l-52-11.4c-1.8-0.4-3.6,0.7-4,2.5c-0.4,1.8,0.7,3.6,2.5,4
	l52,11.4c0.2,0,0.4,0.1,0.7,0.1c1.6,0,3-1,3.3-2.6C123.8,170.3,122.7,168.5,120.9,168.1 M133.5,142.5L89.8,112
	c-1.5-1.1-3.6-0.7-4.6,0.8c-1.1,1.5-0.7,3.6,0.8,4.6l43.7,30.4c0.6,0.4,1.2,0.6,1.8,0.6c1.1,0,2.1-0.5,2.8-1.4
	C135.4,145.6,135,143.5,133.5,142.5 M149.4,127.2c0.6,1,1.7,1.5,2.7,1.5c0.6,0,1.3-0.2,1.9-0.5c1.5-1,2-3.1,1-4.6l-28.7-44.8
	c-1-1.5-3-2-4.6-1c-1.5,1-2,3.1-1,4.6L149.4,127.2z M168.8,59.2c-1.8,0.3-3,2.1-2.7,3.9l9.4,52.4c0.3,1.6,1.7,2.7,3.2,2.7
	c0.2,0,0.4,0,0.7-0.1c1.8-0.3,3-2.1,2.7-3.9l-9.4-52.4C172.4,60.1,170.7,58.9,168.8,59.2 M37.9,123.5l85.4,37.3
	c0.4,0.2,0.8,0.3,1.3,0.3c1.3,0,2.6-0.7,3.1-2c0.7-1.7,0-3.6-1.7-4.4l-85.4-37.3c-1.7-0.7-3.6,0-4.4,1.7
	C35.4,120.8,36.2,122.7,37.9,123.5 M219.7,122.9c0.4,0.2,0.8,0.3,1.3,0.3c1.3,0,2.6-0.7,3.1-2l37.3-85.4c0.7-1.7,0-3.6-1.7-4.4
	c-1.7-0.7-3.6,0-4.4,1.7L218,118.6C217.3,120.3,218,122.2,219.7,122.9 M161.9,120.1c0.5,1.3,1.7,2.1,3,2.1c0.4,0,0.9-0.1,1.3-0.2
	c1.7-0.7,2.6-2.6,1.9-4.3l-34-86.8c-0.7-1.7-2.6-2.5-4.3-1.9c-1.7,0.7-2.6,2.6-1.9,4.3L161.9,120.1z M126.7,212.5
	c-0.7-1.7-2.6-2.5-4.3-1.9l-86.8,34c-1.7,0.7-2.6,2.6-1.9,4.3c0.5,1.3,1.7,2.1,3,2.1c0.4,0,0.9-0.1,1.3-0.2l86.8-34
	C126.5,216.2,127.3,214.3,126.7,212.5 M138.6,136.6c0.6,0.7,1.5,1,2.3,1c0.9,0,1.7-0.3,2.4-0.9c1.3-1.3,1.4-3.4,0.1-4.7L78.7,64.8
	c-1.3-1.3-3.4-1.4-4.7-0.1c-1.3,1.3-1.4,3.4-0.1,4.7L138.6,136.6z M242.1,138.5c0.6,0.7,1.5,1,2.3,1c0.9,0,1.7-0.3,2.4-0.9L314,74
	c1.3-1.3,1.4-3.4,0.1-4.7c-1.3-1.3-3.4-1.4-4.7-0.1l-67.1,64.7C240.9,135.1,240.8,137.2,242.1,138.5 M195,17.3
	c-1.8,0-3.4,1.4-3.4,3.3l-1.8,93.2c0,1.8,1.4,3.4,3.3,3.4c1.8,0,3.4-1.4,3.4-3.3l1.8-93.2C198.3,18.8,196.8,17.3,195,17.3
	 M121.9,185.7c0-1.8-1.4-3.4-3.3-3.4l-93.2-1.8c-1.8,0-3.4,1.4-3.4,3.3c0,1.8,1.4,3.4,3.3,3.4l93.2,1.8
	C120.3,189,121.8,187.5,121.9,185.7"/>
<path class="st0" d="M735.2,177.1h22.3c1.1,0,2.1,0.9,2.1,2.1v10h0.4c0.9-1.7,2.1-3.4,3.7-5.1c1.6-1.7,3.5-3.2,5.7-4.6
	c2.2-1.3,4.7-2.4,7.5-3.3c2.8-0.9,5.9-1.3,9.2-1.3c7,0,12.6,1.1,16.9,3.2c4.3,2.1,7.6,5.1,10,8.9c2.4,3.8,4,8.3,4.9,13.4
	c0.9,5.1,1.3,10.7,1.3,16.7v47.1c0,1.1-0.9,2.1-2.1,2.1h-23.4c-1.1,0-2.1-0.9-2.1-2.1v-41.6c0-2.6-0.1-5.2-0.3-8
	c-0.2-2.8-0.7-5.3-1.7-7.6c-0.9-2.3-2.3-4.2-4.2-5.7c-1.9-1.5-4.6-2.2-8.2-2.2c-3.6,0-6.4,0.6-8.6,1.9c-2.2,1.3-3.9,3-5.1,5.1
	c-1.2,2.1-1.9,4.6-2.3,7.3c-0.4,2.7-0.6,5.5-0.6,8.4v42.4c0,1.1-0.9,2.1-2.1,2.1h-23.4c-1.1,0-2.1-0.9-2.1-2.1v-85.1
	C733.1,178,734.1,177.1,735.2,177.1"/>
<path class="st0" d="M377.3,211.6c0.1-4.7-1.4-8.6-4.6-11.9c-3.2-3.3-7.3-5-12.3-5c-3.1,0-5.8,0.5-8.1,1.5c-2.3,1-4.3,2.2-6,3.8
	c-1.7,1.5-2.9,3.3-3.9,5.3c-0.9,2-1.4,4.1-1.6,6.3H377.3z M398.9,249.6c1,0.7,1.2,2.1,0.4,3c-4.2,4.8-9.3,8.6-15.3,11.3
	c-6.7,3.1-13.7,4.6-20.9,4.6c-6.9,0-13.3-1.1-19.4-3.3c-6.1-2.2-11.3-5.4-15.8-9.5c-4.5-4.1-8-9-10.6-14.8
	c-2.6-5.8-3.9-12.2-3.9-19.3c0-7.1,1.3-13.5,3.9-19.3c2.6-5.8,6.1-10.7,10.6-14.8c4.5-4.1,9.7-7.3,15.8-9.5
	c6.1-2.2,12.5-3.3,19.4-3.3c6.4,0,12.2,1.1,17.4,3.3c5.2,2.2,9.6,5.4,13.2,9.5c3.6,4.1,6.4,9,8.4,14.8c2,5.8,2.9,12.2,2.9,19.3v6.6
	c0,1.2-0.9,2.1-2.1,2.1h-61.8c1.1,5.3,3.5,9.5,7.2,12.6c3.7,3.1,8.2,4.7,13.6,4.7c4.5,0,8.4-1,11.5-3c2.6-1.7,4.9-3.8,7-6.3
	c0.7-0.9,2-1,2.9-0.3L398.9,249.6z"/>
<path class="st0" d="M415.1,175.3H439c1.1,0,2.1,0.9,2.1,2.1v12.5h0.4c3-5.6,6.6-9.8,10.7-12.7c4.1-2.8,9.3-4.2,15.6-4.2
	c1.6,0,3.2,0.1,4.9,0.2c1,0.1,1.9,0.2,2.8,0.4c1,0.2,1.7,1,1.7,2.1v21.3c0,1.3-1.3,2.3-2.6,2c-1.1-0.3-2.2-0.5-3.3-0.7
	c-1.9-0.3-4-0.5-6.1-0.5c-5.4,0-9.6,0.7-12.7,2.2c-3.1,1.5-5.5,3.6-7.2,6.3c-1.7,2.7-2.8,5.9-3.3,9.6c-0.5,3.7-0.7,7.9-0.7,12.4v36
	c0,1.1-0.9,2.1-2.1,2.1h-23.9c-1.1,0-2.1-0.9-2.1-2.1v-86.9C413,176.2,413.9,175.3,415.1,175.3"/>
<path class="st0" d="M487.3,176.4h23.4c1.2,0,2.1,0.9,2.1,2.1v85.1c0,1.2-0.9,2.1-2.1,2.1h-23.4c-1.1,0-2.1-0.9-2.1-2.1v-85.1
	C485.2,177.4,486.1,176.4,487.3,176.4 M483,148.3c0-4.4,1.6-8.2,4.7-11.3c3-3,7.1-4.7,11.3-4.7c4.4,0,8.2,1.6,11.3,4.7
	c3,3,4.7,7.1,4.7,11.3c0,4.4-1.6,8.2-4.7,11.3c-3,3-7.1,4.7-11.3,4.7c-4.4,0-8.2-1.6-11.3-4.7C484.7,156.7,483,152.6,483,148.3"/>
<path class="st0" d="M592.3,221.7c0-6.7-1.9-12.2-5.8-16.3c-3.9-4.2-9.3-6.2-16.3-6.2c-7,0-12.4,2.1-16.3,6.2
	c-3.9,4.2-5.8,9.6-5.8,16.3c0,6.7,1.9,12.2,5.8,16.3c3.9,4.2,9.3,6.2,16.3,6.2c7,0,12.4-2.1,16.3-6.2
	C590.3,233.9,592.3,228.4,592.3,221.7 M615.5,266.3h-21.2c-1.1,0-2.1-0.9-2.1-2.1v-9.7h-0.4c-1.1,1.6-2.5,3.2-4.3,4.9
	c-1.8,1.7-3.9,3.2-6.2,4.5c-2.4,1.4-5,2.4-7.9,3.3c-2.9,0.9-5.9,1.3-8.9,1.3c-6.6,0-12.6-1.1-18-3.4c-5.4-2.3-10-5.4-13.9-9.6
	c-3.9-4.1-6.8-9-8.9-14.6c-2.1-5.6-3.1-11.8-3.1-18.6c0-6.2,0.9-12.2,2.8-17.9c1.9-5.7,4.6-10.7,8.1-15.2c3.5-4.4,7.7-7.9,12.8-10.6
	c5-2.6,10.7-3.9,17.1-3.9c5.8,0,11.1,0.9,16.1,2.7c5,1.8,9,4.8,12.2,9.1h0.4v-57.1c0-1.2,0.9-2.1,2.1-2.1h23.4
	c1.1,0,2.1,0.9,2.1,2.1v134.7C617.6,265.4,616.7,266.3,615.5,266.3"/>
<path class="st0" d="M696.8,221.7c0-6.7-1.9-12.2-5.8-16.3c-3.9-4.2-9.3-6.2-16.3-6.2c-7,0-12.4,2.1-16.3,6.2
	c-3.9,4.2-5.8,9.6-5.8,16.3c0,6.7,1.9,12.2,5.8,16.3c3.9,4.2,9.3,6.2,16.3,6.2c7,0,12.4-2.1,16.3-6.2
	C694.9,233.9,696.8,228.4,696.8,221.7 M720.1,266.3h-21.2c-1.1,0-2.1-0.9-2.1-2.1v-9.7h-0.4c-1.1,1.6-2.5,3.2-4.3,4.9
	c-1.8,1.7-3.9,3.2-6.2,4.5c-2.4,1.4-5,2.4-7.9,3.3c-2.9,0.9-5.9,1.3-8.9,1.3c-6.6,0-12.6-1.1-18-3.4c-5.4-2.3-10-5.4-13.9-9.6
	c-3.9-4.1-6.8-9-8.9-14.6c-2.1-5.6-3.1-11.8-3.1-18.6c0-6.2,0.9-12.2,2.8-17.9c1.9-5.7,4.6-10.7,8.1-15.2c3.5-4.4,7.7-7.9,12.8-10.6
	c5-2.6,10.7-3.9,17.1-3.9c5.8,0,11.1,0.9,16.1,2.7c5,1.8,9,4.8,12.2,9.1h0.4v-8.1c0-1.1,0.9-2.1,2.1-2.1h23.4c1.1,0,2.1,0.9,2.1,2.1
	v85.7C722.2,265.4,721.3,266.3,720.1,266.3"/>
<path class="st0" d="M165,315.1c0-2.3,0.4-4.5,1.2-6.7c0.8-2.2,2-4.2,3.5-6c1.5-1.8,3.4-3.2,5.6-4.3c2.2-1.1,4.7-1.6,7.6-1.6
	c3.3,0,6.2,0.8,8.6,2.3c2.4,1.5,4.2,3.5,5.3,5.9l-3.7,2.4c-0.6-1.2-1.2-2.2-2-3c-0.8-0.8-1.7-1.5-2.6-2c-0.9-0.5-1.9-0.8-2.9-1.1
	c-1-0.2-2-0.3-2.9-0.3c-2.1,0-3.9,0.4-5.5,1.3c-1.6,0.9-3,2-4,3.4c-1.1,1.4-1.9,3-2.5,4.7c-0.5,1.7-0.8,3.5-0.8,5.3
	c0,2,0.3,3.8,1,5.6c0.7,1.8,1.6,3.4,2.7,4.7c1.2,1.4,2.5,2.5,4.1,3.3c1.6,0.8,3.3,1.2,5.2,1.2c1,0,2-0.1,3-0.4c1-0.2,2-0.6,3-1.2
	c0.9-0.5,1.8-1.2,2.7-2.1c0.8-0.8,1.5-1.8,2-3l4,2.2c-0.6,1.4-1.4,2.7-2.5,3.7c-1.1,1.1-2.3,2-3.6,2.7c-1.4,0.7-2.8,1.3-4.3,1.7
	c-1.5,0.4-3,0.6-4.4,0.6c-2.6,0-4.9-0.6-7.1-1.7c-2.1-1.1-4-2.6-5.6-4.4c-1.6-1.8-2.8-3.9-3.6-6.2S165,317.5,165,315.1"/>
<path class="st0" d="M212.8,315.4c0,1.9,0.3,3.7,0.9,5.5c0.6,1.8,1.5,3.4,2.6,4.7c1.1,1.4,2.5,2.5,4.1,3.3c1.6,0.8,3.3,1.2,5.3,1.2
	c2,0,3.8-0.4,5.4-1.3c1.6-0.9,2.9-2,4-3.4c1.1-1.4,2-3,2.5-4.7c0.6-1.8,0.9-3.5,0.9-5.3c0-1.9-0.3-3.7-0.9-5.5
	c-0.6-1.8-1.5-3.3-2.6-4.7c-1.1-1.4-2.5-2.4-4.1-3.2c-1.6-0.8-3.3-1.2-5.2-1.2c-2,0-3.8,0.4-5.4,1.3c-1.6,0.8-2.9,2-4,3.3
	c-1.1,1.4-2,2.9-2.6,4.7C213.1,311.7,212.8,313.5,212.8,315.4 M225.6,334.4c-2.6,0-5-0.5-7.2-1.6c-2.2-1.1-4-2.5-5.6-4.3
	c-1.6-1.8-2.7-3.8-3.6-6.1c-0.8-2.3-1.3-4.6-1.3-7c0-2.5,0.5-4.9,1.3-7.2c0.9-2.3,2.1-4.3,3.7-6.1s3.5-3.2,5.6-4.2
	c2.2-1,4.5-1.6,7.1-1.6c2.6,0,5,0.6,7.2,1.7c2.1,1.1,4,2.6,5.5,4.4c1.5,1.8,2.7,3.8,3.6,6.1c0.8,2.3,1.3,4.6,1.3,6.9
	c0,2.5-0.4,4.9-1.3,7.2c-0.9,2.3-2.1,4.3-3.7,6c-1.6,1.7-3.4,3.1-5.6,4.2C230.5,333.9,228.2,334.4,225.6,334.4"/>
<polygon class="st0" points="289.5,296.6 275.9,321 262.3,296.6 257.3,296.6 257.3,334.1 262.1,334.1 262.1,305.1 274.6,327.4 
	277.3,327.4 289.7,305.1 289.7,334.1 294.5,334.1 294.5,296.6 "/>
<polygon class="st0" points="343.1,296.6 329.4,321 315.9,296.6 310.9,296.6 310.9,334.1 315.6,334.1 315.6,305.1 328.1,327.4 
	330.8,327.4 343.3,305.1 343.3,334.1 348,334.1 348,296.6 "/>
<path class="st0" d="M379.8,330.1c2.2,0,4-0.4,5.4-1.3c1.4-0.8,2.6-1.9,3.5-3.3c0.9-1.4,1.5-2.9,1.8-4.6c0.4-1.7,0.5-3.5,0.5-5.3
	v-19h4.8v19c0,2.5-0.3,4.9-0.9,7.2c-0.6,2.3-1.5,4.3-2.8,6c-1.3,1.7-2.9,3.1-4.9,4.1c-2,1-4.5,1.5-7.4,1.5c-3,0-5.5-0.5-7.5-1.6
	c-2-1.1-3.7-2.5-4.9-4.2s-2.1-3.7-2.7-6c-0.5-2.3-0.8-4.6-0.8-7v-19h4.8v19c0,1.9,0.2,3.7,0.6,5.4s1,3.3,1.8,4.6
	c0.9,1.3,2,2.4,3.4,3.2C375.9,329.7,377.7,330.1,379.8,330.1"/>
<polygon class="st0" points="411.6,296.6 411.6,334.1 416.4,334.1 416.4,305.5 439.3,334.1 443.3,334.1 443.3,296.7 438.6,296.7 
	438.6,325.8 415.3,296.6 "/>
<rect x="459.7" y="296.6" class="st0" width="4.8" height="37.5"/>
<polygon class="st0" points="477.2,296.6 477.2,300.9 490.2,300.9 490.2,334.1 494.9,334.1 494.9,300.9 507.8,300.9 507.8,296.6 "/>
<polygon class="st0" points="544.9,296.6 533.4,316.2 522.1,296.6 516.8,296.6 531,320.3 531,334.1 535.8,334.1 535.8,320.4 
	550,296.6 "/>
<path class="st0" d="M579,315.1c0-2.3,0.4-4.5,1.2-6.7c0.8-2.2,2-4.2,3.5-6c1.5-1.8,3.4-3.2,5.6-4.3c2.2-1.1,4.7-1.6,7.6-1.6
	c3.3,0,6.2,0.8,8.6,2.3c2.4,1.5,4.2,3.5,5.3,5.9L607,307c-0.6-1.2-1.2-2.2-2-3c-0.8-0.8-1.7-1.5-2.6-2c-0.9-0.5-1.9-0.8-2.9-1.1
	c-1-0.2-2-0.3-2.9-0.3c-2.1,0-3.9,0.4-5.5,1.3c-1.6,0.9-3,2-4,3.4c-1.1,1.4-1.9,3-2.5,4.7c-0.5,1.7-0.8,3.5-0.8,5.3
	c0,2,0.3,3.8,1,5.6c0.7,1.8,1.6,3.4,2.7,4.7c1.2,1.4,2.5,2.5,4.1,3.3c1.6,0.8,3.3,1.2,5.2,1.2c1,0,2-0.1,3-0.4c1-0.2,2-0.6,3-1.2
	c0.9-0.5,1.8-1.2,2.7-2.1c0.8-0.8,1.5-1.8,2-3l4,2.2c-0.6,1.4-1.4,2.7-2.5,3.7c-1.1,1.1-2.3,2-3.6,2.7c-1.4,0.7-2.8,1.3-4.3,1.7
	c-1.5,0.4-3,0.6-4.4,0.6c-2.6,0-4.9-0.6-7.1-1.7c-2.1-1.1-4-2.6-5.6-4.4c-1.6-1.8-2.8-3.9-3.6-6.2C579.4,319.9,579,317.5,579,315.1"
	/>
<polygon class="st0" points="624.8,296.6 624.8,334.1 650.3,334.1 650.3,329.9 629.6,329.9 629.6,317 647.1,317 647.1,313 
	629.6,313 629.6,300.9 649.8,300.9 649.8,296.6 "/>
<polygon class="st0" points="664.1,296.6 664.1,334.1 668.9,334.1 668.9,305.5 691.8,334.1 695.8,334.1 695.8,296.7 691.1,296.7 
	691.1,325.8 667.8,296.6 "/>
<polygon class="st0" points="708.6,296.6 708.6,300.9 721.5,300.9 721.5,334.1 726.3,334.1 726.3,300.9 739.2,300.9 739.2,296.6 "/>
<path class="st0" d="M756.8,316.4h11.4c1,0,1.9-0.2,2.7-0.6c0.8-0.4,1.5-1,2-1.7c0.6-0.7,1-1.6,1.3-2.5c0.3-1,0.5-1.9,0.5-3
	c0-1.1-0.2-2.1-0.6-3c-0.4-0.9-0.9-1.8-1.5-2.5c-0.6-0.7-1.3-1.3-2.2-1.7c-0.8-0.4-1.7-0.6-2.6-0.6h-11V316.4z M752,334.1v-37.5h16
	c1.7,0,3.2,0.3,4.6,1c1.4,0.7,2.6,1.6,3.6,2.7c1,1.1,1.8,2.4,2.3,3.9c0.6,1.4,0.8,2.9,0.8,4.4c0,1.3-0.2,2.6-0.6,3.8
	c-0.4,1.2-0.9,2.3-1.6,3.3c-0.7,1-1.5,1.8-2.5,2.5c-1,0.7-2.1,1.2-3.2,1.5l9.1,14.4h-5.4l-8.6-13.5h-9.9v13.5H752z"/>
<polygon class="st0" points="794.1,296.6 794.1,334.1 819.5,334.1 819.5,329.9 798.8,329.9 798.8,317 816.4,317 816.4,313 
	798.8,313 798.8,300.9 819.1,300.9 819.1,296.6 "/>
<path class="st0" d="M167,177.1h22.3c1.1,0,2.1,0.9,2.1,2.1v10h0.4c0.9-1.7,2.1-3.4,3.7-5.1c1.6-1.7,3.5-3.2,5.7-4.6
	c2.2-1.3,4.7-2.4,7.5-3.3c2.8-0.9,5.9-1.3,9.2-1.3c6.2,0,11.8,1.3,16.6,3.9c3.8,2,6.9,5,9.3,8.9c0.8,1.3,2.7,1.4,3.5,0.1
	c2.8-4.2,6-7.2,9.7-9.2c4.5-2.4,10.1-3.7,16.7-3.7c6,0,11.1,1,15.2,3c4.1,2,7.3,4.8,9.7,8.3c2.4,3.5,4.1,7.6,5.1,12.3
	c1,4.7,1.6,9.8,1.6,15.2v50.6c0,1.1-0.9,2.1-2.1,2.1h-23.4c-1.1,0-2.1-0.9-2.1-2.1v-49.9c0-4.2-0.9-7.7-2.7-10.7
	c-1.8-3-4.9-4.5-9.5-4.5c-3.2,0-5.8,0.5-8,1.6c-2.1,1-3.9,2.5-5.1,4.3c-1.3,1.8-2.2,4-2.8,6.4c-0.6,2.5-0.8,5-0.8,7.7v45.1
	c0,1.1-0.9,2.1-2.1,2.1h-23.4c-1.1,0-2.1-0.9-2.1-2.1v-45.1c0-1.6-0.1-3.5-0.2-5.9c-0.1-2.3-0.6-4.5-1.3-6.6
	c-0.7-2.1-1.9-3.9-3.6-5.3c-1.7-1.5-4.1-2.2-7.3-2.2c-3.6,0-6.4,0.6-8.6,1.9c-2.2,1.3-3.9,3-5.1,5.1c-1.2,2.1-1.9,4.6-2.3,7.3
	c-0.4,2.7-0.6,5.5-0.6,8.4v42.4c0,1.1-0.9,2.1-2.1,2.1H167c-1.1,0-2.1-0.9-2.1-2.1v-85.1C164.9,178,165.8,177.1,167,177.1"/>
</svg>
