<?xml version="1.0" encoding="utf-8"?>
<!-- Generator: Adobe Illustrator 25.4.1, SVG Export Plug-In . SVG Version: 6.00 Build 0)  -->
<svg version="1.1" id="Layer_1" xmlns="http://www.w3.org/2000/svg" xmlns:xlink="http://www.w3.org/1999/xlink" x="0px" y="0px"
	 viewBox="0 0 646.5 261.4" style="enable-background:new 0 0 646.5 261.4;" xml:space="preserve">
<style type="text/css">
	.st0{fill:#FFFFFF;}
</style>
<path class="st0" d="M483.1,43.8c-17.7,0-35.5,0-53.2,0c-5.2,0-8.2,2.1-10.1,6.8c-11.4,28.6-22.8,57.2-34.1,85.8
	c-1.8,4.5-5,6.7-10,6.7c-7,0-13.9,0-20.9,0c-4.8,0-8-2.2-9.9-6.5c-1-2.4-1.9-4.9-3.1-7.3c-0.4-0.8-1.4-1.7-2.2-1.8
	c-0.6-0.1-1.6,1-2,1.8c-1.2,2.4-2.1,5-3.1,7.5c-1.7,4.2-4.8,6.4-9.4,6.4c-7.4,0-14.7,0-22.1,0c-4.5,0-7.6-2.2-9.2-6.3
	c-15.9-40-31.7-80.1-47.6-120.1c-1.7-4.2-0.2-6.3,4.3-6.3c7.1,0,14.2,0,21.3,0c4.9,0,8,2.1,9.8,6.6c9.9,24.9,19.8,49.8,29.7,74.7
	c0.5,1.4,1.8,2.4,2.7,3.6c0.9-1.2,2.2-2.2,2.8-3.6c5.5-13.7,10.9-27.4,16.4-41.1c0.8-1.9,1.9-3.7,3.3-5.1c2-2.1,4-2.1,6,0
	c1.3,1.4,2.5,3.2,3.2,5c5.5,13.6,10.8,27.3,16.4,40.9c0.6,1.5,2,2.6,3,4c1-1.3,2.3-2.4,2.8-3.8c9.8-24.5,19.6-49,29.3-73.5
	c2.2-5.5,4.9-7.3,11-7.3c44.1,0,88.3,0,132.4,0c30.7,0,58.4,22.9,64.2,53c6.7,35-13.9,68.2-48.1,77.2c-5.4,1.4-11.2,2.1-16.8,2.2
	c-21.1,0.2-42.2,0.1-63.3,0.1c-5.1,0-6.5-2-4.6-6.7c2.7-6.5,5.3-13,8-19.5c1.9-4.6,5-6.7,10-6.7c14.7,0,29.4,0,44.1-0.1
	c14.3-0.1,26.6-8.5,31.6-21.6c8.2-21.6-7.9-44.6-31.3-44.7C517.4,43.7,500.2,43.8,483.1,43.8z"/>
<path class="st0" d="M51.4,119.1c-9.4-5.8-18.7-11.6-28.1-17.5c1.2-3.2,2.4-6.2,3.6-9.2c9.9-25,19.9-50.1,29.8-75.1
	c1.8-4.5,4.9-6.6,9.7-6.7c2.6,0,5.3,0,7.9,0c5.2,0,8.2,2.1,10.1,6.8c5,12.7,10,25.4,15.1,38c0.6,1.5,2,2.6,3,4c1-1.3,2.4-2.5,3-4
	c5.1-12.6,10.2-25.3,15.2-38c2-5.1,4.8-7,10.4-7c2.5,0,5,0,7.4,0c5.4,0,8.2,1.9,10.2,7c6.4,16.2,12.9,32.5,19.3,48.7
	c9.2,23.2,18.4,46.4,27.6,69.6c0.2,0.6,0.5,1.2,0.7,1.8c1.2,3.4-0.2,5.6-3.8,5.6c-5.9,0.1-11.8,0-17.7,0c-11,0-11.8-0.6-15.8-10.8
	c-7.2-18.2-14.4-36.3-21.6-54.5c-0.1-0.1-0.1-0.3-0.2-0.4c-0.8-0.9-1.6-1.8-2.4-2.7c-0.9,0.9-2.1,1.7-2.5,2.9
	c-2.4,5.7-4.6,11.6-6.9,17.3c-5.5,13.9-11,27.9-16.6,41.8c-1.1,2.8-2.6,5.9-6.2,5.8c-3.5-0.1-5-3.1-6.1-6
	C88.7,117.3,81,97.9,73.2,78.5c-0.5-1.3-1.9-2.3-2.8-3.5c-0.9,1.1-2.1,2.1-2.6,3.4c-5.2,12.8-10.3,25.6-15.4,38.4
	C52.1,117.5,51.8,118.2,51.4,119.1z"/>
<path class="st0" d="M186.4,10.6c8,0,16,0,24,0c19.8,0,37.4,15.7,40.2,35.3c1.4,9.7-1.5,17.9-7,25.6c-4.4,6.1-9.5,11.6-15.5,16.2
	c-2.9,2.2-3.1,3.7-0.3,6.4c6.5,6.4,13.2,12.6,19.8,18.8c9,8.6,18.1,17.1,27.1,25.7c0.8,0.8,1.1,2.1,1.6,3.2
	c-1.1,0.4-2.3,1.2-3.4,1.2c-10,0.1-20,0.1-30-0.1c-4.1-0.1-7.8-1.6-10.8-4.5c-13.6-13.6-27.3-27.1-40.8-40.9
	c-2.8-2.8-5-6.5-6.6-10.1c-3-6.6-5.4-13.4-8.1-20.2c-1.6-4.2-0.1-6.3,4.3-6.3c9.4,0,18.9,0,28.3,0c4,0,7.2-2.4,8.3-6
	c1.1-3.4,0.1-7.1-2.9-9.1c-1.6-1-3.7-1.8-5.5-1.8c-11.3-0.2-22.7-0.1-34.1-0.1c-5.7,0-8.7-2-10.8-7.3c-2.6-6.6-5.3-13.2-7.8-19.8
	c-1.5-4,0-6.2,4.2-6.2C169.3,10.5,177.9,10.6,186.4,10.6z"/>
<path class="st0" d="M40.5,142.2c1-1.7,2.2-1.1,3.5-0.6c32.9,14.2,66.7,26.2,101.1,36c20.4,5.8,41,10.8,61.9,14.6
	c-1-0.4-2-0.8-3-1.2c-52.6-17.6-103-40.2-150.8-68.3c-2.1-1.2-2.1-1.2-1.5-3c0.6,0.3,1.1,0.5,1.6,0.8
	c51.5,30.3,105.9,54.3,162.9,72.3c7.6,2.4,15.6,3.4,23.4,4.6c14,2.1,28.1,4.1,42.2,5.6c12.3,1.4,24.6,2.4,37,3
	c16.1,0.8,32.2,1.5,48.4,1.5c16.3,0,32.6-0.5,48.9-1.4c14.4-0.8,28.9-1.9,43.2-3.6c17.3-2.1,34.6-4.6,51.9-7.5
	c27.7-4.5,55-11.1,82.1-18.7c3.2-0.9,6.4-1.8,9.6-2.8c0.8,2.2,0.1,3.1-2,3.7c-29.6,8.6-59.5,16-89.9,20.9c-20.5,3.3-41,6.1-61.7,8.4
	c-15,1.7-30.1,2.5-45.2,3.1c-17.2,0.7-34.4,1.1-51.5,0.7c-18.7-0.4-37.3-1.7-56-3.1c-13-1-25.9-2.8-38.8-4.2c-0.5-0.1-0.9,0-1.4,0.3
	c123.9,32.6,248.6,35.7,374.3,10.4c0,1,0,1.9,0,3.1c-8.8,1.6-17.6,3.5-26.5,4.8c-16.7,2.5-33.5,5-50.2,7
	c-12.2,1.5-24.5,2.5-36.8,3.1c-20.5,0.9-41,1.8-61.6,1.7c-18.8-0.1-37.7-1-56.5-2.6c-20.9-1.8-41.8-4.3-62.5-7.3
	c-31.9-4.7-63.4-11.6-94.3-20.7c-15.5-4.6-31.4-7.2-47.1-10.6c-41.4-9-81.8-21.1-121.4-36.3c-10.6-4.1-21.1-8.6-31.7-12.9
	C41.6,142.8,41.1,142.5,40.5,142.2z"/>
<path class="st0" d="M426.1,143.2c-9.4,0-18.9,0-28.3,0c-4.6,0-6-2.1-4.3-6.4c2.6-6.6,5.2-13.2,7.8-19.8c1.7-4.4,5-6.5,9.6-6.5
	c19.2-0.1,38.5-0.1,57.7-0.1c3.9,0,5.4,2.2,4,5.8c-2.8,7.1-5.7,14.2-8.7,21.2c-1.6,3.8-4.7,5.8-8.8,5.8
	C445.5,143.2,435.8,143.2,426.1,143.2z"/>
<path class="st0" d="M446.1,93.3c-9.5,0-19,0-28.5,0c-4.2,0-5.8-2.2-4.2-6.2c2.6-6.6,5.1-13.2,7.8-19.8c1.6-4.1,4.8-6.2,9.1-6.2
	c19-0.1,38-0.1,57.1,0c4.1,0,5.6,2.3,4.1,6.2c-2.6,6.8-5.1,13.6-7.9,20.3c-1.6,3.8-4.7,5.8-8.9,5.8
	C465.1,93.3,455.6,93.3,446.1,93.3z"/>
<path class="st0" d="M50.4,121.8c-2.1,5.4-4.2,10.6-6.3,15.7c-1.2,2.8-1.9,3.1-4.6,1.8c-8.1-3.6-16.1-7.3-24.1-11
	c-0.7-0.3-1.4-0.7-2.3-1.2c3-7.6,6-15.2,9.1-22.9C31.7,110.1,41,115.9,50.4,121.8z"/>
<path class="st0" d="M12,129.8c9.1,4.1,17.9,8.2,26.7,12.2c0,0.2,0,0.3,0,0.5c-1.1,0.2-2.2,0.6-3.3,0.6c-7.4,0.1-14.7,0.1-22.1,0.1
	c-4.3,0-5.8-2.1-4.2-6.2C10.1,134.7,11,132.4,12,129.8z"/>
<g>
	<path class="st0" d="M179.3,170.8h-2.3V154h-9.4v-2.1h21.1v2.1h-9.4V170.8z"/>
	<path class="st0" d="M185.3,170.8v-13.2h2.1v2c0.4-0.8,1-1.4,1.8-1.8c0.8-0.3,2-0.5,3.7-0.5c2.3,0,3.8,0.3,4.8,1
		c0.9,0.7,1.4,1.8,1.4,3.4v1.8h-2v-1.2c0-1.2-0.3-2-0.9-2.4s-1.9-0.6-3.8-0.6c-1.7,0-3,0.3-3.8,0.8s-1.2,1.3-1.2,2.5v8.3H185.3z"/>
	<path class="st0" d="M211.6,157.2c2.1,0,3.6,0.4,4.6,1.2c1,0.8,1.5,2,1.5,3.7v8.6h-2V169c-0.3,0.7-0.9,1.2-1.6,1.5
		s-1.7,0.4-3.1,0.4h-3.6c-2.3,0-3.9-0.3-4.8-1s-1.4-1.8-1.4-3.4c0-1.5,0.5-2.6,1.4-3.2s2.5-0.9,4.8-0.9h3.7c1.1,0,2,0.1,2.8,0.4
		s1.3,0.7,1.8,1.2v-1.8c0-1.1-0.3-1.9-0.9-2.4c-0.6-0.4-1.7-0.7-3.4-0.7h-3.2c-1.6,0-2.7,0.1-3.1,0.4s-0.7,0.7-0.7,1.4v0.4h-2.2
		v-0.4c0-1.4,0.4-2.3,1.3-2.9c0.9-0.6,2.4-0.9,4.4-0.9H211.6z M215.5,167.2v-1.2c0-0.7-0.3-1.1-0.9-1.4s-1.8-0.4-3.5-0.4h-3.2
		c-1.9,0-3.1,0.2-3.6,0.5c-0.5,0.3-0.8,0.9-0.8,1.8c0,1,0.3,1.7,0.8,2c0.5,0.3,1.7,0.5,3.7,0.5h3.2c1.7,0,2.9-0.1,3.5-0.4
		C215.2,168.3,215.5,167.9,215.5,167.2z"/>
	<path class="st0" d="M221.7,154.4v-2.5h2.1v2.5H221.7z M221.7,170.8v-13.4h2.1v13.4H221.7z"/>
	<path class="st0" d="M228.1,170.8v-13.4h2.1v2.5c0.5-0.9,1.3-1.6,2.3-2s2.5-0.6,4.5-0.6c2.8,0,4.7,0.4,5.8,1.1s1.6,2,1.6,3.8v8.7
		h-2.1v-8.1c0-0.8-0.1-1.4-0.2-1.7s-0.4-0.6-0.7-0.9c-0.4-0.3-1-0.5-1.8-0.6c-0.9-0.1-1.9-0.2-3.2-0.2c-2.2,0-3.8,0.3-4.8,0.8
		s-1.4,1.5-1.4,2.8v8H228.1z"/>
	<path class="st0" d="M248.6,154.4v-2.5h2.1v2.5H248.6z M248.6,170.8v-13.4h2.1v13.4H248.6z"/>
	<path class="st0" d="M255,170.8v-13.4h2.1v2.5c0.5-0.9,1.3-1.6,2.3-2s2.5-0.6,4.5-0.6c2.8,0,4.7,0.4,5.8,1.1s1.6,2,1.6,3.8v8.7
		h-2.1v-8.1c0-0.8-0.1-1.4-0.2-1.7s-0.4-0.6-0.7-0.9c-0.4-0.3-1-0.5-1.8-0.6c-0.9-0.1-1.9-0.2-3.2-0.2c-2.2,0-3.8,0.3-4.8,0.8
		s-1.4,1.5-1.4,2.8v8H255z"/>
	<path class="st0" d="M291.5,170.6c0,1.7-0.5,2.9-1.6,3.7s-2.6,1.2-4.8,1.2h-3.9c-2.1,0-3.6-0.4-4.6-1.1s-1.5-1.9-1.6-3.4l2.1,0
		c0,0.9,0.3,1.5,1,1.9s1.8,0.5,3.4,0.5h3.3c1.8,0,3-0.2,3.6-0.7c0.6-0.4,0.9-1.3,0.9-2.4v-2.1c-0.5,0.7-1,1.2-1.6,1.5
		s-1.4,0.4-2.5,0.4h-4.2c-2.2,0-3.8-0.4-4.8-1.3s-1.5-2.3-1.5-4.3v-1.6c0-2,0.5-3.4,1.5-4.3c1-0.9,2.6-1.3,4.9-1.3h2.9
		c1.8,0,3,0.2,3.7,0.5c0.7,0.3,1.2,0.8,1.6,1.6v-1.9h2V170.6z M281.6,168.2h3.3c1.8,0,3-0.2,3.6-0.7s1-1.4,1-2.6v-2.2
		c0-1.3-0.3-2.1-1-2.6c-0.6-0.5-1.8-0.7-3.6-0.7h-3.3c-1.8,0-3,0.2-3.6,0.7s-1,1.4-1,2.6v2.2c0,1.3,0.3,2.1,1,2.6
		S279.8,168.2,281.6,168.2z"/>
	<path class="st0" d="M317.5,157.2c2.1,0,3.6,0.4,4.6,1.2c1,0.8,1.5,2,1.5,3.7v8.6h-2V169c-0.3,0.7-0.9,1.2-1.6,1.5
		s-1.7,0.4-3.1,0.4h-3.6c-2.3,0-3.9-0.3-4.8-1c-0.9-0.6-1.4-1.8-1.4-3.4c0-1.5,0.5-2.6,1.4-3.2c0.9-0.6,2.5-0.9,4.8-0.9h3.7
		c1.1,0,2,0.1,2.8,0.4s1.3,0.7,1.8,1.2v-1.8c0-1.1-0.3-1.9-0.9-2.4c-0.6-0.4-1.7-0.7-3.4-0.7H314c-1.6,0-2.7,0.1-3.1,0.4
		s-0.7,0.7-0.7,1.4v0.4h-2.2v-0.4c0-1.4,0.4-2.3,1.3-2.9c0.9-0.6,2.4-0.9,4.4-0.9H317.5z M321.3,167.2v-1.2c0-0.7-0.3-1.1-0.9-1.4
		s-1.8-0.4-3.5-0.4h-3.2c-1.9,0-3.1,0.2-3.6,0.5c-0.5,0.3-0.8,0.9-0.8,1.8c0,1,0.3,1.7,0.8,2c0.5,0.3,1.7,0.5,3.7,0.5h3.2
		c1.7,0,2.9-0.1,3.5-0.4C321,168.3,321.3,167.9,321.3,167.2z"/>
	<path class="st0" d="M327.5,170.8v-13.4h2.1v2.5c0.5-0.9,1.3-1.6,2.3-2c1-0.4,2.5-0.6,4.5-0.6c2.8,0,4.7,0.4,5.8,1.1s1.6,2,1.6,3.8
		v8.7h-2.1v-8.1c0-0.8-0.1-1.4-0.2-1.7c-0.1-0.4-0.4-0.6-0.7-0.9c-0.4-0.3-1-0.5-1.8-0.6c-0.9-0.1-1.9-0.2-3.2-0.2
		c-2.2,0-3.8,0.3-4.8,0.8s-1.4,1.5-1.4,2.8v8H327.5z"/>
	<path class="st0" d="M357.2,171h-3.6c-2.3,0-3.9-0.5-4.9-1.4c-1-0.9-1.5-2.4-1.5-4.6V163c0-2,0.5-3.5,1.5-4.4
		c1-0.9,2.6-1.3,4.9-1.3h4.1c1,0,1.8,0.2,2.5,0.5c0.7,0.3,1.2,0.8,1.7,1.4v-7.2h2.1v18.9h-1.9v-2.2c-0.4,0.9-0.9,1.5-1.6,1.8
		C359.8,170.8,358.7,171,357.2,171z M357.2,169c1.9,0,3.2-0.3,3.9-0.9s1-1.7,1-3.3v-1.6c0-1.6-0.3-2.7-1-3.2
		c-0.6-0.6-1.9-0.8-3.9-0.8h-3c-1.9,0-3.2,0.3-3.9,0.8c-0.6,0.6-1,1.6-1,3.2v1.6c0,1.6,0.3,2.7,1,3.3s1.9,0.9,3.9,0.9H357.2z"/>
	<path class="st0" d="M378.4,170.8l11-18.9h3.1l11,18.9H401l-2.5-4.2h-15l-2.4,4.2H378.4z M384.6,164.6h12.7l-6.4-10.9L384.6,164.6z
		"/>
	<path class="st0" d="M411.1,164.9c-2.4,0-4-0.3-4.7-0.8c-0.7-0.5-1.1-1.5-1.1-3c0-1.4,0.4-2.4,1.3-3c0.9-0.6,2.4-0.9,4.5-0.9h3.8
		c2.1,0,3.7,0.3,4.6,0.8c1,0.5,1.4,1.3,1.4,2.5v0.9h-2v-0.5c0-0.6-0.3-1-0.9-1.3c-0.6-0.2-1.9-0.3-3.9-0.3h-2.1
		c-2.1,0-3.4,0.1-3.9,0.4c-0.5,0.2-0.8,0.8-0.8,1.5c0,0.8,0.3,1.3,0.8,1.6c0.5,0.3,1.8,0.4,3.9,0.4l3.6,0c1.6,0,2.8,0.1,3.4,0.2
		s1.1,0.4,1.5,0.8c0.3,0.3,0.6,0.7,0.7,1.1s0.2,1.2,0.2,2.3c0,1.3-0.4,2.2-1.3,2.7s-2.4,0.8-4.7,0.8h-5.4c-1.8,0-3-0.4-3.7-1.1
		c-0.7-0.7-1.1-2-1.1-3.7h1.9v0.2c0,1,0.2,1.7,0.6,2.1s1.3,0.5,2.8,0.5h6c1.2,0,1.9-0.1,2.2-0.4c0.3-0.3,0.5-0.9,0.5-1.8
		c0-0.8-0.2-1.3-0.6-1.5c-0.4-0.3-1.1-0.4-2.1-0.4H411.1z"/>
	<path class="st0" d="M431.5,164.9c-2.4,0-4-0.3-4.7-0.8c-0.7-0.5-1.1-1.5-1.1-3c0-1.4,0.4-2.4,1.3-3c0.9-0.6,2.4-0.9,4.5-0.9h3.8
		c2.1,0,3.7,0.3,4.6,0.8c1,0.5,1.4,1.3,1.4,2.5v0.9h-2v-0.5c0-0.6-0.3-1-0.9-1.3c-0.6-0.2-1.9-0.3-3.9-0.3h-2.1
		c-2.1,0-3.4,0.1-3.9,0.4c-0.5,0.2-0.8,0.8-0.8,1.5c0,0.8,0.3,1.3,0.8,1.6c0.5,0.3,1.8,0.4,3.9,0.4l3.6,0c1.6,0,2.8,0.1,3.4,0.2
		s1.1,0.4,1.5,0.8c0.3,0.3,0.6,0.7,0.7,1.1s0.2,1.2,0.2,2.3c0,1.3-0.4,2.2-1.3,2.7s-2.4,0.8-4.7,0.8h-5.4c-1.8,0-3-0.4-3.7-1.1
		c-0.7-0.7-1.1-2-1.1-3.7h1.9v0.2c0,1,0.2,1.7,0.6,2.1s1.3,0.5,2.8,0.5h6c1.2,0,1.9-0.1,2.2-0.4c0.3-0.3,0.5-0.9,0.5-1.8
		c0-0.8-0.2-1.3-0.6-1.5c-0.4-0.3-1.1-0.4-2.1-0.4H431.5z"/>
	<path class="st0" d="M455.9,157.2c2.5,0,4.3,0.5,5.2,1.4c1,0.9,1.5,2.6,1.5,4.9c0,0.3,0,0.5,0,0.6c0,0.1,0,0.3,0,0.4l-14.6,0v0.7
		c0,1.4,0.3,2.4,1,3s1.9,0.8,3.6,0.8h3.5c1.5,0,2.6-0.2,3.3-0.6c0.7-0.4,1.1-0.9,1.1-1.7v-0.1h2.2v0.3c0,1.3-0.5,2.3-1.5,2.9
		c-1,0.7-2.5,1-4.5,1h-4c-2.4,0-4.1-0.4-5.2-1.3c-1-0.9-1.6-2.4-1.6-4.4v-2.1c0-2.1,0.5-3.6,1.5-4.5c1-0.9,2.8-1.3,5.2-1.3H455.9z
		 M448,162.6h12.4v-0.3c0-1.2-0.3-2-0.9-2.5s-1.8-0.7-3.6-0.7h-3.3c-1.7,0-2.9,0.3-3.5,0.8C448.3,160.5,448,161.4,448,162.6z"/>
	<path class="st0" d="M471.7,164.9c-2.4,0-4-0.3-4.7-0.8c-0.7-0.5-1.1-1.5-1.1-3c0-1.4,0.4-2.4,1.3-3c0.9-0.6,2.4-0.9,4.5-0.9h3.8
		c2.1,0,3.7,0.3,4.6,0.8c1,0.5,1.4,1.3,1.4,2.5v0.9h-2v-0.5c0-0.6-0.3-1-0.9-1.3c-0.6-0.2-1.9-0.3-3.9-0.3h-2.1
		c-2.1,0-3.4,0.1-3.9,0.4c-0.5,0.2-0.8,0.8-0.8,1.5c0,0.8,0.3,1.3,0.8,1.6c0.5,0.3,1.8,0.4,3.9,0.4l3.6,0c1.6,0,2.8,0.1,3.4,0.2
		s1.1,0.4,1.5,0.8c0.3,0.3,0.6,0.7,0.7,1.1s0.2,1.2,0.2,2.3c0,1.3-0.4,2.2-1.3,2.7s-2.4,0.8-4.7,0.8h-5.4c-1.8,0-3-0.4-3.7-1.1
		c-0.7-0.7-1.1-2-1.1-3.7h1.9v0.2c0,1,0.2,1.7,0.6,2.1s1.3,0.5,2.8,0.5h6c1.2,0,1.9-0.1,2.2-0.4c0.3-0.3,0.5-0.9,0.5-1.8
		c0-0.8-0.2-1.3-0.6-1.5c-0.4-0.3-1.1-0.4-2.1-0.4H471.7z"/>
	<path class="st0" d="M492.1,164.9c-2.4,0-4-0.3-4.7-0.8c-0.7-0.5-1.1-1.5-1.1-3c0-1.4,0.4-2.4,1.3-3c0.9-0.6,2.4-0.9,4.5-0.9h3.8
		c2.1,0,3.7,0.3,4.6,0.8c1,0.5,1.4,1.3,1.4,2.5v0.9h-2v-0.5c0-0.6-0.3-1-0.9-1.3c-0.6-0.2-1.9-0.3-3.9-0.3H493
		c-2.1,0-3.4,0.1-3.9,0.4c-0.5,0.2-0.8,0.8-0.8,1.5c0,0.8,0.3,1.3,0.8,1.6c0.5,0.3,1.8,0.4,3.9,0.4l3.6,0c1.6,0,2.8,0.1,3.4,0.2
		s1.1,0.4,1.5,0.8c0.3,0.3,0.6,0.7,0.7,1.1s0.2,1.2,0.2,2.3c0,1.3-0.4,2.2-1.3,2.7s-2.4,0.8-4.7,0.8h-5.4c-1.8,0-3-0.4-3.7-1.1
		c-0.7-0.7-1.1-2-1.1-3.7h1.9v0.2c0,1,0.2,1.7,0.6,2.1s1.3,0.5,2.8,0.5h6c1.2,0,1.9-0.1,2.2-0.4c0.3-0.3,0.5-0.9,0.5-1.8
		c0-0.8-0.2-1.3-0.6-1.5c-0.4-0.3-1.1-0.4-2.1-0.4H492.1z"/>
	<path class="st0" d="M508.9,170.8h-2.1v-13.4h2.1v1.7c0.4-0.7,1-1.2,1.9-1.4c0.9-0.3,2.3-0.4,4.1-0.4c2,0,3.4,0.2,4.3,0.6
		c0.9,0.4,1.5,1,1.7,1.9c0.5-0.8,1.3-1.5,2.3-1.9c1-0.4,2.2-0.6,3.8-0.6c2.7,0,4.6,0.4,5.6,1.1c1.1,0.7,1.6,2,1.6,3.7v8.7h-1.9v-8.1
		c0-0.8-0.1-1.4-0.2-1.8c-0.1-0.4-0.4-0.6-0.7-0.9c-0.4-0.3-0.9-0.5-1.7-0.6c-0.8-0.1-1.7-0.2-2.7-0.2c-1.9,0-3.2,0.3-4.1,0.8
		c-0.9,0.5-1.3,1.4-1.5,2.5v8.3h-2v-8.3c0-1.4-0.3-2.3-1-2.7c-0.6-0.4-1.9-0.6-3.9-0.6c-2.1,0-3.6,0.3-4.4,0.8
		c-0.9,0.5-1.3,1.4-1.3,2.7V170.8z"/>
	<path class="st0" d="M548,157.2c2.5,0,4.3,0.5,5.2,1.4c1,0.9,1.5,2.6,1.5,4.9c0,0.3,0,0.5,0,0.6c0,0.1,0,0.3,0,0.4l-14.6,0v0.7
		c0,1.4,0.3,2.4,1,3s1.9,0.8,3.6,0.8h3.5c1.5,0,2.6-0.2,3.3-0.6c0.7-0.4,1.1-0.9,1.1-1.7v-0.1h2.2v0.3c0,1.3-0.5,2.3-1.5,2.9
		c-1,0.7-2.5,1-4.5,1h-4c-2.4,0-4.1-0.4-5.2-1.3c-1-0.9-1.6-2.4-1.6-4.4v-2.1c0-2.1,0.5-3.6,1.5-4.5c1-0.9,2.8-1.3,5.2-1.3H548z
		 M540.1,162.6h12.4v-0.3c0-1.2-0.3-2-0.9-2.5s-1.8-0.7-3.6-0.7h-3.3c-1.7,0-2.9,0.3-3.5,0.8C540.4,160.5,540.1,161.4,540.1,162.6z"
		/>
	<path class="st0" d="M558.3,170.8v-13.4h2.1v2.5c0.5-0.9,1.3-1.6,2.3-2c1-0.4,2.5-0.6,4.5-0.6c2.8,0,4.7,0.4,5.8,1.1s1.6,2,1.6,3.8
		v8.7h-2.1v-8.1c0-0.8-0.1-1.4-0.2-1.7c-0.1-0.4-0.4-0.6-0.7-0.9c-0.4-0.3-1-0.5-1.8-0.6c-0.9-0.1-1.9-0.2-3.2-0.2
		c-2.2,0-3.8,0.3-4.8,0.8s-1.4,1.5-1.4,2.8v8H558.3z"/>
	<path class="st0" d="M581.6,157.4h8.8v1.8h-8.8v7c0,1.1,0.2,1.8,0.7,2.2s1.6,0.6,3.2,0.6c1.4,0,2.3-0.2,2.8-0.5s0.7-1.1,0.7-2.2
		v-1.7h1.8v1.7c0,1.7-0.4,2.9-1.3,3.6c-0.9,0.7-2.4,1-4.5,1c-1.1,0-2-0.1-2.8-0.3c-0.7-0.2-1.3-0.5-1.8-1c-0.3-0.3-0.6-0.7-0.7-1.2
		c-0.1-0.5-0.2-1.2-0.2-2.3v-6.9h-2.9v-1.8h2.9v-3.1h2V157.4z"/>
</g>
</svg>
