<?xml version="1.0" encoding="utf-8"?>
<!-- Generator: Adobe Illustrator 25.0.1, SVG Export Plug-In . SVG Version: 6.00 Build 0)  -->
<svg version="1.1" id="Layer_1" xmlns="http://www.w3.org/2000/svg" xmlns:xlink="http://www.w3.org/1999/xlink" x="0px" y="0px"
	 viewBox="0 0 516.3 246.3" style="enable-background:new 0 0 516.3 246.3;" xml:space="preserve">
<style type="text/css">
	.st0{fill:#0A2240;}
</style>
<path class="st0" d="M56.2,191.4c0,0.6,0,8.6,0.1,11.5c0,0.9,0.2,1.7,0.8,2.6c0.6,0.8,2.2,1.1,3.7,1.1c2.7,0,6.3-1.4,8.8-4.6
	c1.9-2.5,3.3-6.3,3.3-10.7c0-3.8-1.6-7.8-3.8-10.2c-2.5-2.8-6.6-4.3-9.3-4.3c-1.3,0-2,0-2.6,0.4c-0.7,0.3-0.9,1.1-0.9,2
	c0,2,0,8.1,0,8.9V191.4z M49.2,186.9c0-1.2-0.1-7.9-0.2-8.6c-0.1-1.1-0.7-1.3-1.5-1.3h-2.3c-0.2,0-0.4,0-0.4-0.3v-1.4
	c0-0.2,0.1-0.2,0.3-0.2c0.6,0,2.7,0.1,7.4,0.1c1.2,0,5.9-0.1,7-0.1c6.4,0,11.4,0.6,15.9,4.3c3.1,2.6,5.2,6.5,5.2,11.9
	c0,5.4-1.5,8.9-4.6,12.3c-4.5,4.9-12.6,5-15.5,5c-0.8,0-6.3-0.1-8.9-0.1c-4.1,0-5.9,0.1-6.6,0.1c-0.2,0-0.3-0.1-0.3-0.4v-1.2
	c0-0.2,0.1-0.3,0.4-0.3h2.4c0.9,0,1.4-0.4,1.5-1.1c0.1-1,0.3-11.5,0.3-15.1V186.9z"/>
<path class="st0" d="M121.1,192.6c0-10.3-6.7-15.9-10.7-15.9c-0.9,0-3.3-0.2-6.1,2.5c-2.8,2.6-4.2,7.5-4.2,11.4
	c0,12,6.9,16.3,10.8,16.3C119.6,206.9,121.1,196.4,121.1,192.6 M99.5,206c-3.3-2-6.9-7.1-6.9-13.9c0-2.9,0.7-7.3,4.4-11.7
	c4.1-5,9.4-5.9,13.6-5.9c3.9,0,7.5,0.6,11.4,3.7c3.6,2.8,6.4,7.5,6.4,14c0,3.4-1.1,7-3.5,10.3c-3,3.8-7,6.6-14.4,6.6
	C107.3,209.1,103.2,208.3,99.5,206"/>
<path class="st0" d="M163.1,184.5h-0.3c-0.5,1.4-8.7,23.1-8.9,23.6c-0.2,0.5-0.4,1.2-1.2,1.2c-0.5,0-0.8-0.4-1-0.9l-10.5-29.7
	c-0.5-1.3-1.3-1.7-1.9-1.7h-1.2c-0.2,0-0.3-0.2-0.3-0.4v-1.2c0-0.2,0-0.3,0.4-0.3c0.4,0,1.8,0.1,6.7,0.1c3.4,0,5.3-0.1,5.8-0.1
	c0.3,0,0.4,0.1,0.4,0.4v1.2c0,0.2,0,0.4-0.4,0.4h-1c-0.8,0-1.2,0.7-0.9,1.6l6.4,20.4h0.3c0.6-1.6,6.2-16.5,6.2-18.2
	c0-1.2-0.5-2.4-0.9-3c-0.4-0.6-1-0.9-1.4-0.9h-0.9c-0.2,0-0.3-0.1-0.3-0.4v-1.2c0-0.2,0-0.3,0.3-0.3c0.4,0,2.1,0.1,6.2,0.1
	c3.9,0,5.7-0.1,6.2-0.1c0.3,0,0.3,0.1,0.3,0.4v1.2c0,0.2,0,0.3-0.3,0.3h-1.4c-0.7,0-1.2,1-0.9,1.8l6.5,20.2h0.3
	c2.3-6.4,6.4-18.3,6.4-20.8c0-0.5-0.6-1.2-1.5-1.2h-1.4c-0.3,0-0.3-0.1-0.3-0.4v-1.2c0-0.2,0-0.3,0.4-0.3c0.5,0,2.1,0.1,5,0.1
	c2.6,0,4-0.1,4.4-0.1c0.3,0,0.3,0.1,0.3,0.4v1.2c0,0.2,0,0.3-0.3,0.3h-0.9c-0.8,0-1.7,0.5-2.2,1.7c-0.6,1.5-10,26.9-10.9,29.2
	c-0.2,0.6-0.6,1.5-1.4,1.5c-0.7,0-0.9-0.6-1.2-1.3L163.1,184.5z"/>
<path class="st0" d="M230.6,194.7c0-4.2,0-6.5-0.1-8.8c0-1.8-0.3-6.4-0.4-7.1c-0.3-1.2-1.4-1.8-2.5-1.8H226c-0.2,0-0.3-0.1-0.3-0.4
	v-1.2c0-0.2,0-0.3,0.4-0.3c0.5,0,2,0.1,5.5,0.1c2.8,0,3.9-0.1,4.4-0.1c0.4,0,0.5,0.1,0.5,0.4v1.1c0,0.2,0,0.4-0.2,0.4H235
	c-0.8,0-1.3,0.8-1.4,2.5c-0.3,3.1-1.1,13.7-1.1,19.9v8c0,0.7,0,1.5-0.7,1.5c-0.7,0-1.3-0.2-1.8-0.8c-0.8-0.8-3.1-3.2-5.9-6.6
	c-3.4-4-7.1-8.5-8-9.5c-0.8-0.9-7.3-9-8.3-10.5h-0.4v9.5c0,3.9,0.4,9.6,0.5,11.4c0.1,2.7,0.9,4.1,2.9,4.1h1.2c0.3,0,0.4,0.1,0.4,0.4
	v1.1c0,0.3,0,0.4-0.4,0.4c-0.5,0-3.3-0.1-5.5-0.1c-1.5,0-4.7,0.1-5.2,0.1c-0.2,0-0.2-0.1-0.2-0.4v-1.2c0-0.1,0-0.3,0.3-0.3h1.6
	c1,0,1.8-1.5,2-4.6c0-0.9,0.4-8.4,0.4-15.3v-4.2c0-2.8-1.7-5.4-4-5.4l-1.2,0c-0.2,0-0.3-0.2-0.3-0.3v-1.3c0-0.2,0-0.3,0.3-0.3
	c0.2,0,0.6,0,1.5,0c0.9,0,2.4,0.1,4.9,0.1c1.6,0,3-0.1,3.6-0.1c0.6,0,1,0.2,1.4,0.6c0.2,0.3,9.5,11.6,10.9,13.3
	c0.7,0.8,7.5,9.4,8,10h0.2V194.7z"/>
<path class="st0" d="M267.6,179.4c0-1.6-0.3-2.4-1.3-2.4h-2.2c-0.3,0-0.3-0.1-0.3-0.4v-1.1c0-0.3,0-0.4,0.4-0.4
	c0.5,0,2.8,0.1,7.7,0.1c4.1,0,6.4-0.1,6.9-0.1c0.4,0,0.4,0.1,0.4,0.4v1.2c0,0.2,0,0.3-0.4,0.3h-1.6c-1.6,0-2.4,0.9-2.5,1.8
	c0,0.5-0.1,3.7-0.1,6.1v3.1c0,2.5,0.2,8.4,0.2,9.9c0,2.2,0.5,4.3,1.5,5.6c1.5,1.9,3.7,2.6,5.9,2.6c1.7,0,4.3-0.9,5.5-2.1
	c1.9-1.7,3-4.3,3-7.6v-7.2c0-3.9-0.5-9.1-0.7-10.2c-0.2-1.2-0.9-2.1-1.7-2.1h-1.5c-0.3,0-0.3-0.1-0.3-0.4v-1.2c0-0.2,0-0.3,0.3-0.3
	c0.5,0,2.6,0.1,5.8,0.1c2.5,0,4-0.1,4.4-0.1c0.4,0,0.5,0.2,0.5,0.4v1c0,0.3,0,0.5-0.3,0.5h-1.5c-1.8,0-1.9,1.3-2,1.8
	c-0.1,0.7-0.1,7.1-0.1,7.8c0,0.7-0.1,8.9-0.2,10.7c-0.3,3.8-1.5,6.8-4,8.9c-2.1,1.8-5.2,2.9-8.3,2.9c-2.2,0-5.2-0.3-7.2-1.2
	c-2.2-1-4.3-3.2-5.4-6.2c-0.8-2-1-5.1-1-11.3V179.4z"/>
<path class="st0" d="M340.3,194.7c0-4.2,0-6.5-0.1-8.8c0-1.8-0.3-6.4-0.4-7.1c-0.3-1.2-1.4-1.8-2.5-1.8h-1.5c-0.2,0-0.3-0.1-0.3-0.4
	v-1.2c0-0.2,0-0.3,0.4-0.3c0.5,0,2,0.1,5.5,0.1c2.8,0,3.9-0.1,4.4-0.1c0.4,0,0.5,0.1,0.5,0.4v1.1c0,0.2,0,0.4-0.2,0.4h-1.3
	c-0.8,0-1.3,0.8-1.4,2.5c-0.3,3.1-1.1,13.7-1.1,19.9v8c0,0.7,0,1.5-0.7,1.5c-0.7,0-1.3-0.2-1.8-0.8c-0.8-0.8-3.1-3.2-5.9-6.6
	c-3.4-4-7.1-8.5-8-9.5c-0.8-0.9-7.3-9-8.3-10.5h-0.4v9.5c0,3.9,0.4,9.6,0.5,11.4c0.1,2.7,0.9,4.1,2.9,4.1h1.2c0.3,0,0.4,0.1,0.4,0.4
	v1.1c0,0.3,0,0.4-0.4,0.4c-0.5,0-3.3-0.1-5.5-0.1c-1.5,0-4.7,0.1-5.2,0.1c-0.2,0-0.2-0.1-0.2-0.4v-1.2c0-0.1,0-0.3,0.3-0.3h1.6
	c1,0,1.8-1.5,2-4.6c0-0.9,0.4-8.4,0.4-15.3v-4.2c0-2.8-1.7-5.4-4-5.4l-1.2,0c-0.2,0-0.3-0.2-0.3-0.3v-1.3c0-0.2,0-0.3,0.3-0.3
	c0.2,0,0.6,0,1.5,0c0.9,0,2.4,0.1,4.9,0.1c1.6,0,3-0.1,3.6-0.1c0.6,0,1,0.2,1.4,0.6c0.2,0.3,9.5,11.6,10.9,13.3
	c0.7,0.8,7.5,9.4,8,10h0.2V194.7z"/>
<path class="st0" d="M370.3,191.4c0,0.6,0,8.6,0.1,11.5c0,0.9,0.2,1.7,0.8,2.6c0.6,0.8,2.2,1.1,3.7,1.1c2.7,0,6.3-1.4,8.8-4.6
	c1.9-2.5,3.3-6.3,3.3-10.7c0-3.8-1.6-7.8-3.8-10.2c-2.5-2.8-6.6-4.3-9.3-4.3c-1.3,0-2,0-2.6,0.4c-0.7,0.3-0.9,1.1-0.9,2
	c0,2,0,8.1,0,8.9V191.4z M363.3,186.9c0-1.2-0.1-7.9-0.2-8.6c-0.1-1.1-0.8-1.3-1.5-1.3h-2.3c-0.2,0-0.4,0-0.4-0.3v-1.4
	c0-0.2,0.1-0.2,0.3-0.2c0.6,0,2.7,0.1,7.4,0.1c1.2,0,5.9-0.1,7-0.1c6.4,0,11.4,0.6,15.9,4.3c3.1,2.6,5.2,6.5,5.2,11.9
	c0,5.4-1.5,8.9-4.6,12.3c-4.5,4.9-12.6,5-15.5,5c-0.8,0-6.3-0.1-8.9-0.1c-4.1,0-5.9,0.1-6.6,0.1c-0.2,0-0.3-0.1-0.3-0.4v-1.2
	c0-0.2,0.1-0.3,0.4-0.3h2.4c0.9,0,1.4-0.4,1.5-1.1c0.1-1,0.3-11.5,0.3-15.1V186.9z"/>
<path class="st0" d="M415.2,190.4c2.2,0,4.2-0.1,4.8-0.3c0.8-0.2,1.4-0.6,2.2-1.5c0.5-0.7,1.1-2,1.1-2.9c0-0.3,0.1-0.4,0.4-0.4
	l1.3,0.1c0.2,0,0.4,0.1,0.4,0.4c-0.1,0.8-0.1,3.2-0.1,4.9c0,2.1,0.2,4.4,0.3,5.3c0,0.3-0.1,0.3-0.4,0.4l-1.1,0.2
	c-0.2,0-0.3,0-0.4-0.4c-0.2-0.8-0.7-1.8-0.9-2.4c-0.5-0.9-1.6-1.5-2.6-1.6c-1.3-0.2-2.7-0.3-4.8-0.3v2.8c0,2.5,0.2,7.1,0.2,7.9
	c0,2.4,0.5,3.3,1.1,3.6c0.7,0.3,1.6,0.4,3.9,0.4c0.8,0,2.8,0,3.7-0.1c0.9-0.1,2.3-0.6,3.6-1.5c1.2-1,3.8-3.9,4.8-5
	c0.2-0.2,0.3-0.2,0.5-0.1l0.8,0.5c0.2,0.1,0.2,0.2,0.2,0.4l-2.1,7.1c-0.1,0.4-0.5,0.7-1,0.7c-0.2,0-1.3,0-4.3-0.1c-3,0-8,0-16.1,0
	c-1.7,0-3,0-4,0c-1,0-1.6,0.1-2,0.1c-0.3,0-0.4-0.1-0.4-0.5v-1c0-0.3,0.1-0.4,0.5-0.4h1.4c2.2,0,2.3-0.3,2.3-2v-15.7
	c0-3.9-0.1-9.6-0.1-10.1c-0.2-1.5-0.7-1.8-1.9-1.8h-1.8c-0.2,0-0.2-0.1-0.2-0.5v-1.1c0-0.1,0-0.3,0.3-0.3c1,0,2.7,0.1,6.9,0.1
	l16.4,0c0.8,0,1.6-0.1,1.9-0.1c0.2,0,0.3,0.1,0.4,0.2c0.2,0.7,1.7,7.1,1.9,7.5c0.1,0.2,0.1,0.3-0.1,0.5l-0.8,0.4
	c-0.2,0.1-0.4,0-0.6-0.2c-0.2-0.4-4.4-4.6-5.5-5.2c-1-0.6-2.3-1.2-3.6-1.3l-6.2-0.2L415.2,190.4z"/>
<path class="st0" d="M456.4,192.1c0.9,0,1.5,0,1.9,0c6.2,0,7.6-5.9,7.6-8.1c0-2.2-0.8-4.2-1.8-5.2c-1.7-1.5-3.8-2.1-5.2-2.1
	c-0.8,0-1.4,0.1-1.8,0.4c-0.3,0.2-0.4,0.7-0.5,1.3L456.4,192.1z M449.8,187.1c0-3.5,0-6.5,0-7.7c0-1.5-0.7-2.3-1.3-2.3h-1.9
	c-0.2,0-0.3-0.1-0.3-0.3v-1.3c0-0.2,0-0.3,0.3-0.3c0.4,0,1.9,0.1,7,0.1c2.6,0,6.7-0.1,8.7-0.1c3.7,0,6.4,1.3,8.3,3.1
	c1.7,1.5,2.7,3.4,2.7,5.1c0,5.9-4.4,8.6-8.6,9v0.3c1.5,0.5,2.2,1.4,3.1,2.5c0.6,0.7,3.2,4.9,3.6,5.5c0.3,0.4,2.8,4,3.7,5.1
	c0.6,0.6,2.3,1,3.4,1c0.3,0,0.4,0.2,0.4,0.4v1.1c0,0.3,0,0.4-0.4,0.4c-0.4,0-1.6-0.1-5.2-0.1c-1.4,0-3.1,0.1-4.4,0.1
	c-1.4-1.1-4.3-6.5-5.1-8.1c-1.6-3.2-3.5-6.7-5.8-6.7h-1.6v2.4c0,2.8,0.1,8,0.2,8.6c0.1,1,0.5,1.8,1.2,1.8h1.9c0.3,0,0.4,0.1,0.4,0.4
	v1.1c0,0.3,0,0.4-0.7,0.4c0,0-1.2-0.1-6.1-0.1c-5,0-6,0.1-6.6,0.1c-0.4,0-0.4-0.1-0.4-0.5V207c0-0.2,0-0.4,0.2-0.4h1.4
	c1,0,1.9-0.3,1.9-1.5c0.1-4.6,0.1-9,0.1-13.5V187.1z"/>
<path class="st0" d="M248.3,101.5l16.6-43.4l16.7,43.4H248.3z M452.6,81.7c-14.2-6.8-24-9.7-24-24.8c0-10.2,3.7-16.3,15.9-16.3
	c13.6,0,25.2,9.3,29.5,23.7l2,6.3h2.4V37.8h-1.9l-0.3,0.3c-2.3,2.3-4.5,3.3-7.4,3.3c-2.3,0-4.8-0.6-7.8-1.3c-4.4-1-9.8-2.3-16.8-2.3
	c-18.7,0-32.3,12.2-32.3,29.1c0,18.9,15.8,29.9,31,37c14.1,6.6,23.9,9.3,23.9,24.2c0,12.6-5,19.8-20,19.8c-23.2,0-33.8-28.4-34-28.7
	c-2-5.6-2.7-9.9-2.8-9.9l-0.1-0.9h-1.6h-0.5H405c0,0-1.1,7.8-1.8,10.1c-8.2,23.7-15.8,27.4-30.7,27.4h-8.4c-5.6,0-6.3-0.8-6.3-22.8
	V65.5c0-22.4,1.7-22.5,8.1-22.8l4.4-0.2v-2.6h-45.9v2.6l4.4,0.2c6.4,0.3,8.1,0.3,8.1,22.8V123c0,22.4-1.7,22.5-8.1,22.8l1.8,0.2
	l-1.6-0.2c-5.7-0.7-7.1-2.3-16.5-25.3l-33.6-82.3h-10.7l-27.8,72.5c-12.7,32.9-15.5,34.5-21.2,35l-2.7,0.3v2.6h35.7V146l-4.4-0.2
	c-5.8-0.4-7.8-3.4-7.8-11.6c0-7,1.6-15.3,4.5-22.7l2.7-7.2h35.6l7.2,18.7c4.5,11.5,7.1,18.4,5.4,21.1c-0.7,1.1-2.3,1.6-5.1,1.7
	l-5.2,0.2v2.6h39.3h0.7h57c4-0.2,7.7-1.9,11.3-4.3l0.3-0.2c1.9-1.3,7.7-5.2,14.2-5.2c0.3,0,0.6,0.1,1,0.1c0.3,0,0.6-0.1,0.9-0.1
	c6.5,0,11.8,3.2,14.9,5.2l0.3,0.2c6.7,4.4,13.5,6.3,21.8,6.3c22.1,0,37.5-12.4,37.5-30.2C484.3,100.5,468.2,89.2,452.6,81.7"/>
<path class="st0" d="M179.1,65.5c0-16.8,1-22.8,5.9-22.8h11c12.2,0,16.5,16.5,16.5,30.7c0,12.5-2.8,27.4-15.9,27.4h-17.5V65.5z
	 M199.4,103.6c23.3,0,37.8-11.6,37.8-30.3c0-20-15.4-33.4-38.4-33.4h-24.2c-8.6,0-11.2-1.6-18.2-3.2c-8.1-1.8-15-3.8-27.8-3.8
	c-16.9,0-32.7,5.7-42.8,16.3c-9.2,9.7-14.1,22.2-13.5,35.9c0.6,12.2,7,25.1,20.5,24.1c8.5-0.7,12.9-9.5,12.3-16.9
	c-0.7-9.7-8.3-13.2-13.2-12.9c-3.8,0.2-6.3,2.1-8,4.5c-4.2-3.6-2.5-18.2,3.4-27.1c3.7-5.5,9-10.4,15.4-14
	c20.1,7.5,19.7,35.3,19.7,51.6c0,46.6-18.2,53.6-31.2,53.6c-30.3,0-31.2-33.6-31.2-53.6c0-18.6,0.4-50.3,26.8-53.3l0.3,0l0.3-0.2
	c0.3-0.2,0.6-0.5,0.9-0.7l2.9-2.2L87.6,38c-34.1,2-49.6,30.5-49.6,56.1c0,28.1,18.3,56.6,53.3,56.6s53.3-28.5,53.3-56.6
	c0-26.2-14.6-47.2-36.8-53.9c6.5-2.8,13.6-4.5,20.7-4.5c12.6,0,23.7,3.6,27.5,13.1c0.7,3.6,0.8,9.1,0.8,16.7V123
	c0,22.4,0.4,22.5-6,22.8l-4.4,0.2v2.6h46.3V146l-4.4-0.2c-11.6-0.6-9.3-1.4-9.3-22.8v-19.5H199.4z"/>
</svg>
