<?xml version="1.0" encoding="utf-8"?>
<!-- Generator: Adobe Illustrator 25.4.1, SVG Export Plug-In . SVG Version: 6.00 Build 0)  -->
<svg version="1.1" id="Layer_1" xmlns="http://www.w3.org/2000/svg" xmlns:xlink="http://www.w3.org/1999/xlink" x="0px" y="0px"
	 viewBox="0 0 267.72 179.75" style="enable-background:new 0 0 267.72 179.75;" xml:space="preserve">
<style type="text/css">
	.st0{fill:#FFFFFF;}
	.st1{fill:none;stroke:#FFFFFF;stroke-width:0.5;stroke-miterlimit:10;}
</style>
<g>
	<g>
		<path class="st0" d="M51.75,99.9c-0.66,0.99-1.93,1.84-3.72,1.84c-3,0-5.17-2.2-5.17-5.21c0-3.01,2.22-5.21,5.17-5.21
			c1.45,0,2.85,0.6,3.53,1.57l-0.75,0.53c-0.52-0.73-1.61-1.18-2.78-1.18c-2.36,0-4.13,1.81-4.13,4.29s1.74,4.29,4.13,4.29
			c1.43,0,2.43-0.66,2.95-1.44L51.75,99.9z"/>
		<path class="st0" d="M60.3,100.68v0.89h-6.42V91.49h6.25v0.89h-5.24v3.5h4.9v0.89h-4.9v3.9H60.3z"/>
		<path class="st0" d="M70.02,100.42v-8.93h1.01v10.08h-1.37l-6.02-8.92h-0.03v8.92H62.6V91.49h1.37l6.02,8.93H70.02z"/>
		<path class="st0" d="M73.12,91.49h7.78v0.89h-3.39v9.19h-1.01v-9.19h-3.39V91.49z"/>
		<path class="st0" d="M85.93,96.86c-0.07,0-0.16,0-1.93,0v4.71h-1.01V91.49h2.69c2.25,0,3.57,0.83,3.57,2.67
			c0,1.41-0.79,2.29-2.26,2.59l2.85,4.83h-1.12L85.93,96.86z M84,95.97h1.69c1.64,0,2.54-0.63,2.54-1.81c0-1.2-0.94-1.77-2.54-1.77
			H84V95.97z"/>
		<path class="st0" d="M92.35,101.57h-1.05l4.36-10.08h1.07l4.32,10.08h-1.07l-1.14-2.68H93.5L92.35,101.57z M96.18,92.7L93.89,98
			h4.57l-2.25-5.3H96.18z"/>
		<path class="st0" d="M103.03,91.49h1.01v9.19h4.72v0.89h-5.73V91.49z"/>
		<path class="st0" d="M114.86,96.53c0-3.01,2.22-5.21,5.17-5.21s5.17,2.2,5.17,5.21c0,2.71-1.79,4.75-4.29,5.14
			c0.43,1.33,1.27,2.16,2.3,2.16v0.86c-1.58,0-2.79-1.12-3.31-2.95C117,101.69,114.86,99.51,114.86,96.53z M120.03,92.24
			c-2.36,0-4.13,1.81-4.13,4.29s1.77,4.29,4.13,4.29s4.13-1.82,4.13-4.29S122.39,92.24,120.03,92.24z"/>
		<path class="st0" d="M128.68,91.49v6.27c0,1.28,0.58,3.07,2.74,3.07c2.16,0,2.74-1.79,2.74-3.07v-6.27h1.01v6.27
			c0,1.67-0.75,3.99-3.75,3.99s-3.75-2.32-3.75-3.99v-6.27H128.68z"/>
		<path class="st0" d="M144.74,100.68v0.89h-6.42V91.49h6.25v0.89h-5.24v3.5h4.9v0.89h-4.9v3.9H144.74z"/>
		<path class="st0" d="M153.47,100.68v0.89h-6.42V91.49h6.25v0.89h-5.24v3.5h4.9v0.89h-4.9v3.9H153.47z"/>
		<path class="st0" d="M163.19,100.42v-8.93h1.01v10.08h-1.37l-6.02-8.92h-0.03v8.92h-1.01V91.49h1.37l6.02,8.93H163.19z"/>
		<path class="st0" d="M172.04,92.93c0,0-0.66-0.69-2.03-0.69c-1.24,0-2.1,0.73-2.1,1.69c0,1.24,1.07,1.58,2.16,2.12
			c1.41,0.69,2.85,1.18,2.85,3.13c0,1.4-1.15,2.58-3.05,2.58c-2.06,0-3.2-1.3-3.2-1.3l0.69-0.6c0,0,0.86,0.98,2.51,0.98
			c1.25,0,2.02-0.73,2.02-1.66c0-1.33-1.21-1.77-2.28-2.29c-1.34-0.66-2.74-1.2-2.74-2.95c0-1.47,1.28-2.61,3.14-2.61
			c1.76,0,2.69,0.98,2.69,0.98L172.04,92.93z"/>
		<path class="st0" d="M175.37,91.49h1.01v9.19h4.72v0.89h-5.73V91.49z"/>
		<path class="st0" d="M183.59,101.57h-1.05l4.36-10.08h1.07l4.32,10.08h-1.07l-1.14-2.68h-5.34L183.59,101.57z M187.42,92.7
			l-2.29,5.3h4.57l-2.25-5.3H187.42z"/>
		<path class="st0" d="M201.7,100.42v-8.93h1.01v10.08h-1.37l-6.02-8.92h-0.03v8.92h-1.01V91.49h1.37l6.02,8.93H201.7z"/>
		<path class="st0" d="M205.95,91.49h3.36c2.52,0,5.3,1.67,5.3,5.03c0,3.37-2.78,5.06-5.3,5.06h-3.36V91.49z M206.96,100.68h2.35
			c2.03,0,4.26-1.41,4.26-4.16c0-2.74-2.23-4.13-4.26-4.13h-2.35V100.68z"/>
		<path class="st0" d="M215.71,103.59l1.01-3.38h1.04l-1.07,3.38H215.71z"/>
		<path class="st0" d="M42.61,108.77h1.05l2.51,8.8h0.03l2.55-8.8h1.33l2.54,8.79h0.03l2.48-8.79h1.05l-2.87,10.08h-1.34l-2.54-8.79
			h-0.03l-2.55,8.79H45.5L42.61,108.77z"/>
		<path class="st0" d="M58.32,118.85v-10.08h1.01v10.08H58.32z"/>
		<path class="st0" d="M62.56,108.77h3.36c2.52,0,5.3,1.67,5.3,5.03c0,3.37-2.78,5.06-5.3,5.06h-3.36V108.77z M63.56,117.96h2.35
			c2.03,0,4.26-1.41,4.26-4.16c0-2.74-2.23-4.13-4.26-4.13h-2.35V117.96z"/>
		<path class="st0" d="M80.21,117.96v0.89h-6.42v-10.08h6.25v0.89h-5.24v3.5h4.9v0.89h-4.9v3.9H80.21z"/>
		<path class="st0" d="M91.77,113.42c1.51,0.3,2.41,1.37,2.41,2.78c0,1.9-1.89,2.65-4.05,2.65h-2.78v-10.08h2.59
			c1.93,0,3.53,0.66,3.53,2.39c0,1.11-0.68,2.02-1.7,2.23V113.42z M88.36,113.08h2c0.91,0,2.07-0.53,2.07-1.92
			c0-1.07-1.12-1.5-2.49-1.5h-1.58V113.08z M88.36,117.96h1.77c1.61,0,3.01-0.52,3.01-1.76c0-1.45-1.07-2.23-2.75-2.23h-2.03V117.96
			z"/>
		<path class="st0" d="M96.42,118.85h-1.05l4.36-10.08h1.07l4.32,10.08h-1.07l-1.14-2.68h-5.34L96.42,118.85z M100.25,109.98
			l-2.29,5.3h4.57l-2.25-5.3H100.25z"/>
		<path class="st0" d="M108.67,118.85v-4.23l-3.85-5.85h1.15l3.18,4.88h0.03l3.18-4.88h1.15l-3.85,5.85v4.23H108.67z"/>
		<path class="st0" d="M113.36,120.87l1.01-3.38h1.04l-1.07,3.38H113.36z"/>
		<path class="st0" d="M127.59,110.21c0,0-0.66-0.69-2.03-0.69c-1.24,0-2.1,0.74-2.1,1.69c0,1.24,1.07,1.58,2.16,2.12
			c1.41,0.69,2.85,1.18,2.85,3.13c0,1.4-1.15,2.58-3.05,2.58c-2.06,0-3.2-1.3-3.2-1.3l0.69-0.61c0,0,0.86,0.98,2.51,0.98
			c1.25,0,2.02-0.73,2.02-1.66c0-1.33-1.21-1.77-2.28-2.29c-1.34-0.66-2.74-1.2-2.74-2.95c0-1.47,1.28-2.61,3.14-2.61
			c1.76,0,2.69,0.98,2.69,0.98L127.59,110.21z"/>
		<path class="st0" d="M131.71,108.77v6.27c0,1.28,0.58,3.07,2.74,3.07c2.16,0,2.74-1.79,2.74-3.07v-6.27h1.01v6.27
			c0,1.67-0.75,3.99-3.75,3.99s-3.75-2.32-3.75-3.99v-6.27H131.71z"/>
		<path class="st0" d="M148.76,117.7v-8.93h1.01v10.08h-1.37l-6.02-8.92h-0.03v8.92h-1.01v-10.08h1.37l6.02,8.93H148.76z"/>
		<path class="st0" d="M157.62,110.21c0,0-0.66-0.69-2.03-0.69c-1.24,0-2.1,0.74-2.1,1.69c0,1.24,1.07,1.58,2.16,2.12
			c1.41,0.69,2.85,1.18,2.85,3.13c0,1.4-1.15,2.58-3.05,2.58c-2.06,0-3.2-1.3-3.2-1.3l0.69-0.61c0,0,0.86,0.98,2.51,0.98
			c1.25,0,2.02-0.73,2.02-1.66c0-1.33-1.21-1.77-2.28-2.29c-1.34-0.66-2.74-1.2-2.74-2.95c0-1.47,1.28-2.61,3.14-2.61
			c1.76,0,2.69,0.98,2.69,0.98L157.62,110.21z"/>
		<path class="st0" d="M160.94,118.85v-10.08h1.01v4.41h5.53v-4.41h1.01v10.08h-1.01v-4.78h-5.53v4.78H160.94z"/>
		<path class="st0" d="M171.73,118.85v-10.08h1.01v10.08H171.73z"/>
		<path class="st0" d="M183.39,117.7v-8.93h1.01v10.08h-1.37l-6.02-8.92h-0.03v8.92h-1.01v-10.08h1.37l6.02,8.93H183.39z"/>
		<path class="st0" d="M194.07,117.96v0.89h-6.42v-10.08h6.25v0.89h-5.24v3.5h4.9v0.89h-4.9v3.9H194.07z"/>
		<path class="st0" d="M209.36,117.18c-0.66,0.99-1.93,1.84-3.72,1.84c-3,0-5.17-2.2-5.17-5.21s2.22-5.21,5.17-5.21
			c1.45,0,2.85,0.61,3.53,1.57l-0.75,0.53c-0.52-0.73-1.61-1.18-2.78-1.18c-2.36,0-4.13,1.82-4.13,4.29s1.74,4.29,4.13,4.29
			c1.43,0,2.43-0.66,2.95-1.44L209.36,117.18z"/>
		<path class="st0" d="M215.85,119.02c-2.95,0-5.17-2.2-5.17-5.21s2.22-5.21,5.17-5.21s5.17,2.2,5.17,5.21
			S218.81,119.02,215.85,119.02z M215.85,109.52c-2.36,0-4.13,1.82-4.13,4.29s1.77,4.29,4.13,4.29s4.13-1.81,4.13-4.29
			S218.22,109.52,215.85,109.52z"/>
		<path class="st0" d="M222.92,118.85h-1.05l4.36-10.08h1.07l4.32,10.08h-1.07l-1.14-2.68h-5.34L222.92,118.85z M226.76,109.98
			l-2.29,5.3h4.57l-2.25-5.3H226.76z"/>
		<path class="st0" d="M238.41,110.21c0,0-0.66-0.69-2.03-0.69c-1.24,0-2.1,0.74-2.1,1.69c0,1.24,1.07,1.58,2.16,2.12
			c1.41,0.69,2.85,1.18,2.85,3.13c0,1.4-1.15,2.58-3.05,2.58c-2.06,0-3.2-1.3-3.2-1.3l0.69-0.61c0,0,0.86,0.98,2.51,0.98
			c1.25,0,2.02-0.73,2.02-1.66c0-1.33-1.21-1.77-2.28-2.29c-1.34-0.66-2.74-1.2-2.74-2.95c0-1.47,1.28-2.61,3.14-2.61
			c1.76,0,2.69,0.98,2.69,0.98L238.41,110.21z"/>
		<path class="st0" d="M240.89,108.77h7.78v0.89h-3.39v9.19h-1.01v-9.19h-3.39V108.77z"/>
	</g>
	<g>
		<path id="XMLID_77_" class="st0" d="M47.08,50.82c-4.82,0-9.26,1.35-11.96,4.7h-0.13c-1.35-2.77-4.89-3.92-8.04-3.92
			c-1.74,0-2.83,0.45-2.83,0.45l0.39,8.36c0,0,0.26-0.06,0.64-0.06c1.42,0,2.83,1.22,2.83,4.5v31.98c0,0.04,0,0.09,0,0.13
			c0,2.7,2.18,4.89,4.88,4.89c2.7,0,4.88-2.18,4.89-4.87h0.01V80.59h0.13c1.87,1.8,4.05,3.02,6.63,3.54
			c1.03,0.26,2.19,0.39,3.34,0.32c8.04-0.39,14.47-7.46,14.47-16.79C62.32,58.02,55.44,50.82,47.08,50.82z M44.51,75.77
			c-2.77,0-5.15-1.42-6.75-3.6v-9.13c1.54-2.19,3.99-3.47,6.75-3.47c4.37,0,7.97,3.47,7.97,8.1C52.48,72.3,48.88,75.77,44.51,75.77z
			"/>
		<path id="XMLID_76_" class="st0" d="M87.2,50.95c-1.29-0.06-2.64,0-3.92,0.26c-2.57,0.51-4.89,1.93-6.63,3.99h-0.13V36.8h-9.78
			v46.95h9.78V63.1c1.61-2.38,3.54-3.54,6.43-3.54c3.99,0,6.05,3.09,6.05,7.78v16.4h9.78V68.31c0-1.93-0.13-3.73-0.39-5.4
			C97.42,55.9,93.69,51.33,87.2,50.95z"/>
		<path id="XMLID_75_" class="st0" d="M123.16,50.82c-4.05,0-8.1,1.8-9.84,5.6h-0.13L113,51.59h-9.07v32.16h9.78V63.1
			c1.61-2.38,3.54-3.54,6.43-3.54c3.99,0,6.05,3.09,6.05,7.78v16.4h9.78v-16.4C135.96,57.44,131.65,50.82,123.16,50.82z"/>
	</g>
	<g>
		<path class="st0" d="M30.28,137.93h1.33l2.16,8.03h-1.03l-0.57-2.2H29.6l-0.6,2.2h-1.03L30.28,137.93z M29.8,142.94h2.16
			l-1.02-3.88h-0.02L29.8,142.94z"/>
		<path class="st0" d="M34.5,139.93h0.9v0.71h0.02c0.25-0.55,0.88-0.87,1.46-0.87c1.59,0,1.59,1.2,1.59,1.91v4.27h-0.94v-4.16
			c0-0.46-0.03-1.21-0.89-1.21c-0.51,0-1.19,0.34-1.19,1.21v4.16H34.5V139.93z"/>
		<path class="st0" d="M44.01,137.93h1.33l2.16,8.03h-1.03l-0.57-2.2h-2.56l-0.6,2.2H41.7L44.01,137.93z M43.53,142.94h2.16
			l-1.02-3.88h-0.02L43.53,142.94z"/>
		<path class="st0" d="M52.08,145.96h-0.9v-0.71h-0.02c-0.25,0.55-0.88,0.87-1.46,0.87c-1.59,0-1.59-1.2-1.59-1.91v-4.27h0.94v4.16
			c0,0.46,0.03,1.21,0.89,1.21c0.51,0,1.19-0.34,1.19-1.21v-4.16h0.94V145.96z"/>
		<path class="st0" d="M55.86,141.7c0-0.76-0.2-1.18-0.89-1.18c-0.3,0-0.98,0.08-0.98,0.92c0,0.71,0.74,0.84,1.48,1.09
			c0.73,0.25,1.47,0.51,1.47,1.7c0,1.27-0.82,1.89-1.95,1.89c-2.05,0-2.07-1.52-2.07-2.14h0.94c0,0.73,0.2,1.39,1.12,1.39
			c0.3,0,1-0.15,1-1c0-0.81-0.74-0.98-1.47-1.23s-1.48-0.46-1.48-1.71c0-1.12,0.88-1.67,1.92-1.67c1.75,0,1.82,1.21,1.83,1.92H55.86
			z"/>
		<path class="st0" d="M58.2,138.18h0.94v1.75h1.05v0.74h-1.05v3.87c0,0.48,0.12,0.67,0.62,0.67c0.2,0,0.31-0.02,0.42-0.03v0.78
			c-0.12,0.02-0.37,0.07-0.76,0.07c-0.98,0-1.21-0.4-1.21-1.19v-4.16h-0.88v-0.74h0.88V138.18z"/>
		<path class="st0" d="M60.87,139.93h0.94v0.9h0.02c0.27-0.57,0.63-1.06,1.3-1.06c0.19,0,0.33,0.02,0.42,0.07v0.92
			c-0.09-0.01-0.2-0.04-0.51-0.04c-0.47,0-1.24,0.43-1.24,1.43v3.81h-0.94V139.93z"/>
		<path class="st0" d="M64.11,141.75c0-1.37,0.58-1.98,2.02-1.98c1.83,0,1.83,1.1,1.83,1.73v3.36c0,0.25,0,0.48,0.29,0.48
			c0.12,0,0.18-0.02,0.22-0.06v0.67c-0.07,0.01-0.31,0.06-0.55,0.06c-0.36,0-0.81,0-0.85-0.78h-0.02c-0.3,0.54-0.89,0.87-1.45,0.87
			c-1.12,0-1.64-0.67-1.64-1.75c0-0.84,0.36-1.43,1.14-1.67l1.27-0.38c0.69-0.21,0.69-0.41,0.69-0.91c0-0.56-0.34-0.89-0.97-0.89
			c-1.03,0-1.03,0.97-1.03,1.18v0.06H64.11z M67.02,142.67c-0.35,0.37-1.18,0.45-1.61,0.71c-0.3,0.19-0.46,0.43-0.46,0.96
			c0,0.61,0.21,1.03,0.85,1.03c0.62,0,1.21-0.53,1.21-1.15V142.67z"/>
		<path class="st0" d="M69.26,137.93h0.94v8.03h-0.94V137.93z"/>
		<path class="st0" d="M71.39,137.93h0.94v1.08h-0.94V137.93z M71.39,139.93h0.94v6.03h-0.94V139.93z"/>
		<path class="st0" d="M73.4,141.75c0-1.37,0.58-1.98,2.02-1.98c1.83,0,1.83,1.1,1.83,1.73v3.36c0,0.25,0,0.48,0.29,0.48
			c0.12,0,0.18-0.02,0.22-0.06v0.67c-0.07,0.01-0.31,0.06-0.55,0.06c-0.36,0-0.81,0-0.85-0.78h-0.02c-0.3,0.54-0.89,0.87-1.45,0.87
			c-1.12,0-1.64-0.67-1.64-1.75c0-0.84,0.36-1.43,1.14-1.67l1.27-0.38c0.69-0.21,0.69-0.41,0.69-0.91c0-0.56-0.34-0.89-0.97-0.89
			c-1.03,0-1.03,0.97-1.03,1.18v0.06H73.4z M76.31,142.67c-0.35,0.37-1.18,0.45-1.61,0.71c-0.3,0.19-0.46,0.43-0.46,0.96
			c0,0.61,0.21,1.03,0.85,1.03c0.62,0,1.21-0.53,1.21-1.15V142.67z"/>
		<path class="st0" d="M78.52,139.93h0.9v0.71h0.02c0.25-0.55,0.88-0.87,1.46-0.87c1.59,0,1.59,1.2,1.59,1.91v4.27h-0.94v-4.16
			c0-0.46-0.03-1.21-0.89-1.21c-0.51,0-1.19,0.34-1.19,1.21v4.16h-0.94V139.93z"/>
		<path class="st0" d="M90.27,140.16c-0.04-0.84-0.36-1.57-1.34-1.57c-1.37,0-1.55,1.51-1.55,3.36s0.18,3.36,1.55,3.36
			c1.37,0,1.47-1.64,1.47-2.71h-1.59v-0.81h2.49v4.17h-0.74v-1.09h-0.02c-0.21,0.69-0.85,1.25-1.73,1.25
			c-2.09,0-2.46-2.01-2.46-4.17c0-2.02,0.37-4.17,2.59-4.17c2.31,0,2.36,1.97,2.37,2.38H90.27z"/>
		<path class="st0" d="M94.44,139.77c1.74,0,2.17,1.47,2.17,3.17s-0.44,3.17-2.17,3.17c-1.74,0-2.17-1.47-2.17-3.17
			S92.71,139.77,94.44,139.77z M95.63,142.94c0-1.3-0.19-2.43-1.2-2.43c-0.96,0-1.16,1.12-1.16,2.43s0.19,2.43,1.16,2.43
			C95.42,145.37,95.63,144.25,95.63,142.94z"/>
		<path class="st0" d="M96.95,139.93h1.03l1.12,4.83h0.02l1.12-4.83h1.03l-1.63,6.03h-1.08L96.95,139.93z"/>
		<path class="st0" d="M102.65,143.06c0,0.92,0,2.32,1.16,2.32c0.9,0,1.02-0.94,1.02-1.39h0.94c0,0.64-0.38,2.14-2.02,2.14
			c-1.47,0-2.09-1.02-2.09-3.09c0-1.51,0.29-3.25,2.15-3.25c1.84,0,2.01,1.61,2.01,2.9v0.38H102.65z M104.83,142.31v-0.33
			c0-0.67-0.21-1.47-1.05-1.47c-0.99,0-1.1,1.21-1.1,1.58v0.22H104.83z"/>
		<path class="st0" d="M106.77,139.93h0.94v0.9h0.02c0.27-0.57,0.63-1.06,1.3-1.06c0.19,0,0.33,0.02,0.42,0.07v0.92
			c-0.09-0.01-0.2-0.04-0.51-0.04c-0.47,0-1.24,0.43-1.24,1.43v3.81h-0.94V139.93z"/>
		<path class="st0" d="M110.14,139.93h0.9v0.71h0.02c0.25-0.55,0.88-0.87,1.46-0.87c1.59,0,1.59,1.2,1.59,1.91v4.27h-0.94v-4.16
			c0-0.46-0.03-1.21-0.89-1.21c-0.51,0-1.19,0.34-1.19,1.21v4.16h-0.94V139.93z"/>
		<path class="st0" d="M115.29,139.93h0.9v0.71h0.02c0.25-0.55,0.88-0.87,1.46-0.87c0.7,0,1.11,0.27,1.3,0.96
			c0.27-0.53,0.81-0.96,1.43-0.96c1.59,0,1.59,1.2,1.59,1.91v4.27h-0.94v-4.16c0-0.46-0.03-1.21-0.81-1.21
			c-0.44,0-1.12,0.27-1.12,1.21v4.16h-0.94v-4.16c0-0.46-0.03-1.21-0.81-1.21c-0.44,0-1.12,0.27-1.12,1.21v4.16h-0.94V139.93z"/>
		<path class="st0" d="M123.99,143.06c0,0.92,0,2.32,1.16,2.32c0.9,0,1.02-0.94,1.02-1.39h0.94c0,0.64-0.38,2.14-2.02,2.14
			c-1.47,0-2.09-1.02-2.09-3.09c0-1.51,0.29-3.25,2.15-3.25c1.84,0,2.01,1.61,2.01,2.9v0.38H123.99z M126.18,142.31v-0.33
			c0-0.67-0.21-1.47-1.05-1.47c-0.99,0-1.1,1.21-1.1,1.58v0.22H126.18z"/>
		<path class="st0" d="M128.12,139.93h0.9v0.71h0.02c0.25-0.55,0.88-0.87,1.46-0.87c1.59,0,1.59,1.2,1.59,1.91v4.27h-0.94v-4.16
			c0-0.46-0.03-1.21-0.89-1.21c-0.51,0-1.19,0.34-1.19,1.21v4.16h-0.94V139.93z"/>
		<path class="st0" d="M133.61,138.18h0.94v1.75h1.05v0.74h-1.05v3.87c0,0.48,0.12,0.67,0.62,0.67c0.2,0,0.31-0.02,0.42-0.03v0.78
			c-0.12,0.02-0.37,0.07-0.76,0.07c-0.98,0-1.21-0.4-1.21-1.19v-4.16h-0.88v-0.74h0.88V138.18z"/>
		<path class="st0" d="M138.97,137.93h0.99v8.03h-0.99V137.93z"/>
		<path class="st0" d="M141.24,139.93h0.9v0.71h0.02c0.25-0.55,0.88-0.87,1.46-0.87c1.59,0,1.59,1.2,1.59,1.91v4.27h-0.94v-4.16
			c0-0.46-0.03-1.21-0.89-1.21c-0.51,0-1.19,0.34-1.19,1.21v4.16h-0.94V139.93z"/>
		<path class="st0" d="M146.37,137.93h0.94v1.08h-0.94V137.93z M146.37,139.93h0.94v6.03h-0.94V139.93z"/>
		<path class="st0" d="M148.89,138.18h0.94v1.75h1.05v0.74h-1.05v3.87c0,0.48,0.12,0.67,0.62,0.67c0.2,0,0.31-0.02,0.42-0.03v0.78
			c-0.12,0.02-0.37,0.07-0.76,0.07c-0.98,0-1.21-0.4-1.21-1.19v-4.16h-0.88v-0.74h0.88V138.18z"/>
		<path class="st0" d="M151.58,137.93h0.94v1.08h-0.94V137.93z M151.58,139.93h0.94v6.03h-0.94V139.93z"/>
		<path class="st0" d="M153.58,141.75c0-1.37,0.58-1.98,2.02-1.98c1.83,0,1.83,1.1,1.83,1.73v3.36c0,0.25,0,0.48,0.29,0.48
			c0.12,0,0.18-0.02,0.22-0.06v0.67c-0.07,0.01-0.31,0.06-0.55,0.06c-0.36,0-0.81,0-0.85-0.78h-0.02c-0.3,0.54-0.89,0.87-1.45,0.87
			c-1.12,0-1.64-0.67-1.64-1.75c0-0.84,0.36-1.43,1.14-1.67l1.27-0.38c0.69-0.21,0.69-0.41,0.69-0.91c0-0.56-0.34-0.89-0.97-0.89
			c-1.03,0-1.03,0.97-1.03,1.18v0.06H153.58z M156.49,142.67c-0.35,0.37-1.18,0.45-1.61,0.71c-0.3,0.19-0.46,0.43-0.46,0.96
			c0,0.61,0.21,1.03,0.85,1.03c0.62,0,1.21-0.53,1.21-1.15V142.67z"/>
		<path class="st0" d="M158.99,138.18h0.94v1.75h1.05v0.74h-1.05v3.87c0,0.48,0.12,0.67,0.62,0.67c0.2,0,0.31-0.02,0.42-0.03v0.78
			c-0.12,0.02-0.37,0.07-0.76,0.07c-0.98,0-1.21-0.4-1.21-1.19v-4.16h-0.88v-0.74h0.88V138.18z"/>
		<path class="st0" d="M161.67,137.93h0.94v1.08h-0.94V137.93z M161.67,139.93h0.94v6.03h-0.94V139.93z"/>
		<path class="st0" d="M163.36,139.93h1.03l1.12,4.83h0.02l1.12-4.83h1.03l-1.63,6.03h-1.08L163.36,139.93z"/>
		<path class="st0" d="M169.06,143.06c0,0.92,0,2.32,1.16,2.32c0.9,0,1.02-0.94,1.02-1.39h0.94c0,0.64-0.38,2.14-2.02,2.14
			c-1.47,0-2.09-1.02-2.09-3.09c0-1.51,0.29-3.25,2.15-3.25c1.84,0,2.01,1.61,2.01,2.9v0.38H169.06z M171.25,142.31v-0.33
			c0-0.67-0.21-1.47-1.05-1.47c-0.99,0-1.1,1.21-1.1,1.58v0.22H171.25z"/>
	</g>
	<line class="st1" x1="27.9" y1="130.81" x2="171.96" y2="130.81"/>
</g>
</svg>
