<?xml version="1.0" encoding="utf-8"?>
<!-- Generator: Adobe Illustrator 25.0.1, SVG Export Plug-In . SVG Version: 6.00 Build 0)  -->
<svg version="1.1" id="Layer_1" xmlns="http://www.w3.org/2000/svg" xmlns:xlink="http://www.w3.org/1999/xlink" x="0px" y="0px"
	 viewBox="0 0 1024.6 322.3" style="enable-background:new 0 0 1024.6 322.3;" xml:space="preserve">
<path d="M852.2,137.1c1,0,1.9-0.1,2.8-0.1c15.2,0,30.4,0,45.6-0.1c2.2,0,3.1,0.7,3.6,2.8c9.6,36.3,19.3,72.5,28.9,108.8
	c0.2,0.9,0.5,1.7,1,3.3c4-15.4,7.9-30,11.7-44.6c5.9-22.6,11.9-45.1,17.8-67.7c0.4-1.4,0.6-2.5,2.7-2.5c15.9,0.1,31.9,0.1,47.8,0.1
	c0.5,0,0.9,0.1,1.5,0.2c0,56.4,0,112.7,0,169.1c-10.5,0-21,0-31.7,0c0-43.2,0-86.4,0-129.6c-0.2,0-0.5-0.1-0.7-0.1
	c-10.9,43.2-21.8,86.4-32.7,129.7c-11.1,0-22,0-33.3,0c-10.9-43.3-21.8-86.7-32.7-130.1c-0.2,0-0.4,0.1-0.6,0.1
	c0,43.3,0,86.6,0,130.1c-10.7,0-21.1,0-31.7,0C852.2,249.9,852.2,193.6,852.2,137.1z"/>
<path d="M459.2,306.4c0-56.6,0-112.9,0-169.5c1.2,0,2.2,0,3.2,0c21.9,0,43.8-0.1,65.7,0.2c11.8,0.2,23.5,1.1,34.4,6.3
	c16.3,7.9,26.4,21.2,32.5,37.8c6.2,16.7,6.9,34.2,6,51.8c-0.7,12.6-3.4,24.7-8.8,36.1c-10,21.2-26.7,33.1-49.8,36.1
	c-5.7,0.7-11.5,1.1-17.3,1.1c-20.9,0.1-41.7,0.1-62.6,0.1C461.5,306.4,460.5,306.4,459.2,306.4z M493.8,165.4c0,38,0,75.1,0,112.1
	c0.4,0.2,0.5,0.3,0.7,0.3c13.8-0.3,27.7,0,41.5-1.1c11.7-1,20.2-7.3,24.5-18.7c2.7-7.2,4.2-14.5,4.7-22.1c0.8-13.6,1.2-27.3-2-40.7
	c-3.8-16-13.6-26.3-28.4-27.9C521.3,165.8,507.6,166,493.8,165.4z"/>
<path d="M108,187.2c-0.6-2.4-1.2-4.5-1.8-6.6c-2.9-9.8-9.5-15.4-19.5-17c-8.9-1.4-17.8-1.3-26.3,1.8c-2.3,0.8-4.5,2-6.5,3.4
	c-7.1,4.9-7.9,14.7-1,19.9c4.4,3.3,9.8,5.7,15.2,7.4c11.8,3.7,24,6.2,35.8,10c7.4,2.4,14.9,5.2,21.6,9.2
	c14.4,8.7,21.1,22.1,21.7,38.9c0.5,14.5-3.9,27-13.7,37.6c-6.4,6.9-14.4,11.3-23.4,13.8c-19.2,5.3-38.6,5.7-57.8,0.6
	c-22.9-6.1-35.8-21.8-41.1-44.4c-0.8-3.3-1.3-6.7-2-10.5c11.3-1.1,22.2-2.2,33.5-3.3c0.7,2.5,1.3,5.1,2,7.6
	c4.9,16.1,16.4,24.7,33.2,24.8c6.2,0.1,12.4-0.2,18.2-2.4c8.7-3.2,15.1-8.7,16.5-18.5c1-6.7-1.4-12-7.2-15.8
	c-6.1-3.9-13.1-5.4-19.9-7.3c-12-3.4-24.1-6.5-36-10.4c-11.9-3.9-21.8-11-28.2-22.1c-12.2-21.1-5.5-50.7,20.4-62.9
	c12.6-5.9,26-7.3,39.7-6.9c12.1,0.4,24,2,34.9,7.8c15.5,8.3,23.9,21.3,25.8,38.7c0.5,5.1,0.4,5-4.6,5.2
	C127.5,186.2,117.9,186.7,108,187.2z"/>
<path d="M446,306.4c-12.3,0-24.2,0-36.2-0.1c-0.7,0-1.7-1.2-2-2.1c-4.4-11.2-8.7-22.4-12.9-33.6c-0.7-1.9-1.6-2.5-3.6-2.5
	c-20.8,0.1-41.6,0.1-62.3,0c-1.9,0-2.8,0.6-3.5,2.4c-4,11.1-8.1,22.2-12.1,33.3c-0.7,1.9-1.4,2.7-3.5,2.6c-11.2-0.1-22.4-0.1-34-0.1
	c2.2-5.6,4.2-11,6.3-16.3c19.5-50.1,39.1-100.2,58.6-150.3c0.8-2.2,1.9-3,4.3-2.9c10.2,0.2,20.5,0.1,30.7,0c1.7,0,2.7,0.4,3.4,2.1
	c22,55.1,44.1,110.2,66.2,165.3C445.5,304.9,445.7,305.4,446,306.4z M359.6,177c-7.7,21.1-15.1,41.6-22.6,62.1c15.4,0,30.4,0,45.7,0
	C375.1,218.5,367.5,198.1,359.6,177z"/>
<path d="M686.2,137.1c11.6,0,22.8,0,34.3,0c0,1.3,0,2.6,0,3.8c0,29.9-0.1,59.7,0,89.6c0,8,0.2,16.1,1,24.1
	c1.2,11.6,7.8,19.6,18.9,23.3c9.4,3.1,19.1,3.1,28.5,0.1c10-3.2,15.7-10.4,16.8-20.8c0.8-7.5,1.1-15.1,1.2-22.7
	c0.1-31.3,0.1-62.6,0.1-93.8c0-1.1,0-2.2,0-3.5c11.5,0,22.8,0,34.4,0c0.1,1,0.2,2,0.2,3c0,29.1,0.3,58.2-0.1,87.3
	c-0.2,13.2-0.6,26.6-2.6,39.6c-3.3,22.3-17.9,34.6-39.1,40c-12.3,3.1-24.8,2.7-37.3,1.9c-10.6-0.7-20.8-2.8-30-8.4
	c-14.6-8.8-22.9-21.6-24.4-38.5c-1-11.7-1.7-23.4-1.8-35.1c-0.2-28.7-0.1-57.4-0.1-86.2C686.2,139.5,686.2,138.4,686.2,137.1z"/>
<path d="M158.9,166c0-9.9,0-19.3,0-28.9c44.9,0,89.6,0,134.6,0c0,9.5,0,18.9,0,28.7c-16.6,0-33.2,0-50.1,0c0,47,0,93.6,0,140.4
	c-11.5,0-22.7,0-34.3,0c0-46.6,0-93.2,0-140.2C192.3,166,175.8,166,158.9,166z"/>
<path d="M658.7,137.2c0,56.4,0,112.6,0,169.1c-11.4,0-22.7,0-34.2,0c0-56.4,0-112.6,0-169.1C635.8,137.2,647.1,137.2,658.7,137.2z"
	/>
<path d="M508.2,9.7c0,27.8,0,55.4,0,83.4c-5.4,0-10.7,0.1-16-0.1c-0.8,0-1.8-1.2-2.3-2.1c-10-16.1-19.9-32.2-29.9-48.3
	c-0.5-0.8-1.1-1.7-2.1-3.1c0,18.2,0,35.7,0,53.3c-5.3,0-10.4,0-15.7,0c0-27.6,0-55.3,0-83.3c5.2,0,10.3-0.1,15.3,0.1
	c0.8,0,1.8,1.2,2.3,2.1c10.2,16.5,20.3,33.1,30.5,49.6c0.5,0.8,1,1.5,2.1,2.2c0-17.9,0-35.8,0-53.9C497.9,9.7,502.9,9.7,508.2,9.7z"
	/>
<path d="M239.5,93c-5.3,0-10.6,0.1-15.9-0.1c-0.7,0-1.6-1.1-2.1-2c-10.1-16.2-20.1-32.3-30.1-48.5c-0.5-0.8-1-1.5-2-3
	c0,18.3,0,35.7,0,53.4c-5.4,0-10.5,0-15.8,0c0-27.6,0-55.3,0-83.3c5.2,0,10.3-0.1,15.4,0.1c0.8,0,1.8,1.2,2.3,2.1
	c10.2,16.6,20.4,33.2,30.6,49.8c0.5,0.8,1,1.5,1.9,2.8c0-18.6,0-36.5,0-54.6c5.3,0,10.3,0,15.7,0C239.5,37.3,239.5,65,239.5,93z"/>
<path d="M747.4,94.4c-18.9,0-33-9.6-38.1-26.1c-2.8-9-2.9-18.2-1.5-27.5c1.6-10.7,6.7-19.4,15.4-25.9c7.3-5.4,15.9-6.8,24.8-6.7
	c18.6,0.2,32.1,9.6,37.4,25.8c2.9,9,3.2,18.2,1.7,27.5c-1.2,7.4-3.9,14.2-8.8,20C770.2,90.9,759.5,94.4,747.4,94.4z M770.7,52
	c-0.5-4.4-0.8-7.8-1.4-11.1c-2-10.8-9.3-17.3-20.7-18c-9.6-0.6-18.2,3.9-21.8,14c-3.4,9.6-3.4,19.4,0.1,28.9
	c3.3,9,11.5,14.4,20.9,14.2c9.6-0.2,17.3-5.7,20.3-14.9C769.6,60.5,770,55.7,770.7,52z"/>
<path d="M540.5,56.2c0,7.7,0,14.9,0,22.5c15.5,0,30.9,0,46.4,0c0,4.9,0,9.4,0,14.1c-21.1,0-42.1,0-63.3,0c0-27.6,0-55.3,0-83.1
	c20.4,0,40.9,0,61.6,0c0,4.5,0,9.1,0,14c-14.8,0-29.6,0-44.6,0c0,6.2,0,12,0,18.3c1,0,2,0,3,0c12,0,23.9,0.1,35.9-0.1
	c2.4,0,3.1,0.7,3,3.1c-0.2,3.6,0,7.2,0,11.1C568.4,56.2,554.6,56.2,540.5,56.2z"/>
<path d="M267,64.1c0.3,0.7,0.4,0.9,0.5,1.2c3,13.1,15.7,18.9,27.7,12.8c2.8-1.5,4.9-3.6,5.9-6.7c1.4-4.4-0.3-8.3-4.9-10.1
	c-5-1.9-10.3-3.1-15.5-4.6c-4.2-1.3-8.6-2.4-12.6-4.2c-9.5-4.1-15.1-12.8-14.5-21.7c0.7-10.2,6.8-17.8,17.3-20.7
	c9.7-2.8,19.5-2.6,29.1,0.6c10.1,3.5,16.8,13.3,15.8,23.2c-5.4,0-10.8,0-16.6,0c0.2,0.2,0,0.1-0.1-0.1c-1.1-4.7-2.9-9.1-8.1-10.4
	c-6.3-1.7-12.7-1.8-18.3,2c-4.2,2.8-3.8,8.5,1.1,10.8c4.4,2.1,9.2,3.2,13.9,4.7c5.1,1.6,10.4,2.8,15.4,4.8
	c11.1,4.5,15.9,12.7,15.3,24.9c-0.5,10-7.3,18.7-17.5,21.8c-9.7,2.9-19.7,3.1-29.4,0.4c-11.8-3.2-17.9-11.6-20.3-23.2
	c-0.2-1-0.3-2.1-0.5-3.1c0-0.1,0-0.2,0.1-0.7C256.1,65.2,261.5,64.6,267,64.1z"/>
<path d="M875.9,65.7c5.5-0.6,10.9-1.1,16.4-1.6c0.2,0.5,0.4,0.9,0.5,1.2c2.4,12.1,10.8,15.8,21.8,14.5c3.7-0.5,7-1.7,9.5-4.5
	c4.4-4.9,3.4-11.6-2.8-14c-5.7-2.2-11.8-3.4-17.6-5.2c-3.6-1.1-7.2-2.2-10.7-3.8c-9.1-4-14.7-12.6-14.2-21.4
	c0.6-9.9,6.5-17.7,16.3-20.7c10.2-3.1,20.6-3,30.7,0.6c9.6,3.4,15.6,12.5,15.3,22.8c-3.8,0.2-7.6,0.3-11.4,0.5
	c-4.7,0.2-4.8,0.2-6.6-4.2c-1.5-3.7-4.1-6.1-8-6.9c-4.8-1-9.6-1-14.3,0.7c-3,1.1-5.5,2.9-5.7,6.4c-0.1,3.5,2.1,5.7,5.2,6.7
	c7,2.2,14.1,4.1,21.2,6.3c5.3,1.6,10.4,3.4,14.7,7.2c12,10.4,10.3,34.7-8.5,41.5c-10.9,3.9-22.2,4-33.2,0.3
	c-10.8-3.6-16.1-12.1-18.2-22.8C876.2,68.2,876.1,67.1,875.9,65.7z"/>
<path d="M77.6,33.6C72.1,33.8,67,34.1,62,34.3c-0.5,0-1.4-0.8-1.6-1.4c-1.3-4.7-3.5-8.6-8.5-9.7c-6.2-1.4-12.5-1.6-18,2.4
	c-4,2.9-3.3,8.4,1.5,10.6c4.4,2,9.3,3.2,13.9,4.7c5,1.6,10.1,2.7,14.9,4.6c11.3,4.4,15.9,12.4,15.9,23.4c0,10.9-6.8,20.1-17.5,23.4
	c-10.3,3.2-20.8,3.3-31.1,0.1c-11.1-3.5-16.7-11.8-18.9-22.8c-0.2-1.1-0.3-2.2-0.6-3.7c5.5-0.6,10.9-1.1,16.4-1.6
	c0.2,0.7,0.5,1.1,0.5,1.5c2.5,11.8,10.9,15.6,22.1,14.1c3.7-0.5,7-1.8,9.4-4.7c4.2-5,3.1-11.4-3-13.7c-5.7-2.2-11.8-3.4-17.6-5.2
	c-3.8-1.2-7.6-2.3-11.2-4c-8.8-4.1-13.6-11.1-13.6-20.9c0-9.4,5.8-17.3,15.2-20.5c11.4-3.9,23-3.9,34.1,1.2
	C73.1,16,77.2,23.5,77.6,33.6z"/>
<path d="M396.7,92.9c-5.6,0-11,0-16.7,0c0-12,0-24,0-36.1c-11,0-21.7,0-32.6,0c0,11.9,0,23.8,0,36c-5.8,0-11.3,0-17,0
	c0-27.6,0-55.3,0-83.1c5.5,0,10.9,0,16.7,0c0,10.7,0,21.4,0,32.4c11,0,21.7,0,32.7,0c0-10.8,0-21.5,0-32.4c5.8,0,11.3,0,16.9,0
	C396.7,37.4,396.7,65,396.7,92.9z"/>
<path d="M873.6,93c-5.8,0-11.4,0.1-17-0.1c-0.7,0-1.7-1-2-1.8c-2-4.8-3.8-9.7-5.6-14.6c-0.6-1.7-1.4-2.5-3.4-2.5
	c-9.4,0.1-18.8,0.1-28.2,0c-2,0-2.8,0.7-3.4,2.5c-1.7,4.9-3.5,9.8-5.4,14.6c-0.3,0.8-1.3,1.7-2,1.8c-5.4,0.1-10.8,0.1-16.6,0.1
	c1.5-4,2.9-7.7,4.4-11.3c9.1-23.2,18.2-46.5,27.2-69.8c0.7-1.9,1.7-2.6,3.7-2.5c4.4,0.1,8.7,0.1,13.1,0c1.5,0,2.3,0.4,2.9,1.9
	c10.6,26.5,21.2,53,31.8,79.5C873.3,91.5,873.4,92.1,873.6,93z M820.3,59.7c7.6,0,14.7,0,22.2,0c-3.7-10.1-7.4-19.8-11.2-30.2
	C827.5,40,824,49.7,820.3,59.7z"/>
<path d="M91.9,9.6c5.6,0,11,0,16.8,0c0,1.2,0,2.3,0,3.4c0,16.9,0.2,33.7,0.1,50.6c-0.1,11.3,7.3,16.9,18.6,16.1
	c1.2-0.1,2.5-0.2,3.7-0.5c6.2-1.5,9.7-5.9,9.8-12.9c0.2-17.7,0.3-35.4,0.4-53.2c0-1.1,0-2.2,0-3.5c5.7,0,11.2,0,16.9,0
	c0,1.1,0.1,2.1,0.1,3.1c0,14.9,0.1,29.8,0,44.6c-0.1,5.3-0.3,10.6-1.1,15.8c-1.7,10.8-9.4,18.3-20.6,20.3
	c-8.2,1.4-16.4,1.4-24.6-0.5c-10.9-2.5-19-11.2-19.4-22.4c-0.6-20-0.6-40-0.8-59.9C91.6,10.4,91.7,10.1,91.9,9.6z"/>
<path d="M682.1,62.2c5.5,1.7,10.8,3.4,16.4,5.2c-2.6,10-7.3,18.6-16.8,23.1c-21.5,10.2-50.9,1.4-55.2-29.4c-1.2-8.5-1-17,1.3-25.4
	c5-18,20-28.5,38.8-27.6c8.7,0.4,16.6,2.8,23.1,8.9c4.5,4.2,7,9.5,8.7,15.6c-5.7,1.4-11.1,2.7-16.8,4c-1.7-6.3-5.1-11-11.4-13
	c-9.9-3.1-22.1,0.8-25.4,14.3c-2.3,9.2-2.2,18.6,0.5,27.8c3.6,12.3,17.3,17.8,27.7,11.3c4.3-2.7,6.5-6.8,8.1-11.3
	C681.4,64.8,681.6,63.7,682.1,62.2z"/>
<path d="M991.3,92.9c-5.8,0-11.3,0-17.1,0c0-1.2,0-2.3,0-3.4c0-20.7,0-41.3,0-62c0-3.6,0-3.6-3.7-3.6c-5.9,0-11.8,0-17.6,0
	c-1,0-2,0-3.2,0c0-4.9,0-9.4,0-14.1c22,0,44,0,66.1,0c0,4.6,0,9.1,0,14c-8,0-16,0-24.4,0C991.3,47,991.3,69.8,991.3,92.9z"/>
<path d="M411.5,9.7c5.5,0,11,0,16.7,0c0,27.7,0,55.4,0,83.2c-5.5,0-11,0-16.7,0C411.5,65.2,411.5,37.5,411.5,9.7z"/>
</svg>
