<?xml version="1.0" encoding="UTF-8"?>
<svg width="437px" height="94px" viewBox="0 0 437 94" version="1.1" xmlns="http://www.w3.org/2000/svg" xmlns:xlink="http://www.w3.org/1999/xlink">
    <title>Group 89</title>
    <defs>
        <filter id="filter-1">
            <feColorMatrix in="SourceGraphic" type="matrix" values="0 0 0 0 1.000000 0 0 0 0 1.000000 0 0 0 0 1.000000 0 0 0 1.000000 0"></feColorMatrix>
        </filter>
        <polygon id="path-2" points="0 92 436.058 92 436.058 0.855 0 0.855"></polygon>
        <polygon id="path-4" points="0.517 0.221 12.887 10.114 4.982 0.063"></polygon>
        <linearGradient x1="47.5267348%" y1="68.5107024%" x2="58.6305174%" y2="-12.2519497%" id="linearGradient-6">
            <stop stop-color="#663385" offset="0%"></stop>
            <stop stop-color="#9E7FB9" offset="100%"></stop>
        </linearGradient>
        <polygon id="path-7" points="9.039 18.621 5.12 1.482 0.013 0.36"></polygon>
        <linearGradient x1="-0.00709505872%" y1="49.999799%" x2="99.9960747%" y2="49.999799%" id="linearGradient-9">
            <stop stop-color="#004C6D" offset="0%"></stop>
            <stop stop-color="#4060A6" offset="100%"></stop>
        </linearGradient>
        <polygon id="path-10" points="0.068 27.721 5.268 3.968 0.576 0.489"></polygon>
        <linearGradient x1="50.0040867%" y1="50.0687364%" x2="50.1703889%" y2="8.26534114%" id="linearGradient-12">
            <stop stop-color="#4060A6" offset="0%"></stop>
            <stop stop-color="#00A3BE" offset="100%"></stop>
        </linearGradient>
        <polygon id="path-13" points="0.059 32.557 16.65 6.007 13.79 0.346"></polygon>
        <linearGradient x1="0.000310409258%" y1="50.0019419%" x2="99.999595%" y2="50.0019419%" id="linearGradient-15">
            <stop stop-color="#353435" offset="0%"></stop>
            <stop stop-color="#8B8D90" offset="100%"></stop>
        </linearGradient>
        <polygon id="path-16" points="0.388 28.489 32.242 4.789 32.233 0.074"></polygon>
        <linearGradient x1="-0.000573240409%" y1="49.9992543%" x2="99.9986008%" y2="49.9992543%" id="linearGradient-18">
            <stop stop-color="#00A3BE" offset="0%"></stop>
            <stop stop-color="#389D47" offset="100%"></stop>
        </linearGradient>
        <polygon id="path-19" points="32.219 0.855 0.388 37.489 32.233 9.074"></polygon>
        <linearGradient x1="-0.000573402418%" y1="49.9994505%" x2="99.9997538%" y2="49.9994505%" id="linearGradient-21">
            <stop stop-color="#40C2D5" offset="0%"></stop>
            <stop stop-color="#00A3BE" offset="100%"></stop>
        </linearGradient>
        <polygon id="path-22" points="0.011 37.681 56.16 11.648 61.599 0.292"></polygon>
        <linearGradient x1="0.00141472365%" y1="50.0007237%" x2="100.000017%" y2="50.0007237%" id="linearGradient-24">
            <stop stop-color="#00A3BE" offset="0%"></stop>
            <stop stop-color="#389D47" offset="100%"></stop>
        </linearGradient>
        <polygon id="path-25" points="0.292 31.276 72.129 13.435 83.307 0.953"></polygon>
        <linearGradient x1="-4.61362405e-05%" y1="50.0002833%" x2="100.0001%" y2="50.0002833%" id="linearGradient-27">
            <stop stop-color="#389D47" offset="0%"></stop>
            <stop stop-color="#85C340" offset="100%"></stop>
        </linearGradient>
        <polygon id="path-28" points="56.974 35.777 78.892 33.64 0.127 0.043"></polygon>
        <linearGradient x1="10.5241945%" y1="54.9831755%" x2="164.898873%" y2="33.0901699%" id="linearGradient-30">
            <stop stop-color="#FBD845" offset="0%"></stop>
            <stop stop-color="#F8E7BB" offset="100%"></stop>
        </linearGradient>
        <polygon id="path-31" points="79.314 21.686 101.477 14.327 0.984 0.053"></polygon>
        <linearGradient x1="-0.000325296289%" y1="49.9989031%" x2="152.594094%" y2="49.9989031%" id="linearGradient-33">
            <stop stop-color="#FBD845" offset="0%"></stop>
            <stop stop-color="#F6911E" offset="100%"></stop>
        </linearGradient>
        <polygon id="path-34" points="0.577 14.314 86.471 12.676 105.058 0.534"></polygon>
        <linearGradient x1="-0.000442089949%" y1="50.0012721%" x2="112.545128%" y2="50.0012721%" id="linearGradient-36">
            <stop stop-color="#85C340" offset="0%"></stop>
            <stop stop-color="#C3D82D" offset="100%"></stop>
        </linearGradient>
    </defs>
    <g id="Page-1" stroke="none" stroke-width="1" fill="none" fill-rule="evenodd">
        <g filter="url(#filter-1)" id="Group-89">
            <g>
                <path d="M253.0379,74.0734 L256.9019,74.0734 L255.0169,63.0924 L254.9539,63.0924 L253.0379,74.0734 Z M259.6809,80.3774 L258.0189,80.3774 L257.1569,75.5304 L252.7819,75.5304 L251.9519,80.3774 L250.2909,80.3774 L253.5809,61.4674 L256.3909,61.4674 L259.6809,80.3774 Z" id="Fill-1" fill="#010202"></path>
                <g id="Group-38" transform="translate(0.000000, 0.145000)">
                    <path d="M268.3328,66.5612 L268.3328,80.2322 L267.1838,80.2322 L266.8958,79.1672 C266.3538,79.8962 265.4588,80.3722 264.4688,80.3722 C262.8088,80.3722 261.4358,79.0272 261.4358,77.3462 L261.4358,66.5612 L263.0958,66.5612 L263.0958,77.3462 C263.0958,78.2152 263.8948,78.9152 264.8838,78.9152 C265.8738,78.9152 266.6728,78.2152 266.6728,77.3462 L266.6728,66.5612 L268.3328,66.5612 Z" id="Fill-2" fill="#010202"></path>
                    <path d="M275.8367,76.1696 C275.8367,75.3856 275.2937,74.9926 275.2937,74.9926 L271.8447,72.4726 C271.8447,72.4726 270.7277,71.6596 270.7277,70.1746 L270.7277,69.3346 C270.7277,67.7366 272.2287,66.4206 274.0487,66.4206 C275.8687,66.4206 277.3697,67.7366 277.3697,69.3346 L277.3697,70.5946 L275.7087,70.7636 L275.7087,69.3346 C275.7087,68.5226 274.9747,67.8776 274.0487,67.8776 C273.1217,67.8776 272.3877,68.5226 272.3877,69.3346 L272.3877,70.1746 C272.3877,70.9586 272.9307,71.3516 272.9307,71.3516 L276.3797,73.8726 C276.3797,73.8726 277.4977,74.6856 277.4977,76.1696 L277.4977,77.3466 C277.4977,79.0266 275.9647,80.3716 274.0487,80.3716 C272.1317,80.3716 270.5997,79.0266 270.5997,77.3466 L270.5997,76.0016 L272.2597,75.8336 L272.2597,77.3466 C272.2597,78.2156 273.0587,78.9156 274.0487,78.9156 C275.0377,78.9156 275.8367,78.2156 275.8367,77.3466 L275.8367,76.1696 Z" id="Fill-4" fill="#010202"></path>
                    <path d="M278.8045,66.5612 L280.8175,66.5612 L280.8175,63.9272 L282.4775,63.7592 L282.4775,66.5612 L284.4905,66.5612 L284.4905,68.0172 L282.4775,68.0172 L282.4775,78.3552 C282.4775,78.6632 282.7655,78.9152 283.1165,78.9152 L283.1165,80.3722 C281.8385,80.3722 280.8175,79.4752 280.8175,78.3552 L280.8175,68.0172 L278.8045,68.0172 L278.8045,66.5612 Z" id="Fill-6" fill="#010202"></path>
                    <path d="M291.0349,67.8776 L289.8529,67.8776 C288.7669,67.8776 287.9369,68.6336 287.9369,69.5866 L287.9369,80.2316 L286.2759,80.2316 L286.2759,66.5616 L287.4269,66.5616 L287.7139,67.6256 C288.2569,66.8976 289.3429,66.4206 291.0349,66.4206 L291.0349,67.8776 Z" id="Fill-8" fill="#010202"></path>
                    <path d="M293.6853,77.3464 C293.6853,78.2154 294.4833,78.9154 295.4733,78.9154 C296.4633,78.9154 297.2613,78.2154 297.2613,77.3464 L297.2613,73.3684 C297.0063,73.5924 296.7183,73.7334 296.7183,73.7334 L294.2593,74.9654 C294.2593,74.9654 293.6853,75.2454 293.6853,75.8054 L293.6853,77.3464 Z M298.9223,78.2714 C298.9223,78.5514 299.1773,78.7754 299.4973,78.7754 L299.4973,80.2324 C298.8273,80.2324 298.2193,79.9804 297.8043,79.5874 C297.1983,80.0924 296.3683,80.3714 295.4733,80.3714 C293.5573,80.3714 292.0243,79.0274 292.0243,77.3464 L292.0243,75.8054 C292.0243,74.4054 293.4293,73.7044 293.4293,73.7044 L295.8883,72.4724 C295.8883,72.4724 297.2613,71.7714 297.2613,70.6514 L297.2613,69.2784 C297.2613,68.4934 296.5593,67.8774 295.6643,67.8774 C294.7703,67.8774 294.0683,68.4934 294.0683,69.2784 L294.0683,70.9034 L292.4073,71.0714 L292.4073,69.2784 C292.4073,67.7094 293.8763,66.4204 295.6643,66.4204 C297.4543,66.4204 298.9223,67.7094 298.9223,69.2784 L298.9223,78.2714 Z" id="Fill-10" fill="#010202"></path>
                    <path d="M304.031,80.3718 C302.753,80.3718 301.731,79.4758 301.731,78.3548 L301.731,61.4898 L303.391,61.3218 L303.391,78.3548 C303.391,78.6628 303.679,78.9158 304.031,78.9158 L304.031,80.3718 Z" id="Fill-12" fill="#010202"></path>
                    <mask id="mask-3" fill="white">
                        <use xlink:href="#path-2"></use>
                    </mask>
                    <g id="Clip-15"></g>
                    <path d="M306.328,80.232 L307.989,80.232 L307.989,66.561 L306.328,66.561 L306.328,80.232 Z M306.328,64.992 L307.989,64.992 L307.989,63.031 L306.328,63.031 L306.328,64.992 Z" id="Fill-14" fill="#010202" mask="url(#mask-3)"></path>
                    <path d="M311.8846,77.3464 C311.8846,78.2154 312.6826,78.9154 313.6726,78.9154 C314.6626,78.9154 315.4606,78.2154 315.4606,77.3464 L315.4606,73.3684 C315.2056,73.5924 314.9176,73.7334 314.9176,73.7334 L312.4586,74.9654 C312.4586,74.9654 311.8846,75.2454 311.8846,75.8054 L311.8846,77.3464 Z M317.1216,78.2714 C317.1216,78.5514 317.3766,78.7754 317.6966,78.7754 L317.6966,80.2324 C317.0266,80.2324 316.4186,79.9804 316.0036,79.5874 C315.3976,80.0924 314.5676,80.3714 313.6726,80.3714 C311.7566,80.3714 310.2236,79.0274 310.2236,77.3464 L310.2236,75.8054 C310.2236,74.4054 311.6286,73.7044 311.6286,73.7044 L314.0876,72.4724 C314.0876,72.4724 315.4606,71.7714 315.4606,70.6514 L315.4606,69.2784 C315.4606,68.4934 314.7586,67.8774 313.8636,67.8774 C312.9696,67.8774 312.2676,68.4934 312.2676,69.2784 L312.2676,70.9034 L310.6066,71.0714 L310.6066,69.2784 C310.6066,67.7094 312.0756,66.4204 313.8636,66.4204 C315.6536,66.4204 317.1216,67.7094 317.1216,69.2784 L317.1216,78.2714 Z" id="Fill-16" fill="#010202" mask="url(#mask-3)"></path>
                    <polygon id="Fill-17" fill="#231F20" mask="url(#mask-3)" points="117.483 61.2 118.653 61.2 118.653 21.658 117.483 21.658"></polygon>
                    <path d="M138.5403,26.3596 C134.9443,26.3596 132.0473,28.9016 132.0473,32.0586 L132.0473,34.0316 C132.0473,36.1336 133.5453,37.7126 133.5453,37.7126 L141.4863,45.9966 C141.4863,45.9966 142.4353,47.0046 142.4353,48.2766 L142.4353,51.1246 C142.4353,53.0106 140.6883,54.5446 138.5403,54.5446 C136.3923,54.5446 134.6443,53.0106 134.6443,51.1246 L134.6443,46.5226 L132.0473,46.7856 L132.0473,51.1246 C132.0473,54.2806 134.9443,56.8236 138.5403,56.8236 C142.1363,56.8236 145.0323,54.2806 145.0323,51.1246 L145.0323,48.2766 C145.0323,46.1286 143.4843,44.5066 143.4843,44.5066 L135.5433,36.2226 C135.5433,36.2226 134.6443,35.3016 134.6443,34.0316 L134.6443,32.0586 C134.6443,30.1726 136.3923,28.6396 138.5403,28.6396 C140.6883,28.6396 142.4353,30.1726 142.4353,32.0586 L142.4353,36.0026 L145.0323,35.7396 L145.0323,32.0586 C145.0323,28.9016 142.1363,26.3596 138.5403,26.3596" id="Fill-18" fill="#231F20" mask="url(#mask-3)"></path>
                    <path d="M157.0164,51.8708 C157.0164,53.2288 155.7674,54.3258 154.2194,54.3258 C152.6704,54.3258 151.4224,53.2288 151.4224,51.8708 L151.4224,34.9948 L148.8264,34.9948 L148.8264,51.8708 C148.8264,54.5008 150.9734,56.6038 153.5704,56.6038 C155.1184,56.6038 156.5164,55.8588 157.3654,54.7198 L157.8154,56.3858 L159.6134,56.3858 L159.6134,34.9948 L157.0164,34.9948 L157.0164,51.8708 Z" id="Fill-19" fill="#231F20" mask="url(#mask-3)"></path>
                    <path d="M169.9485,34.7756 C168.4005,34.7756 167.0025,35.5216 166.1525,36.6596 L165.7035,34.9946 L163.9055,34.9946 L163.9055,56.3856 L166.5025,56.3856 L166.5025,39.5096 C166.5025,38.1506 167.7505,37.0546 169.2995,37.0546 C170.8465,37.0546 172.0965,38.1506 172.0965,39.5096 L172.0965,56.3856 L174.6935,56.3856 L174.6935,39.5096 C174.6935,36.8796 172.5455,34.7756 169.9485,34.7756" id="Fill-20" fill="#231F20" mask="url(#mask-3)"></path>
                    <path d="M187.2254,46.4353 L181.8324,42.4903 C181.8324,42.4903 180.9824,41.8763 180.9824,40.6493 L180.9824,39.3343 C180.9824,38.0633 182.1324,37.0553 183.5804,37.0553 C185.0284,37.0553 186.1774,38.0633 186.1774,39.3343 L186.1774,41.5693 L188.7734,41.3073 L188.7734,39.3343 C188.7734,36.8363 186.4274,34.7753 183.5804,34.7753 C180.7334,34.7753 178.3864,36.8363 178.3864,39.3343 L178.3864,40.6493 C178.3864,42.9733 180.1344,44.2433 180.1344,44.2433 L185.5284,48.1883 C185.5284,48.1883 186.3764,48.8023 186.3764,50.0293 L186.3764,51.8713 C186.3764,53.2293 185.1284,54.3263 183.5804,54.3263 C182.0324,54.3263 180.7844,53.2293 180.7844,51.8713 L180.7844,49.5023 L178.1864,49.7663 L178.1864,51.8713 C178.1864,54.5003 180.5834,56.6043 183.5804,56.6043 C186.5774,56.6043 188.9734,54.5003 188.9734,51.8713 L188.9734,50.0293 C188.9734,47.7063 187.2254,46.4353 187.2254,46.4353" id="Fill-21" fill="#231F20" mask="url(#mask-3)"></path>
                    <path d="M198.6101,34.7756 C197.2621,34.7756 196.0131,35.3466 195.1641,36.2656 L195.1641,26.7986 L192.5671,27.0606 L192.5671,56.3856 L195.1641,56.3856 L195.1641,39.5096 C195.1641,38.1506 196.4121,37.0546 197.9611,37.0546 C199.5091,37.0546 200.7581,38.1506 200.7581,39.5096 L200.7581,56.3856 L203.3551,56.3856 L203.3551,39.5096 C203.3551,36.8796 201.2071,34.7756 198.6101,34.7756" id="Fill-22" fill="#231F20" mask="url(#mask-3)"></path>
                    <polygon id="Fill-23" fill="#231F20" mask="url(#mask-3)" points="207.597 56.385 210.194 56.385 210.194 34.994 207.597 34.994"></polygon>
                    <polygon id="Fill-24" fill="#231F20" mask="url(#mask-3)" points="207.597 32.539 210.194 32.539 210.194 29.472 207.597 29.472"></polygon>
                    <path d="M220.53,34.7756 C218.982,34.7756 217.584,35.5216 216.735,36.6596 L216.285,34.9946 L214.488,34.9946 L214.488,56.3856 L217.084,56.3856 L217.084,39.5096 C217.084,38.1506 218.333,37.0546 219.881,37.0546 C221.429,37.0546 222.678,38.1506 222.678,39.5096 L222.678,56.3856 L225.275,56.3856 L225.275,39.5096 C225.275,36.8796 223.127,34.7756 220.53,34.7756" id="Fill-25" fill="#231F20" mask="url(#mask-3)"></path>
                    <path d="M237.409,43.8054 L231.815,43.8054 L231.815,39.5104 C231.815,38.1504 233.063,37.0554 234.612,37.0554 C236.161,37.0554 237.409,38.1504 237.409,39.5104 L237.409,43.8054 Z M234.612,34.7754 C231.615,34.7754 229.219,36.8804 229.219,39.5104 L229.219,51.8704 C229.219,54.5004 231.615,56.6044 234.612,56.6044 C237.609,56.6044 240.006,54.5004 240.006,51.8704 L240.006,49.0654 L237.409,49.3274 L237.409,51.8704 C237.409,53.2294 236.161,54.3264 234.612,54.3264 C233.063,54.3264 231.815,53.2294 231.815,51.8704 L231.815,46.0854 L240.006,46.0854 L240.006,39.5104 C240.006,36.8804 237.609,34.7754 234.612,34.7754 L234.612,34.7754 Z" id="Fill-26" fill="#231F20" mask="url(#mask-3)"></path>
                    <path d="M258.1853,26.3596 C254.5883,26.3596 251.6923,28.9016 251.6923,32.0586 L251.6923,51.1246 C251.6923,54.2806 254.5883,56.8236 258.1853,56.8236 C261.7803,56.8236 264.6763,54.2806 264.6763,51.1246 L264.6763,47.0926 L262.0803,47.0926 L262.0803,51.1246 C262.0803,53.0106 260.3313,54.5446 258.1853,54.5446 C256.0383,54.5446 254.2893,53.0106 254.2893,51.1246 L254.2893,32.0586 C254.2893,30.1726 256.0383,28.6396 258.1853,28.6396 C260.3313,28.6396 262.0803,30.1726 262.0803,32.0586 L262.0803,36.7046 L264.6763,36.4416 L264.6763,32.0586 C264.6763,28.9016 261.7803,26.3596 258.1853,26.3596" id="Fill-27" fill="#231F20" mask="url(#mask-3)"></path>
                    <path d="M276.4109,51.8708 C276.4109,53.2288 275.1619,54.3258 273.6129,54.3258 C272.0649,54.3258 270.8169,53.2288 270.8169,51.8708 L270.8169,39.5098 C270.8169,38.1498 272.0649,37.0558 273.6129,37.0558 C275.1619,37.0558 276.4109,38.1498 276.4109,39.5098 L276.4109,51.8708 Z M273.6129,34.7758 C270.6169,34.7758 268.2209,36.8798 268.2209,39.5098 L268.2209,51.8708 C268.2209,54.5008 270.6169,56.6038 273.6129,56.6038 C276.6099,56.6038 279.0079,54.5008 279.0079,51.8708 L279.0079,39.5098 C279.0079,36.8798 276.6099,34.7758 273.6129,34.7758 L273.6129,34.7758 Z" id="Fill-28" fill="#231F20" mask="url(#mask-3)"></path>
                    <path d="M290.3924,51.8708 C290.3924,53.2288 289.1434,54.3258 287.5954,54.3258 C286.0474,54.3258 284.7984,53.2288 284.7984,51.8708 L284.7984,49.4598 C284.7984,48.5838 285.6984,48.1438 285.6984,48.1438 L289.5434,46.2158 C289.5434,46.2158 289.9934,45.9968 290.3924,45.6458 L290.3924,51.8708 Z M292.9894,53.3158 L292.9894,39.2458 C292.9894,36.7918 290.6924,34.7758 287.8954,34.7758 C285.0984,34.7758 282.8014,36.7918 282.8014,39.2458 L282.8014,42.0518 L285.3984,41.7888 L285.3984,39.2458 C285.3984,38.0198 286.4964,37.0558 287.8954,37.0558 C289.2934,37.0558 290.3924,38.0198 290.3924,39.2458 L290.3924,41.3938 C290.3924,43.1478 288.2454,44.2428 288.2454,44.2428 L284.3994,46.1718 C284.3994,46.1718 282.2024,47.2678 282.2024,49.4598 L282.2024,51.8708 C282.2024,54.5008 284.5994,56.6038 287.5954,56.6038 C288.9944,56.6038 290.2924,56.1668 291.2424,55.3768 C291.8904,55.9908 292.8384,56.3858 293.8884,56.3858 L293.8884,54.1048 C293.3884,54.1048 292.9894,53.7548 292.9894,53.3158 L292.9894,53.3158 Z" id="Fill-29" fill="#231F20" mask="url(#mask-3)"></path>
                    <path d="M305.6209,46.4357 L300.2279,42.4907 C300.2279,42.4907 299.3789,41.8767 299.3789,40.6497 L299.3789,39.3347 C299.3789,38.0627 300.5279,37.0557 301.9759,37.0557 C303.4249,37.0557 304.5729,38.0627 304.5729,39.3347 L304.5729,41.5697 L307.1699,41.3077 L307.1699,39.3347 C307.1699,36.8367 304.8229,34.7757 301.9759,34.7757 C299.1299,34.7757 296.7819,36.8367 296.7819,39.3347 L296.7819,40.6497 C296.7819,42.9727 298.5299,44.2427 298.5299,44.2427 L303.9239,48.1877 C303.9239,48.1877 304.7719,48.8027 304.7719,50.0287 L304.7719,51.8707 C304.7719,53.2287 303.5239,54.3257 301.9759,54.3257 C300.4279,54.3257 299.1799,53.2287 299.1799,51.8707 L299.1799,49.5027 L296.5819,49.7667 L296.5819,51.8707 C296.5819,54.5007 298.9789,56.6037 301.9759,56.6037 C304.9729,56.6037 307.3689,54.5007 307.3689,51.8707 L307.3689,50.0287 C307.3689,47.7057 305.6209,46.4357 305.6209,46.4357" id="Fill-30" fill="#231F20" mask="url(#mask-3)"></path>
                    <path d="M318.3045,37.2736 L318.3045,34.9946 L315.1585,34.9946 L315.1585,30.6116 L312.5615,30.8746 L312.5615,34.9946 L309.4145,34.9946 L309.4145,37.2736 L312.5615,37.2736 L312.5615,53.4476 C312.5615,55.2016 314.1595,56.6046 316.1575,56.6046 L316.1575,54.3256 C315.6085,54.3256 315.1585,53.9306 315.1585,53.4476 L315.1585,37.2736 L318.3045,37.2736 Z" id="Fill-31" fill="#231F20" mask="url(#mask-3)"></path>
                    <path d="M94.7449,49.2116 L94.4139,51.4996 L94.1079,49.2076 C93.6809,46.0116 89.8689,33.1296 89.3439,31.1576 L83.3699,31.1576 L91.9949,57.4356 L90.4849,62.9236 L95.9559,62.9236 L104.4829,31.1576 L99.0129,31.1576 C98.4969,33.1326 95.2129,45.9716 94.7449,49.2116" id="Fill-32" fill="#231F20" mask="url(#mask-3)"></path>
                    <path d="M15.5027,37.7194 C14.6657,37.5914 13.8707,37.4904 13.1277,37.3964 C9.1057,36.8884 6.1987,36.5224 6.1987,32.4194 C6.1987,28.9384 7.6857,27.5824 11.5017,27.5824 C14.8967,27.5824 16.4207,28.7204 16.6877,31.4934 L22.5097,31.4934 C21.8757,25.3414 18.4667,22.5924 11.5017,22.5924 C4.2187,22.5924 0.3687,26.0074 0.3687,32.4674 C0.3687,38.2404 3.0027,41.3794 8.4227,42.0654 C8.8767,42.1264 9.3457,42.1794 9.8207,42.2334 C13.4437,42.6454 17.5507,43.1124 17.5507,47.1324 C17.5507,51.2834 15.7137,53.1344 11.5947,53.1344 C7.7887,53.1344 6.1007,51.9024 5.8467,48.8984 L-0.0003,48.8984 C0.1207,55.2624 3.8717,58.3584 11.4557,58.3584 C19.8917,58.3584 23.3327,55.0374 23.3327,46.9004 C23.3327,39.9144 19.5697,38.3584 15.5027,37.7194" id="Fill-33" fill="#231F20" mask="url(#mask-3)"></path>
                    <path d="M32.2527,52.3054 C31.2917,51.4514 31.0937,50.0304 31.0937,48.1584 L31.0937,36.2424 L35.7507,36.2424 L35.7507,31.0654 L31.0937,31.0654 L31.0937,22.7984 L25.3577,25.7634 L25.3577,48.2504 C25.3577,52.3484 26.1357,54.9544 27.8027,56.4504 C29.4227,57.9024 31.9837,58.4024 35.8437,58.0184 L35.8437,53.0784 C34.1807,53.2284 33.0057,52.9744 32.2527,52.3054" id="Fill-34" fill="#231F20" mask="url(#mask-3)"></path>
                    <path d="M53.095,47.9245 C53.095,51.1955 51.41,52.9955 48.351,52.9955 C45.388,52.9955 43.885,51.2115 43.885,47.6925 L43.885,31.1125 L38.196,31.1125 L38.196,47.7375 C38.196,51.4765 39.089,54.2545 40.849,55.9975 C42.303,57.4365 44.337,58.1535 46.811,58.1255 C49.241,58.1255 51.51,57.0805 53.04,55.2605 L53.519,54.6915 L53.898,57.9395 L58.971,57.9395 L58.971,31.1125 L53.095,31.1125 L53.095,47.9245 Z" id="Fill-35" fill="#231F20" mask="url(#mask-3)"></path>
                    <path d="M76.5427,47.2722 C76.5427,51.0782 74.9347,53.0882 71.8907,53.0882 C68.8857,53.0882 67.4257,51.2622 67.4257,47.5052 L67.4257,41.0332 C67.4257,37.7622 68.9907,36.1032 72.0767,36.1032 C75.0407,36.1032 76.5427,37.7472 76.5427,40.9872 L76.5427,47.2722 Z M76.5427,34.1112 L75.9447,33.0962 C74.7847,31.1262 72.0897,30.8332 70.5867,30.8332 C64.7667,30.8332 61.6897,34.2642 61.6897,40.7542 L61.6897,47.8322 C61.6897,54.6622 64.6207,58.1262 70.4007,58.1262 C73.2907,58.1262 75.5467,57.0332 76.5907,55.1262 L77.0457,54.2962 L77.6147,57.9862 L82.2787,57.9862 L82.2787,22.7302 L76.5427,25.7682 L76.5427,34.1112 Z" id="Fill-36" fill="#231F20" mask="url(#mask-3)"></path>
                    <polygon id="Fill-37" fill="#653284" mask="url(#mask-3)" points="318.9822 19.0627 326.8882 29.1157 321.5402 18.9737"></polygon>
                </g>
                <g id="Group-41" transform="translate(314.000000, 19.145000)">
                    <mask id="mask-5" fill="white">
                        <use xlink:href="#path-4"></use>
                    </mask>
                    <g id="Clip-40"></g>
                    <polygon id="Fill-39" fill="url(#linearGradient-6)" mask="url(#mask-5)" points="0.517 0.221 12.887 10.114 4.982 0.063"></polygon>
                </g>
                <polygon id="Fill-42" fill="#004B6C" points="326.1199 13.6271 330.0399 30.7691 329.0529 14.2711"></polygon>
                <g id="Group-46" transform="translate(321.000000, 12.145000)">
                    <mask id="mask-8" fill="white">
                        <use xlink:href="#path-7"></use>
                    </mask>
                    <g id="Clip-45"></g>
                    <polygon id="Fill-44" fill="url(#linearGradient-9)" mask="url(#mask-8)" points="9.039 18.621 5.12 1.482 0.013 0.36"></polygon>
                </g>
                <polygon id="Fill-47" fill="#3F60A6" points="337.2674 9.113 332.0674 32.866 339.9574 11.11"></polygon>
                <g id="Group-51" transform="translate(332.000000, 5.145000)">
                    <mask id="mask-11" fill="white">
                        <use xlink:href="#path-10"></use>
                    </mask>
                    <g id="Clip-50"></g>
                    <polygon id="Fill-49" fill="url(#linearGradient-12)" mask="url(#mask-11)" points="0.068 27.721 5.268 3.968 0.576 0.489"></polygon>
                </g>
                <polygon id="Fill-52" fill="#007BC2" points="350.6512 9.152 334.0592 35.703 352.2952 12.401"></polygon>
                <g id="Group-56" transform="translate(334.000000, 3.145000)">
                    <mask id="mask-14" fill="white">
                        <use xlink:href="#path-13"></use>
                    </mask>
                    <g id="Clip-55"></g>
                    <polygon id="Fill-54" fill="url(#linearGradient-15)" mask="url(#mask-14)" points="0.059 32.557 16.65 6.007 13.79 0.346"></polygon>
                </g>
                <g id="Group-59" transform="translate(336.000000, 9.145000)">
                    <mask id="mask-17" fill="white">
                        <use xlink:href="#path-16"></use>
                    </mask>
                    <g id="Clip-58"></g>
                    <polygon id="Fill-57" fill="url(#linearGradient-18)" mask="url(#mask-17)" points="0.388 28.489 32.242 4.789 32.233 0.074"></polygon>
                </g>
                <g id="Group-62" transform="translate(336.000000, 0.145000)">
                    <mask id="mask-20" fill="white">
                        <use xlink:href="#path-19"></use>
                    </mask>
                    <g id="Clip-61"></g>
                    <polygon id="Fill-60" fill="url(#linearGradient-21)" mask="url(#mask-20)" points="32.219 0.855 0.388 37.489 32.233 9.074"></polygon>
                </g>
                <polygon id="Fill-63" fill="#389C46" points="393.1599 13.7922 337.0119 39.8262 390.0399 20.3052"></polygon>
                <g id="Group-67" transform="translate(337.000000, 2.145000)">
                    <mask id="mask-23" fill="white">
                        <use xlink:href="#path-22"></use>
                    </mask>
                    <g id="Clip-66"></g>
                    <polygon id="Fill-65" fill="url(#linearGradient-24)" mask="url(#mask-23)" points="0.011 37.681 56.16 11.648 61.599 0.292"></polygon>
                </g>
                <polygon id="Fill-68" fill="#84C340" points="406.1267 26.5812 334.2917 44.4212 399.7167 33.7422"></polygon>
                <g id="Group-72" transform="translate(334.000000, 13.145000)">
                    <mask id="mask-26" fill="white">
                        <use xlink:href="#path-25"></use>
                    </mask>
                    <g id="Clip-71"></g>
                    <polygon id="Fill-70" fill="url(#linearGradient-27)" mask="url(#mask-26)" points="0.292 31.276 72.129 13.435 83.307 0.953"></polygon>
                </g>
                <g id="Group-75" transform="translate(324.000000, 55.145000)">
                    <mask id="mask-29" fill="white">
                        <use xlink:href="#path-28"></use>
                    </mask>
                    <g id="Clip-74"></g>
                    <polygon id="Fill-73" fill="url(#linearGradient-30)" mask="url(#mask-29)" points="56.974 35.777 78.892 33.64 0.127 0.043"></polygon>
                </g>
                <g id="Group-78" transform="translate(327.000000, 51.145000)">
                    <mask id="mask-32" fill="white">
                        <use xlink:href="#path-31"></use>
                    </mask>
                    <g id="Clip-77"></g>
                    <polygon id="Fill-76" fill="url(#linearGradient-33)" mask="url(#mask-32)" points="79.314 21.686 101.477 14.327 0.984 0.053"></polygon>
                </g>
                <g id="Group-81" transform="translate(331.000000, 34.145000)">
                    <mask id="mask-35" fill="white">
                        <use xlink:href="#path-34"></use>
                    </mask>
                    <g id="Clip-80"></g>
                    <polygon id="Fill-79" fill="url(#linearGradient-36)" mask="url(#mask-35)" points="0.577 14.314 86.471 12.676 105.058 0.534"></polygon>
                </g>
                <g id="Group-88" transform="translate(324.000000, 46.145000)">
                    <polygon id="Fill-82" fill="#F8E6BA" points="0.1267 9.0437 44.4277 45.9997 56.9737 44.7767"></polygon>
                    <polygon id="Fill-84" fill="#FAD845" points="3.9812 5.0524 69.5232 30.9334 82.3122 26.6864"></polygon>
                    <polygon id="Fill-86" fill="#C3D82E" points="7.5769 2.3142 82.8279 7.6282 93.4719 0.6762"></polygon>
                </g>
            </g>
        </g>
    </g>
</svg>