<?xml version="1.0" encoding="utf-8"?>
<!-- Generator: Adobe Illustrator 24.1.2, SVG Export Plug-In . SVG Version: 6.00 Build 0)  -->
<svg version="1.1" id="Layer_1" xmlns="http://www.w3.org/2000/svg" xmlns:xlink="http://www.w3.org/1999/xlink" x="0px" y="0px"
	 viewBox="0 0 844 276.9" style="enable-background:new 0 0 844 276.9;" xml:space="preserve">
<style type="text/css">
	.st0{fill:#FFFFFF;}
</style>
<g>
	<path class="st0" d="M372,98.4H363V36.4h-20v-7.8h48.9v7.8H372V98.4z"/>
	<path class="st0" d="M416.1,99.4c-3.5,0-6.7-0.6-9.6-1.8c-2.9-1.2-5.4-2.9-7.5-5.2c-2.1-2.3-3.7-5.1-4.9-8.4
		c-1.1-3.3-1.7-7.2-1.7-11.5c0-4.3,0.5-8.2,1.6-11.6c1.1-3.4,2.5-6.3,4.4-8.7c1.9-2.4,4.2-4.2,6.9-5.4c2.7-1.2,5.6-1.9,8.8-1.9
		c3.2,0,6,0.6,8.5,1.7c2.5,1.1,4.7,2.7,6.4,4.8c1.8,2.1,3.1,4.5,4,7.4c0.9,2.9,1.4,6.1,1.4,9.6v5.4h-33.1c0.2,6.2,1.5,10.7,3.9,13.6
		c2.4,2.9,6.1,4.4,10.9,4.4c1.6,0,3.1-0.1,4.5-0.2c1.4-0.2,2.7-0.4,4-0.7c1.3-0.3,2.5-0.7,3.8-1.1c1.2-0.5,2.4-1,3.7-1.6v7.7
		c-1.3,0.6-2.5,1.1-3.8,1.6c-1.2,0.4-2.5,0.8-3.8,1.1s-2.6,0.5-4,0.6C419.2,99.3,417.7,99.4,416.1,99.4z M414,52.2
		c-3.6,0-6.5,1.2-8.6,3.7c-2.1,2.5-3.4,6.1-3.7,10.9h23.5c0-2.2-0.2-4.2-0.6-6c-0.4-1.8-1.1-3.3-2-4.6c-0.9-1.3-2.1-2.3-3.5-3
		C417.6,52.5,415.9,52.2,414,52.2z"/>
	<path class="st0" d="M480.2,91.4h-0.4c-0.7,1.1-1.5,2.1-2.5,3.1c-0.9,1-2,1.8-3.3,2.6c-1.2,0.7-2.6,1.3-4.1,1.7
		c-1.5,0.4-3.3,0.6-5.2,0.6c-3,0-5.7-0.6-8.1-1.7s-4.6-2.9-6.3-5.1c-1.8-2.3-3.1-5.1-4.1-8.5c-1-3.4-1.4-7.3-1.4-11.8
		c0-4.5,0.5-8.4,1.4-11.8c1-3.4,2.3-6.2,4.1-8.5c1.8-2.3,3.9-4,6.3-5.2c2.5-1.2,5.2-1.7,8.1-1.7c1.9,0,3.6,0.2,5.1,0.6
		c1.5,0.4,2.9,1,4.1,1.7c1.2,0.7,2.3,1.5,3.3,2.4c1,0.9,1.8,1.9,2.5,2.9h0.6c-0.1-1.1-0.2-2.1-0.3-3.1c-0.1-0.8-0.1-1.7-0.2-2.6
		c-0.1-0.9-0.1-1.6-0.1-2.1V24h8.7v74.4h-7L480.2,91.4z M466.5,92.2c2.4,0,4.5-0.4,6.1-1.1c1.7-0.7,3-1.8,4.1-3.3
		c1-1.5,1.8-3.4,2.3-5.6c0.5-2.2,0.8-4.9,0.8-7.9v-2c0-3.2-0.2-6.1-0.6-8.6c-0.4-2.5-1.2-4.6-2.2-6.3c-1-1.7-2.4-3-4.1-3.9
		c-1.7-0.9-3.9-1.3-6.5-1.3c-4.3,0-7.5,1.7-9.5,5.2c-2,3.5-3,8.5-3,15c0,6.7,1,11.6,3,14.9C458.9,90.5,462.1,92.2,466.5,92.2z"/>
	<path class="st0" d="M410.5,145.4c0,5.4-0.6,10.3-1.9,14.7c-1.3,4.4-3.2,8.2-5.8,11.4c-2.6,3.2-5.8,5.6-9.8,7.3
		c-3.9,1.7-8.6,2.6-13.9,2.6c-5.4,0-10-0.9-13.9-2.6c-3.9-1.7-7.2-4.2-9.8-7.3c-2.6-3.2-4.5-7-5.7-11.4c-1.3-4.4-1.9-9.4-1.9-14.8
		c0-5.4,0.6-10.3,1.9-14.8c1.3-4.4,3.2-8.2,5.8-11.3c2.6-3.1,5.8-5.5,9.8-7.2c3.9-1.7,8.6-2.6,14-2.6c5.4,0,10,0.9,13.9,2.6
		c3.9,1.7,7.2,4.1,9.7,7.3c2.6,3.1,4.5,6.9,5.7,11.3C409.8,135,410.5,139.9,410.5,145.4z M363,145.4c0,3.7,0.3,7,1,9.9
		c0.6,2.9,1.6,5.4,2.9,7.4c1.3,2,3,3.6,5,4.7s4.4,1.6,7.2,1.6c2.8,0,5.3-0.5,7.3-1.6c2-1.1,3.7-2.6,5-4.7c1.3-2,2.2-4.5,2.9-7.4
		c0.6-2.9,0.9-6.2,0.9-9.9c0-3.7-0.3-7-0.9-9.9c-0.6-2.9-1.6-5.4-2.9-7.4c-1.3-2-2.9-3.6-5-4.7s-4.4-1.6-7.2-1.6
		c-2.8,0-5.2,0.5-7.2,1.6c-2,1.1-3.7,2.6-5,4.7c-1.3,2-2.3,4.5-2.9,7.4C363.3,138.4,363,141.7,363,145.4z"/>
	<path class="st0" d="M435.4,110.5l0.7,1.1c-0.4,1.8-1,3.6-1.6,5.5s-1.3,3.9-2.1,5.9c-0.8,2-1.5,4-2.3,5.9c-0.8,1.9-1.6,3.8-2.4,5.6
		h-10.5c0.4-1.9,0.9-3.9,1.4-6c0.5-2.1,0.9-4.2,1.3-6.3c0.4-2.1,0.8-4.1,1.2-6.1c0.3-2,0.7-3.8,0.9-5.5H435.4z"/>
	<path class="st0" d="M445.9,110.5h20.5c4.4,0,8.3,0.3,11.6,0.9c3.3,0.6,6.1,1.6,8.3,3c2.2,1.4,3.9,3.2,5,5.5c1.1,2.2,1.7,5,1.7,8.3
		c0,2-0.2,3.8-0.7,5.5c-0.5,1.7-1.2,3.2-2.1,4.5c-0.9,1.3-2,2.4-3.4,3.3c-1.3,0.9-2.8,1.5-4.6,1.7v0.5c1.8,0.4,3.4,0.9,4.9,1.7
		c1.5,0.7,2.8,1.7,4,3c1.1,1.3,2,2.8,2.7,4.8c0.7,1.9,1,4.2,1,7c0,3.2-0.6,6-1.7,8.5c-1.1,2.5-2.7,4.6-4.8,6.4
		c-2.1,1.7-4.6,3.1-7.6,4c-3,0.9-6.4,1.4-10.1,1.4h-24.7V110.5z M460.8,138.2h7.7c1.8,0,3.4-0.2,4.6-0.5c1.2-0.3,2.2-0.8,3-1.5
		c0.8-0.7,1.3-1.5,1.7-2.5c0.3-1,0.5-2.2,0.5-3.5c0-2.7-0.8-4.6-2.5-5.8c-1.7-1.2-4.3-1.7-8-1.7h-7V138.2z M460.8,150v18.2h8.7
		c1.9,0,3.6-0.2,4.9-0.7c1.3-0.4,2.4-1.1,3.2-1.9c0.8-0.8,1.4-1.8,1.7-3c0.4-1.2,0.5-2.5,0.5-3.9c0-1.3-0.2-2.5-0.5-3.6
		c-0.4-1.1-1-2-1.8-2.7c-0.8-0.8-2-1.4-3.3-1.8c-1.4-0.4-3.1-0.6-5.1-0.6H460.8z"/>
	<path class="st0" d="M523.6,153.6v26.8h-14.8v-69.9H528c9,0,15.6,1.7,19.8,5.2c4.3,3.5,6.4,8.7,6.4,15.8c0,2.4-0.3,4.6-1,6.5
		c-0.6,1.9-1.5,3.7-2.6,5.2s-2.3,2.8-3.7,4s-2.8,2.1-4.4,2.8c3.5,5.7,6.7,10.7,9.5,15.2c1.2,1.9,2.4,3.8,3.5,5.6
		c1.1,1.8,2.1,3.4,3,4.9c0.9,1.4,1.6,2.6,2.2,3.4l0.8,1.3h-16.4l-15.2-26.8H523.6z M523.6,141.5h4c4.1,0,7.1-0.8,8.8-2.5
		c1.8-1.6,2.7-4.1,2.7-7.2c0-3.3-1-5.7-2.9-7.1c-1.9-1.4-4.9-2.1-8.9-2.1h-3.8V141.5z"/>
	<path class="st0" d="M596.7,180.4h-31.8V172l8.5-3.9v-45.2l-8.5-3.9v-8.4h31.8v8.4l-8.5,3.9v45.2l8.5,3.9V180.4z"/>
	<path class="st0" d="M648.9,180.4h-40.3v-69.9h40.3v12.1h-25.4V138h23.7v12.1h-23.7v18h25.4V180.4z"/>
	<path class="st0" d="M722.5,180.4h-18.8l-27.5-52.9h-0.4c0.2,2.5,0.4,4.9,0.5,7.3c0.1,2.1,0.2,4.2,0.3,6.5c0.1,2.3,0.1,4.3,0.1,6.1
		v32.9h-13.2v-69.9h18.7l27.4,52.4h0.3c-0.1-2.4-0.2-4.8-0.3-7.2c0-1-0.1-2.1-0.1-3.1c0-1.1-0.1-2.1-0.1-3.2c0-1.1-0.1-2.1-0.1-3.1
		c0-1,0-1.9,0-2.7v-33.1h13.3V180.4z"/>
	<path class="st0" d="M761.9,180.4l-11.4-33h-0.2c0.1,1.3,0.2,2.5,0.3,3.8c0.1,1.1,0.1,2.2,0.2,3.4c0,1.2,0.1,2.3,0.1,3.3v22.6h-4.4
		v-37.7h7.1l10.6,30.8h0.2l10.7-30.8h7.1v37.7h-4.8v-22.9c0-0.9,0-1.9,0.1-3.1c0-1.2,0.1-2.3,0.1-3.3c0.1-1.2,0.1-2.5,0.2-3.7h-0.2
		l-11.5,33H761.9z"/>
	<path class="st0" d="M814.9,153.7c0,1.6-0.2,3.1-0.7,4.5c-0.5,1.4-1.3,2.7-2.3,3.8c-1.1,1.1-2.5,2-4.3,2.7c-1.8,0.7-4,1-6.6,1h-3.9
		v14.7h-4.8v-37.7h9.3c2.3,0,4.3,0.2,6,0.7c1.7,0.5,3,1.2,4.1,2.1c1.1,0.9,1.9,2.1,2.4,3.5C814.6,150.4,814.9,152,814.9,153.7z
		 M797.1,161.7h3.3c1.6,0,3-0.1,4.2-0.4c1.2-0.3,2.2-0.7,3-1.3c0.8-0.6,1.4-1.4,1.8-2.4c0.4-1,0.6-2.2,0.6-3.5
		c0-2.4-0.7-4.3-2.1-5.4c-1.4-1.2-3.6-1.8-6.6-1.8h-4.1V161.7z"/>
</g>
<g>
	<path class="st0" d="M348.7,218.4h15.7l-0.6,2.8h-12.3l-1.9,9.9H360l-0.6,2.9H349l-2.6,12.9H343L348.7,218.4z"/>
	<path class="st0" d="M363.2,238.5c0-2,0.3-3.8,1-5.4s1.5-3,2.6-4.2c1.1-1.2,2.2-2.1,3.6-2.7c1.3-0.6,2.7-1,4.1-1
		c1.2,0,2.2,0.2,3,0.6c0.8,0.4,1.5,0.9,2,1.6c0.5,0.7,0.9,1.5,1.1,2.4c0.2,0.9,0.3,1.9,0.3,3c0,0.8-0.1,1.6-0.3,2.4
		c-0.2,0.8-0.3,1.3-0.5,1.7h-13.7c-0.2,1.4-0.2,2.5,0,3.5c0.2,1,0.6,1.8,1.1,2.4c0.5,0.6,1.2,1.1,2,1.4c0.8,0.3,1.6,0.4,2.6,0.4
		c0.8,0,1.7-0.2,2.5-0.5c0.8-0.4,1.6-0.8,2.2-1.3l1.3,2.2c-0.8,0.6-1.8,1.1-3,1.6c-1.2,0.4-2.4,0.7-3.8,0.7c-2.5,0-4.5-0.8-6-2.3
		C363.9,243.5,363.2,241.3,363.2,238.5z M377.9,234.7c0.1-0.3,0.1-0.7,0.2-1c0-0.3,0.1-0.7,0.1-1.1c0-0.6-0.1-1.2-0.2-1.8
		c-0.1-0.6-0.4-1.1-0.7-1.5c-0.3-0.4-0.7-0.8-1.3-1s-1.2-0.4-1.9-0.4c-0.8,0-1.5,0.2-2.3,0.5c-0.7,0.3-1.4,0.8-2.1,1.4
		c-0.6,0.6-1.2,1.3-1.7,2.2c-0.5,0.8-0.9,1.8-1.1,2.8H377.9z"/>
	<path class="st0" d="M401.2,224.2l1.6-8.2h3.3l-6.2,30.8h-2.7l0.3-3.1h-0.2c-1,1.1-2.2,2-3.4,2.6c-1.3,0.7-2.6,1-3.9,1
		c-1.8,0-3.3-0.6-4.4-1.9c-1.1-1.3-1.6-3.2-1.6-5.7c0-2,0.3-3.9,1-5.7c0.6-1.8,1.5-3.3,2.6-4.6c1.1-1.3,2.3-2.3,3.6-3.1
		c1.4-0.7,2.8-1.1,4.2-1.1c1.1,0,2.1,0.3,2.9,0.8c0.8,0.6,1.5,1.3,2,2.2h0.1L401.2,224.2z M391.3,244.5c1.1,0,2.2-0.3,3.3-1
		c1.1-0.6,2.2-1.7,3.3-3.1l1.9-9.4c-0.6-1.1-1.3-1.9-2-2.4c-0.7-0.5-1.5-0.7-2.3-0.7c-1,0-2,0.3-3,0.9c-1,0.6-1.8,1.4-2.6,2.5
		c-0.8,1-1.3,2.2-1.8,3.6c-0.4,1.3-0.7,2.7-0.7,4.2c0,1.8,0.3,3.2,1,4C389.2,244.1,390.1,244.5,391.3,244.5z"/>
	<path class="st0" d="M407.1,238.5c0-2,0.3-3.8,1-5.4s1.5-3,2.6-4.2c1.1-1.2,2.2-2.1,3.6-2.7c1.3-0.6,2.7-1,4.1-1
		c1.2,0,2.2,0.2,3,0.6c0.8,0.4,1.5,0.9,2,1.6c0.5,0.7,0.9,1.5,1.1,2.4c0.2,0.9,0.3,1.9,0.3,3c0,0.8-0.1,1.6-0.3,2.4
		c-0.2,0.8-0.3,1.3-0.5,1.7h-13.7c-0.2,1.4-0.2,2.5,0,3.5c0.2,1,0.6,1.8,1.1,2.4c0.5,0.6,1.2,1.1,2,1.4c0.8,0.3,1.6,0.4,2.6,0.4
		c0.8,0,1.7-0.2,2.5-0.5c0.8-0.4,1.6-0.8,2.2-1.3l1.3,2.2c-0.8,0.6-1.8,1.1-3,1.6c-1.2,0.4-2.4,0.7-3.8,0.7c-2.5,0-4.5-0.8-6-2.3
		C407.9,243.5,407.1,241.3,407.1,238.5z M421.8,234.7c0.1-0.3,0.1-0.7,0.2-1c0-0.3,0.1-0.7,0.1-1.1c0-0.6-0.1-1.2-0.2-1.8
		c-0.1-0.6-0.4-1.1-0.7-1.5c-0.3-0.4-0.7-0.8-1.3-1s-1.2-0.4-1.9-0.4c-0.8,0-1.5,0.2-2.3,0.5c-0.7,0.3-1.4,0.8-2.1,1.4
		c-0.6,0.6-1.2,1.3-1.7,2.2c-0.5,0.8-0.9,1.8-1.1,2.8H421.8z"/>
	<path class="st0" d="M431.8,225.7h2.7l-0.5,4h0.2c0.8-1.3,1.8-2.4,2.9-3.2c1.1-0.9,2.3-1.3,3.6-1.3c0.7,0,1.4,0.1,2,0.4l-1.2,2.9
		c-0.5-0.2-1.1-0.3-1.8-0.3c-1,0-2.1,0.4-3.2,1.3c-1.1,0.9-2.1,2.2-3,3.9l-2.6,13.3h-3.3L431.8,225.7z"/>
	<path class="st0" d="M442.4,239.7c0-2,0.3-3.9,1-5.7c0.6-1.8,1.5-3.3,2.6-4.6c1.1-1.3,2.3-2.3,3.6-3.1c1.4-0.7,2.8-1.1,4.2-1.1
		c1.1,0,2.1,0.3,3,0.9c0.9,0.6,1.6,1.3,2.1,2.3h0.2l0.8-2.6h2.7l-4.2,21h-2.7l0.3-3.1h-0.2c-1,1.1-2.2,2-3.4,2.6
		c-1.3,0.7-2.6,1-3.9,1c-1.8,0-3.3-0.6-4.4-1.9C442.9,244,442.4,242.2,442.4,239.7z M449.6,244.5c1.1,0,2.2-0.3,3.4-1
		c1.1-0.6,2.2-1.7,3.3-3.1l1.9-9.4c-0.6-1.1-1.3-1.9-2-2.4c-0.7-0.5-1.5-0.7-2.3-0.7c-1,0-2,0.3-3,0.9c-1,0.6-1.8,1.4-2.6,2.5
		c-0.8,1-1.3,2.2-1.8,3.6c-0.4,1.3-0.7,2.7-0.7,4.2c0,1.8,0.3,3.2,1,4C447.5,244.1,448.5,244.5,449.6,244.5z"/>
	<path class="st0" d="M471.4,216h3.3l-5.4,27c-0.1,0.2-0.1,0.4-0.1,0.5c0,0.1,0,0.2,0,0.3c0,0.5,0.2,0.8,0.7,0.8c0.1,0,0.2,0,0.3,0
		c0.1,0,0.2,0,0.4-0.1l0,2.6c-0.3,0.1-0.6,0.2-0.9,0.3c-0.3,0.1-0.7,0.1-1.2,0.1c-0.9,0-1.6-0.2-2.1-0.7c-0.5-0.5-0.7-1.1-0.7-2
		c0-0.5,0.1-1.1,0.3-1.8L471.4,216z"/>
	<path class="st0" d="M490.1,218.4h4l2.5,15.3l1,5.9h0.2l3-5.9l8.4-15.3h4l-5.7,28.4h-3.2l3.3-16c0.3-1.3,0.6-2.7,1-4.2
		c0.4-1.5,0.7-2.9,1.1-4.1h-0.2l-3.4,6.3l-8.4,15.1h-1.9l-2.6-15.1l-1-6.3h-0.2c-0.2,1.3-0.4,2.7-0.6,4.2c-0.2,1.5-0.4,2.9-0.6,4.2
		l-3.2,16h-3.2L490.1,218.4z"/>
	<path class="st0" d="M515.1,238.5c0-2,0.3-3.8,1-5.4s1.5-3,2.6-4.2c1.1-1.2,2.2-2.1,3.6-2.7c1.3-0.6,2.7-1,4.1-1
		c1.2,0,2.2,0.2,3,0.6c0.8,0.4,1.5,0.9,2,1.6c0.5,0.7,0.9,1.5,1.1,2.4c0.2,0.9,0.3,1.9,0.3,3c0,0.8-0.1,1.6-0.3,2.4
		c-0.2,0.8-0.3,1.3-0.5,1.7h-13.7c-0.2,1.4-0.2,2.5,0,3.5c0.2,1,0.6,1.8,1.1,2.4c0.5,0.6,1.2,1.1,2,1.4c0.8,0.3,1.6,0.4,2.6,0.4
		c0.8,0,1.7-0.2,2.5-0.5c0.8-0.4,1.6-0.8,2.2-1.3l1.3,2.2c-0.8,0.6-1.8,1.1-3,1.6c-1.2,0.4-2.4,0.7-3.8,0.7c-2.5,0-4.5-0.8-6-2.3
		C515.8,243.5,515.1,241.3,515.1,238.5z M529.8,234.7c0.1-0.3,0.1-0.7,0.2-1c0-0.3,0.1-0.7,0.1-1.1c0-0.6-0.1-1.2-0.2-1.8
		c-0.1-0.6-0.4-1.1-0.7-1.5c-0.3-0.4-0.7-0.8-1.3-1c-0.5-0.3-1.2-0.4-1.9-0.4c-0.8,0-1.5,0.2-2.3,0.5c-0.7,0.3-1.4,0.8-2.1,1.4
		c-0.6,0.6-1.2,1.3-1.7,2.2c-0.5,0.8-0.9,1.8-1.1,2.8H529.8z"/>
	<path class="st0" d="M539.8,225.7h2.7l-0.3,3.2h0.2c1.1-1,2.2-1.9,3.5-2.6c1.2-0.7,2.4-1.1,3.5-1.1c0.8,0,1.5,0.1,2.1,0.3
		c0.6,0.2,1.1,0.5,1.4,0.9c0.4,0.4,0.7,0.8,0.9,1.3c0.2,0.5,0.3,1,0.4,1.6c1.4-1.3,2.7-2.3,3.9-3c1.3-0.7,2.4-1.1,3.5-1.1
		c1.8,0,3,0.5,3.8,1.4c0.8,0.9,1.2,2.2,1.2,3.9c0,0.5,0,1-0.1,1.4c-0.1,0.4-0.1,0.9-0.3,1.5l-2.7,13.4h-3.3l2.6-13
		c0.1-0.6,0.2-1,0.3-1.4c0.1-0.3,0.1-0.7,0.1-1.1c0-2.2-1-3.2-3.1-3.2c-0.6,0-1.4,0.3-2.5,0.9c-1,0.6-2.2,1.6-3.5,2.9l-3,14.9h-3.3
		l2.6-13c0.1-0.6,0.2-1,0.3-1.4c0.1-0.3,0.1-0.7,0.1-1.1c0-2.2-1-3.2-3-3.2c-0.6,0-1.5,0.3-2.5,0.9c-1,0.6-2.2,1.6-3.4,2.9l-3,14.9
		h-3.3L539.8,225.7z"/>
	<path class="st0" d="M570.2,246.8l6.1-30.8h3.3l-1.7,8.2l-1,4.2h0.1c1-0.8,2.2-1.6,3.4-2.2c1.2-0.6,2.5-0.9,3.8-0.9
		c1.8,0,3.3,0.6,4.4,1.9c1.1,1.3,1.6,3.2,1.6,5.7c0,2-0.3,3.9-1,5.7c-0.6,1.8-1.5,3.3-2.5,4.6c-1.1,1.3-2.3,2.3-3.6,3.1
		c-1.4,0.7-2.8,1.1-4.2,1.1c-1.1,0-2.1-0.3-3-0.9c-0.9-0.6-1.6-1.3-2.1-2.3h-0.1l-0.9,2.6H570.2z M583,228c-1,0-2.1,0.3-3.2,0.9
		c-1.2,0.6-2.3,1.4-3.3,2.5l-2,10c0.6,1.1,1.2,1.9,1.9,2.4c0.7,0.5,1.5,0.7,2.3,0.7c1,0,2-0.3,3-0.9c1-0.6,1.8-1.4,2.6-2.5
		c0.7-1,1.3-2.2,1.8-3.6c0.4-1.3,0.7-2.7,0.7-4.2c0-1.8-0.3-3.1-1-4C585.2,228.4,584.3,228,583,228z"/>
	<path class="st0" d="M593.6,238.5c0-2,0.3-3.8,1-5.4c0.7-1.6,1.5-3,2.6-4.2c1.1-1.2,2.2-2.1,3.6-2.7c1.3-0.6,2.7-1,4.1-1
		c1.2,0,2.2,0.2,3,0.6c0.8,0.4,1.5,0.9,2,1.6c0.5,0.7,0.9,1.5,1.1,2.4c0.2,0.9,0.3,1.9,0.3,3c0,0.8-0.1,1.6-0.3,2.4
		c-0.2,0.8-0.3,1.3-0.5,1.7H597c-0.2,1.4-0.2,2.5,0,3.5c0.2,1,0.6,1.8,1.1,2.4c0.5,0.6,1.2,1.1,2,1.4c0.8,0.3,1.6,0.4,2.6,0.4
		c0.8,0,1.7-0.2,2.5-0.5c0.8-0.4,1.6-0.8,2.2-1.3l1.3,2.2c-0.8,0.6-1.8,1.1-3,1.6c-1.2,0.4-2.4,0.7-3.8,0.7c-2.5,0-4.5-0.8-6-2.3
		C594.4,243.5,593.6,241.3,593.6,238.5z M608.4,234.7c0.1-0.3,0.1-0.7,0.2-1c0-0.3,0.1-0.7,0.1-1.1c0-0.6-0.1-1.2-0.2-1.8
		c-0.1-0.6-0.4-1.1-0.7-1.5c-0.3-0.4-0.7-0.8-1.3-1c-0.5-0.3-1.2-0.4-1.9-0.4c-0.8,0-1.5,0.2-2.3,0.5c-0.7,0.3-1.4,0.8-2.1,1.4
		c-0.6,0.6-1.2,1.3-1.7,2.2s-0.9,1.8-1.1,2.8H608.4z"/>
	<path class="st0" d="M618.4,225.7h2.7l-0.5,4h0.2c0.8-1.3,1.8-2.4,2.9-3.2c1.1-0.9,2.3-1.3,3.6-1.3c0.7,0,1.4,0.1,2,0.4l-1.2,2.9
		c-0.5-0.2-1.1-0.3-1.8-0.3c-1,0-2.1,0.4-3.2,1.3c-1.1,0.9-2.1,2.2-3,3.9l-2.6,13.3h-3.3L618.4,225.7z"/>
	<path class="st0" d="M639.3,226l2.8-0.2l0.7-3.5c0.4-2.1,1.2-3.8,2.3-5c1.1-1.2,2.6-1.8,4.3-1.8c0.7,0,1.4,0.1,2,0.3
		c0.6,0.2,1.2,0.4,1.7,0.8l-1.2,2.4c-0.3-0.2-0.7-0.4-1-0.5c-0.4-0.1-0.8-0.2-1.3-0.2c-1,0-1.7,0.4-2.3,1.1c-0.6,0.7-1,1.7-1.2,2.9
		l-0.7,3.6h4.2l-0.5,2.7h-4.3l-3.7,18.3h-3.3l3.7-18.3h-2.7L639.3,226z"/>
	<path class="st0" d="M656.9,247.3c-2.3,0-4.1-0.7-5.5-2.2c-1.4-1.5-2-3.6-2-6.2c0-2,0.3-3.8,1-5.5c0.6-1.7,1.5-3.1,2.6-4.3
		c1.1-1.2,2.3-2.1,3.6-2.8c1.4-0.7,2.8-1,4.2-1c2.3,0,4.1,0.8,5.5,2.2c1.4,1.5,2.1,3.6,2.1,6.2c0,2-0.3,3.8-1,5.5
		c-0.6,1.7-1.5,3.1-2.6,4.3c-1.1,1.2-2.3,2.1-3.6,2.8C659.8,247,658.3,247.3,656.9,247.3z M660.4,227.9c-1,0-1.9,0.3-2.8,0.8
		c-0.9,0.6-1.7,1.3-2.5,2.3c-0.7,1-1.3,2.1-1.7,3.4c-0.4,1.3-0.6,2.7-0.6,4.2c0,1.9,0.4,3.4,1.1,4.4c0.8,1,1.9,1.5,3.4,1.5
		c1,0,1.9-0.3,2.8-0.8c0.9-0.6,1.7-1.3,2.4-2.3c0.7-1,1.3-2.1,1.7-3.4c0.4-1.3,0.6-2.7,0.6-4.2c0-1.9-0.4-3.4-1.1-4.4
		C663,228.5,661.9,227.9,660.4,227.9z"/>
	<path class="st0" d="M675.5,225.7h2.7l-0.5,4h0.2c0.8-1.3,1.8-2.4,2.9-3.2c1.1-0.9,2.3-1.3,3.6-1.3c0.7,0,1.4,0.1,2,0.4l-1.2,2.9
		c-0.5-0.2-1.1-0.3-1.8-0.3c-1,0-2.1,0.4-3.2,1.3c-1.1,0.9-2.1,2.2-3,3.9l-2.6,13.3h-3.3L675.5,225.7z"/>
	<path class="st0" d="M700.3,218.4H716l-0.6,2.8h-12.3l-1.9,9.9h10.4l-0.6,2.9h-10.4l-2.6,12.9h-3.4L700.3,218.4z"/>
	<path class="st0" d="M714.8,239.7c0-2,0.3-3.9,1-5.7c0.6-1.8,1.5-3.3,2.6-4.6c1.1-1.3,2.3-2.3,3.6-3.1c1.4-0.7,2.8-1.1,4.2-1.1
		c1.1,0,2.1,0.3,3,0.9c0.9,0.6,1.6,1.3,2.1,2.3h0.2l0.8-2.6h2.7l-4.2,21H728l0.3-3.1h-0.2c-1,1.1-2.2,2-3.4,2.6
		c-1.3,0.7-2.6,1-3.9,1c-1.8,0-3.3-0.6-4.4-1.9C715.4,244,714.8,242.2,714.8,239.7z M722.1,244.5c1.1,0,2.2-0.3,3.4-1
		c1.1-0.6,2.2-1.7,3.3-3.1l1.9-9.4c-0.6-1.1-1.3-1.9-2-2.4c-0.7-0.5-1.5-0.7-2.3-0.7c-1,0-2,0.3-3,0.9c-1,0.6-1.8,1.4-2.6,2.5
		c-0.8,1-1.3,2.2-1.8,3.6c-0.4,1.3-0.7,2.7-0.7,4.2c0,1.8,0.3,3.2,1,4C720,244.1,720.9,244.5,722.1,244.5z"/>
	<path class="st0" d="M741.9,225.7h3.3l-4.2,21h-3.3L741.9,225.7z M744.7,221.4c-0.6,0-1.1-0.2-1.5-0.5c-0.4-0.3-0.6-0.8-0.6-1.4
		c0-0.7,0.3-1.3,0.8-1.8c0.5-0.5,1.1-0.7,1.8-0.7c0.6,0,1.1,0.2,1.5,0.5c0.4,0.3,0.6,0.8,0.6,1.5c0,0.7-0.3,1.3-0.8,1.8
		C746,221.1,745.4,221.4,744.7,221.4z"/>
	<path class="st0" d="M752.1,225.7h2.7l-0.5,4h0.2c0.8-1.3,1.8-2.4,2.9-3.2c1.1-0.9,2.3-1.3,3.6-1.3c0.7,0,1.4,0.1,2,0.4l-1.2,2.9
		c-0.5-0.2-1.1-0.3-1.8-0.3c-1,0-2.1,0.4-3.2,1.3c-1.1,0.9-2.1,2.2-3,3.9l-2.6,13.3H748L752.1,225.7z"/>
	<path class="st0" d="M764.7,226l2.8-0.2l0.7-3.5c0.4-2.1,1.2-3.8,2.3-5c1.1-1.2,2.6-1.8,4.3-1.8c0.7,0,1.4,0.1,2,0.3
		c0.6,0.2,1.2,0.4,1.7,0.8l-1.2,2.4c-0.3-0.2-0.7-0.4-1-0.5c-0.4-0.1-0.8-0.2-1.3-0.2c-1,0-1.7,0.4-2.3,1.1c-0.6,0.7-1,1.7-1.2,2.9
		l-0.7,3.6h4.2l-0.5,2.7h-4.3l-3.7,18.3h-3.3l3.7-18.3h-2.7L764.7,226z"/>
	<path class="st0" d="M774.9,239.7c0-2,0.3-3.9,1-5.7c0.6-1.8,1.5-3.3,2.6-4.6c1.1-1.3,2.3-2.3,3.6-3.1c1.4-0.7,2.8-1.1,4.2-1.1
		c1.1,0,2.1,0.3,3,0.9c0.9,0.6,1.6,1.3,2.1,2.3h0.2l0.8-2.6h2.7l-4.2,21h-2.7l0.3-3.1h-0.2c-1,1.1-2.2,2-3.4,2.6
		c-1.3,0.7-2.6,1-3.9,1c-1.8,0-3.3-0.6-4.4-1.9C775.4,244,774.9,242.2,774.9,239.7z M782.2,244.5c1.1,0,2.2-0.3,3.4-1
		c1.1-0.6,2.2-1.7,3.3-3.1l1.9-9.4c-0.6-1.1-1.3-1.9-2-2.4c-0.7-0.5-1.5-0.7-2.3-0.7c-1,0-2,0.3-3,0.9c-1,0.6-1.8,1.4-2.6,2.5
		c-0.8,1-1.3,2.2-1.8,3.6c-0.4,1.3-0.7,2.7-0.7,4.2c0,1.8,0.3,3.2,1,4C780,244.1,781,244.5,782.2,244.5z"/>
	<path class="st0" d="M804,235.6l-3.9-9.9h3.4l1.8,4.7c0.2,0.6,0.4,1.2,0.6,1.8c0.2,0.6,0.4,1.1,0.6,1.8h0.2
		c0.4-0.6,0.9-1.2,1.3-1.8c0.5-0.6,0.9-1.2,1.3-1.8l3.7-4.7h3.6l-8.7,10.6l4.3,10.4h-3.4l-1.9-4.9c-0.2-0.6-0.5-1.3-0.7-1.9
		c-0.2-0.6-0.5-1.3-0.8-2h-0.2c-0.5,0.7-0.9,1.3-1.4,1.9c-0.5,0.6-1,1.3-1.6,1.9l-4.1,5h-3.6L804,235.6z"/>
</g>
<g>
	<path class="st0" d="M121.8,201.4c-0.2,0.3-0.4,0.6-0.7,0.7"/>
	<path class="st0" d="M128.6,148.2c0.8,0,1.4-0.6,1.4-1.4c0-0.8-0.6-1.4-1.4-1.4c-0.8,0-1.4,0.6-1.4,1.4
		C127.2,147.6,127.9,148.2,128.6,148.2L128.6,148.2z"/>
	<path class="st0" d="M194.5,88.2L194.5,88.2l-51.2,0v0h0l0,41.4c0,4,1.7,7.5,4,8.6l19.7,11.8c0.4,0.5,1.1,0.8,1.8,0.8
		c0.6,0,1.2-0.2,1.6-0.6l20-12c2.3-1.1,4-4.6,4-8.6L194.5,88.2L194.5,88.2L194.5,88.2z M160.3,100.1h-4.4V89.5h4.4V100.1
		L160.3,100.1z M157.1,103.8l0.6-0.7l-0.4-0.7l0.8,0.1l0.5-0.9l0.5,0.9l0.8-0.1l-0.4,0.7l0.6,0.7l-0.8,0.2v0.9l-0.8-0.6l-0.8,0.6
		V104L157.1,103.8L157.1,103.8z M144.7,117v-10.1h5.4V117H144.7L144.7,117z M145.6,102.4l0.8,0.1l0.5-0.9l0.5,0.9l0.8-0.1l-0.4,0.7
		l0.6,0.7l-0.8,0.2v0.9l-0.8-0.6l-0.8,0.6V104l-0.8-0.2l0.6-0.7L145.6,102.4L145.6,102.4z M151.7,112.7l0.8,0.1l0.5-0.9l0.5,0.9
		l0.8-0.1l-0.4,0.7l0.6,0.7l-0.8,0.2v0.9l-0.8-0.6l-0.8,0.6v-0.9l-0.8-0.2l0.6-0.7L151.7,112.7L151.7,112.7z M155.3,104.6
		c0-0.3-0.4-0.3-0.5-0.3c-0.5,0-0.7,0.8-1.1,0.8c-0.3,0-0.5,0-0.5-0.3c0-0.3,0.6-0.5,0.8-0.7c-3.3,0-3.4,1.5-3.9,1.5
		c-0.9,0,0.7-1.6,1.2-2.1c-0.7-0.1-1.1-0.9-1.8-1.4c0.3-0.5,0.5-0.3,1,0.1c0-0.3,0.3-0.8,1-0.8c1.5,0,1.1,1.4,1.3,1.4
		c0.2,0,0-1.4,1-1.4c1.5,0,3.3,3.8,1.6,3.8C154.7,105.2,155.3,104.7,155.3,104.6L155.3,104.6z M151.5,93.5l0.6-0.7l-0.4-0.7l0.8,0.1
		l0.5-0.9l0.5,0.9l0.8-0.1l-0.4,0.7l0.6,0.7l-0.8,0.2v0.9L153,94l-0.8,0.6v-0.9L151.5,93.5L151.5,93.5z M150.1,89.5v10.6h-5.4V89.5
		H150.1L150.1,89.5z M160.3,144.2l-12.3-7.3c-2-1.4-3.1-3.9-3.3-6.8v-11.6h15.6V144.2L160.3,144.2z M155.9,117v-10.1h4.4V117H155.9
		L155.9,117z M176.1,145l-5.7,3.4h-0.1c-0.4,0.3-0.9,0.5-1.5,0.5c-0.6,0-1.1-0.2-1.5-0.5l-5.6-3.4v-26.6h14.4V145L176.1,145z
		 M176.1,117h-14.4V89.5h14.4V117L176.1,117z M193.1,130c-0.3,3-1.3,5.4-3.3,6.8l-12.3,7.3v-25.8h15.6V130L193.1,130z M193.1,117
		h-15.6V89.5h15.6V117L193.1,117z"/>
	<path class="st0" d="M159.5,127.9c-0.1-0.2-2,0.6-1.4,0.6c0.1-0.6,1.1-1.7,1.6-2.1c-0.1-0.7-0.9-0.1-1.8,0.4c2.9-4.2,1-2.5-0.6-2.2
		c2.6-2.8,1.9-2.8,0-1.9c1.5-1.2,1.8-2.6,1.6-3c-1.4,1.9-2.7,1.6-2.7,3.3c0,1.1-0.4,3-1,3.7c-0.8,0.8-0.2-3.1-2.2-3.1
		c-0.6,0-2.1-0.1-2.6,0.7c0.4,0,1,1,1,1.5c0,0.4,0.4,1.6-0.3,1.6c-0.7,0-1.5-1.4-1.5-2.1c0-0.7,0-0.5,0-1.5c0-1.7-2.7-4-3.8-4
		c0,1.2,1.5,1.4,1.5,2.9c-0.6,0-1.6-1.2-1.6-0.5c0,0.7,1,0.9,1,1.5c0,0.6-1.1-0.2-1.1,0.5c0,0.6,0.6,0.5,0.7,1.1
		c-0.4-0.1-0.8-0.1-0.9,0.2c-0.1,0.2,0.1,0.5,0.5,0.6c-0.2,0.1-0.3,0.5-0.3,1.5c0,3.3,2,4.8,3.6,4.8c1.1,0,0.9-0.7,1-1.1
		c0,0.6,0.6-0.3,0.6,0.7c0,1-1,0.6-1,1.4c0,1.2,1.6,0,1.6,1.3c0,1.6-0.2,1.5-0.2,2.1c0,0.4,1.7-0.6,1.6-0.7c0.4,0.1,0.4,1.4,1.2,1.3
		c0.5,0,0.6-1.2,1-1.4c-0.2,0.1,1.6,1.2,1.6,0.6c0-1.5-0.6-0.9-0.6-1.9c0-1,2.1-0.8,1.8-1.3c-0.3-0.4-0.5-0.2-0.7-0.9
		c0,0.1-1.7-2.4,0.4-1.1C159.4,132.7,159.6,128.1,159.5,127.9L159.5,127.9z"/>
	<path class="st0" d="M214.1,138.7c0.9,0,1.7-0.7,1.7-1.5c0-0.8-0.8-1.5-1.7-1.5s-1.7,0.7-1.7,1.5
		C212.5,138,213.2,138.7,214.1,138.7L214.1,138.7z"/>
	<path class="st0" d="M207.3,142.8c0.9,0,1.7-0.7,1.7-1.5c0-0.8-0.8-1.5-1.7-1.5c-0.9,0-1.7,0.7-1.7,1.5
		C205.6,142.1,206.4,142.8,207.3,142.8L207.3,142.8z"/>
	<path class="st0" d="M126.3,152.1c0.9,0,1.7-0.7,1.7-1.5c0-0.8-0.8-1.5-1.7-1.5c-0.9,0-1.7,0.7-1.7,1.5
		C124.7,151.4,125.4,152.1,126.3,152.1L126.3,152.1z"/>
	<path class="st0" d="M131.6,152.5c0.9,0,1.7-0.7,1.7-1.5c0-0.8-0.8-1.5-1.7-1.5c-0.9,0-1.7,0.7-1.7,1.5
		C129.9,151.9,130.7,152.5,131.6,152.5L131.6,152.5z"/>
	<path class="st0" d="M277.4,81.9c2.5,3,3,7.7,1.3,11.2c-1-0.1-0.8-1.3-1-2.1c-1.8-3.3-3.2-7.6-1.6-11.3
		C277.2,79.8,276.8,81.3,277.4,81.9L277.4,81.9z"/>
	<path class="st0" d="M63.5,85.9c-0.5,2.2-0.5,5.1,0,7.1c-0.4,0.5-0.4-0.5-0.8-0.4c-3.5-2.5-1.9-7.5-2.8-11c0.2-0.3,0.6-0.4,0.9-0.2
		C62.4,82.6,63.1,84.1,63.5,85.9L63.5,85.9z"/>
	<path class="st0" d="M285.1,86.2c0.5,1-0.4,2-1.2,2.4c-0.8,0.2-1.7-0.3-2.2-1c-0.3-1,0.3-1.9,1.1-2.3
		C283.6,85.2,284.5,85.4,285.1,86.2L285.1,86.2z"/>
	<path class="st0" d="M58,90.2c-0.2,0.8-0.4,1.6-1.2,2c-0.5,0-1.3,0-1.7-0.4c-0.5-0.5-0.6-1.3-0.4-1.9c0.4-0.6,1.1-0.7,1.7-0.8
		C57.1,89.3,57.7,89.4,58,90.2L58,90.2z"/>
	<path class="st0" d="M288.6,91.7c0.2,0.5,0.2,0.9,0,1.4c-0.6,0.8-1.5,1.2-2.4,0.8c-0.6-0.4-0.8-1-1-1.5c0.2-0.7,0.9-1.3,1.5-1.6
		C287.5,90.8,288,91.2,288.6,91.7L288.6,91.7z"/>
	<path class="st0" d="M283.5,91.8c0.7,0.4,0.2,1.3,0.1,1.8c-0.4,0.5-1.1,1.2-1.9,0.9c-0.4-0.4-1-0.4-1.2-1.1c0-0.9,0.4-1.8,1.3-2.1
		C282.5,91.2,282.9,91.5,283.5,91.8L283.5,91.8z"/>
	<path class="st0" d="M276.9,93.1c0,1,0.1,2.3-1.1,2.4c-1.1,0.4-1.8-0.5-2.1-1.3c-0.1-0.9,0.4-1.8,1.3-2.2
		C275.9,92.1,276.5,92.6,276.9,93.1L276.9,93.1z"/>
	<path class="st0" d="M67.7,93.6c0.3,0.9-0.6,1.4-1.2,1.9c-0.6,0.2-1.4-0.4-1.8-1c-0.6-0.6,0.2-1.2,0.4-1.7
		C66.1,92,67.4,92.6,67.7,93.6L67.7,93.6z"/>
	<path class="st0" d="M62.4,93.9c0,0.7-0.4,1.4-1,1.7c-0.7,0.3-1.4-0.3-1.8-0.8c-0.4-0.9,0.1-1.7,0.8-2.1
		C61.4,92.3,62,93.2,62.4,93.9L62.4,93.9z"/>
	<path class="st0" d="M255.3,94.2c0.9,1.9,1.6,4.1,1.8,6.5c-0.4,1.7,0.3,4-1,5.1c-1.3-0.5-1.3-2-2.1-2.8c-1.6-3.2-0.2-6.8,0.4-9.9
		C255,92.9,255,93.8,255.3,94.2L255.3,94.2z"/>
	<path class="st0" d="M58.2,95.3c0.3,1.1-0.5,1.6-1.2,2.2c-1.1,0.3-1.8-0.5-2.2-1.3c-0.1-0.9,0.4-1.8,1.2-2.2
		C56.9,94,57.7,94.5,58.2,95.3L58.2,95.3z"/>
	<path class="st0" d="M269.4,97.9c1.2,2.6,1.3,5.8,0.4,8.6l-0.5,0.4c-1.3-2.4-3-4.7-3.7-7.3c0-1.9,0.4-3.6,1.1-5.1
		c0.6-0.4,1,0.1,1.3,0.6C268.1,96.2,268.5,97.4,269.4,97.9L269.4,97.9z"/>
	<path class="st0" d="M280.7,96.3c-0.1,0.9-0.4,1.9-1.3,2.2c-0.9,0.2-1.8-0.1-2.1-1.1c-0.3-0.9,0.3-1.7,1-2.2
		C279.3,94.7,280.2,95.6,280.7,96.3L280.7,96.3z"/>
	<path class="st0" d="M62.5,99.1c0,0.7-0.6,1.5-1.3,1.7c-0.7,0.5-1.2-0.4-1.9-0.6c-0.3-0.7-0.4-1.4,0-2.1c0.3-0.5,0.9-0.5,1.4-0.7
		C61.5,97.8,62.3,98.2,62.5,99.1L62.5,99.1z"/>
	<path class="st0" d="M66.4,98.6c0.4,0.9-0.6,1.3-1,1.8c-1.1,0.4-1.6-0.4-2.1-1.1c-0.2-0.9,0.4-1.4,1-2C65.4,97.1,66,97.8,66.4,98.6
		L66.4,98.6z"/>
	<path class="st0" d="M283.2,98.3c-0.1,1.2-1.9,2.3-2.1,3.5c-1,2.4-3.1,4.2-5.5,5c-0.5,0.4-1.3,1.1-2.1,1.2c-0.2-1.8,1.4-3.4,2.4-5
		C277.8,100.6,280.4,99.1,283.2,98.3L283.2,98.3z"/>
	<path class="st0" d="M60.7,102.1c1.3,1.5,2.1,2.9,3.7,4.2c0.1,0.4-0.2,0.9-0.6,0.9c-4.4-0.3-7.3-4.8-9.5-7.9c0.3-1,1.4-0.2,2.1-0.3
		C57.8,100.2,59.5,100.6,60.7,102.1L60.7,102.1z"/>
	<path class="st0" d="M284.4,103.4c-0.2,3.9-2.1,7.8-5.5,9.7c-1,0.4-2.1,1.3-3,0.7c1.9-3.9,4.7-7,7.9-10.4H284.4L284.4,103.4z"/>
	<path class="st0" d="M267.3,106c0.3,1.3-0.4,2.2-1.5,2.6c-1,0.1-1.6-0.7-2.1-1.4c-0.1-0.9,0.4-1.7,1.3-2c0.3-0.3,0.7-0.3,1.1-0.3
		C266.6,105.1,266.8,105.6,267.3,106L267.3,106z"/>
	<path class="st0" d="M55.8,106.8c1.7,1.2,3.2,2.8,4.8,4.2c-1.2,0.8-2.6,0.1-3.9,0.1c-3-1.1-5.1-3.7-8.2-4.6c0.1-1,1.3-0.6,1.9-0.9
		C52.3,105.5,53.9,106.4,55.8,106.8L55.8,106.8z"/>
	<path class="st0" d="M151.5,80.2c-5-2-8.3,3.2-13.4,2.6c-0.6,0.4-0.4,1-0.8,1.4c-0.3,0.3-0.7,0.1-1-0.1c-0.3-2.2-1-4.1-1.3-6.2
		c-0.5-0.9-0.3-2.2-0.7-3.1c-2.9-7.8,7-1.9,8.9-6.5c1.7-4-3.3-4.4-4.8-7.2V60c-1.4-1.4-2.9-1.9-3.8-3.8c0.6-2.2,0.9-4.7,0.3-6.9
		c-0.1-0.5-0.4-1.3-1.2-1c-1.7,2.3-3,4.2-4.6,6.5c-1.7-1.3-3.3-2.9-5.3-4c-1.3-0.2-2.6-1.5-4.1-1c-0.3,0.5,0,1,0.3,1.3
		c0.1,3.5,1.9,6.3,4.4,8.8l0.3,1.4c-1.6,3.7-1.2,7.9-1.6,11.9c-4,10.3-10.5,20.2-19.4,27.3c-5.1,5.8-11.2,11.3-12,19.3
		c-0.3,1.3,0.2,2.8-0.8,3.7c-3-1.1-5.9-2.5-8.3-4.4c-4.1-2.9-10-2.5-12.7-7.7c-1.1-2.1,0.3-4.1,1.3-5.7c3-2.9,2.6-8,1-11.5
		c-0.4-0.1-0.4,0.4-0.7,0.4c-0.3,5.3-4.5,9-2.9,14.9c0.4,1.7,1.3,2.8,1.7,4.4c-0.6-0.2-1.5-0.2-2.1-0.4c-2-0.3-3.9-1.1-6-0.8
		c-4.1,1.9-9.7-0.4-13,3.3c-0.5,0.1-1.3,0.2-1.1,1c2,0,3.8,0.5,5.8,0.5c3.1,0.5,5.2-2.1,7.3-3.2h0.5c0.9-0.9,2.4-0.4,3.6-0.5
		c5.6,0.6,10,3.3,14.7,6.1v0.4c-1.8,0.8-3.8,1.4-5.6,2.3c-2.1,1.5-4.4,3.5-5,6c-1.4,2.2,0.4,4.2,1.3,6.1c0.1,0.9,0.2,2,1,2.3
		c2.9-3.1,0.2-6.8,0.6-10.4c0.7-2.7,3.2-4,5.8-4.7c5.1-2.2,8.8,2,12.9,4.3c-0.1,4.1,0.4,8.1-0.4,12.1c-1.3,0.4-2.9,0.7-4.2,0.6
		c-7.1,0.5-12.6,4.4-18.9,6.6c-2.9,1-6.3,0.9-9.1,2c2.2,0.6,4.6-0.2,6.9-0.3c8.8-1.3,15.5-8,24.9-6.8l0.2,0.3
		c-1.1,2.2-2.5,4.1-4.2,5.8c-0.3-1-0.4-1.8-1.3-2.3c-0.7-0.4-1.5,0-2.1,0.7c-0.3,0.4-0.3,1,0,1.4c0.4,0.8,1.2,1,2,1.3
		c-0.2,0.8-1.2,1.2-1.7,1.9c-2.5,4.2-7.6,2.5-10.5,5.5c-0.4,0.6-2.1,1-1.3,2c3.4,0.4,6.7-0.5,9.2-2.3c3.3-3.7,6.8-7.2,10.1-10.7
		c0.5,2.9-0.3,5.9-2,8.2c-0.8-0.4-1.4-1.1-2.4-1.4c-0.9,0.2-1.5,1.1-1.6,1.8c0.4,0.6,0.7,1.4,1.3,1.8c-3,2.2-6.9,2.3-10.4,3.3
		c-6.5,0.8-12.9,1.3-19.5,1.4c-3.1-0.2-6.7,0.9-9.6,0c-3.4,0.6-7.1-0.4-9.8,1.4c-0.4,0.4,0.1,0.9,0.1,1.3c4.1,2.7,9.7,0.5,14.4,1.4
		h35.2c2.6-0.1,5.2-0.2,7.2-1.4c4.6-2.6,7.1-7.3,9.4-11.9c0.9-1.6,1.5-3.5,1.9-5.4c0.9-3.1,3.7-5.2,6.7-5.5
		c0.4,4.7-0.4,9.4-1.5,13.7c-0.5,2.9-2.4,5.7-1.3,8.7c0.3,1.4,1.8,1.4,2.9,1.6c10.8-0.2,21.6-0.6,33.1,0.2c2.1,0.4,3.8,1,6.1,0.9
		c0.2-0.3,0.8-0.4,0.5-0.9c-0.3-1-1-2.3-2.1-2.5c-0.2-0.5-1-0.4-1.3-0.7c-5.7-3.2-12.6-1.5-19.3-1.4c-3.5,0.4-7,1-9.9-1
		c-1.3-1.6-0.4-6.7-0.4-6.7c0-2,4.9-16.2,5.5-17.4c0.2-1.3,0.7-2.6,0.5-4.1c0.7-1.8,0.5-4.1,0.5-6.1c0.4-2.9,1.8-5.6,2.8-8.4
		c0.5-1.4,1-2.8,1.5-4.1c0.5-1.7,0.7-3.3,1.8-4.7c2.9,1.8,5.8,1.8,7.2,5.1l1.2,7.5c0,0.5,0.4,1.3,1,0.8c2.3-1.5,1.6-5,1.6-7.3
		c0.5-2.8-1.4-4.1-2.2-6.6c-0.6-0.4-1.7-2.6-1.7-2.6c-0.4-2-4.7-3.3-3.7-5.8c0.5-2.1,1.1-4,3-5.1c0.3,0.2,0.4,0.4,0.4,0.6l1.1-0.8
		l0.1-7.5c2.9,0,7.2,0.4,10.2,0.4c0.8,0.3,1.4,0.9,2.3,1l0.7-1l7.2-1.4C156.3,83.7,154.4,80.2,151.5,80.2L151.5,80.2z"/>
	<path class="st0" d="M159.3,83.4c0.2,0,0.4-0.1,0.7-0.1L159.3,83.4L159.3,83.4z"/>
	<path class="st0" d="M81.5,108.4c0.1,1.1-0.5,1.7-1.3,2.1c-0.7-0.3-1.2-0.4-1.7-1.1c-0.4-1,0.5-1.7,1.2-2.1
		C80.4,107.5,81.3,107.6,81.5,108.4L81.5,108.4z"/>
	<path class="st0" d="M75.7,108.4c0.5,0.5,0.6,1.4,0.4,2.1c-0.6,0.5-1.6,1-2.1,0.3c-0.5-0.5-1.1-1.2-0.6-1.9
		C73.9,108.3,75,107.7,75.7,108.4L75.7,108.4z"/>
	<path class="st0" d="M200.1,109.4c0,0,0.1,0.1,0.1,0.1"/>
	<path class="st0" d="M268.2,111c0.4,1-0.4,1.7-1.2,2.1c-0.9-0.3-2.1-0.5-2.1-1.6c0.1-0.7,0.7-1.2,1.3-1.3
		C267.1,109.8,267.8,110.4,268.2,111L268.2,111z"/>
	<path class="st0" d="M272.9,110.8c0.3,0.4,0.9,1.2,0.2,1.6c-0.4,0.3-0.6,0.4-0.9,0.7c-1,0.2-1.9-0.2-2.1-1.1
		c-0.2-1,0.6-1.4,1.3-1.9C272,110,272.5,110.4,272.9,110.8L272.9,110.8z"/>
	<path class="st0" d="M53.3,111.9c-0.4,1.1-1.3,1.5-2.4,1.2c-0.3-0.3-0.5-0.7-0.7-1.2c0.1-0.6,0.3-1.3,1-1.5
		C52.2,110.4,53,110.9,53.3,111.9L53.3,111.9z"/>
	<path class="st0" d="M83.4,113.4c-0.1,0.7-0.9,1.3-1.5,1.7c-0.9,0.1-1.5-0.6-2-1.3c0-0.7,0.4-1.6,1.1-1.8
		C82,111.7,83,112.4,83.4,113.4L83.4,113.4z"/>
	<path class="st0" d="M78.1,112.8c0.3,0.3,0.5,1,0.3,1.4c-0.5,0.4-1.3,1.3-2.2,0.7c-0.5-0.5-1.2-0.8-1-1.7c0.4-0.4,0.8-0.9,1.3-1.1
		C77.2,111.9,77.6,112.4,78.1,112.8L78.1,112.8z"/>
	<path class="st0" d="M286.6,113.8c0,0.7-0.7,1.4-1.2,1.7c-0.7,0.3-1.5,0.1-2-0.4c-0.5-0.2-0.4-0.9-0.4-1.4c0.4-0.6,1.1-1,1.7-1.2
		C285.6,112.8,286.1,113.3,286.6,113.8L286.6,113.8z"/>
	<path class="st0" d="M292.3,114.6c-0.3,0.8-0.9,1.5-1.7,1.6c-0.5-0.1-1.5-0.3-1.3-1.1c0-0.6,0.4-1.3,0.8-1.4
		C291,113.3,292,113.7,292.3,114.6L292.3,114.6z"/>
	<path class="st0" d="M63.5,115.9c0.2,1.1-0.2,1.8-1.1,2.2c-0.6,0.4-1.3-0.1-1.7-0.4c-0.4-0.5-0.8-1.2-0.4-1.8c0.2-0.8,1-0.6,1.5-1
		C62.6,114.9,63,115.3,63.5,115.9L63.5,115.9z"/>
	<path class="st0" d="M67.8,116.7c0.3,0.7-0.5,1-0.7,1.5c-0.4,0.3-1.1,0.5-1.6,0.2c-0.6-0.5-1.3-1.3-0.7-2.2
		C65.5,114.9,67.4,115.6,67.8,116.7L67.8,116.7z"/>
	<path class="st0" d="M281.3,116.3c0.1,0.9-0.7,1.5-1.2,2.1c-0.8,0.2-1.6-0.4-1.8-1.1c-0.1-0.7,0.4-1.3,1-1.7
		C280.1,115.5,280.9,115.5,281.3,116.3L281.3,116.3z"/>
	<path class="st0" d="M288.6,117.7c-0.2,0.8-0.1,1.7-1,2.2c-0.7,0.2-1.6,0.1-2.1-0.4c-0.5-0.5-0.6-1.3-0.4-1.9
		c0.4-0.7,1.3-1.3,2.1-1.1C287.9,117,288.1,117.4,288.6,117.7L288.6,117.7z"/>
	<path class="st0" d="M60.1,119.6c0.4,0.7-0.4,0.9-0.7,1.3c-0.6,0.4-1.3,0.1-1.8-0.2c-0.6-0.4-0.4-1.3-0.3-1.7
		C58.1,117.4,59.7,118.5,60.1,119.6L60.1,119.6z"/>
	<path class="st0" d="M283,121.3c0.4,0.1,0.2,0.6,0.1,0.8c-2.1,1.1-5.4,1.4-7.2-0.4c-1.1-0.9-2.4-1.3-3.6-2c0.4-1.2,2.1-1.1,3.2-1.4
		C278.1,118.8,280.2,121.2,283,121.3L283,121.3z"/>
	<path class="st0" d="M64.4,120.5c0.2,0.7-0.4,1-0.5,1.5c-0.4,0.5-1.1,0.4-1.5,0.2c-0.8-0.5-1.2-1.5-0.6-2.3
		C62.7,119,63.8,119.5,64.4,120.5L64.4,120.5z"/>
	<path class="st0" d="M72.2,121c0.4,0.8-0.2,1.5-0.9,2c-0.6,0.4-1.2-0.2-1.7-0.3c-0.4-0.6-1.3-1.4-0.4-2.1
		C70,119.3,71.6,120,72.2,121L72.2,121z"/>
	<path class="st0" d="M175.5,124.8c-0.2,1.8-3.1-0.3-2.7,2.1c0.4,1.7,0.8,3.8,1.8,5c0.8,1.2,0.4,3.1,0.3,4.5c-0.8,1.3-2,2.2-3.4,2.9
		c-2.5-0.3-6.3,1.3-7.5-1.9c-0.5-1.4-1.4-2.7-1.4-4.3c0.3-0.2,0.6-0.2,0.9-0.4c0-0.6-0.7-0.9-0.6-1.5c2.9-0.5-1.2-3.1,1.3-3.2
		c2,2.1,5.3,1.5,7.1,3.8c0.4,0.3,0.8,0.9,1.3,1.1c-0.3-2.1-1.4-4.3-1.7-6.6c-0.3-1.2,0.2-2.3,1-3
		C173.4,122.2,174.7,123.9,175.5,124.8L175.5,124.8z"/>
	<path class="st0" d="M80.1,124.3c0.3,0.9-0.4,1.4-1,1.9c-0.8,0.4-1.3-0.5-1.6-1c-0.3-0.9,0.4-1.4,0.9-1.8
		C79,123.4,79.7,123.6,80.1,124.3L80.1,124.3z"/>
	<path class="st0" d="M135.2,125.2c1.1,3.5,0.7,7.1-1.1,10.1c-0.1,0.7,0.2,1.9-0.8,1.8c-2.4-3.3-0.6-8,0.4-11.5
		C133.9,124.6,134.9,124.3,135.2,125.2L135.2,125.2z"/>
	<path class="st0" d="M211.7,126.9c1.3,2.5,1.3,5.8,0.2,8.4l-0.7,0.7c-1-2.1-1.8-4.1-2.1-6.4c0.4-1.6,1-3.1,1.1-4.8
		C211.4,124.5,211.3,126.2,211.7,126.9L211.7,126.9z"/>
	<path class="st0" d="M87.1,127.9c-0.5,1.1-2.1,1.3-3,2.1c-2.1,1.6-5.3,2-8,1.5c2.3-3.2,5.9-5.1,10.2-4.2
		C86.4,127.6,86.9,127.4,87.1,127.9L87.1,127.9z"/>
	<path class="st0" d="M50.3,131.1c3.3,2.3,4.2,5.6,6.2,8.8c0.3,0.4,1.2,0.5,0.8,1.2c-0.7,0.5-1.4-0.5-2.4-0.4
		c-3.4-1.5-5.5-5.3-5.5-9.3C49.4,131.1,50,131.1,50.3,131.1L50.3,131.1z"/>
	<path class="st0" d="M208.2,133.9c0.1,0.9-0.1,1.8-0.8,2.1c-1,0.3-1.8-0.3-2.1-1.1c-0.3-0.6,0.3-1,0.4-1.4
		C206.5,132.7,207.8,133.1,208.2,133.9L208.2,133.9z"/>
	<path class="st0" d="M245.9,138.7c0-1.7,0.4-3.3,0.6-4.9c0.3-0.5,0.4-1.2,0.4-1.9c2.1-2.9,6.5-2,9.9-1.7c1.3,0.7,3,0.6,4.5,1
		c0.6-0.5,1.5-0.5,2.2-0.5c2.9-1.5,1-4.9,1.2-7.5l-1.1-2.7c-0.3-0.5-0.5-1.2-0.7-1.8c-0.5-0.6-0.9-1.8-1.4-2.4c-1.5-4-4.5-6.2-7-9.4
		c-4.6-5.9-11.7-9.3-18.9-11.6c-7.1-2.4-14.2,0.7-20.6,3c-2-0.5-2.9-2.1-3.5-3.8c-0.4-3.4,0.4-6.7,1.7-9.5c0.3-2.3,1.8-4,2.4-6
		c1.6-5,3.3-10,3.7-15.5c0.2-3.3-2.3-5.7-4.8-7.1c-1.7-0.4-3.7-0.4-4.9,1c-1.2,2.4-3.7,4.1-5.8,5.2c-0.2,1.5,1.7,0.5,2.3,1.1
		c2,0.4,4.2-0.3,5.8,1c0.2,3.6-1.9,6.6-3.8,9.3c-3,4.5-6.3,9.1-8.1,14l-0.4-0.4l0.4,22c2.8,4.7,6.4,10.1,11.7,11.9
		c2.9,2.3,6.4,5.1,10.3,3.1c2.1-0.6,2.2,2.2,3.2,3.4c1.1,3.3-1.3,5.7-1.5,8.7l-2.3,5c-2.7,5.2-5.1,10.8-9.2,15.2
		c-1.3,0-2.1,1.4-3.5,1.5c-0.7,1-2.1,0.3-3,0.6c-2.8,1.2-6.7,0.5-8.6,3.1c0.2,0.3,0.4,0.4,0.7,0.5c5.4,0.1,11.5,0.5,17.3,0.2
		c0.7-0.3,1.3-0.9,1.4-1.7c-0.8-1.5,0.3-2.9,1-4.1c0.4-2.2,1.9-3.5,2.5-5.6c1.9-3.7,4-7.3,6.1-11l2.8-4.5c0.6-1.5,1.7-3.4,2.8-5
		c0.7-0.7,1.1-1.5,1.6-2.4c0.1-0.9-0.4-1.3-0.9-1.9c0.6-0.6,1.6-0.4,2.4-0.6c2.2,1.3,4.6,3.5,5,5.9l0.8,2.3l0.4,1.1l-0.2,3l0.4,2.8
		c0.4,4.3-0.4,8.7-0.8,13.1c-1.5,5.2-7.5,4.7-11.8,5.8c-1.1,0.7-3.1,0.4-3.1,2.2c5.2,1.1,11.3,0.5,16.8,0.4c0.9-0.4,1.1-1.2,1.5-2
		c0.2-1.2,1.3-2.2,1-3.4c-1-1.3-0.1-3.2-0.4-5c0.2-0.4,0.2-1.1,0-1.7c0.7-2.6,0.5-5.8,1.1-8.3L245.9,138.7L245.9,138.7z"/>
	<path class="st0" d="M289.9,135.2c-2.9,4-5.9,8.6-10.9,10.1c-0.4,0-0.7,0.2-0.9-0.3c3-3.2,4.7-8.3,9.4-9.5
		C288.2,135.2,289.2,134.8,289.9,135.2L289.9,135.2z"/>
	<path class="st0" d="M45.9,139.6c-0.4,0.4-0.1,1.2-0.9,1.3c-0.7,0.4-1.5-0.1-1.9-0.8c-0.4-0.9,0.4-1.8,1.2-2
		C45.1,138.4,45.8,138.7,45.9,139.6L45.9,139.6z"/>
	<path class="st0" d="M71.7,140.8c0.3,0.8-0.6,0.8-1.1,1c-3.8,1.3-7.6,0.1-10.3-2.6c0-0.4,0-0.7,0.4-0.8
		C64.4,139.3,68.6,138.6,71.7,140.8L71.7,140.8z"/>
	<path class="st0" d="M50.9,139.7c0.2,0.4,0.3,1,0.2,1.4c-0.5,0.8-1.3,1-2.2,0.8c-0.5-0.3-0.8-0.6-1.2-1.2c0.1-0.9,0.8-1.4,1.5-1.7
		C49.9,139,50.4,139.2,50.9,139.7L50.9,139.7z"/>
	<path class="st0" d="M134.6,140.1c0.2,0.8-0.5,1.4-1.1,1.7c-0.8,0.2-1.5-0.2-1.9-0.7c-0.3-0.6,0-1.5,0.6-1.7
		C133.1,139.2,134.3,139.3,134.6,140.1L134.6,140.1z"/>
	<path class="st0" d="M293.3,140.5c0.3,0.9-0.5,1.3-1.2,1.9c-0.5,0.3-1.2,0-1.7-0.3c-0.1-0.4-0.6-0.8-0.4-1.4
		c0.4-0.8,1.2-1.2,2.1-1.1C292.5,139.9,292.8,140,293.3,140.5L293.3,140.5z"/>
	<path class="st0" d="M299.2,140.1c0.5,0.8,0.1,1.4-0.4,2.1c-0.4,0.6-1.1,0.8-1.6,0.5c-0.5-0.5-1.3-0.8-1.3-1.6
		c0-0.7,0.8-1.3,1.3-1.5C298.1,139.2,298.5,140.1,299.2,140.1L299.2,140.1z"/>
	<path class="st0" d="M42.2,142.7c0.1,0.6-0.4,1-0.6,1.5c-0.4,0.2-0.9,0.5-1.4,0.4c-0.6-0.3-1.1-0.8-1.3-1.4
		c0.2-0.8,0.7-1.5,1.6-1.8C41.1,141.6,41.9,141.9,42.2,142.7L42.2,142.7z"/>
	<path class="st0" d="M230.4,142.7c0.2,0.4,0.1,0.8,0.1,1.2c-0.5,0.7-1.3,1.4-2.1,0.9c-0.5-0.5-1.2-1.1-0.9-1.9
		C228.1,141.9,229.7,141.6,230.4,142.7L230.4,142.7z"/>
	<path class="st0" d="M56.6,144.1c-0.2,0.6-0.4,1.3-1.3,1.3c-0.8,0.1-1.1-0.6-1.5-1c0-0.8-0.1-1.6,0.7-2.1
		C55.6,142,56.6,142.9,56.6,144.1L56.6,144.1z"/>
	<path class="st0" d="M48,144.3c0.3,0.9-0.4,1.5-0.9,2c-1.1,0.4-2-0.5-2.4-1.3c0.1-0.8,0.7-1.8,1.6-2.1
		C47.1,142.9,47.6,143.8,48,144.3L48,144.3z"/>
	<path class="st0" d="M236.3,144.1c0.2,0.9-0.1,1.8-1,2.2c-1.1,0.4-2-0.5-2.4-1.3c0.4-0.7,0.5-1.7,1.6-1.9
		C235.3,143.1,235.8,143.4,236.3,144.1L236.3,144.1z"/>
	<path class="st0" d="M52.2,144.4c0.3,0.6-0.3,0.9-0.4,1.3c-0.4,0-0.7,0.5-1.2,0.4c-0.4-0.5-1.1-0.6-1.2-1.3
		c-0.1-0.9,0.5-1.4,1.2-1.7C51.4,143.1,51.9,143.7,52.2,144.4L52.2,144.4z"/>
	<path class="st0" d="M288.4,145.2c-0.3,0.7-0.8,1.1-1.5,1.4c-0.7,0.2-1.2-0.5-1.7-0.7c-0.4-0.4-0.3-1.2-0.1-1.6
		C286,142.7,288.4,143.4,288.4,145.2L288.4,145.2z"/>
	<path class="st0" d="M295.2,145.5c-0.3,1-1.3,1.4-2.1,1.5c-0.8-0.4-1.7-1-1.1-2.1c0.4-0.4,0.5-0.7,1.1-0.8
		C294.1,143.8,294.9,144.6,295.2,145.5L295.2,145.5z"/>
	<path class="st0" d="M252.7,146.1c0.4,1.2-0.6,1.5-1.3,2.1c-0.6-0.1-1.2-0.4-1.7-0.7c-0.2-1,0.3-1.9,1.3-2.3
		C251.7,145.2,252.2,145.5,252.7,146.1L252.7,146.1z"/>
	<path class="st0" d="M228.1,147.2c0.4,0.2,0.3,0.8,0.2,1.1c-0.5,0.4-1.2,1.3-2.1,0.7c-0.6-0.4-1.1-0.9-0.9-1.7
		C225.8,146.3,227.7,146.2,228.1,147.2L228.1,147.2z"/>
	<path class="st0" d="M233.1,147.9c0.1,0.7-0.1,1.1-0.7,1.4c-0.6,0.6-1.3-0.1-2-0.3c-0.2-0.4-0.4-0.9-0.1-1.3
		c0.3-0.4,0.7-0.6,1.2-0.7C232.2,147.1,232.9,147.1,233.1,147.9L233.1,147.9z"/>
	<path class="st0" d="M81.5,147.9c0.5,0.5-0.1,1.2-0.2,1.7c-0.4,0.5-1.4,1-2.2,0.4c-0.9-0.4-0.8-1.5-0.6-2.2
		c0.5-0.2,0.5-0.8,1.2-0.8C80.5,147.1,81,147.5,81.5,147.9L81.5,147.9z"/>
	<path class="st0" d="M262.3,148.3c0.2,0.9-0.7,1.3-1.3,1.4c-1.1,0.4-1.6-0.4-2.1-1.2c0-0.5,0.5-0.9,0.7-1.3
		C260.9,146.7,261.7,147.6,262.3,148.3L262.3,148.3z"/>
	<path class="st0" d="M257.5,148.3c0.4,0.9-0.6,1.4-1,1.8c-0.6,0.3-1.4,0.2-2-0.4c-0.4-0.3-0.4-0.8-0.4-1.4c0.5-0.4,0.8-1,1.4-1.2
		C256.3,147.2,257.1,147.7,257.5,148.3L257.5,148.3z"/>
	<path class="st0" d="M297.8,149.4c0.2,1.3-1.4,0.6-2.1,1c-3.8,2.2-8.6,0.5-12.2-0.8c0.3-1.2,1.6-0.7,2.3-1.2
		c3.8-2.4,7.8,0.5,11.6,0.7L297.8,149.4L297.8,149.4z"/>
	<path class="st0" d="M53.2,148.3l-0.4,0.6c-3.3,2-7.6,3.3-11.5,2.1l-0.4-0.5c3.3-2.4,7.7-3.1,12-2.4L53.2,148.3L53.2,148.3z"/>
	<path class="st0" d="M271.4,148.9c0,0.7-0.4,1.3-0.9,1.7c-0.9,0.3-2.1,0-2.3-1c-0.3-0.7,0.4-1.4,1.2-1.7
		C270,147.9,271,148,271.4,148.9L271.4,148.9z"/>
	<path class="st0" d="M69.2,149.3c-0.4,0.7-0.2,1.4-1.1,1.8c-0.9,0.4-2-0.5-2.2-1.2c-0.3-1,0.4-1.3,0.9-1.7
		C67.8,147.7,68.6,148.5,69.2,149.3L69.2,149.3z"/>
	<path class="st0" d="M62.8,149.7c0.3,0.6-0.3,1-0.4,1.4c-0.4,0.5-1.3,0.5-1.8,0.3c-0.6-0.5-1.3-1.2-1-2.2c0.5-0.5,0.8-0.7,1.4-1
		C61.9,148.5,62.7,148.8,62.8,149.7L62.8,149.7z"/>
	<path class="st0" d="M277.7,151.8c-0.1,0.8-0.7,1.4-1.4,1.6c-0.7,0.1-1.3-0.5-1.7-0.9c-0.3-0.5-0.2-1.3,0.4-1.7
		c0.2-0.3,0.8-0.3,1.2-0.4C276.8,150.5,277.5,151.1,277.7,151.8L277.7,151.8z"/>
	<path class="st0" d="M56.2,150.8c0.3,0.7-0.4,1-0.4,1.5c-0.3,1.5-1.3,2.5-2,3.9c-1.7,2.1-4.1,2.1-6.5,2.7l-0.4-0.7
		c2.6-3.3,5.4-5.9,9-7.6L56.2,150.8L56.2,150.8z"/>
	<path class="st0" d="M273.2,152.8c0.2,1.1-0.7,1.3-1.3,1.7c-0.8,0-1.4-0.4-1.8-1.1c-0.3-1,0.6-1.4,1.2-1.8
		C272.1,151.5,272.9,152.1,273.2,152.8L273.2,152.8z"/>
	<path class="st0" d="M66.5,152.8c-0.1,0.2,0.1,0.4,0.3,0.4c-0.1,1-0.8,1.3-1.3,1.7c-0.8,0-1.4-0.3-2-0.9c-0.4-0.8,0-1.8,0.9-2.1
		C65.2,151.9,66.2,152,66.5,152.8L66.5,152.8z"/>
	<path class="st0" d="M289.6,155.5c0.9-0.1,1.1-1.2,2.1-1.4c0.9-0.2,1.7,0.4,2.1,1c0.4,1.1-0.4,1.6-1.2,2.1c-0.6,0.4-2-0.5-1.9,0.6
		c0.6,0.4,1.2,1.1,1.3,1.8c-0.2,0.4-0.8,0.3-1.1,0.1c-2.6-1.1-5.4-2.9-6.4-5.6c-0.4-0.8-2.1-1.4-1.1-2.2
		C286.1,151.8,288.2,153.9,289.6,155.5L289.6,155.5z"/>
	<path class="st0" d="M298.2,152.7c0.4,0.4,0.3,1.3-0.1,1.7c-0.4,0.9-1.8,0.5-2.6,0.4c-0.4-0.4-0.9-0.9-0.7-1.6
		c0.4-0.5,0.7-0.9,1.3-1.2C297,151.9,297.6,152.3,298.2,152.7L298.2,152.7z"/>
	<path class="st0" d="M265.8,157.6c0.8,1,1.6,2.5,2,3.6c-0.2,0.3-0.6,0.2-0.8,0.2c-3-1.7-7-3.6-8.1-7.2c-0.3-0.4-1-0.8-0.9-1.4
		c2.3-0.5,4.6,1.3,6.2,2.5C264.7,156.1,265.4,156.6,265.8,157.6L265.8,157.6z"/>
	<path class="st0" d="M61.5,154.2c0.4,0.8-0.4,1.4-0.8,1.8c-1,0.2-1.5-0.2-2.1-0.7c-0.6-1,0.5-1.8,1.3-2.2
		C60.6,153,61,153.7,61.5,154.2L61.5,154.2z"/>
	<path class="st0" d="M276.9,156.2c0.1,0.5-0.6,0.9-0.9,1.3c-0.7,0.1-1.4,0.4-2.1-0.3c-0.2-0.5-0.6-1.2-0.1-1.6
		C274.9,154.3,276.3,155.3,276.9,156.2L276.9,156.2z"/>
	<path class="st0" d="M299.2,157.5c0.3,1.1-0.5,1.8-1.3,2.2c-0.9,0.3-1.6-0.4-2.1-0.8c-0.4-0.5-0.1-1.1,0-1.7c0.6-0.5,1.4-1,2.3-0.6
		C298.5,156.9,298.8,157,299.2,157.5L299.2,157.5z"/>
	<path class="st0" d="M237.4,169.9c0,1.1-2,0.8-2.8,1.6c-2.8,1.4-6.1,1.4-9.4,1.4v-0.5C228.4,169.6,233.1,168.6,237.4,169.9
		L237.4,169.9z"/>
	<path class="st0" d="M107,173.8c-0.1,0.8-0.5,1.3-1.3,1.5c-0.6,0-1.3-0.4-1.5-0.9c-0.4-1.1,0.5-1.5,1.2-2
		C106.1,172.5,106.8,173.1,107,173.8L107,173.8z"/>
	<path class="st0" d="M235.8,174.8c-0.2,0.8-0.4,1.7-1.3,2.1c-0.8,0.2-1.3-0.3-2-0.6c-0.4-0.4-0.2-1-0.3-1.4
		C232.9,173.1,235.2,173.1,235.8,174.8L235.8,174.8z"/>
	<path class="st0" d="M253.6,175.1c-2.2,1.4-4.7,3.2-7.7,3.2l-4.8-0.1l-0.5-0.4c3-3.6,8.3-3.6,13-3.2V175.1L253.6,175.1z"/>
	<path class="st0" d="M82.5,177.3c0,0.8-0.4,1.4-1.2,1.7c-0.9,0.2-1.5-0.2-1.9-0.8c-0.4-0.8,0-1.6,0.7-2.1
		C81.2,175.5,82.1,176.6,82.5,177.3L82.5,177.3z"/>
	<path class="st0" d="M87,178.2c0.3,0.5-0.2,0.7-0.4,1.2c-0.5,0.3-1.2,0.4-1.7,0c-0.6-0.4-0.8-1-0.5-1.5c0.3-0.5,0.8-0.5,1.1-0.8
		C86.1,177.3,86.7,177.6,87,178.2L87,178.2z"/>
	<path class="st0" d="M52.7,187.3c-0.9,1.1-2.3-0.3-3.3-0.8c-3.1-1.8-3-5.3-6.2-7.4c0.4-1.1,1.2,0.1,1.8-0.1c0.5,0.4,1.3,0.7,1.9,1
		C50,181.7,50.7,184.6,52.7,187.3L52.7,187.3z"/>
	<path class="st0" d="M313.2,152.4c-1.4-2.6-3.8-3.7-6.7-3.7c-2.3,0.2-4,1.7-5,3.7c-0.5,2,0.2,3.8,1.7,4.9c0.6,0.3,1.4,0.2,1.8-0.4
		c0.4-1.2-0.8-1.2-1-2.1c-0.4-1.3,0.1-2.3,1-3.1c0.9-0.9,2.4-0.5,3.5-0.5c1.1,0.7,2.1,1.4,2.7,2.6c0.5,1.5,0.5,3.2,0,4.8
		c-1,2.2-3.2,4-5.5,4.5c-7.4,1.1-88.8,0.7-88.8,0.7c-9.6,0.9-20.5-1.8-28.7,3.2c-3.8,1.8-5.6,5.9-6.6,9.6c-2.4,2.2-5,4.7-7,7.1
		l-0.3-0.3c0.4-2.2,1.4-4.1,1.9-6.2c1.3-1.8,1.3-4.2,2.3-6.2c3.4-5.5,6.6-11.1,11.9-14.9c2.2-3,6.2-2.4,9.6-2.4
		c3.7,1.7,8,2.2,12.4,1.8c0.2-0.2,0.3-0.4,0.3-0.6c-1.3-1.2-3.3-1.6-4.7-2.8c-3.6-1.7-7,0.5-10.7,0.3c-0.2-0.2-0.4-0.3-0.3-0.5
		c3.4-2.5,7.2-4.3,11.1-5.9c3.1-1.7,6.4-2.6,9.7-3.9c1.3,0,2.6-1.2,3.8-0.4l4.7-1.3c0.2,0.1,0.4,0.4,0.7,0.3c4-1.4,9.1-0.1,13.7-0.2
		l0.6,0.5l4.3,1.1c1.6,0.2,2.3,2.1,4,2.2c0.9-1.3-1-1.8-1.4-2.6c2-0.4,4.2,0.1,6,0.9l-0.9,1c-0.5,1,0.3,1.7,1.1,2.1
		c0.6,0.2,1.1-0.3,1.5-0.4c1.2-0.8-0.1-1.6,0.3-2.3c6.6,1.2,13,2.8,19,5.4c1.7,0.5,3.3,1.8,5.2,1.7c-1.9-1.7-4.5-2.6-6.8-3.6
		c-1.5-0.9-3.7-1-4.8-2.2c0.3-0.5,0.9-0.3,1.2-0.6c3-0.4,5.6-2.6,7.8-5c0.2-0.5,1.2-0.4,1.1-1.1c-0.8-0.9-2.1,0.3-3.2,0.2
		c-3.8,0.7-5.4,5.1-9.1,5.9c-4.6-1.1-9.2-2.2-13.8-3.3c-2.2-0.4-4.6-0.5-6.7-1.4l-5-0.4h-9.1c-0.1-0.2-0.4-0.3-0.3-0.5
		c3.2-0.8,6-2.7,9.2-3.5l23.9-11c2.5-2.3,4.7-4.8,6.8-7.4c0.1-0.7-0.4-1.4-1-1.7c-0.6-0.3-1.3-0.2-1.8,0.4c-1.1,0.8,0,1.8,0,2.8
		c-1.1,1.4-2.8,2.7-4.1,3.5c-0.4-0.1-24.7,11.1-24.7,11.1c-3.6,1.5-7.1,3.2-10.9,4l-5.2,0.8c-0.4,1.1-1.3,1.7-2.2,2.1
		c-1.4,0.3-2.6,1.2-4.1,1.2c-11.6,4.5-23.7,9.3-32.9,18.5c0.5-1.1,0.8-2.4,0.9-3.8c-0.2-1.3-0.1-2.9-1-4c-0.2-0.5-0.9-1.9-0.7-2.5
		l-1.3,0.8c-0.8,2-1.5,5.6-0.7,7.7c0.3,1.6,1.6,3.5,0.4,4.9c-4.3,5.2-6.7,11.5-9.6,17.5c-1.1-0.2-1.6-1.2-2.1-2.2
		c3-3.9,5.5-8.2,6.3-13.1c0.6-0.5,0.2-1.6,0.8-2.2c-0.2-1.4,0.8-2.9,0.1-4c0.6-2-2.6-3.8-0.6-5l-1.7,0.8c-3.8,5,2,12.6-2.4,17.5v0.4
		c-1.3,1.6-1.9,3.2-3.6,4.3c-2.1-0.9-2.9-3.3-4.2-5.1c-2-1.9-2-5.8-0.8-8.4c0.8-2.6-0.5-4.9-0.8-7.2l-0.9-0.5
		c-2.1,2.8-2.9,7.2-1.3,10.5c0.9,1.6,1,3.9,2.3,5.2c0.8,2.6,2.4,4.3,3.8,6.7c0.4,0.9-0.5,1.1-1,1.5c-1-0.6-0.8-2.1-1.7-2.7
		c-3-6.3-6.8-11.3-11.4-16.5c-0.2-0.8-1-1.5-0.5-2.4c1.7-1.6,2.1-4.8,1.2-6.8c-0.2-0.4-0.7-1-0.6-1.4l-1.3-1.1
		c0.2,3.2-1.9,5.9-1,9.3v0.2c-9.2-6.9-19.4-13.1-29.7-18l-0.8,2.3c2.6,0.7,9.6,4.9,9.6,4.9c3.1,1.2,6,3.1,8.9,4.8
		c12.2,6.8,20.2,17.9,25.6,30.3c0.1,1,1,2.1,0.4,3.1c-1.9-2.9-4.6-4.5-6.8-6.8c-0.6-4.2-3.1-8.3-6.8-10c-1.3-2-4.2-2.2-6.4-2.8
		l-32.5-0.2c-26.5-0.4-50.6,0.8-76.8,0.4c-3.7-0.4-8.1-1.6-9.2-5.5c-0.7-1.3-0.7-3.7,0-4.9c1-1.7,2.8-2.3,4.6-2.4
		c1.4,0.2,2.4,1.5,3,2.5c0,1.2-1,2.2-1.4,3.2c0.1,0.4,0.4,1.1,1.1,0.8c1.2-0.4,2.1-1.7,2.3-2.9c0.1-0.6,0.4-1.5-0.3-2
		c-0.5-1.9-2.5-3.2-4.2-3.7c-2.2-0.2-4.6,0.4-6.1,2.1c-2.1,1.8-2.1,5-1.4,7.6c1.4,4,5.6,6.7,9.7,7.2l86.9,0.4c8.5,0.4,18-1,26.6,0.7
		c3.1,1,6.4,3.3,7.2,6.8c-0.1,0.2-0.4,0.1-0.6,0.1c-7.1-4.6-16.4-6.3-25.4-5.2c-3.6-0.2-6.8,1.2-10,2.1c-1.7,0.4-3.3-0.5-4.4-1.4
		c-3.2-2.9-8.8-2.7-13-1.6c0,0.3-0.1,0.5,0.1,0.6c4.4-0.4,7,3.4,10.9,3.9c0.9,0.2,1.6-0.8,2.4-0.1c-4.1,2-8,4.3-12.4,5.6
		c-1.3-0.3-2.1-1.5-3.1-2.2c-1.7-1.9-4.8-1.1-7.1-1.3c-0.8,0.2-1.5-0.4-2.1,0c0.7,1.4,2.3,2.2,3.8,3c2.2,1,4.8-0.1,6.9,1.3
		c-0.5,0.6-1.3,0.8-1.9,1.3c-4.2,1.6-7.7,5.4-12.3,5.1c-4.9,0.5-9.9-0.9-13.2-4.3c-1.4-3.5-5.1-5.4-9-5.2c-0.3,0.2-0.6,0.2-0.5,0.6
		c2,1.2,3.5,3.5,5.5,4.9c1.3,1.5,3.7,0,4.8,1.7c1.7,1.2,3.8,2.2,5.8,2.5c1.4,0.6,3,0.9,4.6,1.3l-0.6,0.4c-8.1,2.7-17.5,3-26.6,2.6
		c-2.7-0.1-5.3-0.9-8-0.8c0.4,0.5,1.3,1,2.1,1.3c-0.7,0.4-1.5,0.6-2.4,0.7c-1.1,0.3-2.3,0.4-3.4,0.9c-1.4-0.1-2.7,0.4-3.8,0.9
		c-1.5,1.6-3.3,3.3-5.1,4.1c0,0.4-0.1,0.9,0.4,0.9c1.7-0.7,3.8-0.2,5.5-0.9c2.9-0.3,4.6-3.5,7-4.9c2.5-2,6.1-1.5,9.1-1.1
		c1.8,0.4-0.2,1.2,0.4,2.3c0.7,0.6,1.3,1.3,2.3,1.1c0.2-0.2,0.4-0.4,0.6-0.4c0.5-0.7,0.4-1.5,0.1-2.3c1.3-0.8,3,0.1,4.3-0.4
		c3.4-0.1,6.8-0.8,10.1-0.9c0.5-0.1,1.2-0.6,1.7-0.1c-0.3,0.7-1.2,0.8-0.8,1.8c0.2,0.8,1.1,1.2,1.8,1.4c0.9-0.4,1.7-1,1.3-2.2
		c-0.2-0.6-0.9-0.7-1.3-1c1.9-0.9,4-1.2,5.9-2.1c1.3-0.3,2.6-0.7,3.8-1.3c1.2-0.1,2.1-1.2,3.2-0.7c-0.4,1.5-1.1,3-1.9,4.3
		c-1.4,4.8-2.5,11.1,0,15.7c0.3,0.1,0.4-0.1,0.5-0.2c-1.9-4.8-0.8-10.3,0.8-14.8c1.3-7.7,9.1-9.9,14.7-12.8l0.3,0.4
		c-1.5,4-3.8,7.7-3.4,12.5c0.2,0.8-0.4,1.6,0,2.2c1.5-0.8,2.5-2.6,3.3-4.1c0.6-4-1.7-9.1,2.4-12.1c7.3-2.9,14.2-6.7,22.7-6.7
		c0.3,0.3,0.9-0.2,1,0.4c-1.8,2-4.4,3.9-5.2,6.3c-2.9,4-2.8,10.7-1.5,15.6c0.8,2.8-1.6,4.3-2.8,6.5c-0.6,0.8-0.7,2.1-1.2,3l1.8,0.2
		c1.5-1.6,2.9-3.6,3-5.9c0.2,0.9,1,1.6,1.7,1.8c0.6-1-0.5-1.7-0.6-2.7c1.4-0.8,2.1,1,3.2,1.4c1.9,0.5,3.5,1.3,5.4,1.3l0.6-0.6
		c-2-3.1-5.9-3.6-9.3-3.8c-1.8-3-1.8-6.7-1.6-10.3c0.4-1.9,0.7-3.9,1.8-5.6c0.4-1.3,1.7-2.4,2.5-3.4c1.6-1.5,3.7-2.6,5.6-3.1h0.3
		c0,0.2,0.1,0.3,0.1,0.3c-2.4,1.9-2.7,4.5-4.1,6.8c-1.5,2.2-2.2,5.3-0.8,7.8c0.5,1.2,0.3,3,1.5,3.8c1.2-1.6,1.3-3.7,1.9-5.5
		c-0.3-3-2.1-5.8-0.4-8.6c0.9-2.2,2.8-3.2,4.8-4c4.9-0.5,9.2,2.1,13.5,4c0.9,0.6,2.4,1.2,2.6,2.4c-0.1,2.4-1.4,4.9-3.3,6
		c-2.4,1.4-5.9,1.6-8.1-0.1c-1.3-1.4-1.9-3.7-1.4-5.5c1-1.1,2.3-2,3.9-1.4c0.9,0.5,1.7,1.4,2.9,0.8c0.4-0.3,0.6-1,0.4-1.4
		c-1-0.5-1.3-1.9-2.7-2.1c-1.7-0.3-3.8-0.2-4.9,1c-1.9,1.6-2.6,4.1-2.1,6.3c0.6,2.9,2.8,4.9,5.5,5.8c4.1,1,8.4-0.3,11-3.8
		c1.1-1.2,1.3-2.4,2-3.9c4.3,2.6,7.5,7.2,9.2,11.9c0,1.5,0.4,3.2,0.1,4.5l3.1,0.3c-0.3-0.7,0-1.5,0.3-2.2c1.2-5.9,4.8-10.9,9.2-14.8
		c1.5-0.9,1.2,1.2,1.5,1.8c1.3,3.4,4.5,5.8,7.8,6.8c3.8,0.6,7.3-0.3,9.6-3.2c1.2-2.2,2.6-5.3,0.6-7.6c-1.3-1.5-2.9-2.3-4.9-2.3
		c-2.3,0-3.8,1.6-4.9,3.3c0,0.7-0.1,1.5,0.5,1.9c0.4,0,1.1,0.1,1.3-0.5c0.2-1.4,1.3-2,2.4-2.7c1-0.5,2.1,0,2.9,0.5
		c1,0.8,1.2,2.2,1.3,3.5c-0.2,1.7-1.3,3.5-2.9,4.2c-2.6,1.3-6.3,0.7-8.6-0.8c-1.1-1.2-1.7-2.5-2.5-4c-0.2-1.4-0.7-2.7,0-4.1
		c3.9-2.3,8-4,12.8-4.5c1.9,0.4,3.5,1.6,4.7,3c4.1,4.2-0.9,10.3,2,14.9c1.1-0.2,1.1-1.6,1.5-2.5c1.3-3.2-0.4-6.7-1.2-9.9
		c-1.1-2-1.7-3.7-3.4-5.3c0.4-0.2,0.6-0.2,1.1-0.2c1.9,1.3,3.9,2.7,5.5,4.7c2.6,4.2,3.9,9.3,3.5,14.8c-0.7,2.7-3.6,4-5.8,4.9
		c-0.9,0.7-2,1.8-2.4,2.9c1.1,0.6,2.6,0,3.7-0.5c1.7-0.6,2.7-2.8,3.8-3.8c0.2,0.1,0.1,0.4,0.2,0.5c0.1,1-0.4,2.3,0.4,2.6
		c0.4-1.3,0.5-3.1,0.8-4.6c1.2,1.3,1.3,2.9,1.7,4.5c0.8,1.6,2.1,3.8,4.3,4.1c0.5-0.8-0.1-1.6-0.3-2.3c-0.3-2.3-2.1-3.4-3.4-5
		c-3.1-4.3-1.7-11.1-4.1-15.9c-0.9-2.6-2.8-4.5-4.8-6.7l0.4-0.4c4.4-0.1,8,1.3,12.1,2.2c4.9,2.4,12.1,1.9,14.4,8.3
		c1,3.6,2.6,6.9,5.1,9.7l0.3-0.2c0.5-0.9,0.5-2.4,0-3.3c-0.5-4.5-4.5-5.6-6.5-9.4l0.3-0.4c2.1,0.6,4.4,1.2,6.5,2.1
		c7.2,2,12.2,9,13,16.3c0,5.8-1.1,10.5-3.3,15.4c-0.3,0.7-1.5,1.5-0.7,2.2c1-0.7,1.2-1.9,1.7-2.7c2.9-4.9,4.5-11.8,2.9-18.1
		c-0.1-1.2-1.4-2.1-0.8-3.2c0.4,0.5,1,0.6,1.5,0.8c0.5-0.4,1.3-0.4,1.7-1c0.1-0.5,0.4-1.2,0-1.6c-0.5-0.8-1.7-0.8-2.6-0.6
		c-0.4,0.5-1,1.3-1.1,2c-0.9-1.5-1.8-3.5-3.2-4.8l0.2-0.3c4,1.3,7.7,3.3,11.8,4.4c0.9,0.5,1.9,1,3.1,1c3.5,1.3,7.3,1.9,11,2.8
		c2.7-0.3,4.9,1,7.6,0.4V194l-0.1,0.1c-1-1.3-3.1-0.1-4.3-1c-6.2-0.6-12.1-2.2-17.6-4.4c0.1-0.3,0.4-0.2,0.7-0.2
		c0.9-0.5,1.5-1.3,1.4-2.3c-0.4-0.6-1.2-1-2.1-1c-0.5,0.3-1.3,0.9-1.3,1.5c0.1,0.7,0.7,1.5,1.3,1.7c-0.2,0.2-0.5,0.1-0.8,0.1
		c-2.8-1.3-5.5-2.4-8.1-3.7c-1-0.2-1.8-1-2.8-1.2c-2.1-1-4.1-2-6.2-2.8c-5.7-3-12.1-4.6-18.1-6.8c-1.3-0.4-2.6-0.7-3.8-1.1
		c-2.2-0.6-4.5-1.2-6.7-1.8c-7.6-1.9-17.8-2.1-24.4,2.1c-1.1-0.4-1.7,1.3-2.2,0.3c1.9-5,7.3-6.6,12.2-6.7
		c35.8-0.4,69.4-0.6,104.7-1.2c4.1,0,8.1-1.4,10.3-5.1C314.1,158.5,314.4,154.8,313.2,152.4L313.2,152.4z M171.1,185.6
		c-0.4,1.1-1.1,2-1,3.2l-0.4,0.2c0.3-1.4-1.1-2.2-0.7-3.6c-0.7-1.1-0.7-2.4-1.3-3.6c-0.8-1.4,0.7-2.1,1.3-3.1
		c1.3,0.5,1.7,1.7,2.6,2.8C172.2,182.9,171,184.1,171.1,185.6L171.1,185.6z"/>
	<path class="st0" d="M268.1,179.9c0,0.3,0.5,0.4,0.4,0.8c-3.1,2.8-7.5,3.6-12,3.8c-0.4,0.1-0.7,0.4-1.2,0.3
		c-0.3-0.2-0.4-0.4-0.2-0.6C258.3,180.6,263.3,178.8,268.1,179.9L268.1,179.9z"/>
	<path class="st0" d="M253.7,181.3c0.4,1.3-0.4,2-1.4,2.4c-1-0.1-1.5-0.7-2-1.4c-0.3-0.7,0.4-1.1,0.6-1.5
		C251.6,180.1,253.3,180.1,253.7,181.3L253.7,181.3z"/>
	<path class="st0" d="M83.8,181.5c0.2,0.6,0.1,1.4-0.4,1.9c-0.4,0.4-1.2,0.5-1.6,0.4c-0.6-0.1-1-0.8-1.2-1.3c0-0.8,0.4-1.3,1.2-1.7
		C82.5,180.8,83.3,180.7,83.8,181.5L83.8,181.5z"/>
	<path class="st0" d="M67.8,187.4v0.6c-2.1,0.5-4.2-0.1-5.8-1.4c-1.3-1.8-2.7-3.6-4.7-4.5c0-0.3-0.5-0.6,0-0.8
		C61.8,181.3,64.4,184.9,67.8,187.4L67.8,187.4z"/>
	<path class="st0" d="M281.7,181.4c-2.1,3.1-3.8,6.8-7.5,8.2c-0.6,0-1.2,0.9-1.7,0.3c1.4-3.4,4.5-7.1,8-8.6
		C280.8,181.3,281.3,181.2,281.7,181.4L281.7,181.4z"/>
	<path class="st0" d="M89,182.5c0.1,1-0.6,1.2-1.3,1.7c-0.7,0.1-1.1-0.5-1.5-1c-0.4-0.9,0.4-1.3,0.9-1.7
		C87.9,181.3,88.7,181.9,89,182.5L89,182.5z"/>
	<path class="st0" d="M292.9,183c-0.8,1.2-0.4,2.9-1.2,4.1c-1.8,2.1-3.3,4.4-6.2,4.9c-0.4-0.9,0.6-1.8,1.1-2.6
		c1.3-2.7,3-5.8,5.9-6.9L292.9,183L292.9,183z"/>
	<path class="st0" d="M40.1,183.8c0.3,0.6,0.5,1.3,0,2c-0.5,0.4-1.3,0.6-2.1,0.4c-0.8-0.4-1.1-1.4-0.7-2.2
		C37.9,183.2,39.5,182.8,40.1,183.8L40.1,183.8z"/>
	<path class="st0" d="M35,184.9c0.1,0.5,0.4,0.8,0.3,1.3c-0.3,0.5-0.7,1-1.2,1.1c-1,0.2-1.6-0.4-2.1-1.2c-0.1-0.8,0.2-1.5,0.9-1.9
		C33.7,183.8,34.6,184.3,35,184.9L35,184.9z"/>
	<path class="st0" d="M45.6,185.5c0.2,0.7,0.4,2-0.7,2.2c-1.3,0.5-2-0.4-2.7-1.1c0-0.8,0.4-1.4,1.1-1.8
		C44.2,184.7,45,184.7,45.6,185.5L45.6,185.5z"/>
	<path class="st0" d="M60.2,186.6c-0.1,0.6,0.1,1.5-0.6,1.7c-0.4,0.5-1.3,0.3-1.7,0.2c-0.2-0.5-1.2-1-0.6-1.6c0.4-0.5,0.7-0.7,1.3-1
		C59.1,186.2,59.9,185.9,60.2,186.6L60.2,186.6z"/>
	<path class="st0" d="M301.5,187.3c-0.3,0.6-0.6,1.4-1.3,1.4c-0.8-0.1-1.6-0.2-2.1-1c-0.4-1,0.4-1.5,1.2-1.8
		C300.2,185.9,301.3,186.3,301.5,187.3L301.5,187.3z"/>
	<path class="st0" d="M285.2,187.7c0.1,0.7-0.7,1.3-1.1,1.5c-1.3,0.5-2.3-0.4-2.8-1.4c0.2-0.8,0.8-1.3,1.5-1.6
		C284,186.2,284.6,186.8,285.2,187.7L285.2,187.7z"/>
	<path class="st0" d="M296.2,187.5c0,0.6-0.4,1.3-0.8,1.5c-0.7,0.3-1.6,0.2-2.1-0.4c-0.8-0.7-0.2-1.4,0.4-1.9
		C294.4,186.4,296,186.5,296.2,187.5L296.2,187.5z"/>
	<path class="st0" d="M37.8,189.1c0.2,1-0.2,1.9-1.1,2.3c-0.8,0-1.7-0.4-2-1.3c-0.1-0.8,0.2-1.6,0.9-1.9
		C36.6,187.9,37.3,188.4,37.8,189.1L37.8,189.1z"/>
	<path class="st0" d="M280.7,190.1c0.3,1-0.3,1.9-1.3,2.3c-0.7,0.2-1.2-0.2-1.7-0.6c-0.4-0.4-0.8-1.4-0.1-1.9
		C278.4,188.5,280.2,189.1,280.7,190.1L280.7,190.1z"/>
	<path class="st0" d="M85.9,191.1c0.4,1-0.7,1.2-1,1.7c-0.4,0.2-1.1,0.3-1.3-0.1c-0.4-0.5-1-1.1-0.7-1.9c0.4-0.4,0.6-0.7,1.2-0.9
		C85,189.6,85.4,190.5,85.9,191.1L85.9,191.1z"/>
	<path class="st0" d="M299.9,191.7c0.2,0.6-0.4,0.9-0.4,1.3c-0.5,0.5-1.4,0.5-2.1,0.4c-0.8-0.5-0.8-1.2-0.8-2c0.5-0.4,0.6-0.8,1.3-1
		C298.6,190.4,299.6,190.8,299.9,191.7L299.9,191.7z"/>
	<path class="st0" d="M294.4,192c0.4,1.1-0.6,1.6-1.3,1.9c-0.4,0.1-0.9-0.2-1,0.4c2.3,1.2,3.8,3.1,5.5,4.8v0.7
		c-3.2-0.1-6.5-0.9-8.8-3.4c-0.6-0.4-1.7-0.4-2.4-1.1c1.2-1.2,3.3-0.7,4.9-0.8c1.2-1.3-1.3-2.2,0.2-3.2c0.5-0.1,0.9-0.6,1.6-0.5
		C293.6,191,294,191.4,294.4,192L294.4,192z"/>
	<path class="st0" d="M257.8,192c0.2,0.5-0.4,1-0.4,1.4c-0.5,0.5-1.3,0.6-2,0.4c-0.4-0.6-1.2-1.2-0.9-2.1
		C255.2,190.4,257.5,190.7,257.8,192L257.8,192z"/>
	<path class="st0" d="M58,195.2c-0.3,0.8-0.6,1.3-1.5,1.4c-0.7-0.1-1.3-0.4-1.6-1.1c-0.1-0.6,0.4-1,0.4-1.4
		C56.3,193.3,58.1,193.8,58,195.2L58,195.2z"/>
	<path class="st0" d="M65.3,194c0,1.3-1.3,2-1.8,3.2c-1.3,3-3.8,5.7-7.1,5.9c-0.4-0.8,1.2-1.8,1.5-2.6c1.4-3.1,4.3-4.7,6.9-6.6H65.3
		L65.3,194z"/>
	<path class="st0" d="M255.7,195.3c0.1,1-0.8,1.7-1.5,2.1c-0.8,0.3-1.4-0.4-1.9-0.7c-0.7-0.7-0.3-1.4,0.1-2.2
		C253.4,193.4,255,194.3,255.7,195.3L255.7,195.3z"/>
	<path class="st0" d="M261.2,195.9c-0.1,1-0.7,1.7-1.6,2c-0.2-0.3-0.6-0.1-0.9-0.2c-0.6-0.4-1.2-0.9-1.2-1.6
		c0.4-0.5,0.6-1.2,1.3-1.3C259.6,194.7,260.9,194.8,261.2,195.9L261.2,195.9z"/>
	<path class="st0" d="M79.1,195.8c0.1,1-0.6,1.5-1.3,1.9c-0.8,0.1-1.3-0.4-1.7-1.1c-0.2-0.8,0.6-1.3,1.1-1.8
		C78.2,194.5,78.5,195.3,79.1,195.8L79.1,195.8z"/>
	<path class="st0" d="M85.3,196.2c-0.3,0.8-0.8,1.4-1.7,1.5c-0.6-0.2-1.3-0.4-1.6-1.1c-0.1-0.9,0.6-1.3,1.3-1.8
		C84.1,194.8,85.1,195.2,85.3,196.2L85.3,196.2z"/>
	<path class="st0" d="M280.4,202.5c0.4,0.4,1.2,0.8,1.1,1.4c-1.4,0.6-2.6-1-3.9-1.3c-2.1-2.2-3.8-4.5-4.6-7.2
		c0.8-0.8,1.7,0.2,2.4,0.5C277.4,197.6,279.3,199.9,280.4,202.5L280.4,202.5z"/>
	<path class="st0" d="M283.7,196.2c0.3,0.6,0.2,1.4-0.2,2c-0.5,0.9-1.7,0.7-2.5,0.5c-0.4-0.5-1.3-1.3-0.7-2.1
		c0.3-0.7,1.1-0.9,1.7-1.2C282.7,195.4,283.1,195.9,283.7,196.2L283.7,196.2z"/>
	<path class="st0" d="M93.5,198.5c0.1,0.7,0.3,1.8-0.6,2.2c-0.8,0.2-1.9-0.1-2.1-1.1c-0.4-1.1,0.5-1.3,1.1-1.8
		C92.5,197.7,92.9,198.1,93.5,198.5L93.5,198.5z"/>
	<path class="st0" d="M260.9,204.4c1.3,1.8,2.1,4,2.3,6.4c-0.3,0.6,0.4,1.3-0.1,1.7h-0.4c-4-2.9-4.9-6.9-6.4-11
		c-0.4-0.2-0.4-0.5-0.4-0.9c0.9-0.8,1.5,0.8,2.4,1.1L260.9,204.4L260.9,204.4z"/>
	<path class="st0" d="M105.1,201.3c-0.1,0.1,0,0.2,0.1,0.2c-3.6,2.5-8.6,4-12.7,1.6c-0.1-0.3,0.1-0.7,0.4-0.8
		c2.6-0.8,5.1-2.1,7.9-1.7L105.1,201.3L105.1,201.3z"/>
	<path class="st0" d="M84.7,201.8c-3,1.9-5.8,5.6-9.6,6.5c-0.7,0.3-1.2,1.3-2.1,0.7c1.6-4.9,6.9-7.5,11.6-7.9V201.8L84.7,201.8z"/>
	<path class="st0" d="M255.7,205.8c0.3,0.7,0,1.7-0.7,1.9c-0.4,0.4-1.3,0.4-1.7,0c-0.8-0.4-0.8-1.2-0.8-1.8c0.3-0.6,0.9-0.7,1.3-1
		C254.6,205.1,255.2,205.1,255.7,205.8L255.7,205.8z"/>
	<path class="st0" d="M248.3,206.3c-0.5,1.3-2.1,2-3.2,2.3c-3,1.1-5.8-0.4-8.5-1.1c0.1-0.7,1-0.5,1.4-0.9c2.9-0.6,6-1.3,9.1-0.4
		C247.4,206,248,205.9,248.3,206.3L248.3,206.3z"/>
	<path class="st0" d="M84.7,208.9c-0.3,0.4-0.4,1.2-1.1,1.4c-0.6,0.3-1.2,0-1.8-0.4c-0.2-0.5-0.8-1-0.4-1.6c0.2-0.6,0.9-0.8,1.4-1
		C83.8,207.4,84.5,208,84.7,208.9L84.7,208.9z"/>
	<path class="st0" d="M90,209.7c-0.3,0.5-0.5,1.4-1.2,1.7c-0.7,0.2-1.3-0.2-1.8-0.6c-0.3-0.5-0.5-1.2-0.3-1.8
		c0.2-0.5,0.8-0.5,1.3-0.8C88.8,208.1,89.6,209,90,209.7L90,209.7z"/>
	<path class="st0" d="M254,210.6c0.1,0.7-0.3,1.2-0.6,1.7c-0.4,0.6-1.3,0.7-2,0.4c-0.6-0.1-0.8-0.8-1.1-1.3
		c-0.5-0.7,0.4-1.2,0.6-1.8C251.9,208.8,253.5,209.2,254,210.6L254,210.6z"/>
	<path class="st0" d="M257.9,210.4c0.1,0.5,0.4,0.9,0.2,1.3c-0.5,0.5-0.9,1.6-2,1.2c-0.5,0.2-0.8-0.5-1.1-0.7
		c-0.4-0.9-0.1-2.2,1.1-2.4C256.9,209.4,257.5,210.1,257.9,210.4L257.9,210.4z"/>
	<path class="st0" d="M86.8,213c0.2,1-0.2,1.9-0.9,2.4c-1,0.2-2.2,0.2-2.6-1c-0.1-0.9,0-2.1,1.1-2.6C85.3,211.7,86.3,211.9,86.8,213
		L86.8,213z"/>
	<path class="st0" d="M91.9,212.7c-0.2,2.5-0.7,5.6-3.2,7c-1.4,0.3-2.9,1.6-4.3,0.7v-0.4C86.2,217.2,89.6,215.2,91.9,212.7
		L91.9,212.7z"/>
	<path class="st0" d="M239.9,214.7c0.4,0.5-0.3,1-0.5,1.4c-0.5,0.6-1.5,0.4-2.1,0.1c-0.6-0.3-0.7-1.2-0.4-1.8c0.2-0.5,0.7-0.8,1.2-1
		C238.8,213.4,239.5,214.1,239.9,214.7L239.9,214.7z"/>
	<path class="st0" d="M100.8,218.9c1.2,2.1,0.5,4.9,1.2,7.1c-1.5,0.2-2.1-1.5-3.1-2.4c-2-2.7-1.7-6.3-2.6-9.4
		c0.2-0.3,0.4-0.3,0.6-0.2c1.3,0.9,2.3,2.6,3.4,3.8C100.2,218.3,100.9,218.3,100.8,218.9L100.8,218.9z"/>
	<path class="st0" d="M244.4,215.4c0,0.7-0.8,0.9-1.3,1.3c-0.6-0.1-1.2-0.4-1.7-0.8c-0.3-0.9,0.4-1.2,0.9-1.6
		C243.2,214,244.1,214.4,244.4,215.4L244.4,215.4z"/>
	<path class="st0" d="M255,223.5c0,0.3-0.1,0.8-0.5,0.6h-0.4c-2.6-2.3-5.2-4.9-4.8-8.5l0.5-0.1C252.3,217.5,255,219.8,255,223.5
		L255,223.5z"/>
	<path class="st0" d="M248.3,220.6c0.1,0.7-0.4,1.3-0.8,1.7c-1,0.3-2.5,0.2-2.7-1.2c-0.1-0.9,0.9-1.4,1.3-1.8
		C247.3,219,248,219.8,248.3,220.6L248.3,220.6z"/>
	<path class="st0" d="M242.4,222.5c-1.3,3.3-4.6,5-7,7.6c-0.4-0.3-0.3-1-0.2-1.4c0.9-3.4,3.6-6.7,6.9-8.1
		C243.6,220.7,242.2,221.7,242.4,222.5L242.4,222.5z"/>
	<path class="st0" d="M249.1,225.2c0,0.8-0.8,1.2-1.3,1.6c-0.7-0.1-1.4-0.3-2-1c-0.1-0.9,0.6-1.2,1.2-1.6
		C248,224,248.8,224.4,249.1,225.2L249.1,225.2z"/>
	<path class="st0" d="M182.7,61.8c1.2,0,2.2,1,2.2,2.2c0,1.2-1,2.2-2.2,2.2h-26.5c-1.2,0-2.2-1-2.2-2.2c0-1.2,1-2.2,2.2-2.2H182.7
		L182.7,61.8z M163.9,65.6c2.6,0,0.1-3.1-1.3-3.1h-2.6c-2.6,0-0.1,3.1,1.2,3.1H163.9L163.9,65.6z M174.8,65.6c2.6,0,0.1-3.1-1.3-3.1
		h-2.6c-2.6,0-0.1,3.1,1.3,3.1H174.8L174.8,65.6z M182.8,62.5h-1c-2.6,0-0.4,3.1,1,3.1C184.5,65.6,184.6,62.5,182.8,62.5L182.8,62.5
		z"/>
	<path class="st0" d="M180.3,92.2l5.1,1.9l5-1.9l-2,7.5l3.9-0.8l-1.3,4.5l1.3,4.3l-3.5-0.9l1.5,8l-5-1.9l-5.1,1.9l2.1-8l-4,1.1
		l1.1-4.5l-1.1-4.3l3.9,0.6L180.3,92.2L180.3,92.2z M187.8,105.6c1.1,0,1.2-1.6,1.2-2.9c0-3.1-2.4,0-3.7-2.9
		c-0.9,2.4-3.4,0.2-3.4,2.8c0,1.8,0,3,1.8,3H187.8L187.8,105.6z M182.8,102.8c0,1.2,1.6,0.4,2.7,0.4c1.2,0,2.7,0.8,2.7-0.4
		c0-1.7-1.6-1.1-2.7-1.1C184.4,101.8,182.8,101.2,182.8,102.8L182.8,102.8z"/>
	<polygon class="st0" points="168.5,103.1 168.5,102.2 167.6,102 168.3,101.3 167.9,100.6 168.8,100.7 169.3,99.7 169.8,100.7 
		170.7,100.6 170.3,101.3 170.9,102 170.1,102.2 170.1,103.1 169.3,102.5 168.5,103.1 	"/>
	<polygon class="st0" points="164.6,108.2 164.6,107.2 163.7,107.1 164.4,106.4 164,105.6 164.8,105.7 165.4,104.8 165.9,105.7 
		166.7,105.6 166.3,106.4 167,107.1 166.2,107.2 166.2,108.2 165.4,107.6 164.6,108.2 	"/>
	<polygon class="st0" points="171.2,107.5 171.2,106.6 170.4,106.4 171,105.7 170.6,105 171.5,105.1 172,104.2 172.5,105.1 
		173.4,105 173,105.7 173.7,106.4 172.8,106.6 172.8,107.5 172,106.9 171.2,107.5 	"/>
	<polygon class="st0" points="172,111.3 172,110.8 171.5,110.7 171.9,110.3 171.7,109.9 172.2,109.9 172.5,109.4 172.7,109.9 
		173.2,109.9 173,110.3 173.4,110.7 172.9,110.8 172.9,111.3 172.5,111 172,111.3 	"/>
	<polygon class="st0" points="165.8,115.7 165.8,114 164.4,113.8 165.5,112.6 164.8,111.3 166.3,111.4 167.2,109.8 168.1,111.4 
		169.6,111.3 168.9,112.6 170,113.8 168.6,114 168.6,115.7 167.2,114.6 165.8,115.7 	"/>
	<polygon class="st0" points="169,30.8 172.1,38.5 180.1,36.1 176,43.5 182.8,48.3 174.6,49.6 175.1,58 169,52.4 162.8,58 
		163.3,49.6 155.1,48.3 161.9,43.5 157.8,36.1 165.8,38.5 169,30.8 	"/>
	<path class="st0" d="M140.1,204.3c-0.9,0.4-1.3,0.6-1.1,1.6l1.1,4.7c0.2,0.9,0.3,2.3-0.3,3.1c-0.7,1-2.2,1.7-3.2,1.9
		c-0.8,0.2-2.5,0.5-3.8-0.1c-0.9-0.4-1.5-0.8-1.9-2.4l-1.2-5c-0.3-1.2-0.8-1.2-1.8-1l-0.1-0.4l6-1.4l0.1,0.4
		c-1.2,0.3-1.7,0.5-1.4,1.8l1.2,5c0.2,0.8,0.7,2.9,3.2,2.3c3.1-0.7,2.6-3,2.4-4l-1.1-4.5c-0.2-0.9-0.5-1.4-2.1-1.1l-0.1-0.4l3.9-0.9
		L140.1,204.3L140.1,204.3z"/>
	<path class="st0" d="M149,205.3c-0.5-1-2-2.5-4.1-2c-0.9,0.2-1.8,0.9-1.6,1.8c0.2,0.8,0.6,1.1,2.2,1.4l2.9,0.5
		c0.7,0.1,2.2,0.7,2.6,2.3c0.3,1.3-0.5,3.4-3.7,4.1c-1.7,0.4-2.6,0.1-3.2,0.2c-0.4,0.1-0.4,0.4-0.4,0.6l-0.5,0.1l-0.8-3.7l0.5-0.1
		c0.7,1.4,2.1,2.9,4.4,2.4c2.1-0.5,1.9-2,1.9-2.2c-0.2-1-1.1-1.2-2.4-1.4l-1.3-0.2c-3.3-0.5-3.6-1.8-3.7-2.5
		c-0.2-0.9-0.1-3.1,3.3-3.8c1.4-0.3,2.4,0,2.9-0.1c0.4-0.1,0.4-0.3,0.5-0.6l0.5-0.1l0.7,3.2L149,205.3L149,205.3z"/>
	<path class="st0" d="M160.8,211.2l-6.5,0.6l0-0.4c1.3-0.2,1.7-0.3,1.6-1.6l-0.8-8c-1.3,0.2-3.1,0.4-3.3,2.9l-0.5,0.1l-0.2-3.1
		l10.9-1l0.3,3.1l-0.5,0.1c-0.6-2.4-2.5-2.3-3.7-2.2l0.8,8c0.1,1.3,0.6,1.3,1.9,1.2L160.8,211.2L160.8,211.2z"/>
	<path class="st0" d="M176,211.2l-3.7-0.1l-3.7-4.9l-0.5,0l-0.1,3c0,1.2,0.4,1.3,1.6,1.4l0,0.4l-6.2-0.1l0-0.4
		c1.2-0.1,1.6-0.1,1.6-1.4l0.1-6.8c0-1.3-0.5-1.4-1.6-1.4l0-0.4l5.9,0.1c1.3,0,5.1,0.2,5.1,2.8c0,1.9-1.9,2.3-2.9,2.6l3.6,4.4
		c0.2,0.3,0.5,0.3,0.7,0.3L176,211.2L176,211.2z M168.1,205.8c2.4,0,3.3-0.3,3.4-2.3c0-1.5-0.7-2.2-2.2-2.2c-1,0-1,0.1-1.1,0.6
		L168.1,205.8L168.1,205.8z"/>
	<path class="st0" d="M187.9,212.7l-5.9-0.7l0-0.4c1.1,0.1,1.5,0.1,1.5-0.4c0.1-0.4-0.4-1.6-0.6-2.1l-4.1-0.5c-0.6,1-1,1.6-1,1.9
		c-0.1,0.6,0.8,0.7,1.4,0.8l0,0.4l-3.7-0.5l0-0.4c1,0,1.3-0.5,2-1.6l5-7.8l0.5,0.1l3,8.5c0.6,1.7,0.8,2.3,1.7,2.4L187.9,212.7
		L187.9,212.7z M182.9,208.5l-1.4-3.9l-2.2,3.5L182.9,208.5L182.9,208.5z"/>
	<path class="st0" d="M198.5,214.9l-10.4-1.9l0.1-0.4c1,0.1,1.6,0.1,1.7-0.8l1.3-7.3c0.2-1-0.5-1.2-1.3-1.4l0.1-0.4l6.3,1.2
		l-0.1,0.4c-1.3-0.2-1.8-0.3-2.1,1.1l-1.3,7.1c-0.1,0.7,0.2,0.9,1.4,1.1c2.7,0.5,3.9-0.6,5.1-2.1l0.5,0.1L198.5,214.9L198.5,214.9z"
		/>
	<path class="st0" d="M205.4,216.4l-6.2-1.3l0.1-0.4c1,0.1,1.7,0.2,1.9-0.7l1.5-7.2c0.2-1-0.6-1.2-1.4-1.4l0.1-0.4l6.2,1.3l-0.1,0.4
		c-0.8-0.1-1.7-0.3-1.9,0.7l-1.5,7.2c-0.2,1,0.5,1.2,1.5,1.4L205.4,216.4L205.4,216.4z"/>
	<path class="st0" d="M218.1,218.1l-5.9-0.6l0-0.4c1.1,0,1.5,0.1,1.5-0.4c0-0.4-0.4-1.6-0.6-2.1l-4.1-0.4c-0.6,1-1,1.6-1,1.9
		c-0.1,0.6,0.8,0.7,1.4,0.8l0,0.4l-3.7-0.4l0-0.4c1,0,1.3-0.5,2-1.6l4.9-7.9l0.5,0.1l3.2,8.4c0.6,1.7,0.9,2.3,1.8,2.3L218.1,218.1
		L218.1,218.1z M212.9,213.9l-1.5-3.9l-2.1,3.5L212.9,213.9L212.9,213.9z"/>
	<path class="st0" d="M171.5,94.6c0-3.7-2.1-0.2-3.2-3.4c-0.8,2.6-3.3,0.4-3.3,3.3c0,1.1,0.3,1.7,0.8,2.1v1.1c0,0.3,0.2,0.5,0.5,0.5
		h3.9c0.3,0,0.5-0.2,0.5-0.5v-1.2C171.2,96.1,171.5,95.5,171.5,94.6L171.5,94.6z M168.3,95.3c-1.1,0-2.5,0.7-2.5-0.5
		c0-1.8,1.2-1.4,2.3-1.4c1.1,0,2.7-0.4,2.7,1.4C170.8,96.1,169.4,95.3,168.3,95.3L168.3,95.3z"/>
	<path class="st0" d="M203.5,139.7c0.9,0,1.7-0.7,1.7-1.5c0-0.8-0.8-1.5-1.7-1.5c-0.9,0-1.7,0.7-1.7,1.5
		C201.8,139.1,202.5,139.7,203.5,139.7L203.5,139.7z"/>
	<path class="st0" d="M195.5,85.3c0,0-0.8,1.3-0.8,1.6c0,0.5,0.4,0.9,0.8,0.9c0.4,0,0.8-0.4,0.8-0.9
		C196.3,86.9,195.5,85.3,195.5,85.3L195.5,85.3z"/>
	<path class="st0" d="M141.6,85.3c0,0-0.8,1.3-0.8,1.6c0,0.5,0.4,0.9,0.8,0.9c0.4,0,0.8-0.4,0.8-0.9
		C142.4,86.9,141.6,85.3,141.6,85.3L141.6,85.3z"/>
	<path class="st0" d="M155.1,85.3c0,0-0.8,1.3-0.8,1.6c0,0.5,0.4,0.9,0.8,0.9c0.4,0,0.8-0.4,0.8-0.9
		C155.9,86.9,155.1,85.3,155.1,85.3L155.1,85.3z"/>
	<path class="st0" d="M168.5,85.3c0,0-0.8,1.3-0.8,1.6c0,0.5,0.4,0.9,0.8,0.9c0.4,0,0.8-0.4,0.8-0.9
		C169.4,86.9,168.5,85.3,168.5,85.3L168.5,85.3z"/>
	<path class="st0" d="M182,85.3c0,0-0.8,1.3-0.8,1.6c0,0.5,0.4,0.9,0.8,0.9c0.4,0,0.8-0.4,0.8-0.9C182.9,86.9,182,85.3,182,85.3
		L182,85.3z"/>
	<path class="st0" d="M141.6,103.8c0,0,0.8,1.3,0.8,1.6c0,0.5-0.4,0.9-0.8,0.9c-0.4,0-0.8-0.4-0.8-0.9
		C140.8,105.4,141.6,103.8,141.6,103.8L141.6,103.8z"/>
	<path class="st0" d="M141.6,121.8c0,0,0.8,1.3,0.8,1.6c0,0.5-0.4,0.9-0.8,0.9c-0.4,0-0.8-0.4-0.8-0.9
		C140.8,123.4,141.6,121.8,141.6,121.8L141.6,121.8z"/>
	<path class="st0" d="M143.7,136.1c0,0,0.8,1.3,0.8,1.6c0,0.5-0.4,0.9-0.8,0.9c-0.4,0-0.8-0.4-0.8-0.9
		C142.9,137.6,143.7,136.1,143.7,136.1L143.7,136.1z"/>
	<path class="st0" d="M155.1,143.7c0,0,0.8,1.3,0.8,1.6c0,0.5-0.4,0.9-0.8,0.9c-0.4,0-0.8-0.4-0.8-0.9
		C154.3,145.2,155.1,143.7,155.1,143.7L155.1,143.7z"/>
	<path class="st0" d="M196.2,103.8c0,0-0.8,1.3-0.8,1.6c0,0.5,0.4,0.9,0.8,0.9c0.4,0,0.8-0.4,0.8-0.9
		C197,105.4,196.2,103.8,196.2,103.8L196.2,103.8z"/>
	<path class="st0" d="M196.2,121.8c0,0-0.8,1.3-0.8,1.6c0,0.5,0.4,0.9,0.8,0.9c0.4,0,0.8-0.4,0.8-0.9
		C197,123.4,196.2,121.8,196.2,121.8L196.2,121.8z"/>
	<path class="st0" d="M194.1,136.1c0,0-0.8,1.3-0.8,1.6c0,0.5,0.4,0.9,0.8,0.9c0.4,0,0.8-0.4,0.8-0.9
		C194.9,137.6,194.1,136.1,194.1,136.1L194.1,136.1z"/>
	<path class="st0" d="M182.7,143.7c0,0-0.8,1.3-0.8,1.6c0,0.5,0.4,0.9,0.8,0.9c0.4,0,0.8-0.4,0.8-0.9
		C183.6,145.2,182.7,143.7,182.7,143.7L182.7,143.7z"/>
	<path class="st0" d="M169,151.7c0,0-0.8,1.3-0.8,1.6c0,0.5,0.4,0.9,0.8,0.9c0.4,0,0.8-0.4,0.8-0.9C169.8,153.2,169,151.7,169,151.7
		L169,151.7z"/>
	<path class="st0" d="M190.9,124.8c0.2,0.3,0.6,0.3,1.1,0.2l0.5-1.5c0-0.1-0.6-0.7-1-0.6c-1.4,0.3-3,0.5-3.8,1.9
		c0,0.9,0.7,1.8,1.4,2.2c0.5-0.2,0.6,0.3,0.9,0.6c0.1,0.4-0.2,0.8-0.6,0.8c-1-1-2.8,0.3-3.6-0.9c0.3-1.3,1-2.7-0.1-3.9
		c0.1-0.3,0.5-0.5,0.3-0.8c-0.4-1.2-1.7-0.3-2.5-0.3c-1.3-0.2-2.3,0.5-3.1,1.5c0.1,0.4,0.3,0.9,0.7,1.3c0.3-0.1,0.5,0,0.6,0.3
		l-0.8,0.5c0.3,0.3,0.3,0.6,0.3,0.9c-0.6,0.3-1.2-0.6-1.4-1c0-0.7,0.1-1.9-0.8-2.1c-0.2,0-0.7,0.3-0.7,0.3c-0.2,0.3-0.3,0.8-0.3,1.4
		c0,0.6,0.3,1.5,0.3,1.5s2.6,1.9,3.2,3.1c-0.8,1.5-0.8,3.7-2.5,4.5c-0.5,0.3-0.5,0.9-0.5,1.4l0.4,0.3c1.1-0.6,3.2-0.8,3.1-2.7
		c0.4-0.8,0.8-1.6,1.6-2.2c0.9-0.2,1.6,0.3,2,0.9c-0.3,1.3-1.1,2.1-2.3,2.6c-0.2,0.2-0.1,0.4-0.1,0.7c0.3,0.6,1.3,0.3,1.8,0.3
		c1.4-0.9,2-2.7,3.3-3.2c0.2,0.9-1.7,1.1-0.5,2c0.8-0.2,1.8,0.1,2.3-0.9c-0.6-1.5,2-2.1,0.4-3.4c0-1.3,1.4-1.8,1.3-3.2
		c-0.5-1.4-2.1-1.4-2.5-2.6C189.6,124.5,190.4,124.6,190.9,124.8L190.9,124.8z"/>
	<path class="st0" d="M128.9,140.4c0.9,0,1.7-0.7,1.7-1.5c0-0.8-0.8-1.5-1.7-1.5c-0.9,0-1.7,0.7-1.7,1.5
		C127.2,139.7,128,140.4,128.9,140.4L128.9,140.4z"/>
	<path class="st0" d="M41.4,191.5c0.9,0,1.7-0.7,1.7-1.6c0-0.9-0.7-1.6-1.7-1.6c-0.9,0-1.7,0.7-1.7,1.6
		C39.7,190.8,40.5,191.5,41.4,191.5L41.4,191.5z"/>
	<path class="st0" d="M97.1,203.9H97l-0.1-0.1h0v0.1c0,0,0,0,0,0v0h-0.2v0c0,0,0,0,0,0v-0.2c0,0,0,0,0,0v0h0.2c0,0,0.2,0,0.2,0.1
		c0,0.1-0.1,0.1-0.1,0.1L97.1,203.9C97.1,203.9,97.1,203.9,97.1,203.9L97.1,203.9L97.1,203.9z M96.9,203.8
		C96.9,203.8,97,203.8,96.9,203.8c0.1-0.1,0.1-0.1,0-0.1c0,0,0,0,0,0V203.8L96.9,203.8z"/>
	<path class="st0" d="M97.3,203.7c0,0,0-0.1-0.1-0.1c0,0-0.1,0-0.1,0c0,0,0,0,0.1,0.1L97.3,203.7c0,0.1,0,0.1,0,0.1
		c0,0,0,0.1-0.1,0.1c0,0-0.1,0-0.1,0c0,0,0,0,0,0h0v-0.1h0c0,0,0,0.1,0.1,0.1c0.1,0,0.1,0,0.1-0.1c0,0,0,0-0.1-0.1l0,0
		c-0.1,0-0.1-0.1-0.1-0.1c0,0,0-0.1,0.1-0.1C97.3,203.6,97.3,203.6,97.3,203.7C97.3,203.6,97.3,203.6,97.3,203.7L97.3,203.7
		L97.3,203.7L97.3,203.7L97.3,203.7z"/>
	<path class="st0" d="M97.9,203.6C97.9,203.6,97.9,203.7,97.9,203.6l-0.1,0.3h0l-0.1-0.2h0l-0.1,0.2h0l-0.1-0.3c0,0,0,0,0,0v0h0.2v0
		c0,0,0,0,0,0c0,0,0,0,0,0l0.1,0.2h0l0.1-0.1l0,0c0,0,0,0,0,0v0h0.2v0c0,0,0,0,0,0c0,0,0,0,0,0l0.1,0.1h0L97.9,203.6
		C97.8,203.7,97.8,203.7,97.9,203.6C97.8,203.6,97.8,203.6,97.9,203.6L97.9,203.6L97.9,203.6L97.9,203.6L97.9,203.6z"/>
	<path class="st0" d="M97.9,203.9c0.1,0,0.1,0,0.1-0.1c0,0,0,0,0,0c0,0,0,0,0,0c0,0-0.1,0-0.1-0.1c0,0,0-0.1,0.1-0.1
		c0,0,0.1,0,0.1,0.1C98.1,203.8,98.1,203.9,97.9,203.9L97.9,203.9L97.9,203.9z M98,203.8C98,203.8,98.1,203.8,98,203.8
		C98.1,203.8,98.1,203.8,98,203.8c0-0.1,0-0.2,0-0.2C98,203.6,98,203.7,98,203.8C98,203.8,98,203.8,98,203.8L98,203.8z"/>
	<path class="st0" d="M98.2,203.7c0,0,0.1,0,0.1,0c0,0,0.1,0,0.1,0.1c0,0.1-0.1,0.1-0.2,0.1c0,0-0.1,0-0.1,0c0,0,0,0,0,0
		c0,0,0.1,0,0.1,0c0,0,0.1,0,0.1,0C98.3,203.8,98.3,203.8,98.2,203.7C98.3,203.8,98.2,203.8,98.2,203.7L98.2,203.7l0.2-0.1l0,0.1
		L98.2,203.7L98.2,203.7L98.2,203.7z"/>
	<path class="st0" d="M200,83.2L200,83.2l-62.3,0v0h0l0,47.6c0,4.9,2.1,9.1,4.9,10.4l23.9,15.2c0.5,0.6,1.3,1,2.2,1
		c0.8,0,1.4-0.3,1.9-0.8l24.3-15.4c2.8-1.3,4.9-5.5,4.9-10.4L200,83.2L200,83.2L200,83.2z M198.3,131.4c-0.3,3.6-1.5,6.6-4,8.3
		l-23.5,14.9h-0.1c-0.5,0.4-1.1,0.6-1.8,0.6c-0.7,0-1.3-0.3-1.8-0.7l-23.4-14.9c-2.5-1.7-3.7-4.7-4-8.3V84.8h58.8V131.4L198.3,131.4
		z"/>
	<path class="st0" d="M177.3,152.5l0.8-0.4C177.7,152.3,177.5,152.4,177.3,152.5L177.3,152.5z"/>
	<path class="st0" d="M130.3,217.6l-5.9,0.7l0-0.4c1.1-0.2,1.4-0.3,1.4-0.8c0-0.4-0.8-1.5-1.1-1.9l-4.1,0.5
		c-0.4,1.2-0.6,1.8-0.6,2.1c0.1,0.6,0.9,0.5,1.6,0.5l0,0.4L118,219l0-0.4c1-0.2,1.2-0.8,1.6-2l3.1-8.8l0.5-0.1l5,7.5
		c1,1.5,1.4,2,2.2,1.9L130.3,217.6L130.3,217.6z M124.4,214.6l-2.3-3.5l-1.3,3.9L124.4,214.6L124.4,214.6z"/>
	<path class="st0" d="M233.4,195.3c-1.1-2.8-3.3-4.7-6.1-5.6c-2.9-0.6-5.9-0.2-7.8,2c-3.2,2.6-1,6.9-0.9,10.4c0,0.7,0.1,1.3-0.6,1.6
		c-13-1.2-25-4.4-37.9-5.8c-3-0.5-5.9-0.4-8.7-1l-3.6-0.4c-11.2,0.4-22.3,1-32.8,3.7c-2.2,0.7-4.7,0.9-7,1.7
		c-1.6-0.3-2.9,0.9-4.5,0.5l-2.9,0.7c-0.3,0-0.6,0-1-0.1c-1.4-3.7,2.9-5.9,1.5-9.5c-1.2-2.1-3.5-4.1-6.2-3.7c-3-0.4-5.7,1.3-7.2,3.7
		c-2.1,4.5,0.5,9.2,1.3,13.6c-0.2,1.4,1.4,3.1,0,4.2c-2.9-2-6.6-3.1-10.1-2.1c-1.1,0.5-3-0.2-3.6,1.1c3.8,2.1,8.8,1.8,13,1.6
		c0.5-0.2,0.9-0.3,1.3,0.1c0.4,2.3-0.4,5.5,1,7.6c1.6,2.2,4.3,2.7,6.9,3c8.2-0.3,15.5-2.7,23.1-4.6c1.2-0.1,2.1-0.7,3.3-0.7
		c4-0.9,8.4-1.6,12.7-1.7c-1.9,2.4-2.9,5.1-3.8,8.1c-1.1,2.4,1.9,2.8,2.8,4.1c-2.8,0.8-4.7,2.7-7.3,3.8c-5.7-0.2-10.5,2-15.9,2.6
		c-0.1,1.2,1.9,0.8,2.1,2c-0.3,0.8-1.1,0.9-1.7,1.3c-0.1,0.5,0,0.6,0.5,0.7c0.5-0.6,1.7-0.2,2.2-0.8c1.8,0,3.3-0.5,5-0.6
		c1.5-0.6,3.2-0.7,4.6-1.8c1.9-0.5,3-1.8,4.9-2.3c2.7,0,5.1-0.9,7.6-1.1v0.5c-2.1,3.3-4.2,6.7-6.3,9.9c-0.4,0.6,0.1,1.3,0.6,1.4
		c1.3,0.4,2.5,0,3.5-0.5c1.9-3.2,3.6-6.3,5.1-9.6c0.6-3.1,2.9-4.7,5.1-6.8c0.4-0.2,0.9-0.7,1.3-0.2c-1.8,2.1-2.9,4.1-4.3,6.3
		c-0.7,2.5-0.9,5.8,1.3,7.8c1.1,0.9,2.7,0.6,4.1,0.7c3.5-1.8,8,1.1,10.6-2.3c1.6-0.3,1.9,1.6,2.8,2.5c1.5,0.5,3.1,2,4.6,0.9
		c-0.1-1-1.2-1.9-1.7-2.8c-1.1-1.9-2.4-3.4-3.4-5.1c-0.4-1.3-1.3-2.1-1.4-3.3c1.6,0.5,3,1.6,4.8,1.9c1.5,0.6,3.4,0.5,4.8,1.4
		c1.2,1.5,2.9,2.4,4.5,3.4c2.2,1.1,4.7,1.3,7.1,2.2c0.9,0.1,2.2,0.8,2.9,0c-0.4-0.5-0.8-0.7-1.3-1c-0.3-1.2,1.6-0.5,2.2-1.4
		c-0.2-0.4-0.6-0.6-1-0.7c-1.3-0.7-4.5-0.9-5.3-1.4c-1.1-0.2-2.1-0.6-3.1-1c-5.4,0-8.3-4.9-12.6-6.7c1-0.9,2.5-1.6,3.1-3
		c0.8-1.3,1.1-3.3,0.3-4.8c-0.8-2.8-4.4-2.4-6.4-4l0.3-0.3c3.5-0.2,6.5,0.6,9.6,1.3c8.6,1.2,16.5,4.4,25.5,4.6
		c4.9,0,11.1,0.3,13.5-4.5c0.4-2.8,1-5.6,1.4-8.4C230.9,204.4,233.9,200.2,233.4,195.3L233.4,195.3z M136.9,236.3l-1.2-1.2
		c0.6-0.8,2-0.4,2.9-0.9c2.3-0.7,5-1.6,7.6-1.1C143.5,235.3,140,235.6,136.9,236.3L136.9,236.3z M192.7,234.9c2.1,1,6.4,1.9,9.5,2.3
		c-0.3,1.2-2.5,0.1-2.2,1.8c-2.8-1.1-6-1.6-8-3.8C192.2,235.1,192.3,234.8,192.7,234.9L192.7,234.9z M108.9,196.6
		c0.3-1.6,0.6-3.3,2.1-4.5c2.1-1.2,5.1-0.9,7.1,0.3c0.6,0.4,1.1,0.9,1.4,1.7c0.4,1.5-0.3,3.2-1.3,4.1h-0.9c0-1.4,0-2.9,0.5-4.1
		c-0.1-1.1-1-1.2-1.7-1.6c-1.5-0.5-2.9,0.3-4,0.9c-0.9,1.1-1.7,2.4-1.2,4c0.6,1,0.1,2.3,0.4,3.4l-0.3,0.4
		C110,200,108.6,198.7,108.9,196.6L108.9,196.6z M113.1,199.2c1.3,1,3.2,0.5,4.8,0.8c0.3,1,0.3,2.2-0.4,3.1
		c-1.5-0.4-3.5-0.2-4.3-1.6C113.3,200.8,112.9,199.9,113.1,199.2L113.1,199.2z M112.8,196.2c0.3-0.7,0-1.8,1-2
		c0.6-0.2,1.6-0.2,1.7,0.5c-0.1,1.1-0.2,2.2-0.4,3.2C113.8,198,113.1,197.3,112.8,196.2L112.8,196.2z M154.7,225.1
		c-0.4-3.1,0.8-5.8,2.9-8.1c1.2-0.3,2.7-0.5,3.8,0.2c-2.3,0.6-5.3,1.2-5.8,4.1c0.1,1.2-0.3,1.8,0.3,2.8c1,1.7,3.2,1,4.5,2.3
		c0,0.5-0.4,1-0.8,1.1C158,226.6,156.1,226.2,154.7,225.1L154.7,225.1z M151.5,231.3c2.1-0.9,4.4-2.8,6.8-2
		C156.6,230.7,153.8,231.2,151.5,231.3L151.5,231.3z M160,232.2c-1.3,2.9-2.7,5.7-4.4,8.5c-0.2,0.4-0.9,0.5-1.4,0.6
		c0-1.3,1.3-2.3,1.8-3.3c1.9-2.4,2.4-5,4.6-7.4C161,231.1,160,231.5,160,232.2L160,232.2z M162.2,227v0.4H162V227v-0.1h0.4
		c-0.1,0-0.3,0-0.4,0.1H162.2L162.2,227z M161.4,224.5c-1.5-0.2-3-0.6-4.3-1.1c-0.9-0.9,0-1.9,0-2.9c1.3-2,4.8-3,6.5-1.2
		C163.4,221.4,162.6,223.1,161.4,224.5L161.4,224.5z M163.4,224.5c0.3-1.2,0.8-2.7,1.4-3.8C164.7,221.9,164.2,223.5,163.4,224.5
		L163.4,224.5z M164.3,217.2c-1.2-0.3-1.8-1.6-3-1.6c1.1-0.4,2.1-0.3,3.4-0.1C165.2,216.2,164.4,216.7,164.3,217.2L164.3,217.2z
		 M165.4,219.9L165.4,219.9l-0.1-1h0.1V219.9L165.4,219.9z M165.5,224.1c-0.1-0.4,0.2-0.8,0.3-1.3c0.4-0.5,0.9,0.4,1.1,0.6
		C166.6,223.9,166,224.2,165.5,224.1L165.5,224.1z M166.8,218.5c0.4-1.3,0.5-2.3,1.3-3.3c0.9,0,1.7,0,2.4,0.4c0.2,1.8,2.4,4.2,0,5.8
		c-0.8,0.4-2,1.2-2.9,0.4C166.6,220.7,166.4,219.8,166.8,218.5L166.8,218.5z M173.4,216c-0.2-0.8,0.8-0.2,1.2-0.5l2.8,0.2
		C175.9,215.4,174.1,218.8,173.4,216L173.4,216z M177.8,217.1c-1.1,0.4-1.9,1.6-2.9,1.9C175.4,218,176.8,217.1,177.8,217.1
		L177.8,217.1z M174.1,222.7v0.3H174L174.1,222.7L174.1,222.7L174.1,222.7z M174.3,228.2c-0.1,0.2,0.1,0.4-0.2,0.6l-2.1-1.6
		C173,227.1,173.7,227.5,174.3,228.2L174.3,228.2z M171.9,225.4c0.2-0.2,0.6-0.2,0.8,0H171.9L171.9,225.4z M170.6,224.1
		c0.4-0.5,0.8-1.3,1.4-1.3c0,0.1,0.1,0.2,0.2,0.3C171.7,223.5,171.2,223.9,170.6,224.1L170.6,224.1z M168.5,223.9h-0.4l0.5-0.5
		C169,223.5,168.6,223.7,168.5,223.9L168.5,223.9z M168.8,227.3c1.2-1.3,2.2,0.7,2.7,1.7c1.3,2,4.8,3.8,3.5,6.5
		c-1.7,1.5-4.4,0.1-6.3,1.3c-1-0.1-2.7,0.2-3.2-0.8C166.5,233.1,167.4,229.8,168.8,227.3L168.8,227.3z M166.3,229l0.4-0.7
		c-0.7,2.2-1.8,4.4-3,6.5C163.3,232.6,165.5,230.9,166.3,229L166.3,229z M170.2,239.7c-1.7,0.1-4.3,1.1-5.9-0.4
		c0.1-0.7-0.7-1.1-0.6-1.8c1.4-0.5,2.7,1.2,4-0.1c2.1,0.1,4.2-0.3,6.3,0.2c1,0.3,2.5-1.6,2.7,0.3C176,240.9,172.4,238.8,170.2,239.7
		L170.2,239.7z M175.4,226.8v-0.3h0.2v0.3H175.4L175.4,226.8z M176,232.4c0.1,0.9,1,1.3,0.4,2.1C176.2,234.2,175.7,233.3,176,232.4
		L176,232.4z M178.5,237.8L178,238c-0.4-0.4-0.3-1.4-0.2-1.9C178.4,236.6,178.8,237.2,178.5,237.8L178.5,237.8z M182.9,240
		c-0.1,0.3-0.5,0.3-0.7,0.1c-2.7-3.4-3.9-7-5.6-10.8l0.4-0.1C179.1,232.7,180.8,236.6,182.9,240L182.9,240z M186.2,231.7
		c-0.2,0.1-0.2,0.3-0.2,0.4c-2.6,0.1-4.3-1.4-6.3-2.8l-0.1-0.5C182.1,229,184.1,230.6,186.2,231.7L186.2,231.7z M183.9,219.8
		c1.1,0.3,1.2,1.4,1.3,2.3c-0.1,2-1.2,3.7-3,4.4c-1,0.5-2.5,0.7-3.5,0.4c2.1-0.1,4.5-0.9,5.4-3.1L183.9,219.8L183.9,219.8z
		 M181.9,219.4c0.4,1.3,1.3,2.4,0.8,4c-0.9,1.7-2.7,1.7-4.3,2.1c-0.8,0.1-1.4-0.2-2.1-0.6c0.1-0.4-0.1-0.6-0.4-0.9
		c0.3-1.2-2.1-2.3-0.4-3.3C177,219.2,180.4,216.2,181.9,219.4L181.9,219.4z M227.3,212.8c-0.7,0.9-0.1,2.3-1,3.1
		c0,1.6-1.3,2.4-2.5,3.1c-10.6,2.3-21.1-1.3-31.4-3.1c-14.4-3.1-31.2-4-45.8-0.7c-6.9,1.3-13.6,2.9-20.2,4.8
		c-4.1,0.5-8.6,1.2-12.5-0.1c-3.2-1.5-1.9-5.7-2.9-8.6c0.2-2.2-0.6-4.1-0.7-6.2c-0.3-0.7-0.4-1.6-0.4-2.3c1.3,0.2,2.7,1.2,4.1,1.5
		c7.5,1.4,14.2-1,21.2-2.3c6.7-1.4,13.6-2.6,20.6-3.2c8-0.1,16.3-0.5,23.9,0.8c2.5,0.1,4.6,0.7,7.1,0.9c5,0.6,9.7,2,14.7,2.3
		c0.8,0.3,1.8,0.3,2.7,0.5c8,1.3,17.1,3.5,24.8,0C229.1,206.7,227.8,209.7,227.3,212.8L227.3,212.8z M224.8,201.9
		c0.1,1.4-1.3,1.1-2,1.6h-2.1c-0.4-0.7-0.3-1.8-0.3-2.5C221.9,201.2,223.5,201.2,224.8,201.9L224.8,201.9z M223.9,199.6
		c1-1-0.3-6.7,2.5-3c0,0.7,0.1,1.8-0.6,2.3C225.3,199.3,224.6,200.1,223.9,199.6L223.9,199.6z M231.1,198.7
		c-0.8,1.6-2.1,2.8-3.8,3.1c0.1-2.2,2.1-3.7,1.3-6.1c-1.2-1.7-3.5-2.2-5.6-1.8c-0.8,0.5-0.4,1.4-0.7,2.3l-0.4,3
		c-1.8,0-1.9-1.6-2.4-2.9c0.1-1.9,0.9-3.8,2.8-4.7c1.4-0.7,3.8-0.6,5.2,0.2c1.2,0.3,2.5,0.8,2.9,1.9
		C231.7,194.8,231.4,197.1,231.1,198.7L231.1,198.7z"/>
</g>
</svg>
