<?xml version="1.0" encoding="utf-8"?>
<!-- Generator: Adobe Illustrator 25.3.1, SVG Export Plug-In . SVG Version: 6.00 Build 0)  -->
<svg version="1.1" id="Logos" xmlns="http://www.w3.org/2000/svg" xmlns:xlink="http://www.w3.org/1999/xlink" x="0px" y="0px"
	 viewBox="0 0 275 63.3" style="enable-background:new 0 0 275 63.3;" xml:space="preserve">
<style type="text/css">
	.st0{fill:#FFFFFF;}
</style>
<g>
	<path class="st0" d="M79.7,49.3c-2.9,0-5-0.9-6.5-2.6c-1.5-1.8-2.3-4.2-2.5-7.2l4.2-1.1c0.3,4.9,1.9,7.3,4.8,7.3
		c1.2,0,2.1-0.3,2.8-1c0.6-0.7,1-1.7,1-3c0-0.7-0.1-1.4-0.3-2c-0.2-0.6-0.5-1.2-0.8-1.7c-0.4-0.5-0.8-1-1.1-1.4
		c-0.3-0.4-0.8-0.8-1.5-1.4L74,30c-1.1-1-2-2.1-2.5-3.3c-0.5-1.2-0.8-2.6-0.8-4.2c0-2.5,0.7-4.4,2.1-5.7c1.4-1.4,3.4-2.1,5.9-2.1
		c2.7,0,4.8,0.7,6.1,2.1c1.4,1.4,2.2,3.7,2.4,6.7l-4,1.1c-0.1-0.7-0.1-1.4-0.2-2c-0.1-0.6-0.3-1.2-0.5-1.7c-0.2-0.6-0.5-1.1-0.8-1.4
		c-0.3-0.4-0.7-0.6-1.3-0.9c-0.5-0.2-1.1-0.3-1.8-0.3C76.2,18.4,75,19.7,75,22c0,1,0.2,1.8,0.5,2.5c0.3,0.7,0.9,1.4,1.7,2.1l5.7,5.1
		c1.5,1.3,2.7,2.8,3.6,4.3c0.9,1.5,1.3,3.3,1.3,5.2c0,2.5-0.8,4.5-2.3,5.9C84,48.5,82.1,49.3,79.7,49.3"/>
	<polygon class="st0" points="91.7,48.9 91.7,14.9 96.5,14.9 96.5,29.6 105.2,29.6 105.2,14.9 109.9,14.9 109.9,48.9 105.2,48.9 
		105.2,33 96.5,33 96.5,48.9 	"/>
	<rect x="115.7" y="14.9" class="st0" width="4.7" height="34"/>
	<polygon class="st0" points="125.2,48.9 125.2,14.9 138.4,14.9 138.4,18.4 130,18.4 130,29.7 136.8,29.7 136.8,33 130,33 130,45.5 
		138.5,45.5 138.5,48.9 	"/>
	<polygon class="st0" points="141.7,48.9 141.7,14.9 146.4,14.9 146.4,45.5 154.2,45.5 154.2,48.9 	"/>
	<path class="st0" d="M161.6,45.5h2.7c0.7,0,1.4-0.1,1.9-0.2c0.6-0.1,1-0.3,1.4-0.5c0.4-0.2,0.7-0.5,0.9-1c0.3-0.4,0.4-0.8,0.6-1.2
		c0.1-0.4,0.2-0.9,0.3-1.6c0.1-0.7,0.1-1.3,0.1-1.9c0-0.5,0-1.3,0-2.2v-11c0-0.8,0-1.5,0-2.1c0-0.6-0.1-1.1-0.2-1.7
		c-0.1-0.6-0.2-1-0.4-1.4c-0.2-0.4-0.4-0.7-0.6-1c-0.3-0.3-0.6-0.6-1-0.7c-0.4-0.2-0.8-0.3-1.4-0.4c-0.5-0.1-1.1-0.1-1.8-0.1h-2.6
		V45.5z M156.8,48.9v-34h7.4c3.7,0,6.3,0.8,7.8,2.5c1.5,1.7,2.3,4.3,2.3,7.9v12.5c0,3.7-0.7,6.5-2.2,8.4c-1.5,1.8-4,2.8-7.4,2.8
		H156.8z"/>
	<polygon class="st0" points="180.3,48.9 180.3,14.9 187.8,14.9 187.8,43.8 194.7,43.8 194.7,48.9 	"/>
	<path class="st0" d="M206.3,37.2h3.6L208.1,24L206.3,37.2z M197.4,48.9l6.4-34h8.5l6.4,34h-6.9l-1.2-7.2h-5l-1.1,7.2H197.4z"/>
	<path class="st0" d="M229,43.7h1.6c1.6,0,2.8-0.4,3.4-1.2c0.7-0.8,1-2,1-3.8c0-1.9-0.3-3.3-1-4.1c-0.7-0.8-1.8-1.2-3.5-1.2H229
		V43.7z M229,28.5h1.4c1.6,0,2.7-0.4,3.3-1.1c0.6-0.7,0.9-1.9,0.9-3.4c0-2.7-1.5-4-4.4-4H229V28.5z M221.5,48.9v-34h8.9
		c1.3,0,2.4,0.1,3.4,0.2c1,0.1,2,0.4,3,0.8c1,0.4,1.8,0.9,2.4,1.5c0.6,0.6,1.1,1.5,1.5,2.6c0.4,1,0.5,2.2,0.5,3.5v0.3
		c-0.1,4-1.7,6.2-5,6.8c2,0.3,3.4,1.1,4.5,2.5c1,1.4,1.5,3.3,1.6,5.7V39c0,3.3-0.9,5.8-2.6,7.4c-1.8,1.6-4.3,2.5-7.7,2.5H221.5z"/>
	<path class="st0" d="M254.5,49.4c-3.2,0-5.6-0.9-7.2-2.6c-1.6-1.7-2.4-4.4-2.6-8.2l6.4-1c0,2.1,0.3,3.7,0.8,4.6
		c0.5,1,1.2,1.4,2.2,1.4c1.3,0,1.9-0.8,1.9-2.5c0-0.9-0.2-1.8-0.5-2.5c-0.3-0.8-0.7-1.4-1.2-2c-0.5-0.5-1.1-1.2-2-1.9l-3-2.6
		c-0.7-0.6-1.3-1.2-1.8-1.7c-0.5-0.5-0.9-1.1-1.4-1.9c-0.5-0.7-0.8-1.5-1-2.4c-0.2-0.9-0.3-1.8-0.3-2.9c0-2.8,0.8-5,2.5-6.6
		c1.7-1.5,4-2.3,7-2.3c1,0,1.9,0.1,2.8,0.3c0.8,0.2,1.5,0.5,2.1,0.9c0.6,0.4,1.1,0.8,1.5,1.3c0.4,0.5,0.8,1.1,1,1.6
		c0.3,0.5,0.5,1.1,0.6,1.8c0.2,0.7,0.3,1.3,0.3,1.9c0.1,0.6,0.1,1.2,0.1,1.8l-6.5,0.8c0-0.6,0-1-0.1-1.4c0-0.4-0.1-0.8-0.1-1.2
		c-0.1-0.4-0.1-0.8-0.2-1c-0.1-0.3-0.2-0.5-0.4-0.7c-0.2-0.2-0.4-0.4-0.6-0.5c-0.2-0.1-0.5-0.1-0.9-0.1c-0.7,0-1.2,0.3-1.5,0.8
		c-0.3,0.5-0.5,1.1-0.5,1.8c0,0.6,0.1,1.2,0.2,1.8c0.2,0.5,0.4,1,0.8,1.5c0.4,0.5,0.7,0.9,1,1.1c0.2,0.2,0.7,0.6,1.2,1.1l2.9,2.5
		c0.8,0.7,1.5,1.4,2,2c0.6,0.6,1.1,1.4,1.6,2.2c0.5,0.8,0.9,1.7,1.2,2.7c0.3,1,0.4,2.1,0.4,3.2c0,2.5-0.8,4.5-2.5,6.1
		C259.3,48.6,257.2,49.4,254.5,49.4"/>
</g>
<path class="st0" d="M26.5,5.4C11.8,5.4,0,17.3,0,31.9s11.8,26.5,26.5,26.5c14.6,0,26.5-11.8,26.5-26.5S41.1,5.4,26.5,5.4z M19.1,45
	L19,44.9c-4.1-4.1-6.8-9.3-7.8-14.9c-0.4-1.8-0.5-3.7-0.5-5.6c0-1,0.1-2,0.2-3l0-0.2l0.1-0.1c1.4-0.9,3-1.7,4.6-2.3l0.6-0.2
	l-0.1,0.6c-0.4,1.7-0.6,3.5-0.6,5.2l0,0.7c0.2,6.8,3.1,13,8.1,17.6l0.4,0.3l-0.4,0.2c-1.3,0.7-2.7,1.3-4.1,1.8L19.1,45z M41.6,30.9
	c-1.3,5.6-4.2,10.7-8.4,14.7c-2,1.9-4.2,3.5-6.6,4.7l-0.2,0.1l-0.2-0.1c-1.4-0.8-2.8-1.6-4.1-2.6l-0.5-0.4l0.6-0.2
	c1.8-0.7,3.5-1.7,5.1-2.8c5.5-3.9,9-9.8,9.9-16.4l0.1-0.5l0.4,0.3c1.3,0.8,2.5,1.8,3.7,2.9l0.1,0.1L41.6,30.9z M42.3,26.5l0,0.7
	l-0.5-0.4c-1.5-1.2-3.2-2.3-5-3.1c-3.2-1.5-6.6-2.2-10.2-2.2c-2.6,0-5.1,0.4-7.5,1.2l-0.5,0.2l0.1-0.5c0.2-1.5,0.5-3.1,1-4.6
	l0.1-0.2l0.2,0c4.7-1.1,9.7-1,14.4,0.2c2.8,0.8,5.4,1.9,7.9,3.5l0.1,0.1l0,0.2c0.1,1,0.2,2,0.2,3C42.3,25.1,42.3,25.8,42.3,26.5z"/>
<g>
	<path class="st0" d="M266.6,22.8v-6.2h-1.1v-1.1h3.7v1.1h-1.1v6.2H266.6z"/>
	<path class="st0" d="M269.8,22.8l0.1-7.3h1.6l0.9,4.6l1-4.6h1.5l0.1,7.3h-1.1l-0.1-4.9l-0.9,4.9h-0.9l-1-5l-0.1,5H269.8z"/>
</g>
</svg>
