<?xml version="1.0" encoding="utf-8"?>
<!-- Generator: Adobe Illustrator 25.3.1, SVG Export Plug-In . SVG Version: 6.00 Build 0)  -->
<svg version="1.1" id="Logos" xmlns="http://www.w3.org/2000/svg" xmlns:xlink="http://www.w3.org/1999/xlink" x="0px" y="0px"
	 viewBox="0 0 275 89.5" style="enable-background:new 0 0 275 89.5;" xml:space="preserve">
<style type="text/css">
	.st0{fill:#FFFFFF;}
</style>
<path class="st0" d="M80.6,81.9c1.1,0,1.3-0.9,1.3-2.9c0-2.4-0.3-3.2-1.3-3.2h-0.5v6.1L80.6,81.9z M80.7,74.4c2.1,0,2.7,1.6,2.7,4.5
	c0,2.8-0.5,4.4-2.6,4.4h-2.2v-8.9H80.7z"/>
<rect x="86.7" y="74.4" class="st0" width="1.4" height="8.9"/>
<polygon class="st0" points="91.6,74.4 91.6,83.3 95.6,83.3 95.6,81.9 93,81.9 93,79.4 95,79.4 95,78 93,78 93,75.8 95.5,75.8 
	95.5,74.4 "/>
<path class="st0" d="M99.9,80.7c0,0.8,0.2,1.3,0.9,1.3c0.5,0,0.8-0.3,0.8-0.9c0-0.8-0.4-1.2-1.2-1.7c-0.8-0.6-1.8-1.2-1.8-2.9
	c0-1.3,0.6-2.2,2.2-2.2c1.1,0,2.2,0.5,2.3,2.2l-1.4,0.4c-0.1-0.9-0.3-1.2-0.8-1.2c-0.4,0-0.7,0.2-0.7,0.8c0,0.7,0.4,1.1,1.3,1.7
	c0.9,0.6,1.7,1.3,1.7,2.9s-0.8,2.4-2.2,2.4s-2.3-0.7-2.3-2.3L99.9,80.7z"/>
<polygon class="st0" points="106.3,74.4 106.3,83.3 110.3,83.3 110.3,81.9 107.8,81.9 107.8,79.4 109.7,79.4 109.7,78 107.8,78 
	107.8,75.8 110.3,75.8 110.3,74.4 "/>
<polygon class="st0" points="113.6,74.4 113.6,83.3 117.4,83.3 117.4,81.9 115.1,81.9 115.1,74.4 "/>
<rect x="125.2" y="74.4" class="st0" width="1.4" height="8.9"/>
<path class="st0" d="M131.5,77.7L131.5,77.7c0,0,0,1.1,0,2.1v3.5h-1.3v-8.9h1.5l2,5.8h0c0,0,0-1,0-2.2v-3.7h1.3v8.9h-1.5L131.5,77.7
	z"/>
<path class="st0" d="M140.4,81.9c1.1,0,1.3-0.9,1.3-2.9c0-2.4-0.3-3.2-1.3-3.2h-0.5v6.1L140.4,81.9z M140.5,74.4
	c2.1,0,2.7,1.6,2.7,4.5c0,2.8-0.5,4.4-2.6,4.4h-2.2v-8.9H140.5z"/>
<path class="st0" d="M150.9,80.7c0,1.9-0.7,2.7-2.2,2.7s-2.3-0.7-2.3-2.7v-6.3h1.4v6.4c0,0.7,0.1,1.2,0.9,1.2c0.7,0,0.9-0.5,0.9-1.2
	v-6.4h1.3V80.7z"/>
<path class="st0" d="M155.5,80.7c0,0.8,0.2,1.3,0.9,1.3c0.5,0,0.8-0.3,0.8-0.9c0-0.8-0.4-1.2-1.2-1.7c-0.8-0.6-1.8-1.2-1.8-2.9
	c0-1.3,0.6-2.2,2.2-2.2c1.1,0,2.2,0.5,2.3,2.2l-1.4,0.4c-0.1-0.9-0.3-1.2-0.8-1.2c-0.4,0-0.7,0.2-0.7,0.8c0,0.7,0.4,1.1,1.3,1.7
	c0.9,0.6,1.7,1.3,1.7,2.9s-0.8,2.4-2.2,2.4s-2.3-0.7-2.3-2.3L155.5,80.7z"/>
<polygon class="st0" points="161.5,74.4 161.5,75.8 163,75.8 163,83.3 164.5,83.3 164.5,75.8 166,75.8 166,74.4 "/>
<path class="st0" d="M171.2,78.6c0.5,0,0.9-0.4,0.9-1.4c0-0.9-0.4-1.4-1-1.4h-0.5v2.8H171.2z M171,79.8h-0.5v3.4h-1.4v-8.9h2.1
	c1.5,0,2.3,1.2,2.3,2.8c0,1.1-0.4,2-1.1,2.3l1.2,3.8h-1.6L171,79.8z"/>
<rect x="176.9" y="74.4" class="st0" width="1.4" height="8.9"/>
<polygon class="st0" points="181.8,74.4 181.8,83.3 185.8,83.3 185.8,81.9 183.2,81.9 183.2,79.4 185.2,79.4 185.2,78 183.2,78 
	183.2,75.8 185.7,75.8 185.7,74.4 "/>
<path class="st0" d="M190.1,80.7c0,0.8,0.2,1.3,0.9,1.3c0.5,0,0.8-0.3,0.8-0.9c0-0.8-0.4-1.2-1.2-1.7c-0.8-0.6-1.8-1.2-1.8-2.9
	c0-1.3,0.6-2.2,2.2-2.2c1.1,0,2.2,0.5,2.3,2.2l-1.4,0.4c-0.1-0.9-0.3-1.2-0.8-1.2c-0.4,0-0.7,0.2-0.7,0.8c0,0.7,0.4,1.1,1.3,1.7
	c0.9,0.6,1.7,1.3,1.7,2.9s-0.8,2.4-2.2,2.4s-2.3-0.7-2.3-2.3L190.1,80.7z"/>
<polygon class="st0" points="-0.2,1.1 -0.2,83.1 71.8,83.1 67,75.5 7.4,75.5 7.4,8.7 266.8,8.7 266.8,75.5 199.4,75.5 204.3,83.1 
	274.4,83.1 274.4,1.1 "/>
<polygon class="st0" points="36.9,45 32.2,50.3 32.2,61.9 22.5,61.9 22.5,21.7 32.2,21.7 32.2,32.8 32.2,39 32.3,39 36.7,33.9 
	46.9,21.7 58.3,21.7 44,38 59.1,61.9 47.9,61.9 "/>
<rect x="63.6" y="21.7" class="st0" width="9.6" height="40.2"/>
<path class="st0" d="M89.4,37.9h-0.2c0,0.1,0.1,5,0.1,10.2v13.8h-9.6V21.7h9.8l17.1,23.5h0.2c0-0.1-0.1-5.2-0.1-9.6v-14h9.6v40.2
	h-9.8L89.4,37.9z"/>
<path class="st0" d="M154.4,61.9c0-2.3,0.1-2.5,0.1-2.8h-0.1c-2.3,2-6.7,3.6-11.3,3.6c-11.2,0-20.7-8.4-20.7-21
	c0-12.3,8.8-20.8,20.8-20.8c9.1,0,16.1,5.1,18.7,11.6l-9.5,2.6c-1.5-2.6-4.5-5.1-9.6-5.1c-6.5,0-10.7,4.8-10.7,11.8
	c0,7.1,4.7,11.8,11.8,11.8c5.5,0,9-2.4,10.2-4.1v-1.9H144v-9H163v23.3H154.4z"/>
<path class="st0" d="M187.3,61.9h-9.7V46.1l-15-24.3l11.1-0.1l6.2,11c1.4,2.5,2.6,4.7,2.7,4.8h0.2c0.1-0.1,1.3-2.3,2.7-4.8l6.4-10.9
	h10.3l-15,24.3L187.3,61.9z"/>
<path class="st0" d="M228.1,49.4c0.8,3,3.6,4.8,8,4.8c3.7,0,5.9-1.3,5.9-3.8c0-3.8-4.8-3.6-9.8-4.8c-5.5-1.3-12.2-3.8-12.2-12.3
	c0-8.2,6.2-12.3,15.2-12.3c8.2,0,14.1,3.3,16.3,10.5l-9.2,2.5c-1-2.9-3.3-4.5-7.3-4.5c-3.7,0-5.2,1.4-5.2,3.6c0,3.4,3.8,3.9,9.5,5.1
	c5.9,1.1,12.5,3.7,12.5,12.3c0,8.3-5.8,12.4-15.6,12.4c-7,0-14.9-2.1-17.2-10.9L228.1,49.4z"/>
<polygon class="st0" points="207.1,20.7 207.1,37.2 213.8,37.2 215.6,20.7 "/>
</svg>
