<?xml version="1.0" encoding="utf-8"?>
<!-- Generator: Adobe Illustrator 25.3.1, SVG Export Plug-In . SVG Version: 6.00 Build 0)  -->
<svg version="1.1" id="Logos" xmlns="http://www.w3.org/2000/svg" xmlns:xlink="http://www.w3.org/1999/xlink" x="0px" y="0px"
	 viewBox="0 0 275 101.1" style="enable-background:new 0 0 275 101.1;" xml:space="preserve">
<style type="text/css">
	.st0{fill:#FFFFFF;}
</style>
<path class="st0" d="M76.4,27.7c-0.1-0.9-3-1.2-8.4-1.2h-7c0,0-4.9-12.7-9-15.3S46,7.9,41.3,8c-3.1,0.1-6.1,0.4-9.2,0.8
	c0,0-0.8-1.5-2-0.8s-1.9,2.2-1.9,2.2s-3.5,0.5-7.4,4.2s-8.4,11.5-8.4,14.2s-0.7,5.3,0,7.3c0.5,1.6,1.7,4.2,2.1,5.3
	c-0.1,0-0.1,0.1-0.2,0.2c-0.3,0.4-2.6,4-2.2,5.7c0.1,0.3,0.1,0.7,0.2,1c0.3,1.3,0.5,2.3,1,2.8c0.3,0.3,0.9,1.5,1.3,2.4l-0.2,0.4
	c-1.5-0.5-3.1-0.7-4.7-0.8h0c-0.3,0-0.5,0-0.7,0c-1.9,0-2.3,0-3.4,1.9c-0.2,0.3-0.4,0.6-0.5,0.9c-1,1.6-1.9,3.1-1.8,5
	c0.1,2.2,0.8,5.2,1.8,6C5.7,67,6.5,67.5,7.4,68c0.8,0.5,1.5,0.9,2.1,1.3c1.4,1,3,1,3.8,1c0.2,0,0.5,0,0.9,0c0.4,0,0.9,0.1,1.4,0.1
	c0.4,0,0.8,0,1.2-0.1c0.4-0.1,0.9-0.2,1.4-0.3c-0.6,0.9-1,1.5-1.2,1.7c-0.1,0.2-0.1,0.5,0.1,0.6c0.2,0.1,0.5,0.1,0.6-0.1
	c0,0,0,0,0,0c0.1-0.3,0.8-1.1,1.6-2.4c0.2,0,0.4-0.3,0.4-0.5l0,0c2-2.9,5.1-7.2,7.1-9.9c3.8-1.3,3.8-4.9,3.5-6.5
	c0.5,0.3,1.1,0.6,1.5,1c0.4,0.4,0.8,0.7,1.3,0.8c0.1,0.1,0.2,0.1,0.3,0.1c0.6,2,2.3,7,3.4,7.6l0.8,0.4c1.5,0.7,4.4,2.1,5.5,3.3
	c1.5,1.7,4.5,2.3,5.5,2.5l0.1,0c0.1,0.4,0.3,1.2-0.7,2.2c-1.6,1.6-3.2,5-3.4,5.8c0,0.2-0.1,0.5-0.2,0.9c-0.3,0.9-0.6,2-0.6,3
	c0,1.2-0.1,2.5-0.1,2.5c0,0.3,0.2,0.5,0.4,0.5c0,0,0,0,0,0h0c0.2,0,0.4-0.2,0.5-0.4c0,0,0.1-1.3,0.1-2.6c0-0.8,0.3-1.9,0.5-2.7
	c0.1-0.4,0.2-0.7,0.3-1c0.1-0.6,1.6-3.9,3.1-5.3c1-1,1.1-2,1-2.7c0.1,0,0.3,0,0.4,0h0.6c0.7-0.1,1.4-0.2,2.1-0.4
	c1-0.3,2.2-0.6,3.1-0.6c0.2,0,0.5,0,0.8,0c1.8,0.1,4.3,0.1,5.5-1.4l0.1-0.2c1.3-1.6,2.1-2.6,2.1-4.3c0-0.9,0-1.7-0.2-2.5
	c0-0.3-0.1-0.7-0.1-1.3c0,0,0,0,0,0v0v0c0,0,0,0,0,0c0,0,0,0,0,0c0,0,0,0,0,0l0,0c0,0,0,0,0,0l0,0l0,0l-0.1,0l0,0l-0.1,0h0l-0.1,0
	h-0.1h0h0c-3.8,0.8-5.3-0.7-5.8-1.6l1.3-0.1c1.7-0.2,3.4-1.2,4.9-2.7l0,0l0,0c0,0,0.1-0.1,0.1-0.1c0,0,0,0,0,0c0,0,0-0.1,0-0.1
	c0,0,0,0,0,0c0,0,0,0,0-0.1v-1.6c0-0.3-0.1-0.6-0.4-0.8c-0.6-0.4-1.7,0-3,0.5c-0.6,0.3-1.2,0.4-1.9,0.6c-1.6,0.1-3.1,1.9-3.3,2.3
	c-0.2,0.4-0.5,0.7-0.7,1.1c-0.8,0.3-1.9,0.7-2,0.7c-0.3,0.1-2.2,0.4-3.3-0.4c-0.8-0.5-1.7-1.5-2.4-2.3c-0.4-0.5-0.8-0.9-1.2-1.3
	c-0.6-0.5-2-2.2-2.1-2.9c0-0.3-0.1-0.6-0.1-1c-0.1-0.9-0.2-1.8-0.4-2.6c-0.3-1-0.5-3.4-0.5-4.1c0.4-0.6,1.5-2.2,1.3-3.3
	c3.4,0.2,7,0.5,10.7,0.4c-0.6,0.1-1.2,0.3-1.8,0.5c-2.1,0.7-2.9,2.9-2.9,3c-0.1,0.2,0,0.5,0.3,0.6c0.1,0,0.3,0,0.4-0.1l2.2-1.5
	c1.4-0.9,2.9-1.4,4.5-1.6c0.3,0,0.4-0.2,0.4-0.5c0-0.1-0.1-0.3-0.2-0.4c-0.2-0.2-0.5-0.3-0.8-0.3c1-0.1,2-0.2,3-0.4l0.1,0
	c-0.1,0.6,0.1,1.2,0.6,1.5c0.1,0.1,0.6,0.9,1.1,1.5c0.8,1.2,2,3,2.9,4c1.1,1.2,1.6,2.7,1.4,3.5c0,0.2-0.1,0.3-0.2,0.4
	c-0.6,0.3-2.5,0.4-3.7,0.3c0-0.3,0-0.5,0.1-0.8c0-0.3-0.1-0.5-0.4-0.5c-0.3,0-0.5,0.1-0.5,0.4c-0.2,1.9,0.1,2.2,0.2,2.3
	c0.1,0.1,0.2,0.1,0.4,0.1c0,0,0.1,0,0.1,0c0.2-0.1,0.4-0.3,0.3-0.5c0.2,0,0.4,0,0.6,0c1.1,0,2.6-0.1,3.3-0.5
	c0.4-0.2,0.6-0.6,0.6-1.1c0.2-1.2-0.5-3-1.7-4.2c-0.9-1-2-2.6-2.9-3.9c-0.9-1.3-1.1-1.6-1.3-1.7C61,38.2,61,38,61,37.7
	c0-0.1,0-0.2,0-0.3c5.9-1.3,8-2.5,10.4-4.5C73.9,30.7,76.5,28.7,76.4,27.7z M43.3,37.9c0.2,0.6-0.6,2-1.2,2.8C42,40.7,42,40.8,42,41
	c0,0.1,0.2,3.2,0.5,4.4c0.2,0.8,0.3,1.6,0.4,2.5c0,0.4,0.1,0.8,0.1,1.1c0.2,1.1,1.7,3,2.4,3.5c0.4,0.3,0.7,0.7,1.1,1.1
	c0.7,0.8,1.7,1.9,2.6,2.5c0.8,0.5,1.7,0.7,2.6,0.7c0.5,0,1-0.1,1.5-0.2c0.1,0,1.9-0.7,2.1-0.8c0.1,0,0.2-0.1,0.2-0.2
	c0.3-0.4,0.6-0.9,0.9-1.3c0.1-0.2,1.4-1.7,2.5-1.8c0.6,0,1.3-0.3,2.1-0.6c0.6-0.2,1.8-0.7,2.1-0.6v1.4c-1.3,1.4-2.8,2.2-4.2,2.4
	L57,55.4c-0.1,0-0.3,0.1-0.3,0.2c-0.1,0.1-0.1,0.3-0.1,0.4c0.3,0.7,0.7,1.4,1.4,1.9c0.7,0.5,1.8,1.1,3.6,1.1c0.5,0,1.1-0.1,1.6-0.1
	c0,0.3,0.1,0.6,0.1,0.8c0.1,0.8,0.2,1.6,0.1,2.5c0,1.4-0.7,2.2-1.9,3.7l-0.1,0.2c-1,1.2-3.2,1.2-4.8,1.1c-0.3,0-0.5,0-0.8,0
	c-1,0-2.2,0.3-3.3,0.6c-0.6,0.2-1.2,0.3-1.9,0.4h-0.4c-0.5,0-1.1,0-1.6-0.2c-0.9-0.2-3.6-0.7-5-2.2c-1.2-1.3-4.2-2.8-5.7-3.5
	c-0.3-0.2-0.6-0.3-0.7-0.4c-0.6-0.3-2-4.1-3.1-7.4l0,0c0,0,0,0,0,0c0,0,0,0,0,0l0,0l0,0l0,0l0,0l0,0l0,0l0,0l0,0h0h-0.1l0,0h-0.1
	c-0.1,0-0.2,0-0.3-0.1c-0.3-0.1-0.6-0.3-0.9-0.6c-0.7-0.7-1.6-1.3-2.6-1.6c-1.8-0.5-2.7-3.7-2.9-5.6c-0.1-1.7,0.5-2.6,2.3-3.5
	c1.1-0.6,2.4-0.8,3.6-0.7c0.3,0,0.5-0.1,0.5-0.4c0-0.3-0.1-0.5-0.4-0.5c-1.4-0.1-2.9,0.2-4.1,0.8c-2.1,1.1-2.9,2.4-2.8,4.4
	c0.1,1.8,1,5.4,3.3,6.3c0.2,1,0.8,4.8-3,6c-0.1,0-0.2,0.1-0.2,0.2c-0.3,0.3-4.7,6.5-7.3,10.2c-0.8,0.1-1.6,0.3-2.4,0.5
	c-0.6,0.2-1.5,0.1-2.3,0c-0.3,0-0.7-0.1-0.9-0.1c-0.8,0-2.1,0-3.2-0.8c-0.6-0.4-1.4-0.9-2.1-1.3c-0.8-0.4-1.6-0.9-2.3-1.5
	c-0.7-0.6-1.4-3.2-1.5-5.4c-0.1-1.7,0.8-3,1.6-4.5c0.2-0.3,0.4-0.6,0.5-0.9c0.8-1.4,0.9-1.4,2.6-1.4h0.7c1.6,0.1,3.2,0.3,4.8,0.9
	c0.2,0.1,0.4,0,0.5-0.2l0.5-0.9c0.1-0.1,0.1-0.3,0-0.4c-0.2-0.4-1-2.3-1.5-2.8c-0.3-0.3-0.5-1.4-0.7-2.4c-0.1-0.3-0.1-0.7-0.2-1
	c-0.2-1,1.2-3.5,2.1-5c0.1-0.1,0.1-0.2,0.1-0.3c2.7-0.1,16.5-1,25.2-3.9c0.9,0,1.9,0,2.9,0.1C43.2,37.7,43.2,37.8,43.3,37.9z"/>
<path class="st0" d="M57.9,39.5c-0.2-0.2-0.4-0.2-0.6-0.1c0,0-3.1,2.3-4.8,3c-0.2,0.1-0.3,0.4-0.2,0.6c0.1,0.2,0.2,0.3,0.4,0.3
	c0.1,0,0.1,0,0.2,0c0.8-0.3,1.5-0.8,2.3-1.2c0.1,0.5,0.6,0.8,1.1,0.8c0.9,0,0.9-1.2,0.8-2c0.5-0.4,0.9-0.6,0.9-0.7
	C58,40,58.1,39.8,57.9,39.5C57.9,39.5,57.9,39.5,57.9,39.5z"/>
<path class="st0" d="M22.9,42.3c0-0.3-0.3-0.4-0.5-0.4c-1,0.1-2.6,0.7-2.6,2c0,1-0.2,2-0.4,3c-0.2,0.6-0.6,2.2-0.6,3.2
	c0,0.4,0.1,0.8,0.2,1.2c0.1,0.8,0.4,2.4,0,2.7c-0.2,0.2-0.2,0.4-0.1,0.6c0,0,0,0,0,0c0.2,0.2,0.4,0.2,0.6,0.1c0,0,0,0,0,0
	c0.8-0.6,0.6-2.2,0.3-3.6c-0.1-0.4-0.1-0.7-0.2-1.1c0-0.9,0.4-2.4,0.6-2.9c0.3-1.1,0.4-2.2,0.5-3.3c0-0.7,1.3-1,1.8-1.1
	C22.8,42.8,23,42.6,22.9,42.3C22.9,42.3,22.9,42.3,22.9,42.3z"/>
<path class="st0" d="M24.3,50.2c-0.3,0-0.4,0.2-0.4,0.5c0.1,1.8,0.2,4,0.1,4.4c-0.3,0.4-1,1.5-1,2.5c0,0.4-0.8,1.8-1.6,2.8
	c-0.2,0.2-0.1,0.5,0.1,0.6c0.2,0.2,0.5,0.1,0.6-0.1c0.3-0.4,1.8-2.3,1.8-3.3c0.1-0.7,0.3-1.4,0.8-1.9c0.1-0.1,0.5-0.5,0.1-5
	C24.7,50.3,24.5,50.1,24.3,50.2C24.3,50.2,24.3,50.2,24.3,50.2z"/>
<path class="st0" d="M13.8,56.7c-0.3-0.1-2.6-0.9-3.7-0.4c-0.3,0.1-0.5,0.4-0.6,0.7c-0.3,0.9-1.7,2.5-2.2,3
	c-0.1,0.1-0.1,0.1-0.1,0.2c0,0.1-0.3,1.5,0.3,2.4c0.1,0.1,0.2,0.2,0.4,0.2c0.3,0,0.5-0.2,0.5-0.5c0-0.1,0-0.2-0.1-0.3
	C8,61.6,8,60.9,8.1,60.5c0.4-0.4,1.9-2.1,2.3-3.2c0-0.1,0.1-0.1,0.1-0.1c0.5-0.3,2.1,0.1,3,0.4c0.2,0.1,0.5,0,0.6-0.3
	C14.2,57,14.1,56.7,13.8,56.7L13.8,56.7L13.8,56.7z"/>
<path class="st0" d="M18,59.8c-0.2,0.1-0.4,0.3-0.3,0.6c0,0,0,0,0,0c0,0.2,0.2,1.3-0.4,2.1c-0.3,0.4-1.6,0.3-2.4,0.1
	c-0.2-0.1-0.5,0.1-0.6,0.3c-0.1,0.2,0.1,0.5,0.3,0.6l0,0c0.5,0.1,1.1,0.2,1.6,0.2c0.7,0,1.4-0.1,1.8-0.7c0.8-1.1,0.7-2.6,0.6-2.9
	C18.5,59.8,18.2,59.7,18,59.8C18,59.8,18,59.8,18,59.8z"/>
<path class="st0" d="M32.7,48.4c-0.8-0.4-1.8-0.2-2.4,0.4c-0.3-0.8-0.7-2.2-0.7-3c0-0.8,1.6-1.4,2.4-1.7c0.2-0.1,0.4-0.3,0.3-0.6
	c-0.1-0.2-0.3-0.4-0.6-0.3l0,0c-0.3,0.1-3,0.9-3,2.5c0,1.4,1,4,1,4.1c0.1,0.2,0.2,0.3,0.4,0.3c0.2,0,0.4-0.1,0.4-0.3
	c0.1-0.1,0.6-1.2,1.8-0.7c1.2,0.5,1,2,1,2.1c-0.1,0.2,0.1,0.5,0.4,0.5h0.1c0.2,0,0.4-0.2,0.5-0.4C34.3,50.7,34.2,49.1,32.7,48.4z"/>
<path class="st0" d="M242.9,47.5c-0.2,0-0.5-0.2-0.8-0.5c-0.3-0.3-0.6-0.7-1.1-0.7c-0.8,0.1-1.8,1.3-1.8,2.1v1.7
	c0,0.3,0.2,0.5,0.5,0.5c0.3,0,0.5-0.2,0.5-0.5v-1.7c0-0.4,0.6-1.2,0.9-1.2c0.1,0.1,0.3,0.2,0.4,0.4c0.3,0.4,0.8,0.9,1.5,0.9
	c0.4,0,0.8-0.3,1.1-0.8c0.8-1.1,1.1-2.6,0.8-3.9c-0.1-0.5-0.4-1-0.9-1.2c-1-0.5-2.4,0.2-2.6,0.3c-0.2,0.1-0.3,0.4-0.2,0.6
	c0.1,0.2,0.4,0.3,0.6,0.2c0.3-0.2,1.2-0.5,1.8-0.3c0.2,0.1,0.3,0.3,0.4,0.5c0.2,1.1-0.1,2.3-0.7,3.2C243.1,47.4,243,47.5,242.9,47.5
	z"/>
<path class="st0" d="M218.1,41c0.1,0.3,0.4,0.5,0.7,0.6c0.1,0.1,0.3,0.1,0.4,0.1c0.1,0,0.3,0,0.4-0.1c0.3-0.2,0.5-0.7,0.5-1.1
	c0.2,0.1,0.5,0.2,0.7,0.2h0.1c0.3,0,0.5-0.2,0.5-0.5c0-0.2-0.2-0.4-0.4-0.4c-0.4-0.1-1.9-0.8-3.1-1.6c-0.2-0.1-0.5-0.1-0.6,0.2
	c-0.1,0.2-0.1,0.5,0.2,0.6l0,0c0.1,0.1,0.5,0.3,0.9,0.5C218.1,39.8,217.9,40.4,218.1,41z"/>
<path class="st0" d="M215.9,49.3c-0.4,0.4-1.5-0.2-2-0.5c-0.2-0.2-0.5-0.1-0.6,0.1c-0.2,0.2-0.1,0.5,0.1,0.6c0,0,0,0,0,0
	c0.1,0.1,1.1,0.8,2.1,0.8c0.3,0,0.7-0.1,1-0.3c0.2-0.2,0.2-0.4,0.1-0.6C216.4,49.2,216.1,49.1,215.9,49.3L215.9,49.3z"/>
<path class="st0" d="M266.4,37.7l-0.5,0l0,0L266.4,37.7c-0.2-2.8-0.4-5.7-0.4-8.5c0-2.4-2.4-5.7-3.8-7.4c-0.3-0.4-0.5-0.7-0.6-0.9
	c-0.7-1.2-3.8-3.9-7.7-5.3c-1.8-0.6-1.9-1.1-1.9-1.1c0-0.1,0.2-0.2,0.4-0.3l0.1,0l2-1.2c0.2-0.1,0.3-0.4,0.2-0.6
	c-0.1-0.1-0.2-0.2-0.3-0.2c-0.1,0-7.5-1.9-10.8-3.2c-3.7-1.4-13.2,0.5-19.4,3c-6.8,2.8-7,10.9-7,11c0,0,0,0,0,0.1
	c0.2,1.4,0.4,2.1,0.6,2.4c-0.6,2-2.7,9.6-2.7,10.3c0,0.1,0,0.3,0,0.4s0,0.4,0,0.6l0,0v0.8c0,1-0.2,2.2-0.7,3c-1,1.5-3.4,5.2-4.5,6.8
	c-0.5,0.7-0.5,1.6-0.2,2.4c0.4,0.8,1.2,1.4,2.1,1.5c0.7,0.1,1.3,0.1,2,0v3.2c0,0.3,0,1.3,0.7,1.5c0.3,0.1,1.8,0.2,2.8,0.1
	c-0.5,0.9-1.3,1.6-2.2,2.1c0,0-0.1,0-0.1,0.1c-0.3,0.2-0.4,0.6-0.4,0.9c0,0.9,0.9,1.7,1.1,1.9c0,0.3,0,0.7-0.1,1l0,0.1
	c-0.3,1.4-0.7,3.9,1.3,5.3c1.6,1.1,2.8,1.1,4.3,1c0.7,0,1.4,0,2.1,0c0.4,0,0.7,0,1.1,0c1.4,0,2.8-0.4,4-1.1c0.8,1,1.7,1.9,2.7,2.7
	c1.6,1.3,5.4,9.9,6.7,13.1c0.1,0.2,0.2,0.3,0.4,0.3c0.1,0,0.1,0,0.2,0c0.2-0.1,0.3-0.4,0.2-0.6c0,0,0,0,0,0
	c-0.2-0.5-4.9-11.7-7-13.4c-0.9-0.7-1.8-1.6-2.5-2.5c1.2-0.8,2.4-1.8,3.4-2.9c1.5-1.6,2.4-2.4,2.8-2.8c0.1,0,0.2-0.1,0.3-0.1
	c0.4-0.5,0.7-0.8,0.3-1.1s-0.5-0.1-1.3,0.6c-0.6,0.6-1.5,1.5-2.8,2.8c-4.3,4.4-6.7,4.3-8.6,4.1c-0.3,0-0.6,0-1,0c-0.4,0-0.8,0-1.2,0
	c-1.4,0.1-2.4,0.1-3.7-0.9c-1.5-1.1-1.1-3.1-0.9-4.4l0-0.1c0.2-1,0.1-1.6-0.2-1.9c-0.3-0.2-0.8-0.8-0.8-1.2c0-0.1,0-0.1,0.1-0.2
	c2.3-1.2,3.1-3.7,3.2-3.8c0.1-0.2-0.1-0.5-0.3-0.6c-0.2,0-0.3,0-0.5,0.1l-0.4,0.4c-0.3,0.2-2.3,0.2-2.8,0.1
	c-0.1-0.2-0.1-0.4-0.1-0.6v-3.8c0-0.3-0.2-0.5-0.5-0.5c0,0,0,0-0.1,0c-0.8,0.1-1.5,0.1-2.3,0c-0.6-0.1-1.1-0.4-1.3-1
	c-0.2-0.5-0.2-1,0.1-1.5c1-1.5,3.5-5.2,4.5-6.8c0.6-0.9,0.8-2.1,0.8-3.1l2.1-0.9l4.1,1.2c0,0,0.1,0,0.1,0c0.3,0,0.5-0.2,0.5-0.5
	c0-0.2-0.1-0.3-0.2-0.4c-0.9-0.6-3.7-2.6-4.7-2.6c-0.6,0-1.3,0.5-1.9,1c0.1-0.7,1.7-6.5,2.7-10.1c0.2-0.2,0.9-0.9,1.7-0.8
	s1.6,0.9,2.3,2.3c1.6,3.2,3.4,4.8,5.1,6.3c0.8,0.7,1.5,1.4,2.3,2.2c0.8,0.9,1.4,2.1,2,3.2c1,1.9,1.9,3.7,3.8,3.6
	c1.3,0,2.5-0.3,3.6-0.8l0.5-0.2c-0.1,0.2,0,0.5,0.2,0.6c0.2,0.1,0.4,0,0.5-0.1c0.5-0.5,1.9-1.8,3.1-1.7l0.4,0.2
	c0.4,0.1,0.7,0.3,1.1,0.5c0.4,0.3,0.8,0.7,1,1.1c0.3,0.8,0.4,1.6,0.5,2.4c0,1-0.2,2-0.5,2.9c-0.6,1.1-1.8,2.3-2.6,3.2
	c-0.4,0.3-0.7,0.7-1,1l0,0c-0.4,0.4-1.1,0.9-1.3,1.1l-0.1,0c-1,0.4-2.3,0.9-2.7,0.2c-0.1-0.2-0.4-0.3-0.6-0.2
	c-0.2,0.1-0.3,0.4-0.2,0.6l0,0c0.3,0.6,0.9,0.9,1.6,0.9c0.5,0,1-0.1,1.4-0.3c-0.1,1.1,0.4,2.1,0.7,2.7c0.1,0.1,0.1,0.2,0.1,0.3
	c0,0.3,0.2,0.6,2.5,2.9c1.3,1.3,2.9,2.9,4.3,4.1c0.4,0.4,1.1,0.5,1.8,0.3l1.2,0.1h1.3l5.1,8.8c0.1,0.1,0.2,0.2,0.4,0.2
	c0.3,0,0.5-0.2,0.5-0.5c0-0.1,0-0.2-0.1-0.2l-5-8.7c0.2-0.2,0.6-0.4,1-0.8c0.3-0.2,0.5-0.6,0.5-0.9c0-0.7-0.2-1.3-0.6-1.8
	c-0.1-0.2-0.2-0.4-0.1-0.6c0.1-0.1,0.3-0.1,0.5,0c0.9,0.3,1.8,0,2.4-0.7c0.4-0.4,0.4-1,0.1-1.5c-0.2-0.4-0.2-0.6-0.2-0.7
	c0-0.1,0.2-0.2,0.6-0.2c0.7,0,1.4-0.3,1.9-0.7c0,0,0,0,0.1-0.1c0.3-0.5,0.7-1,1.1-1.5c0.3-0.3,1.2-0.7,1.8-0.9
	c0.1-0.1,0.2-0.2,0.3-0.3l0.7-2.9C265.1,46.4,266.5,39.9,266.4,37.7z"/>
<path class="st0" d="M87.8,22.6c1.4-0.2,2.3-0.8,3.4-0.8c-0.3,1.4-0.4,3.2-0.8,4.6c-0.2,4.3-0.3,7.2,0.4,11c0.8,0.5,0.8,1.9,2.4,1.7
	c0.2-0.5,0.3-1.1,0.6-1.5c-0.3-5,0.2-11.7,1.4-16.4c3.3-0.9,6.1-0.4,9.4-1.4c0.1-0.5,0.5-0.5,0.5-1.1c-0.9,0.2-0.3-0.4-0.6-0.8
	c-2-1.5-6.2-1-8.3-1.1c-0.1-1.5-1.1-2-1.6-3c-2.5-0.7-2.4,1.5-2.4,3.5c-2,0.1-4.8,0.8-7,1.4C83.8,20.4,86,22.2,87.8,22.6z"/>
<path class="st0" d="M100.1,29.2c-0.5,1.6,0.7,2.1,1.4,2.8c-0.2,2.6-1.4,5.1-0.4,7.3c1,0.3,1.5,0.4,2.4,0c0.1-0.2,0.2-0.4,0.5-0.5
	c-0.3-3.4,0.5-5.2,1-8c1.8-0.8,3.3-1.9,5.4-2.4c-0.2,2.5-0.4,5.9-0.2,8.3c0.5,0.5,1.1,0.8,1.7,1.1c0.5-0.1,1.1-0.3,1.4-0.6
	c0.3-3.1,0.2-6.2,0.4-9.6c1.2-0.7,2.8-0.4,4.1-0.8c0.3-2.1-2.2-2.3-4-2.4c0-3.3,0-6.5-1.7-8.1c-2-1.5-4-0.2-5,1.1
	c-2.3,2.8-4,8.2-4.7,11.1C101.6,28.8,100.8,29,100.1,29.2z M110,18.8c0.8,1.4,0.4,4.1,0.5,6c-1.5,0.5-3,1-4.5,1.6
	C107.2,23.7,108.1,20.8,110,18.8L110,18.8z"/>
<path class="st0" d="M117.2,34.6c1,1.8,2.6,3.5,5.5,3.1c2-1.1,4.5-2.1,6.1-4c0-1-0.5-1.4-1.1-1.7c-3.1,0-4.3,2.5-6.9,2.7
	c-0.3-6.8,2.3-10.8,2.5-17.2c-1.2-0.4-1.9-2.1-3.4-1.4C119.3,22.5,116.4,28.2,117.2,34.6z"/>
<path class="st0" d="M130.8,33.4c-0.1,2.1-0.1,4.8,0.6,6.4c0.7,0.3,1.3,0.6,2.3,0.7c2.1-1.5-0.7-3.9,0-6.1c3.4,0.8,6.2,1.1,10,1.7
	c0.7-1.2-0.2-2.4-0.8-3.1c-3-0.9-6.7-1-9.1-1.8c0.1-0.7,0.1-1.8,0.2-2.8c3.7-3.3,7.3-6.6,11.5-9.4c0.1-1.9-1.1-2.9-2.4-3
	c-2.6,2.3-5.7,4.7-8.3,6.7c0.2-2.8,1.7-5.8,1.2-8.6c-0.8-0.2-1.1-0.9-2.3-0.7c-1.2,4.2-2,8.4-2.5,12.7c-1.1,0.8-2.1,1.9-2.8,3.1
	C128.1,31.9,129.9,32.2,130.8,33.4z"/>
<path class="st0" d="M146.8,34.7c0.2,0.5,0.5,1,0.5,1.7c0.4,0.2,0.6,0.6,1,0.9c0.6-0.3,1.1,0,1.6,0.1c0.3-0.3,0.6-0.5,0.7-1
	c-0.6-5.4,0.3-11.3,1.1-16.7c-0.2,0-0.2-0.3-0.2-0.6c-0.8-0.6-1.7-1.2-3.2-1.1c-0.5,0.2-0.6,0.8-0.8,1.3c0.6,2.8-0.7,6.1-0.5,9.6
	C146.5,30.3,146.9,32.6,146.8,34.7z"/>
<path class="st0" d="M155.6,37.1c0.5-0.7,0.2-1.3,0.2-2.2c0.1-4.4,2.2-8.1,2.8-12.2c0.5,2.7,1.1,5.7,2,8.6c1.1,3.9,3.2,8.1,7.8,6.7
	c0.1-0.4,0.3-0.8,0.5-1.1c-0.1-7.1-0.3-13,0.1-20.7c-0.5-0.4-1.5-0.3-2.3-0.4c-0.5,0.1-0.5,0.5-0.8,0.7c-0.2,6.1-0.4,11.2-0.5,17.7
	c-1.8-2-2.2-6-3-8.6c-0.2-1.2-0.7-2.8-1.1-4.5c-0.3-1.6-0.5-3.4-1.6-4.4c-0.6-0.2-1.8,0-2.4,0.1c-1.4,2-1.7,5.1-2.3,7.9
	c-1,3.4-2.8,7.7-2.5,12.6C153.5,37.5,154.8,37.5,155.6,37.1z"/>
<path class="st0" d="M176.1,36.2c2.4,0.2,4.1-1.6,5.6-2.7c-0.5,3.1,0.1,6.3,3.2,6.2c0.8-0.9,0.8-2.4-0.1-3.2
	c-0.1-0.1-0.2-0.2-0.3-0.2c0.1-3.8,2.3-6.4,2.8-10.3c-0.5-0.9-1.1-1.8-2.5-1.9c-2.7,0.7-4.5,2.3-7.3,2.8c-0.1,2.4,2.7,3.3,4.4,2.2
	c-2,1.6-3.6,3.9-6.7,4.1c-0.2-0.3-0.6-0.3-0.7-0.6c0-0.6-0.3-0.9-0.4-1.5c0.9-5.9,3-10.7,7.7-12.8c0.5,0.7,1.6,1.5,2.6,1
	c0.2-1.3-0.4-1.8-0.5-2.8c-0.5-0.4-1.1-0.7-1.6-1.1c-3.9-0.3-6.1,2.5-8.1,5.5c-1.5,2.3-2.4,5.4-3,8.4c-0.1,1.3,0.2,2.1,0.2,3
	C172.3,34.2,173.7,36,176.1,36.2z"/>
<path class="st0" d="M190,79c-3.9,0-5.9-4.2-6.6-6.6l-1.6,0.4c0.3,2.4,0.8,5.5,1.2,6.5c0.7,0.3,1.5,0.6,2.3,0.8
	c1.3,0.4,2.6,0.6,3.9,0.6c5.6,0,9.3-3.4,9.3-7.8c0-4.2-3.3-6.3-6.9-8.1c-3.3-1.6-5-2.9-5-5.4c0-2.2,1.5-4,4-4c3.3,0,4.5,2.8,5.2,5.3
	l1.5-0.3c-0.3-2.6-0.6-4.2-0.8-5.7c-1.1-0.3-3.1-1-5.3-1c-5.5,0-8.7,3.3-8.7,7.5s3.3,6.2,6.8,7.9c2.9,1.6,4.9,3,4.9,5.6
	C194.3,77.2,192.7,79,190,79z"/>
<polygon class="st0" points="138.2,44.5 138,44.5 137.7,44.5 137.7,44.5 74.9,45.7 137.7,46.8 137.7,46.8 137.9,46.8 138.2,46.8 
	138.2,46.8 201,45.6 138.2,44.5 "/>
<polygon class="st0" points="166.7,89.4 201,88.4 166.7,87.5 "/>
<path class="st0" d="M133.4,85.9c0.6,0,0.8,0.2,0.8,0.5c0,0.5,0.1,1,0.1,1.4v1.8h0l-3.3-4h-1.5v0.3c0.3,0,0.5,0.1,0.7,0.3
	c0.2,0.2,0.2,0.3,0.2,0.9V89c0,0.5,0,0.9-0.1,1.4c0,0.4-0.2,0.5-0.7,0.5v0.3h2.1v-0.3c-0.6,0-0.8-0.2-0.8-0.5c0-0.3-0.1-0.7-0.1-1.4
	v-2h0l3.5,4.4h0.4v-3.5c0-0.5,0-1,0.1-1.4c0-0.3,0.2-0.5,0.7-0.5v-0.3h-2.1L133.4,85.9z"/>
<path class="st0" d="M117.1,85.5c-1.9,0-2.9,1.4-2.9,3c0,1.7,1.2,2.9,2.8,2.9c1.6,0,2.8-1.1,2.8-3C119.8,86.7,118.6,85.5,117.1,85.5
	z M117.1,91c-1.1,0-1.8-1.2-1.8-2.7c0-1.5,0.7-2.4,1.6-2.4c1,0,1.8,1,1.8,2.7C118.7,90.2,118,91,117.1,91z"/>
<path class="st0" d="M125.1,77.2c-0.9,1-2.2,1.3-4.5,1.3c-1.7,0-3.1-0.1-3.8-0.5c-0.7-0.4-1-1.3-1-3.2v-7.1h3.1
	c3.3,0,3.7,0.2,4.2,3.1h1.5v-8h-1.5c-0.5,2.7-0.9,3-4.2,3h-3.1v-8.5c0-1.3,0.1-1.4,1.5-1.4h2.4c2.4,0,3.5,0.3,4,1.1
	c0.6,0.8,1,1.8,1.4,3.3l1.6-0.2l-0.4-5.9h-18.3v1.5c2.9,0.2,3.3,0.4,3.3,3.8v15.4c0,3.3-0.4,3.5-3.8,3.8v1.5h19.7
	c0.3-1.2,1.2-5,1.4-6.6l-1.5-0.3C126.6,75.1,125.9,76.3,125.1,77.2z"/>
<path class="st0" d="M121.3,85.6V86c0.6,0,0.7,0.1,0.7,0.8v3.3c0,0.7-0.1,0.8-0.7,0.9v0.3h2.5v-0.3c-0.8-0.1-0.8-0.1-0.8-0.9v-1.4
	h0.8c0.8,0,0.8,0.1,0.9,0.7h0.3v-1.7h-0.3c-0.1,0.5-0.2,0.6-0.9,0.6H123v-1.9c0-0.3,0-0.3,0.3-0.3h0.5c0.5,0,0.7,0.1,0.9,0.3
	c0.2,0.2,0.3,0.5,0.3,0.7l0.3-0.1c0-0.5-0.1-1.1-0.1-1.3L121.3,85.6z"/>
<path class="st0" d="M88.5,55.9v-1.5H77.2v1.5c3.2,0.2,3.5,0.5,3.5,3.8v15.5c0,3.3-0.3,3.5-3.4,3.8v1.5h11.3v-1.5
	c-3-0.3-3.4-0.5-3.4-3.8v-7.5h11.6v7.5c0,3.3-0.3,3.5-3.6,3.8v1.5h11.5v-1.5c-3.1-0.3-3.4-0.5-3.4-3.8V59.6c0-3.3,0.3-3.5,3.5-3.8
	v-1.5H93.6v1.5c2.9,0.2,3.3,0.5,3.3,3.8v5.9H85.3v-5.9C85.3,56.4,85.6,56.1,88.5,55.9z"/>
<path class="st0" d="M139.8,85.5c-1.9,0-2.9,1.4-2.9,3c0,1.7,1.2,2.9,2.8,2.9c1.6,0,2.8-1.1,2.8-3C142.5,86.7,141.3,85.5,139.8,85.5
	z M139.8,91c-1.1,0-1.8-1.2-1.8-2.7c0-1.5,0.7-2.4,1.6-2.4c1,0,1.8,1,1.8,2.7C141.4,90.2,140.7,91,139.8,91L139.8,91z"/>
<path class="st0" d="M180.6,66.1c0-3.8-1.4-6.7-3.3-8.6c-2.6-2.5-6.3-3.4-11.3-3.4h-11.3v1.5c2.9,0.2,3.3,0.5,3.3,3.8v15.4
	c0,3-0.3,3.5-2.6,3.7c-0.4,0-0.8,0-1.2,0c-1.8-0.3-2.4-1-3.5-4c-2.5-6.6-4.9-13.8-7.3-20.4h-2.1l-7.9,20.5c-1.3,3.4-1.8,3.7-4.4,4
	v1.5h8.9v-1.5c-2.9-0.3-3-0.8-2.4-2.9c0.4-1.6,1-3,1.4-4.3h7.9c0.6,1.8,1.3,3.6,1.7,4.9c0.5,1.6,0.3,2-2.1,2.3v1.5H164
	c4.9,0,8.9-1,11.8-3.3C178.7,74.5,180.6,71,180.6,66.1z M137.4,69.4l3.3-9.3h0.1l3.1,9.3H137.4z M166,78.4c-2.8,0-3.6-0.9-3.6-3.7
	V58.5c0-1.3,0.1-1.8,0.4-2.2c0.3-0.3,1.2-0.5,2.7-0.5c2.6,0,4.7,0.6,6.4,2.1c2.3,1.8,3.6,5.1,3.6,8.9C175.5,73.7,172,78.4,166,78.4
	L166,78.4z"/>
<path class="st0" d="M161.1,90.1c-0.5-1.5-1.1-3.1-1.6-4.5l-0.4,0.1l-1.7,4.5c-0.3,0.7-0.4,0.8-1,0.9v0.3h1.9v-0.3
	c-0.6-0.1-0.7-0.2-0.5-0.6c0.1-0.3,0.2-0.7,0.3-0.9h1.7c0.1,0.4,0.3,0.8,0.4,1.1c0.1,0.4,0.1,0.4-0.5,0.5v0.3h2.3v-0.3
	C161.5,90.9,161.3,90.8,161.1,90.1z M158.2,88.9l0.7-2h0l0.7,2H158.2z"/>
<path class="st0" d="M153.6,87.9c-0.7-0.4-1.1-0.6-1.1-1.2c0-0.5,0.3-0.9,0.8-0.9c0,0,0,0,0.1,0c0.7,0,1,0.6,1.1,1.1l0.3-0.1
	c-0.1-0.5-0.1-0.9-0.2-1.2c-0.4-0.1-0.8-0.2-1.1-0.2c-1.2,0-1.9,0.7-1.9,1.6s0.7,1.3,1.5,1.7c0.6,0.3,1.1,0.6,1.1,1.2
	c0,0.5-0.3,0.9-0.8,0.9c0,0-0.1,0-0.1,0c-0.9,0-1.3-0.9-1.4-1.4l-0.3,0.1c0,0.5,0.1,0.9,0.3,1.4c0.2,0.1,0.3,0.1,0.5,0.2
	c0.3,0.1,0.6,0.1,0.8,0.1c1.2,0,2-0.7,2-1.7C155.1,88.8,154.4,88.3,153.6,87.9z"/>
<polygon class="st0" points="109.2,89.4 109.2,87.5 74.9,88.5 "/>
<path class="st0" d="M147.1,85.5c-1.9,0-2.9,1.4-2.9,3c0,1.7,1.2,2.9,2.8,2.9c1.6,0,2.8-1.1,2.8-3C149.8,86.7,148.6,85.5,147.1,85.5
	z M147.1,91c-1.1,0-1.8-1.2-1.8-2.7c0-1.5,0.7-2.4,1.6-2.4c1,0,1.8,1,1.8,2.7C148.7,90.2,148,91,147.1,91z"/>
</svg>
