<?xml version="1.0" encoding="utf-8"?>
<!-- Generator: Adobe Illustrator 25.3.1, SVG Export Plug-In . SVG Version: 6.00 Build 0)  -->
<svg version="1.1" id="Logos" xmlns="http://www.w3.org/2000/svg" xmlns:xlink="http://www.w3.org/1999/xlink" x="0px" y="0px"
	 viewBox="0 0 275 93" style="enable-background:new 0 0 275 93;" xml:space="preserve">
<style type="text/css">
	.st0{fill:#FFFFFF;}
</style>
<g>
	<path class="st0" d="M133.5,38.8c-4.5,1.8-9.1,4.2-13.4,6.4c0.4-2.8,2.9-6.7,3.3-9.5c0.1-1,0.1-2.3-0.9-2.5c-0.5-0.1-1,0.2-1.4,0.5
		c-0.1,0.1-0.2,0.2-0.3,0.2c-0.1,0.1-0.2,0.3-0.3,0.4c-0.1,0.2-0.3,0.3-0.4,0.5c-0.2,0.2-0.3,0.4-0.5,0.6c-0.2,0.2-0.4,0.4-0.6,0.7
		c-0.2,0.2-0.4,0.5-0.6,0.7c-0.2,0.3-0.4,0.5-0.6,0.8c-0.2,0.3-0.4,0.5-0.7,0.8c-0.2,0.3-0.4,0.5-0.7,0.8c-0.2,0.3-0.4,0.5-0.7,0.8
		c-0.2,0.3-0.4,0.5-0.7,0.8c-0.2,0.2-0.4,0.5-0.6,0.7c-0.2,0.2-0.4,0.4-0.6,0.6c-0.2,0.2-0.4,0.4-0.5,0.5c-0.2,0.1-0.3,0.3-0.5,0.4
		c-0.1,0.1-0.3,0.2-0.4,0.3c-0.2,0.1-0.5,0.2-0.8,0.2c-0.1,0-0.2-0.1-0.1-0.2c0.1-0.3,0.2-0.6,0.4-0.9c0,0,0.1-0.1,0.1-0.1
		c0,0,0.1-0.1,0.1-0.1c0.1-0.1,0.1-0.2,0.2-0.2c0.6-0.9,1.4-1.7,1.9-2.6c0.3-0.5,0.7-1.1,0.8-1.7c0.1-0.6-0.3-1.4-1-1.4
		c-0.7-0.1-1.2,0.5-1.5,1.1c-2.3,3.6-5,6.8-7.7,10.1c-0.7,0.9-1.5,1.8-2.4,2.6c-0.6,0.5-1.3,1-2.1,0.6c-0.9-0.6-1-2.3-1.2-3.3
		c-0.2-1-0.3-2-0.3-3c0-1.6,0.4-3.2,0.7-4.8c0.5-2.6,1.9-5.3,3.5-7.8c0.8-1.2,1.4-2.1,1.9-2.8c1-1.5,1.7-2.6,3.1-5.1
		c0.4-0.7,2.1-5,2.2-5.9c0.1-0.6-0.1-1.1-0.5-1.3c0,0-0.1,0-0.1-0.1l0,0l0,0c-0.4-0.2-0.9-0.1-1.4,0.2c-0.4,0.2-0.8,0.6-1.1,1
		c-0.6,0.8-1.2,1.6-1.8,2.5c-2.7,4.1-4.3,8.5-6.1,13.8c-0.2,0.7-0.6,1.3-1.1,2c-0.1,0.2-0.2,0.3-0.3,0.5c0,0,0-0.1-0.1-0.1
		c-0.9-1.5-2.1-1.9-3.7-1.2c-0.6,0.3-1.2,0.6-1.8,1l-0.5,0.5c-1.3,1.2-2.6,2.4-3.8,3.7c-1.2,1.4-2.4,2.9-3.6,4.3
		c-0.7,0.9-1.4,1.8-2.2,2.7c-0.7,0.9-1.5,1.8-2.4,2.6c-0.7,0.7-1.5,1-2.3,0.8c-0.6-0.2-1-0.7-1.2-1.4c-0.5-2.1-0.6-4.3-0.2-6.7
		c0.6-3.9,2.1-7.6,4.2-10.7c1.8-2.7,3.4-5.6,4.9-8.4c0.5-1,1.1-2,1.7-3c0.3-0.6,0.6-1.4,0.8-2.3c0.1-0.4,0-1.4-0.5-1.6
		c0,0,0,0-0.1,0l0-0.1l-0.1,0.1c-0.4-0.1-0.9,0-1.5,0.3c-0.4,0.2-0.7,0.6-0.9,0.9l-0.2,0.2c-0.6,0.7-1.1,1.5-1.6,2.2
		c-2.7,4.1-4.3,8.5-6.1,13.8c-0.2,0.7-0.6,1.3-1.1,1.9c-0.1,0.2-0.2,0.3-0.3,0.5c-1-1.7-2.1-2.1-3.9-1.3c-1.4,0.6-2.4,1.6-3.2,2.7
		c-0.2,0.2-0.5,0.5-0.8,0.7c-0.8,0.5-1.6,1-2.4,1.5c-0.9,0.5-1.7,1.1-2.6,1.6c-0.6,0.4-1.3,0.8-1.9,1.2c-1.1,0.7-2.2,1.5-3.4,2.1
		c-0.7,0.4-1.2,0.4-1.2,0.4c-0.4-0.5,0.1-1.8,0.5-2.6c0.1-0.2,0.1-0.3,0.2-0.5c0.5-1.4,1.1-2.4,1.8-3.3l0-0.1c0.2-0.2,0.5-0.6,0.5-1
		c0.1-0.4-0.1-0.8-0.4-1c-0.3-0.3-0.7-0.4-1.1-0.3c-0.5,0.2-0.8,0.6-1,0.9c-1.2,1.9-2.6,4.2-2.7,6.7c-0.1,1.2,0.4,2.2,1.2,2.5
		c0.3,0.1,0.7,0.2,1.1,0.1c1.2-0.1,2.3-0.9,3.3-1.6c0.2-0.2,0.4-0.3,0.7-0.5l1.4-0.9c0.9-0.6,1.8-1.2,2.6-1.8
		c0.7-0.5,1.4-0.9,2.1-1.3c-1.1,2-2.1,4.1-2.3,6.5c-0.2,1.4,0.1,2.4,1.8,2.6c2.3,0.4,4-1.7,5.1-3c1.3-1.6,2.4-3.3,3.5-5.3
		c0,0.2,0,0.4-0.1,0.7c0,0.3-0.1,0.6-0.1,0.9c-0.2,2.2-0.4,4.6,0.5,6.9c0.5,1.3,1.4,2.1,2.6,2.4c1.3,0.3,2.6-0.2,3.8-1.3l0.1,0
		c0.1-0.1,0.2-0.1,0.2-0.2l0.9-1c1.7-2,3.3-4,4.9-6c0.1-0.1,0.2-0.2,0.2-0.3c-0.5,1.2-0.8,2.4-0.9,3.8c-0.1,0.8,0.2,1.5,0.6,1.8
		c1.8,1.3,4.5-1.1,5.6-2.3c1.7-1.8,3.5-3.8,4.5-6.3C97.1,40.9,97,42.6,97,43c-0.3,2.4,0,4.7,1,7c0.5,1.3,1.4,2.1,2.4,2.3
		c1,0.2,2.1-0.2,3.2-1.2c0.6-0.5,1.3-1.3,1.9-2c1.2-1.5,2.4-3,3.6-4.4c0.1-0.1,0.2-0.2,0.3-0.4c0,0.2-0.1,0.5-0.1,0.7
		c0,0.5,0.2,0.9,0.5,1.2c1,0.7,3.7-1.3,4.5-2.1c3.1-3.2,4.4-4.4,6.1-6.8c-0.4,0.5-1,2.5-1.6,4.4c-0.5,1.5-1.3,4.6-1.3,4.6
		s-3.7,2.2-5.2,2.9c-9.8,4.6-19.3,10.8-24.6,20.3c-1.8,3.2-3,6.8-2.5,10.4c0.5,3.6,3.2,7,6.7,7.6c3.1,0.5,6.1-1.2,8.5-3.2
		c5.7-4.6,9.5-11.1,12.5-17.8c2.2-5,4-10.1,5.4-15.4c0.3-1.3,1.1-3.6,1.1-3.6s2.1-1.3,3.1-1.8l8-3.8c1.6-0.7,3.3-1.7,3.6-3.4
		L133.5,38.8z M108,19.4c-1,2.6-2.5,4.9-3.9,7.2c-0.1,0.1-0.1,0.2-0.2,0.3C104.9,24.3,106.1,21.7,108,19.4z M85.5,19.4
		c-1,2.6-2.5,4.9-3.9,7.1c-0.1,0.1-0.1,0.2-0.2,0.3C82.4,24.2,83.7,21.7,85.5,19.4z M73.4,39.4c-0.4,1-1.1,2-1.5,2.7
		c-1.1,1.8-2.4,3.5-3.8,5c-0.5,0.6-1.5,1-2,0.7c-0.2-0.2-0.2-1.1,0-1.8c1.2-4.1,2.7-6.6,5.4-8.8c0,0,0.1,0,0.1,0
		c0.7-0.6,1.8-0.9,2.1,0.2C73.8,38,73.7,38.8,73.4,39.4z M95.9,38.9c-1.3,2.6-2.6,4.8-4.6,7c-1.7,1.9-3.3,1.9-2.9,0
		c0.3-1.4,1.1-2.8,1.8-4c1-1.7,2.3-3.4,3.8-4.7c0,0,0.1-0.1,0.1-0.1c0.5-0.4,1-0.6,1.3-0.6c0.2,0,0.3,0,0.3,0.1
		C96.1,37.1,96.1,38.3,95.9,38.9z M105.8,75.9c-2.3,3.4-5.3,6.3-8.8,8.5c-1.4,0.9-3.1,1.3-4.9,1.2c-2.5-0.1-4.3-1.9-4.8-4.7
		c-0.5-3,0-6.1,1.6-9.6c2-4.3,5-8,9.2-11.4c5.3-4.3,11.2-7.4,17.5-10.7c0.2-0.1,0.7-0.3,1.2-0.6C114.3,58.3,111.4,67.7,105.8,75.9z"
		/>
	<path class="st0" d="M54.3,37.8c0.4,0,0.5-0.2,0.6-0.3c0.2-0.3,0.1-0.7,0-1c0,0,0-0.1,0-0.1c-0.3-1.3-1.3-2.1-2.6-2.1
		c-4.3-0.1-8.7,0.5-12.9,1.5c-4,1-8.3,2.1-12,4.1L27,40.1c-0.4,0.2-0.8,0.7-0.6,1.3c0.2,0.7,0.8,0.6,1.1,0.6c0.1,0,0.1,0,0.2,0
		c0.3,0,0.6-0.1,0.9-0.2c0.1,0,0.1-0.1,0.2-0.1c0.6-0.3,1.3-0.6,1.9-0.9c1.3-0.6,2.7-1.2,4.1-1.7c1.9-0.7,3.8-1.2,5.6-1.8
		c0.5-0.1,0.9-0.3,1.4-0.4c-1.3,1.1-2.5,2.2-3.8,3.4c-3.5,3.1-7.1,6.3-10.7,9.3c-4,3.4-8.2,6.4-11.8,8.9c-2.5,1.8-4.9,2.9-7.3,3.5
		c-1.5,0.3-2.7,0.2-3.6-0.4C3.8,61.1,3.2,60,3,58.5c-0.3-2.6,0.2-5.1,0.6-7.1c1.2-4.7,3.2-9.6,6.3-15.2c5.3-9.6,12.6-17.8,21.7-24.2
		c2.6-1.8,5.4-3.2,8.2-3.9c1.7-0.5,3-0.4,3.9,0.2c1.6,1,1.6,3.2,1.3,4.9c-0.6,3.4-1.7,6.3-3.1,9.4c-0.3,0.7-0.7,1.5-1,2.2
		c0,0.1-0.1,0.2-0.2,0.3c-0.2,0.4-0.4,0.9-0.5,1.3c-0.1,0.6,0,1,0.2,1.2c0.2,0.2,0.4,0.3,0.6,0.3c0.7,0,0.9-0.5,1-0.7l0.4-0.9
		c1-2.1,2-4.2,2.8-6.3c1.1-2.7,2.1-5.7,2-8.9c-0.1-1.9-0.8-3.4-2-4.4c-1.2-1-2.8-1.3-4.7-0.9c-2.8,0.5-5.5,1.6-8.4,3.4
		c-6.4,3.9-12.1,9.2-17.5,16.2C8.6,33.4,4.4,41.4,2.1,49.8c-0.7,2.7-1.4,5.9-1,9.3c0.3,2,1.1,3.6,2.4,4.4c1.3,0.9,2.9,1.1,4.9,0.6
		c1.3-0.3,2.6-0.8,3.8-1.4c4.7-2.3,8.7-5.5,11.8-8c3.8-3.1,7.5-6.4,11.2-9.5c1.7-1.5,3.5-3,5.2-4.5c0.5-0.4,1-0.8,1.5-1.2
		c-3.8,9.2-6.7,17.5-8.7,25.6c-1,4.2-2.1,8.5-2,13.1c0,0.3,0.1,0.9,0.4,1.4c0.2,0.2,0.6,0.4,1,0.4c0.1,0,0.3,0,0.4-0.1
		c1.1-0.5,0.7-1.3,0.1-1.9c-0.4-0.4-0.1-1.5,0-1.9c0.2-1.6,0.4-3.2,0.7-4.8c1.3-6.6,3.4-13.7,6.4-21.6c0.8-2.3,1.7-4.6,2.6-6.8
		c0.6-1.6,1.3-3.2,1.9-4.8c0.1-0.4,0.2-0.8,0.2-1.2c0-0.1,0-0.2,0-0.3c2.3-0.4,4.6-0.8,7-0.4c0.8,0.1,1.3,0.3,1.5,1c0,0,0,0.1,0,0.1
		C53.4,37.2,53.5,37.8,54.3,37.8C54.3,37.8,54.3,37.8,54.3,37.8"/>
	<path class="st0" d="M59.1,34.4c1.1,0.2,2.9-0.7,1.7-2c-0.2-0.2-0.5-0.3-0.9-0.3c-0.5,0-1.2,0.6-1.5,1c-0.2,0.2-0.2,0.6-0.1,0.8
		C58.5,34.2,58.8,34.4,59.1,34.4C59.1,34.4,59.1,34.4,59.1,34.4"/>
	<path class="st0" d="M212.5,34c0.5,0.2,1.1,0.4,1.6,0.1c0.2-0.1,0.6-0.5,0.6-0.9c0-0.4-0.1-0.7-0.3-1c-0.2-0.2-0.6-0.3-0.9-0.3
		c-0.5,0.1-1.8,0.9-1.6,1.5c0,0.1,0.1,0.2,0.3,0.3C212.2,33.8,212.4,33.9,212.5,34"/>
	<path class="st0" d="M261.6,38c-0.7,1.6-3.4,2.9-3.4,2.9s-0.8,0.4-0.5-1c0.1-0.6,1.4-2,1.9-2.6c0.5-0.6,1.2-0.9,1.2-0.9
		C261.3,36.1,262.3,36.4,261.6,38 M227.2,53.2c-0.2,1-0.8,1.9-1.8,2.7c-2.5,2-5.4,3.1-9.1,3.3c-0.2,0-0.4-0.1-0.6-0.1
		c-0.5-0.1-1.1-0.2-1.6-0.3c-0.7-0.2-1.1-0.5-1.3-0.9c-0.2-0.3-0.1-0.8,0.1-1.4c0.4-1.1,1.1-2.1,1.8-2.8c2.3-2.4,5.1-4,8.3-5.8
		c0.7-0.4,1.1-0.6,1.3-0.6c0,0,0,0,0.1,0c0.2,0,0.6,0.4,1.1,1l0,0C227.1,50,227.6,51.5,227.2,53.2 M195.5,38.1
		c0.2-0.4,0.5-0.9,0.9-1.2c0.4-0.3,1.2-0.8,1.2-0.8c0.4-0.2,1,0,0,1.4c-0.7,0.9-1.9,1.2-1.9,1.2S195.1,38.9,195.5,38.1 M252.1,17.1
		c0.8-1,1.7-1.9,2.6-2.7l0.5-0.5c0.2-0.2,0.5-0.3,0.8-0.5c0,0,0,0,0.1,0c0,0,0,0.1,0,0.1c0,0.4,0,0.7,0,1c-0.5,1.3-0.9,2.7-1.6,3.9
		c-3.7,6.7-7,11.4-10.6,15.5c-0.6,0.6-1.2,1.2-1.9,1.9C244.5,29.6,247.6,22.9,252.1,17.1 M273.6,38c-0.2,0-0.5,0-0.7,0.1
		c-0.8,0.2-1.5,0.8-2.3,1.3c-1,0.7-2.1,1.3-3.2,1.9c-0.4,0.3-1,0.4-1.8,0.5c-0.6,0.1-1,0-1.1-0.2c-0.2-0.2-0.3-0.5-0.2-1.2
		c0-0.4,0-0.9,0.1-1.3c0-0.4,0.1-0.7,0.1-1.1c0-0.5,0-1-0.4-1.4c-0.1-0.1-0.3-0.2-0.5-0.3c0-0.1,0.1-0.2,0-0.4c0-0.1,0-0.2,0-0.3
		c-0.1-0.5-0.1-1.1-0.5-1.4c-0.4-0.4-1.4-0.4-1.8-0.2c-0.6,0.3-1.4,0.7-2.1,1.4c-0.6,0.6-1.1,1.3-1.6,1.9c-0.2,0.3-0.4,0.6-0.6,0.8
		c-0.1,0.1-0.1,0.1-0.2,0.2c-0.1,0.2-0.2,0.3-0.4,0.4l-0.7,0.6c-1.2,1.1-2.4,2.2-3.7,3.2c-0.4,0.3-1.3,1.3-1.8,1.2
		c-0.4-0.1-0.4-0.9-0.4-1.2c-0.1-0.6-0.1-1.3-0.2-1.9c-0.1-1-0.2-2-0.3-3.1c-0.1-0.8-0.5-1.3-1.1-1.6c-0.6-0.3-1.3-0.2-1.9,0.2
		c-0.9,0.5-1.6,1.1-2.2,1.8c-1.6,1.9-3.1,3.9-4.6,5.8c-0.3,0.3-0.5,0.7-0.8,1.1c0.6-1.9,1.3-3.8,1.9-5.8c0,0,0.1-0.1,0.2-0.2
		c2.8-2,4.8-4.5,6.8-7.2c3.2-4.2,6.8-9.2,9.5-14.7c0.4-0.9,0.8-2,1.1-3.3c0.2-0.9,0-1.6-0.5-2.1c-0.5-0.5-1.3-0.6-2.1-0.3
		c-1,0.3-1.8,0.8-2.3,1.3l-0.5,0.5c-1.5,1.7-3.1,3.4-4.4,5.3c-3.6,5.3-6.5,11.2-9,18.1c-0.4,1.1-0.9,1.7-1.8,2.1c-2,1-4,2-6,3
		c-1.4,0.7-2.8,1.4-4.2,2.1c-0.2,0.1-0.5,0.3-0.7,0.4c-0.5,0.3-1.1,0.6-1.4,0.6c-0.4-0.1-0.8-0.7-1.2-1.2c-0.1-0.2-0.3-0.4-0.4-0.6
		c-1.3-1.6-1.3-3.2,0.1-4.8c1.2-1.3,2.7-2.2,4-2.8c0.2-0.1,0.5-0.1,0.8-0.2c-0.1,0-0.4,0.5-0.5,0.6c-0.6,0.6-1.6,0.9-1.9,1.6
		c-0.1,0.2-0.1,0.5,0,0.7c0.1,0.2,0.3,0.3,0.4,0.4c0.8,0.4,1.4,0.2,2-0.4c0.7-0.7,1.5-1.2,2.1-2c1-1.1,0.6-2.9-0.8-3.4
		c-0.9-0.3-1.8,0.1-2.7,0.4c-0.9,0.3-1.7,0.7-2.5,1.2c-1.4,0.8-2.5,1.9-3.4,3.3c-0.1,0.2-0.3,0.3-0.5,0.5c-0.8,0.5-1.5,1-2.3,1.4
		c-0.7,0.5-1.5,0.9-2.2,1.4c-0.6,0.4-1.2,0.8-1.8,1.1c-0.8,0.5-1.6,1-2.4,1.5c-0.6,0.4-1.2,0.8-1.9,0.9c-0.1,0-0.3,0-0.4-0.1
		c-0.4-0.3,0.2-1.6,0.3-1.9c0.6-1.6,1.1-3.1,2.3-4.3c0.3-0.3,0.5-0.7,0.5-1.1c0-0.2-0.1-0.6-0.5-0.9c-0.9-0.7-1.6,0.2-1.8,0.5
		c-0.1,0.1-0.2,0.2-0.3,0.4c-0.2,0.3-0.5,0.7-0.8,0.8c-3.2,2.1-6.6,4.3-9.4,6.1c-0.9,0.5-1.8,1-2.8,1.3c-0.8,0.2-2,0.6-2.7,0.1
		c-0.3-0.2-0.5-0.5-0.6-0.9c-0.3-1.2,0.2-2.5,0.6-3.7c0-0.1,0.1-0.4,0.2-0.5c0.7-0.1,1.3-0.3,2-0.6c0.5-0.2,1-0.5,1.4-0.8
		c0.5-0.4,0.8-0.9,1.2-1.5c0.3-0.5,0.4-1.2,0.4-1.8c0-0.3-0.1-0.7-0.4-0.9c-0.4-0.3-1.1-0.4-1.6-0.3c-0.6,0-1.1,0.2-1.6,0.6
		c-0.5,0.4-1,0.9-1.3,1.4c-0.4,0.5-1.6,2.6-1.6,2.6c0,0-0.6-0.3-0.7-0.3c-0.4,0.2-0.9,0.7-0.5,1.2c0,0,0.3,0.2,0.4,0.2
		c0.1,0,0.2,0.1,0.4,0.1c-0.6,1.5-0.9,2.9-0.8,4.3c0.1,1.1,0.5,2,1.2,2.5c0.7,0.5,1.6,0.7,2.6,0.5c1.2-0.2,2.2-0.6,3-1
		c1.4-0.8,2.8-1.7,4.1-2.5l0.5-0.3c1.4-0.9,2.8-1.8,4.2-2.8c0.3-0.2,0.6-0.4,0.8-0.6c-0.1,0.3-0.1,0.6-0.2,0.8
		c-0.3,0.9-0.5,1.9-0.6,2.9c-0.1,0.8,0.2,1.5,0.7,1.9c0.6,0.4,1.4,0.5,2.2,0.2c0.5-0.2,0.9-0.3,1.2-0.6c1-0.7,2-1.3,3-2
		c1-0.7,2-1.3,3-2c0.7-0.5,1.4-0.9,2.2-1.4c0.1-0.1,0.3-0.2,0.4-0.3c-0.1,1.2,0.1,2.2,0.7,3.2c0.5,0.7,1,1.4,1.6,2.1
		c0.2,0.2,0.3,0.4,0.5,0.5c-0.1,0.1-0.3,0.2-0.4,0.2c-0.6,0.3-1.2,0.7-1.8,1c-1.3,0.8-2.7,1.6-4,2.4c-2.2,1.4-4,3.3-5.2,5.4
		c-0.7,1.2-0.8,2.7-0.3,3.7c0.3,0.7,1.1,1.5,2.8,1.8c0.9,0.1,1.7,0.2,2.5,0.2c4,0,7.4-1.4,10.3-4.2c2.7-2.6,2.8-5.8,0.5-8.8
		c-0.3-0.4-0.7-0.9-1-1.3l-0.2-0.2l11.5-5.6c0,0.1-0.1,0.2-0.1,0.3c-0.3,0.9-0.6,1.9-0.9,2.9c-0.4,1.6-0.8,3.3-1.3,5.5
		c-0.1,0.4,0.2,1.2,0.7,1.3c0.4,0.1,1.1-0.1,1.4-0.5c0.5-0.6,0.9-1.3,1.4-2c0,0,0.1-0.1,0.1-0.1c1.1-1.8,2.3-3.6,3.6-5.3
		c0.7-0.9,1.3-1.8,2-2.6c0.5-0.5,1-1,1.5-1.4c0.2-0.1,0.6-0.5,0.8-0.5c0.8,0.1,0.7,2,0.7,2.5c0,1.3,0.1,2.5,0.3,3.7
		c0.1,0.7,0.5,1.2,1.1,1.4c0.6,0.3,1.3,0.2,2-0.3c0.5-0.3,1-0.7,1.4-1.1l0.2-0.2c0.8-0.7,1.6-1.4,2.3-2l0.4-0.3c0,0,0,0,0,0
		c0.2,0.5,0.3,1,0.8,1.3c0.9,0.6,1.7,0,2.3-0.4c0.1,0,0.1-0.1,0.2-0.1c0.2-0.1,0.4-0.3,0.6-0.5c0.7-0.7,1.3-1.3,2-2l1.2-1.2
		c0,0,0,0.1,0,0.1c0,0.8,0,1.5,0,2.3c0.1,1.1,0.8,2,1.7,2.1c0.7,0,1.5,0.1,2.1-0.1c2-0.5,3.8-1.5,5.5-2.7c0.5-0.3,0.9-0.7,1.3-1
		c0.3-0.2,0.6-0.6,0.7-1c0-0.1,0-0.3,0-0.4C273.9,38.1,273.8,38,273.6,38z"/>
	<path class="st0" d="M191.7,37.6c0.4,0,0.5-0.2,0.6-0.3c0.2-0.3,0.1-0.7,0-1c0,0,0-0.1,0-0.1c-0.3-1.3-1.3-2.1-2.6-2.1
		c-4.3-0.1-8.7,0.5-12.9,1.5c-4,1-8.3,2.1-12,4.1l-0.5,0.2c-0.4,0.2-0.8,0.7-0.6,1.3c0.2,0.7,0.8,0.6,1.1,0.6c0.1,0,0.1,0,0.2,0
		c0.3,0,0.6-0.1,0.9-0.2c0.1,0,0.1-0.1,0.2-0.1c0.6-0.3,1.3-0.6,1.9-0.9c1.3-0.6,2.7-1.2,4.1-1.7c1.9-0.7,3.8-1.2,5.6-1.8
		c0.5-0.1,0.9-0.3,1.4-0.4c-1.3,1.1-2.5,2.2-3.8,3.4c-3.5,3.1-7.1,6.3-10.7,9.3c-4,3.4-8.2,6.4-11.8,8.9c-2.5,1.8-4.9,2.9-7.3,3.5
		c-1.5,0.3-2.7,0.2-3.6-0.4c-0.8-0.6-1.4-1.7-1.6-3.2c-0.3-2.6,0.2-5.1,0.6-7.1c1.2-4.7,3.2-9.6,6.3-15.2
		c5.3-9.6,12.6-17.8,21.7-24.2c2.6-1.8,5.4-3.2,8.2-3.9c1.7-0.5,3-0.4,3.9,0.2c1.5,1,1.5,2.8,1.4,4.3c-0.2,1.9-0.7,3.8-1.4,5.7
		c-0.9,2.4-2.1,4.7-3.1,7.1c-0.2,0.5-0.5,1.1-0.4,1.6c0.1,0.6,0.5,1.1,1.1,1c0.5-0.1,0.8-0.6,1-1.1c1-2.3,2.1-4.6,3.1-6.9
		c1.1-2.7,2.1-5.7,2-8.9c-0.1-1.9-0.8-3.4-2-4.4c-1.2-1-2.8-1.3-4.7-0.9c-2.8,0.5-5.5,1.6-8.4,3.4c-6.4,3.9-12.1,9.2-17.5,16.2
		c-6.3,8.1-10.5,16.1-12.8,24.5c-0.7,2.7-1.4,5.9-1,9.3c0.3,2,1.1,3.6,2.4,4.4c1.3,0.9,2.9,1.1,4.9,0.6c1.3-0.3,2.6-0.8,3.8-1.4
		c4.7-2.3,8.7-5.5,11.8-8c3.8-3.1,7.5-6.4,11.2-9.5c1.7-1.5,3.5-3,5.2-4.5c0.5-0.4,1-0.8,1.5-1.2c-3.8,9.2-6.7,17.5-8.7,25.6
		c-1,4.2-2.1,8.5-2,13.1c0,0.3,0.1,0.9,0.4,1.4c0.2,0.2,0.6,0.4,1,0.4c0.1,0,0.3,0,0.4-0.1c1.1-0.5,0.7-1.3,0.1-1.9
		c-0.4-0.4-0.1-1.5,0-1.9c0.2-1.6,0.4-3.2,0.7-4.8c1.3-6.6,3.4-13.7,6.4-21.6c0.8-2.3,1.7-4.6,2.6-6.8c0.6-1.6,1.3-3.2,1.9-4.8
		c0.1-0.4,0.2-0.8,0.2-1.2c0-0.1,0-0.2,0-0.3c2.3-0.4,4.6-0.8,7-0.4c0.8,0.1,1.3,0.3,1.5,1c0,0,0,0.1,0,0.1
		C190.8,37,190.8,37.6,191.7,37.6C191.7,37.6,191.7,37.6,191.7,37.6"/>
</g>
</svg>
