<?xml version="1.0" encoding="utf-8"?>
<!-- Generator: Adobe Illustrator 25.3.1, SVG Export Plug-In . SVG Version: 6.00 Build 0)  -->
<svg version="1.1" id="Logos" xmlns="http://www.w3.org/2000/svg" xmlns:xlink="http://www.w3.org/1999/xlink" x="0px" y="0px"
	 viewBox="0 0 275 82" style="enable-background:new 0 0 275 82;" xml:space="preserve">
<style type="text/css">
	.st0{fill:#FFFFFF;}
</style>
<path class="st0" d="M16.4,15.6l-2.3-1.3C12.8,16.5,3.3,32.9,3.3,32.9l11.1,19.2h3.1L6.4,32.9L16.4,15.6z"/>
<polygon class="st0" points="12.6,32.2 10.3,33.5 21.1,52.2 43.1,52.2 44.7,49.5 22.6,49.5 "/>
<path class="st0" d="M55.7,25.1L44.9,43.8h-20v2.6l21.6,0l10.8-18.7L55.7,25.1z"/>
<polygon class="st0" points="40.8,39.3 43.1,40.7 53.9,22 42.8,2.8 39.7,2.8 50.8,22 "/>
<polygon class="st0" points="44.6,22.8 46.9,21.4 36.2,2.8 14.1,2.8 12.6,5.4 34.6,5.4 "/>
<polygon class="st0" points="32.4,11.2 32.4,8.5 10.8,8.5 0,27.2 1.5,29.9 12.3,11.2 "/>
<path class="st0" d="M92.9,29.8l4.6,3.5v7.8c0,0.6-0.2,1.1-0.5,1.5c-0.4,0.5-0.9,0.9-1.4,1.3c-0.6,0.4-1.3,0.7-2,0.9
	c-0.7,0.2-1.5,0.3-2.2,0.4c-1.7,0-3.5-0.4-5-1.2c-1.5-0.8-2.7-2-3.6-3.4c-1-1.6-1.8-3.4-2.2-5.3c-0.5-2.3-0.8-4.7-0.8-7.1
	c0-2.2,0.2-4.5,0.6-6.7c0.4-1.9,1-3.8,1.9-5.5c0.8-1.5,2-2.8,3.4-3.7c1.5-0.9,3.2-1.4,5-1.4c0.5,0,1,0,1.5,0.1
	c0.6,0.1,1.1,0.2,1.7,0.3l0.2,0.1c0.9,0.4,1.7,0.8,2.4,1.4c0.7,0.5,1.3,1.1,1.9,1.8c0.5,0.6,1,1.3,1.4,2c0.4,0.6,0.7,1.3,1,2
	c0.3,0.6,0.5,1.2,0.7,1.8c0.2,0.6,0.3,1,0.5,1.4h0.5l-0.7-9.7c-1.6-0.6-3.2-1.1-4.9-1.5c-1.6-0.4-3.2-0.6-4.8-0.7
	c-0.5,0-1-0.1-1.5-0.1c-2.7,0-5.3,0.4-7.8,1.4c-2.2,0.9-4.2,2.2-5.8,3.9c-1.6,1.7-2.8,3.7-3.6,5.9c-0.9,2.4-1.3,4.8-1.3,7.3
	c0,2.5,0.4,5,1.3,7.3c1.6,4.4,5,7.8,9.4,9.5c2.4,0.9,5,1.4,7.6,1.3c1.5,0,3-0.1,4.5-0.4c1.3-0.3,2.5-0.6,3.7-1c1-0.4,2-0.8,2.9-1.4
	c0.9-0.5,1.6-1,2.2-1.4V29.5h-11V29.8z"/>
<path class="st0" d="M115.1,31.7h16.5c0-1.5-0.2-3-0.7-4.4c-0.5-1.3-1.2-2.5-2.1-3.6c-0.9-1-2.1-1.9-3.4-2.4c-1.4-0.6-3-0.9-4.6-0.9
	c-1.7,0-3.4,0.3-5,1c-1.5,0.6-2.8,1.6-3.9,2.8c-1.1,1.2-2,2.7-2.6,4.3c-0.6,1.8-0.9,3.6-0.9,5.5c0,1.7,0.3,3.4,0.8,5.1
	c0.5,1.5,1.3,2.8,2.4,4c1,1.1,2.3,2,3.7,2.6c1.5,0.6,3.2,0.9,4.8,0.9c2.6,0,4.7-0.5,6.5-1.6c1.8-1,3.3-2.5,4.4-4.2l-0.3-0.3
	c-0.4,0.4-0.9,0.7-1.4,1c-0.6,0.3-1.1,0.6-1.7,0.8c-0.7,0.2-1.3,0.4-2,0.6c-0.7,0.1-1.5,0.2-2.2,0.2c-1.2,0-2.4-0.2-3.5-0.7
	c-1-0.5-1.9-1.2-2.6-2c-0.8-1-1.3-2.1-1.7-3.3c-0.4-1.4-0.6-2.9-0.6-4.4v-0.5C115.1,32,115.1,31.8,115.1,31.7z M115.6,27
	c0.2-1.1,0.6-2.1,1.1-3c0.4-0.8,1-1.4,1.7-1.9c0.6-0.5,1.4-0.7,2.2-0.7c1.5,0,2.7,0.7,3.5,2.2c0.8,1.5,1.2,3.8,1.2,6.9L115.1,31
	C115.2,29.7,115.3,28.3,115.6,27L115.6,27z"/>
<path class="st0" d="M175.2,27.8c0-1.2-0.2-2.3-0.6-3.4c-0.4-0.9-0.9-1.7-1.6-2.3c-0.7-0.6-1.5-1.1-2.3-1.3
	c-0.9-0.3-1.8-0.4-2.7-0.4c-0.9,0-1.8,0.1-2.7,0.4c-0.8,0.2-1.6,0.6-2.4,1c-0.7,0.4-1.4,0.9-2,1.4c-0.6,0.5-1.1,1-1.7,1.6
	c-0.3-0.8-0.7-1.5-1.3-2.1c-0.5-0.5-1-1-1.7-1.4c-0.6-0.3-1.2-0.6-1.9-0.7c-1.5-0.3-3.1-0.3-4.5,0.1c-1.6,0.4-3,1.1-4.3,2.1
	c-0.6,0.5-1.1,1-1.6,1.5V24l0-3.3l-0.3-0.3l-9.2,2v0.4l3.1,1.9v18.1l-3.4,2.5v0.4h13v-0.4l-3.3-2.5l0-17.4c1.3-1.4,3.1-2.2,5.1-2.2
	c0.6,0,1.3,0.1,1.9,0.3c0.5,0.2,1,0.5,1.3,1c0.4,0.4,0.6,0.9,0.8,1.5c0.2,0.6,0.3,1.3,0.3,1.9v14.9l-3.3,2.5v0.4h12.9v-0.4l-3.3-2.5
	V28.1c0-0.4,0-0.8,0-1.2c0-0.5-0.1-0.9-0.1-1.2c0.6-0.7,1.4-1.3,2.3-1.8c0.9-0.4,1.9-0.7,2.9-0.7c0.7,0,1.3,0.1,1.9,0.3
	c0.5,0.2,1,0.5,1.3,1c0.4,0.4,0.6,0.9,0.8,1.5c0.2,0.6,0.3,1.3,0.2,1.9v15l-3.3,2.5v0.4h13v-0.4l-3.4-2.5L175.2,27.8z"/>
<polygon class="st0" points="200.9,44.6 190.9,44.6 190.9,14.1 195.1,10.8 195.1,10.4 180.4,10.4 180.4,10.8 184.1,14.1 184.1,42.2 
	180.4,45.4 180.4,45.9 206.3,45.9 207.6,36.5 207.3,36.4 "/>
<polygon class="st0" points="220,20.7 219.8,20.4 210.6,22.4 210.6,22.8 213.6,24.8 213.6,42.9 210.3,45.5 210.3,45.9 223.4,45.9 
	223.4,45.5 220,42.9 "/>
<path class="st0" d="M213.9,15.4c0.3,0.3,0.7,0.6,1.2,0.7c0.5,0.2,1,0.3,1.5,0.2c0.5,0,1-0.1,1.5-0.2c0.4-0.2,0.8-0.4,1.2-0.7
	c0.3-0.3,0.6-0.7,0.8-1.1c0.2-0.4,0.3-0.9,0.3-1.4c0-0.5-0.1-0.9-0.3-1.4c-0.2-0.4-0.4-0.8-0.8-1.1c-0.7-0.7-1.7-1-2.7-1
	c-0.5,0-1,0.1-1.5,0.3c-0.9,0.3-1.6,1-1.9,1.8c-0.2,0.4-0.3,0.9-0.3,1.4c0,0.5,0.1,1,0.3,1.4C213.3,14.7,213.6,15,213.9,15.4z"/>
<path class="st0" d="M235.1,16.6c-0.4-1-0.6-2.1-0.6-3.2c0-0.9,0.1-1.8,0.4-2.6c0.3-0.7,0.7-1.3,1.3-1.7c0.6-0.4,1.3-0.6,2-0.6
	c0.2,0,0.4,0,0.5,0.1l0.4,0.1c0.3,0.5,0.7,1,1,1.6l1,1.5c0.3,0.5,0.7,1.1,1,1.6s0.7,1.1,1.1,1.8h0.4l1-6.2c-0.8-0.4-1.7-0.7-2.6-0.9
	c-1.3-0.3-2.6-0.5-3.9-0.5c-1,0-1.9,0.1-2.9,0.3c-0.9,0.2-1.8,0.5-2.6,0.9c-0.8,0.4-1.5,0.9-2.1,1.5c-0.6,0.6-1.1,1.3-1.4,2.1
	c-0.3,0.9-0.5,1.8-0.5,2.7c0,1.1,0.2,2.2,0.6,3.3l0.8,2.6h-3.9v0.9h3.8v21.1l-3.4,2.5v0.4h13.5v-0.4l-3.7-2.5v-21h5.7V21h-5.7
	L235.1,16.6z"/>
<path class="st0" d="M264.8,41.3c-0.6,0.3-1.1,0.6-1.7,0.8c-0.7,0.2-1.3,0.4-2,0.6c-0.7,0.1-1.5,0.2-2.2,0.2c-1.2,0-2.4-0.2-3.5-0.7
	c-1-0.5-1.9-1.2-2.6-2c-0.7-1-1.3-2.1-1.6-3.3c-0.4-1.4-0.6-2.9-0.6-4.4v-0.5c0-0.1,0-0.3,0-0.4H267c0-1.5-0.2-3-0.7-4.4
	c-0.5-1.3-1.2-2.5-2.1-3.6c-0.9-1-2.1-1.9-3.4-2.4c-1.4-0.6-3-0.9-4.6-0.9c-1.7,0-3.4,0.3-5,1c-1.5,0.6-2.8,1.6-3.9,2.8
	c-1.1,1.2-2,2.7-2.5,4.3c-0.6,1.8-0.9,3.6-0.9,5.5c0,1.7,0.3,3.4,0.8,5.1c0.5,1.5,1.3,2.8,2.4,4c1,1.1,2.3,2,3.7,2.6
	c1.5,0.6,3.2,0.9,4.8,0.9c2.6,0,4.7-0.5,6.5-1.6c1.8-1,3.3-2.5,4.4-4.2l-0.3-0.3C265.7,40.7,265.3,41,264.8,41.3z M251,27
	c0.2-1.1,0.6-2.1,1.1-3c0.4-0.8,1-1.4,1.7-1.9c0.6-0.5,1.4-0.7,2.2-0.7c1.5,0,2.7,0.7,3.5,2.2c0.8,1.5,1.2,3.8,1.2,6.9L250.5,31
	C250.6,29.7,250.7,28.3,251,27z"/>
<path class="st0" d="M269.4,20.4V21h-1.2v3.2h-0.8V21h-1.2v-0.6L269.4,20.4z M273.5,24.2l-0.1-2.2c0-0.3,0-0.7,0-1.1h0
	c-0.1,0.3-0.2,0.8-0.3,1.1l-0.7,2.1h-0.8l-0.7-2.1c-0.1-0.3-0.2-0.7-0.3-1.1h0c0,0.3,0,0.7,0,1.1l-0.1,2.2h-0.7l0.3-3.8h1.1l0.7,1.8
	c0.1,0.3,0.2,0.6,0.2,1l0,0c0.1-0.3,0.2-0.7,0.3-0.9l0.7-1.9h1.1l0.3,3.8L273.5,24.2z"/>
<path class="st0" d="M28.1,66.9c3.1,0,5.5,2.5,5.6,5.5c0,3.1-2.5,5.5-5.5,5.6c-3.1,0-5.5-2.5-5.6-5.5c0,0,0,0,0,0
	c0-3,2.4-5.5,5.4-5.5C28,66.9,28,66.9,28.1,66.9z M28.1,76.3c2.1,0,3.7-1.7,3.7-3.8c0-2.2-1.5-3.8-3.7-3.8s-3.7,1.7-3.7,3.8
	C24.4,74.6,25.9,76.3,28.1,76.3z"/>
<path class="st0" d="M39.4,78L39.4,78l-5.2-10.9h2l1.4,3.2c0.6,1.5,1.2,2.6,1.7,3.9c0.5-1.1,1.1-2.5,1.7-3.9l1.4-3.2h2L39.4,78z"/>
<path class="st0" d="M46.3,77.8V67.1H53v1.6h-4.9v2.9h4.1v1.5h-4.1v3.1h5.1v1.6L46.3,77.8z"/>
<path class="st0" d="M59.2,67.1c2.4,0,4,1.2,4,3.4c0,1.4-0.8,2.6-2.1,3l2.3,4.3h-2l-2.1-4h-1.9v4h-1.8V67.1H59.2z M57.4,68.7v3.6
	h1.9c1.2,0,2-0.6,2-1.8c0-1.2-0.8-1.8-2.1-1.8L57.4,68.7z"/>
<path class="st0" d="M64.9,72.9h4.6v1.4h-4.6V72.9z"/>
<path class="st0" d="M71.5,75.7c0.7,0.5,1.5,0.7,2.4,0.7c1.3,0,2.2-0.7,2.2-2c0-1.2-1-1.9-2.3-1.9c-0.7,0-1.4,0.1-2.1,0.4l0.2-5.8
	h5.4v1.6h-3.8l-0.1,2.5c0.3-0.1,0.7-0.2,1-0.1c2,0,3.5,1.4,3.5,3.5c0,2.1-1.6,3.4-3.9,3.4c-0.9,0-1.8-0.2-2.6-0.7L71.5,75.7z"/>
<path class="st0" d="M83.9,66.9c2.6,0,4.2,2.4,4.2,5.5S86.5,78,83.9,78s-4.2-2.4-4.2-5.5S81.4,66.9,83.9,66.9z M83.9,76.3
	c1.5,0,2.3-1.5,2.3-3.8c0-2.3-0.9-3.8-2.3-3.8c-1.5,0-2.3,1.5-2.3,3.8C81.6,74.7,82.5,76.3,83.9,76.3z"/>
<path class="st0" d="M92.6,74.7c-1.4-0.4-2.3-1-2.3-2.4c0-1.3,1.1-2.2,2.8-2.2c0.8,0,1.5,0.2,2.2,0.4v1.6c-0.6-0.3-1.2-0.5-1.9-0.5
	c-0.2,0-0.5,0-0.7,0.1c-0.4,0.1-0.7,0.3-0.7,0.7c0,0.5,0.4,0.7,1.4,1c1.6,0.5,2.4,1.1,2.4,2.4c0,1.4-1.1,2.2-2.9,2.2
	c-0.9,0-1.7-0.2-2.5-0.5v-1.6c0.8,0.4,1.6,0.6,2.4,0.7c0.7,0,1.3-0.2,1.3-0.8C94,75.2,93.5,75,92.6,74.7z"/>
<path class="st0" d="M102.9,77.8V67.1h1.9v9.1h4.3v1.6H102.9z"/>
<path class="st0" d="M111.1,77.8V67.1h1.9v10.7H111.1z"/>
<path class="st0" d="M118,68.7v3h3.8v1.6H118v4.5h-1.9V67.1h6.4v1.6H118z"/>
<path class="st0" d="M124.6,77.8V67.1h6.7v1.6h-4.8v2.9h4.1v1.5h-4.1v3.1h5.1v1.6L124.6,77.8z"/>
<path class="st0" d="M133.4,77.4v-1.8c0.9,0.5,1.9,0.7,2.9,0.8c0.4,0,0.7,0,1.1-0.1c0.8-0.2,1.2-0.6,1.2-1.1c0-0.8-0.6-1.3-2.2-1.9
	c-2-0.7-3-1.5-3-3.3c0-1.9,1.6-3,3.7-3c0.9,0,1.9,0.2,2.7,0.5v1.8c-0.8-0.4-1.7-0.6-2.6-0.6c-1.2,0-2,0.5-2,1.3
	c0,0.8,0.6,1.3,2.2,1.9c2,0.7,3,1.6,3,3.3c0,1.9-1.4,3-3.8,3C135.5,78,134.4,77.8,133.4,77.4z"/>
<path class="st0" d="M146.7,68.7v9.1h-1.9v-9.1h-3.1v-1.6h8.1v1.6H146.7z"/>
<path class="st0" d="M153.1,67.1l2.7,4.7l2.7-4.7h2.1l-3.9,6.5v4.2h-1.9v-4.2l-3.9-6.5L153.1,67.1z"/>
<path class="st0" d="M162.4,77.8V67.1h1.9v9.1h4.4v1.6H162.4z"/>
<path class="st0" d="M170.7,77.8V67.1h6.7v1.6h-4.9v2.9h4.1v1.5h-4.1v3.1h5.1v1.6L170.7,77.8z"/>
<path class="st0" d="M188.4,67.1c2.4,0,4,1.2,4,3.4c0,1.4-0.8,2.6-2.1,3l2.3,4.3h-2l-2.1-4h-1.9v4h-1.8V67.1H188.4z M186.6,68.7v3.6
	h1.9c1.2,0,2-0.6,2-1.8c0-1.2-0.8-1.8-2.1-1.8L186.6,68.7z"/>
<path class="st0" d="M195,77.8V67.1h6.7v1.6h-4.9v2.9h4.1v1.5h-4.1v3.1h5.1v1.6L195,77.8z"/>
<path class="st0" d="M203.8,77.4v-1.8c0.9,0.5,1.9,0.7,2.9,0.8c0.4,0,0.7,0,1.1-0.1c0.8-0.2,1.2-0.6,1.2-1.1c0-0.8-0.6-1.3-2.2-1.9
	c-2-0.7-3-1.5-3-3.3c0-1.9,1.6-3,3.7-3c0.9,0,1.9,0.2,2.7,0.5v1.8c-0.8-0.4-1.7-0.6-2.6-0.6c-1.2,0-2,0.5-2,1.3
	c0,0.8,0.6,1.3,2.2,1.9c2,0.7,3,1.6,3,3.3c0,1.9-1.4,3-3.8,3C205.9,78,204.8,77.8,203.8,77.4z"/>
<path class="st0" d="M217.9,66.9c3.1,0,5.5,2.5,5.5,5.5c0,3.1-2.5,5.5-5.5,5.5c-3.1,0-5.5-2.5-5.5-5.5c0-3,2.4-5.5,5.4-5.5
	C217.8,66.9,217.8,66.9,217.9,66.9z M217.9,76.3c2.1,0,3.7-1.7,3.7-3.8c0-2.2-1.5-3.8-3.7-3.8s-3.7,1.7-3.7,3.8
	C214.2,74.6,215.8,76.3,217.9,76.3z"/>
<path class="st0" d="M229.6,67.1c2.4,0,4,1.2,4,3.4c0,1.4-0.8,2.6-2.1,3l2.3,4.3h-2l-2.1-4h-1.9v4H226V67.1H229.6z M227.8,68.7v3.6
	h1.9c1.2,0,2-0.6,2-1.8c0-1.2-0.8-1.8-2.1-1.8L227.8,68.7z"/>
<path class="st0" d="M240,68.7v9.1h-1.9v-9.1H235v-1.6h8.1v1.6H240z"/>
<path class="st0" d="M244.8,77.4v-1.8c0.9,0.5,1.9,0.7,2.9,0.8c0.4,0,0.7,0,1.1-0.1c0.8-0.2,1.2-0.6,1.2-1.1c0-0.8-0.6-1.3-2.2-1.9
	c-2-0.7-3-1.5-3-3.3c0-1.9,1.6-3,3.7-3c0.9,0,1.9,0.2,2.8,0.5v1.8c-0.8-0.4-1.7-0.6-2.6-0.6c-1.2,0-2,0.5-2,1.3
	c0,0.8,0.6,1.3,2.2,1.9c2,0.7,3,1.6,3,3.3c0,1.9-1.4,3-3.8,3C246.9,78,245.8,77.8,244.8,77.4z"/>
</svg>
