<?xml version="1.0" encoding="utf-8"?>
<!-- Generator: Adobe Illustrator 25.0.1, SVG Export Plug-In . SVG Version: 6.00 Build 0)  -->
<svg version="1.1" id="Layer_1" xmlns="http://www.w3.org/2000/svg" xmlns:xlink="http://www.w3.org/1999/xlink" x="0px" y="0px"
	 viewBox="0 0 640.8 211.2" style="enable-background:new 0 0 640.8 211.2;" xml:space="preserve">
<style type="text/css">
	.st0{fill:#2E1A47;}
	.st1{fill:#FF585D;}
</style>
<g>
	<g>
		<path class="st0" d="M149.7,60.3h-17.6v3h10.8l-28,68.1L87.4,63.4h9.5v-3H60.1v3h27.2l-9,21.8l27.2,65.9h5.2l36.3-87.7h2.6V60.3z
			 M163.9,79.5c5.7,0,10.1-3.9,10.1-9.9c0-5.8-4.4-9.9-10.1-10c-5.8,0-10.2,4.1-10.2,10C153.7,75.6,158.1,79.5,163.9,79.5z
			 M172.1,100.4c0-6.3-3.4-9.5-9.6-9.5h-14.7v2.9h8.2V148h-8.2v3l32.5,0v-3h-8.2V100.4z M570.5,131.2c-5.8,0-10.2,4.1-10.2,10
			c0,6,4.4,9.9,10.2,9.9c5.7,0,10.1-3.9,10.1-9.9C580.6,135.4,576.2,131.3,570.5,131.2z M230.5,89.7c-8.4,0-14.6,3.8-20.9,11.3V70.4
			c0-6.7-3.8-10.2-10.3-10.2H181v3h12.4l0,84.8h-8.2v3h31.9c21.8,0,35.7-12.9,35.7-34.1C252.8,101.1,245.1,89.7,230.5,89.7z
			 M217.1,148h-7.5v-44c4.1-4,8.3-6,13-6c7.8,0,13.1,7.1,13.1,22.8C235.7,138.3,230.6,148,217.1,148z M433.2,109.3
			c0-12.4-6.3-19.6-17.8-19.6c-7.9,0-13.8,3.2-21.2,11.6c-0.1-6.2-4.1-10.3-11.6-10.3h-12.8v2.9h8.2V148h-8.2v3H402v-3h-7.8v-43.8
			c4.4-4,8.3-6,13.8-6c6.3,0,9,3.7,9,11.6V148h-7.8v3h32.1v-3h-8.2L433.2,109.3z M473.6,90.9c-18.1,0-30.7,13.5-30.7,31.7
			c0,17.5,12.1,29.7,30,29.7c10.7,0,19-4.5,22.9-11.4v-1.5c-4.4,3.3-8.8,4.7-14.1,4.7c-14.4,0-23-10.7-23-29.7
			c0-12.8,4.9-20.3,13.4-20.3c5,0,9.1,2.4,24,14.4h0.9l-8.3-17.5H473.6z M530.9,89.7c-17.9,0-31,13-31,32.4
			c0,18.1,11.7,30.2,31.4,30.2c11.1,0,19.5-4.1,23.6-11.2v-1.6c-4.7,3.5-8.5,4.6-14.6,4.6c-14.6,0-24.2-9.4-24.4-27.4h40.3v-1.9
			C556.2,99.2,546,89.7,530.9,89.7z M515.9,113.7c0.6-13.6,6-20.9,13.9-20.9c6.9,0,10.7,6.1,10.8,20.9H515.9z M302.7,90.9
			L302.7,90.9c-8.1,0.4-13.8,4.4-18.8,12.7V101c0-5.9-4.1-10.1-11.5-10.1h-12.9v2.9h8.2l0,54.2h-8.2v3h34.3v-3h-9.9l0-41.3
			c3.8-3.3,6.6-4,14.1-4h6.6l5.6-11.8H302.7z M358.5,111.7c0-14-7.5-20.8-21.8-20.8h-20.1l-5.6,11.8l-2.7,5.7h0.9
			c2.8-2.2,5.2-4.1,7.3-5.7c1.9-1.4,3.6-2.7,5.2-3.7c6-4.1,9.3-5.2,12.7-5.2c5.4,0,7.9,2.9,7.9,9.1v12.3l-12.2,3.3
			c-16.3,4.5-23,10.7-23,19.7c0,8.8,5.5,14,14.6,14c7.9,0,14.4-3.5,20.6-11.1c0.2,5.7,4.4,9.9,11.3,9.9h13v-3h-8.2V111.7z
			 M342.3,137.5c-3.5,3.9-7.1,5.7-11.1,5.7c-4.9,0-8.3-3.3-8.3-9c0-7.3,4.9-11.7,13.3-14.2l6.1-1.8V137.5z"/>
	</g>
	<polygon class="st1" points="69.3,63.4 78.3,85.2 87.4,63.4 	"/>
</g>
</svg>
